<svg width="57" height="57" viewBox="0 0 57 57" fill="none" xmlns="http://www.w3.org/2000/svg">
<g clip-path="url(#clip0_860_9544)">
<circle cx="28.5" cy="28.5" r="27.5" fill="#FFEDE2"/>
<rect x="33" y="34" width="44" height="28" fill="url(#paint0_linear_860_9544)"/>
<g filter="url(#filter0_d_860_9544)">
<rect width="14" height="5" rx="2.5" transform="matrix(1 0 0 -1 33 71)" fill="#FFF6F0"/>
</g>
<g filter="url(#filter1_d_860_9544)">
<rect width="14" height="5" rx="2.5" transform="matrix(1 0 0 -1 51 71)" fill="#FFF6F0"/>
</g>
<rect x="10.6667" y="11.4375" width="36.125" height="36.125" rx="18.0625" fill="url(#paint1_linear_860_9544)"/>
<rect x="10.6667" y="11.4375" width="36.125" height="36.125" rx="18.0625" stroke="url(#paint2_linear_860_9544)"/>
<path d="M26.3126 37.2192H26.1931C25.9342 37.2011 25.681 37.1287 25.452 37.0062C25.2245 36.8822 25.0253 36.7138 24.8703 36.5077L19.7967 29.7699C19.5151 29.394 19.397 28.9262 19.4681 28.4653C19.5378 28.0058 19.7924 27.5909 20.1736 27.3138C20.5577 27.0381 21.0356 26.9225 21.505 26.9921C21.9758 27.0604 22.3996 27.3082 22.6827 27.6814L26.4918 32.7413C26.4932 32.7427 26.4932 32.7427 26.4946 32.7427C26.4961 32.7441 26.496 32.7441 26.4975 32.7441C26.4989 32.7441 26.4989 32.7441 26.5003 32.7441C26.5017 32.7427 26.5017 32.7427 26.5017 32.7413L34.925 24.1906C35.255 23.8565 35.7087 23.6629 36.1838 23.6546C36.6589 23.6462 37.1197 23.8231 37.4625 24.1461C37.8039 24.4691 38.0016 24.9133 38.0101 25.3784C38.0187 25.8448 37.838 26.2945 37.508 26.6287L27.5998 36.6887C27.432 36.8558 27.2328 36.9895 27.0109 37.08C26.7905 37.1719 26.5529 37.2192 26.3126 37.2192Z" fill="white"/>
</g>
<rect x="0.5" y="0.5" width="56" height="56" rx="28" stroke="url(#paint3_linear_860_9544)"/>
<defs>
<filter id="filter0_d_860_9544" x="-27" y="18" width="134" height="125" filterUnits="userSpaceOnUse" color-interpolation-filters="sRGB">
<feFlood flood-opacity="0" result="BackgroundImageFix"/>
<feColorMatrix in="SourceAlpha" type="matrix" values="0 0 0 0 0 0 0 0 0 0 0 0 0 0 0 0 0 0 127 0" result="hardAlpha"/>
<feOffset dy="12"/>
<feGaussianBlur stdDeviation="30"/>
<feComposite in2="hardAlpha" operator="out"/>
<feColorMatrix type="matrix" values="0 0 0 0 0.262745 0 0 0 0 0.278431 0 0 0 0 0.301961 0 0 0 0.17 0"/>
<feBlend mode="normal" in2="BackgroundImageFix" result="effect1_dropShadow_860_9544"/>
<feBlend mode="normal" in="SourceGraphic" in2="effect1_dropShadow_860_9544" result="shape"/>
</filter>
<filter id="filter1_d_860_9544" x="-9" y="18" width="134" height="125" filterUnits="userSpaceOnUse" color-interpolation-filters="sRGB">
<feFlood flood-opacity="0" result="BackgroundImageFix"/>
<feColorMatrix in="SourceAlpha" type="matrix" values="0 0 0 0 0 0 0 0 0 0 0 0 0 0 0 0 0 0 127 0" result="hardAlpha"/>
<feOffset dy="12"/>
<feGaussianBlur stdDeviation="30"/>
<feComposite in2="hardAlpha" operator="out"/>
<feColorMatrix type="matrix" values="0 0 0 0 0.262745 0 0 0 0 0.278431 0 0 0 0 0.301961 0 0 0 0.17 0"/>
<feBlend mode="normal" in2="BackgroundImageFix" result="effect1_dropShadow_860_9544"/>
<feBlend mode="normal" in="SourceGraphic" in2="effect1_dropShadow_860_9544" result="shape"/>
</filter>
<linearGradient id="paint0_linear_860_9544" x1="55" y1="34" x2="55" y2="62" gradientUnits="userSpaceOnUse">
<stop stop-color="#FFEFE7"/>
<stop offset="1" stop-color="white" stop-opacity="0"/>
</linearGradient>
<linearGradient id="paint1_linear_860_9544" x1="28.7292" y1="10.9375" x2="28.7292" y2="48.0625" gradientUnits="userSpaceOnUse">
<stop stop-color="#FF5C00"/>
<stop offset="1" stop-color="#FF9052"/>
</linearGradient>
<linearGradient id="paint2_linear_860_9544" x1="20.7021" y1="-36.2213" x2="28.7292" y2="48.0625" gradientUnits="userSpaceOnUse">
<stop stop-color="white"/>
<stop offset="1" stop-color="white" stop-opacity="0"/>
</linearGradient>
<linearGradient id="paint3_linear_860_9544" x1="28.5" y1="1" x2="28.5" y2="56" gradientUnits="userSpaceOnUse">
<stop stop-color="#FFD5BB"/>
<stop offset="1" stop-color="#FFD5BB" stop-opacity="0"/>
</linearGradient>
<clipPath id="clip0_860_9544">
<rect x="1" y="1" width="55" height="55" rx="27.5" fill="white"/>
</clipPath>
</defs>
</svg>
