<svg width="20" height="20" viewBox="0 0 20 20" fill="none" xmlns="http://www.w3.org/2000/svg">
<path d="M9.99996 1.6665C8.4534 1.66831 6.97069 2.30097 5.87711 3.4257C4.78352 4.55043 4.16838 6.07537 4.16663 7.66597C4.16663 9.87332 5.90145 12.3534 7.57929 14.7518C8.3899 15.9106 9.22821 17.109 9.8339 18.2326C9.85035 18.2631 9.87442 18.2885 9.90362 18.3062C9.93281 18.3238 9.96608 18.3332 9.99996 18.3332C10.0338 18.3332 10.0671 18.3238 10.0963 18.3062C10.1255 18.2885 10.1496 18.2631 10.166 18.2326C10.7717 17.109 11.61 15.9106 12.4206 14.7518C14.0985 12.3534 15.8333 9.87332 15.8333 7.66597C15.8315 6.07537 15.2164 4.55043 14.1228 3.4257C13.0292 2.30097 11.5465 1.66831 9.99996 1.6665ZM9.99996 10.2541C9.50224 10.2541 9.0157 10.1023 8.60187 9.81796C8.18803 9.53356 7.86548 9.12935 7.67501 8.65642C7.48455 8.18349 7.43471 7.6631 7.53181 7.16104C7.62891 6.65899 7.86858 6.19782 8.22052 5.83585C8.57246 5.47389 9.02086 5.22739 9.50901 5.12753C9.99717 5.02766 10.5032 5.07892 10.963 5.27481C11.4228 5.4707 11.8158 5.80243 12.0924 6.22806C12.3689 6.65368 12.5165 7.15408 12.5165 7.66597C12.5157 8.35216 12.2504 9.01003 11.7786 9.49525C11.3068 9.98046 10.6672 10.2534 9.99996 10.2541Z" fill="#D1D5DB"/>
</svg>
