<svg width="35" height="35" viewBox="0 0 35 35" fill="none" xmlns="http://www.w3.org/2000/svg">
<rect width="35" height="35" rx="17.5" fill="#FC5C2C"/>
<path d="M17.6889 10.4785C15.0685 10.4785 12.9389 12.6081 12.9389 15.2285V17.5164C12.9389 17.9993 12.7331 18.7356 12.4877 19.1473L11.5773 20.6593C11.0152 21.5935 11.4031 22.6306 12.4323 22.9789C15.8443 24.1189 19.5256 24.1189 22.9377 22.9789C23.8956 22.6623 24.3152 21.5302 23.7927 20.6593L22.8823 19.1473C22.6448 18.7356 22.4389 17.9993 22.4389 17.5164V15.2285C22.4389 12.616 20.3014 10.4785 17.6889 10.4785Z" stroke="white" stroke-width="1.22596" stroke-miterlimit="10" stroke-linecap="round"/>
<path d="M19.1534 10.7065C18.908 10.6352 18.6547 10.5798 18.3934 10.5482C17.6334 10.4532 16.9051 10.5086 16.2242 10.7065C16.4538 10.1207 17.0238 9.70898 17.6888 9.70898C18.3538 9.70898 18.9238 10.1207 19.1534 10.7065Z" stroke="white" stroke-width="1.22596" stroke-miterlimit="10" stroke-linecap="round" stroke-linejoin="round"/>
<path d="M20.0639 23.2637C20.0639 24.5699 18.9952 25.6387 17.6889 25.6387C17.0398 25.6387 16.4381 25.3695 16.0106 24.942C15.5831 24.5145 15.3139 23.9128 15.3139 23.2637" stroke="white" stroke-width="1.22596" stroke-miterlimit="10"/>
</svg>
