<svg width="35" height="35" viewBox="0 0 35 35" fill="none" xmlns="http://www.w3.org/2000/svg">
<rect width="35" height="35" rx="17.5" fill="#F8F8F8"/>
<path d="M17.6889 10.4766C15.0685 10.4766 12.9389 12.6061 12.9389 15.2266V17.5145C12.9389 17.9974 12.7331 18.7336 12.4877 19.1453L11.5773 20.6574C11.0152 21.5916 11.4031 22.6286 12.4323 22.977C15.8443 24.117 19.5256 24.117 22.9377 22.977C23.8956 22.6603 24.3152 21.5282 23.7927 20.6574L22.8823 19.1453C22.6448 18.7336 22.4389 17.9974 22.4389 17.5145V15.2266C22.4389 12.6141 20.3014 10.4766 17.6889 10.4766Z" stroke="#FC5C2C" stroke-width="1.22596" stroke-miterlimit="10" stroke-linecap="round"/>
<path d="M19.1535 10.7065C18.9081 10.6352 18.6547 10.5798 18.3935 10.5482C17.6335 10.4532 16.9052 10.5086 16.2243 10.7065C16.4539 10.1207 17.0239 9.70898 17.6889 9.70898C18.3539 9.70898 18.9239 10.1207 19.1535 10.7065Z" stroke="#FC5C2C" stroke-width="1.22596" stroke-miterlimit="10" stroke-linecap="round" stroke-linejoin="round"/>
<path d="M20.0639 23.2637C20.0639 24.5699 18.9952 25.6387 17.6889 25.6387C17.0397 25.6387 16.4381 25.3695 16.0106 24.942C15.5831 24.5145 15.3139 23.9128 15.3139 23.2637" stroke="#FC5C2C" stroke-width="1.22596" stroke-miterlimit="10"/>
</svg>
