<svg width="20" height="18" viewBox="0 0 20 18" fill="none" xmlns="http://www.w3.org/2000/svg">
<path fill-rule="evenodd" clip-rule="evenodd" d="M9.96429 2.07345C12.9039 -1.06141 17.5511 -0.470792 19.2808 2.69787C20.1905 4.36457 20.216 6.63324 18.8814 9.23246C17.5573 11.8112 14.8843 14.7471 10.3271 17.8636C10.2258 17.9536 10.0958 18.0007 9.96429 18C9.83272 18.0008 9.70271 17.9536 9.6014 17.8636C5.0442 14.7471 2.37125 11.8112 1.04718 9.23246C-0.287399 6.63323 -0.261938 4.36457 0.647823 2.69787C2.37744 -0.470797 7.02469 -1.06143 9.96429 2.07345ZM18.3291 3.22285C16.9455 0.688238 12.9196 0.0992259 10.4363 3.18821C10.403 3.24537 10.359 3.2975 10.3041 3.34099C10.2059 3.4189 10.0891 3.45706 9.97298 3.45806C9.97009 3.45813 9.96719 3.45804 9.96429 3.45806C9.96137 3.45804 9.95846 3.45813 9.95554 3.45806C9.8394 3.45706 9.7227 3.41889 9.62445 3.34099C9.56963 3.29752 9.52552 3.24545 9.49225 3.18832C7.00895 0.0992742 2.98305 0.688224 1.59953 3.22285C0.904654 4.49589 0.799497 6.37081 2.01182 8.73193C3.20067 11.0473 5.64619 13.7981 9.96424 16.7906C14.2823 13.7981 16.7279 11.0473 17.9168 8.73193C19.1291 6.37082 19.0239 4.49589 18.3291 3.22285Z" fill="#3A3E90"/>
<path d="M12.4724 3.40313C12.761 3.32194 13.0605 3.49134 13.1413 3.78153C13.5898 5.39246 13.3957 6.61808 12.8188 7.63098C12.2646 8.60392 11.3762 9.33655 10.5738 10.0063C9.74178 10.7006 8.98341 11.3409 8.48451 12.1717C8.00382 12.9721 7.74726 13.9836 8.02271 15.4499C8.07833 15.746 7.88462 16.0314 7.59006 16.0873C7.29548 16.1432 7.0116 15.9485 6.95598 15.6524C6.63434 13.9402 6.92733 12.6531 7.55513 11.6077C8.16472 10.5926 9.07376 9.83972 9.88032 9.16655C10.7165 8.46871 11.4377 7.85933 11.8767 7.08873C12.2928 6.35808 12.4753 5.43856 12.0959 4.07567C12.0151 3.78546 12.1837 3.48435 12.4724 3.40313Z" fill="#3A3E90"/>
<path d="M7.75549 3.40314C7.46681 3.32193 7.16728 3.49133 7.08648 3.78153C6.63998 5.38546 6.81334 6.59581 7.37209 7.58958C7.69925 8.17146 8.14991 8.65946 8.63061 9.09649L9.45847 8.37573C8.98668 7.95824 8.5919 7.54118 8.31717 7.05256C7.92198 6.34968 7.75062 5.44556 8.13196 4.07568C8.21275 3.78547 8.04418 3.48435 7.75549 3.40314Z" fill="#3A3E90"/>
<path d="M13.293 15.3575C13.5414 13.6536 13.2089 12.391 12.5658 11.3775C12.2874 10.9388 11.9539 10.5531 11.5998 10.2037L10.7682 10.913C11.1046 11.2365 11.4051 11.5777 11.6505 11.9645C12.1446 12.7431 12.4318 13.7382 12.2188 15.1992C12.1754 15.4974 12.3806 15.7745 12.6772 15.8182C12.9738 15.8619 13.2495 15.6556 13.293 15.3575Z" fill="#3A3E90"/>
<path d="M9.01032 4.47266C9.3101 4.47266 9.55312 4.71696 9.55312 5.01832C9.55312 5.31968 9.3101 5.56398 9.01032 5.56398L7.54475 5.56398C7.24497 5.56398 7.00195 5.31968 7.00195 5.01832C7.00195 4.71696 7.24497 4.47266 7.54475 4.47266L9.01032 4.47266Z" fill="#3A3E90"/>
<path d="M12.4297 4.47266C12.7295 4.47266 12.9726 4.71696 12.9726 5.01832C12.9726 5.31968 12.7295 5.56398 12.4297 5.56398L10.6385 5.56398C10.3387 5.56398 10.0957 5.31968 10.0957 5.01832C10.0957 4.71696 10.3387 4.47266 10.6385 4.47266L12.4297 4.47266Z" fill="#3A3E90"/>
<path d="M12.2662 6.54688C12.566 6.54688 12.809 6.79118 12.809 7.09253C12.809 7.39389 12.566 7.63819 12.2662 7.63819L10.8006 7.63819C10.5008 7.63819 10.2578 7.39389 10.2578 7.09253C10.2578 6.79118 10.5008 6.54688 10.8006 6.54688L12.2662 6.54688Z" fill="#3A3E90"/>
<path d="M9.17406 6.54687C9.47384 6.54687 9.71686 6.79117 9.71686 7.09253C9.71686 7.39389 9.47384 7.63819 9.17406 7.63819L7.92561 7.63819C7.62583 7.63819 7.38281 7.39389 7.38281 7.09253C7.38281 6.79118 7.62583 6.54687 7.92561 6.54687L9.17406 6.54687Z" fill="#3A3E90"/>
<path d="M9.60757 11.8945C9.90735 11.8945 10.1504 12.1388 10.1504 12.4402C10.1504 12.7416 9.90735 12.9859 9.60757 12.9859L8.08772 12.9859C7.78794 12.9859 7.54492 12.7416 7.54492 12.4402C7.54492 12.1388 7.78794 11.8945 8.08772 11.8945L9.60757 11.8945Z" fill="#3A3E90"/>
<path d="M8.84691 13.9141C9.14669 13.9141 9.38971 14.1584 9.38971 14.4597C9.38971 14.7611 9.14669 15.0054 8.84691 15.0054L7.59847 15.0054C7.29868 15.0054 7.05566 14.7611 7.05566 14.4597C7.05566 14.1584 7.29868 13.9141 7.59847 13.9141L8.84691 13.9141Z" fill="#3A3E90"/>
<path d="M12.5385 13.9141C12.8383 13.9141 13.0813 14.1584 13.0813 14.4597C13.0813 14.7611 12.8383 15.0054 12.5385 15.0054L10.5301 15.0054C10.2303 15.0054 9.9873 14.7611 9.9873 14.4597C9.9873 14.1584 10.2303 13.9141 10.5301 13.9141L12.5385 13.9141Z" fill="#3A3E90"/>
<path d="M12.376 11.8945C12.6758 11.8945 12.9188 12.1388 12.9188 12.4402C12.9188 12.7415 12.6758 12.9858 12.376 12.9858L11.2362 12.9859C10.9364 12.9859 10.6934 12.7416 10.6934 12.4402C10.6934 12.1388 10.9364 11.8945 11.2362 11.8945L12.376 11.8945Z" fill="#3A3E90"/>
</svg>
