<svg width="378" height="28" viewBox="0 0 378 28" fill="none" xmlns="http://www.w3.org/2000/svg">
<path d="M26.5684 8.81976V19.1798C26.5684 19.9698 27.4384 20.4498 28.1084 20.0198L36.2484 14.8398C36.8684 14.4498 36.8684 13.5498 36.2484 13.1498L28.1084 7.97976C27.4384 7.54976 26.5684 8.02976 26.5684 8.81976Z" fill="white"/>
<g clip-path="url(#clip0_522_11066)">
<rect x="62.5684" y="11.2002" width="2.35789" height="5.6" rx="1.17895" fill="white" fill-opacity="0.5"/>
<rect x="66.3262" y="11.2002" width="2.35789" height="5.6" rx="1.17895" fill="white" fill-opacity="0.5"/>
<rect x="70.084" y="11.2002" width="2.35789" height="5.6" rx="1.17895" fill="white" fill-opacity="0.5"/>
<rect x="73.8418" y="11.2002" width="2.35789" height="5.6" rx="1.17895" fill="white" fill-opacity="0.5"/>
<rect x="77.5996" y="5.01074" width="2.35789" height="17.9789" rx="1.17895" fill="white" fill-opacity="0.5"/>
<rect x="81.3574" y="5.01074" width="2.35789" height="17.9789" rx="1.17895" fill="white" fill-opacity="0.5"/>
<rect x="85.1162" y="5.01074" width="2.35789" height="17.9789" rx="1.17895" fill="white" fill-opacity="0.5"/>
<rect x="88.874" width="2.35789" height="28" rx="1.17895" fill="white" fill-opacity="0.5"/>
<rect x="92.6318" width="2.35789" height="28" rx="1.17895" fill="white" fill-opacity="0.5"/>
<rect x="96.3896" y="5.01074" width="2.35789" height="17.9789" rx="1.17895" fill="white" fill-opacity="0.5"/>
<rect x="100.147" y="5.01074" width="2.35789" height="17.9789" rx="1.17895" fill="white" fill-opacity="0.5"/>
<rect x="103.905" y="5.01074" width="2.35789" height="17.9789" rx="1.17895" fill="white" fill-opacity="0.5"/>
<rect x="107.663" y="11.7891" width="2.35789" height="4.42105" rx="1.17895" fill="white" fill-opacity="0.5"/>
<rect x="111.421" y="11.7891" width="2.35789" height="4.42105" rx="1.17895" fill="white" fill-opacity="0.5"/>
<rect x="115.179" y="11.7891" width="2.35789" height="4.42105" rx="1.17895" fill="white" fill-opacity="0.5"/>
<rect x="118.937" y="5.01074" width="2.35789" height="17.9789" rx="1.17895" fill="white" fill-opacity="0.5"/>
<rect x="122.694" y="5.01074" width="2.35789" height="17.9789" rx="1.17895" fill="white" fill-opacity="0.5"/>
<rect x="126.452" y="5.01074" width="2.35789" height="17.9789" rx="1.17895" fill="white" fill-opacity="0.5"/>
<rect x="130.211" width="2.35789" height="28" rx="1.17895" fill="white" fill-opacity="0.5"/>
<rect x="133.969" width="2.35789" height="28" rx="1.17895" fill="white" fill-opacity="0.5"/>
<rect x="137.727" width="2.35789" height="28" rx="1.17895" fill="white" fill-opacity="0.5"/>
<rect x="141.484" y="5.01074" width="2.35789" height="17.9789" rx="1.17895" fill="white" fill-opacity="0.5"/>
<rect x="145.242" y="5.01074" width="2.35789" height="17.9789" rx="1.17895" fill="white" fill-opacity="0.5"/>
<rect x="149" y="5.01074" width="2.35789" height="17.9789" rx="1.17895" fill="white" fill-opacity="0.5"/>
<rect x="152.758" y="5.01074" width="2.35789" height="17.9789" rx="1.17895" fill="white" fill-opacity="0.5"/>
<rect x="156.516" y="5.01074" width="2.35789" height="17.9789" rx="1.17895" fill="white" fill-opacity="0.5"/>
<rect x="160.273" y="5.01074" width="2.35789" height="17.9789" rx="1.17895" fill="white" fill-opacity="0.5"/>
<rect x="164.031" y="11.2002" width="2.35789" height="5.6" rx="1.17895" fill="white" fill-opacity="0.5"/>
<rect x="167.789" y="11.2002" width="2.35789" height="5.6" rx="1.17895" fill="white" fill-opacity="0.5"/>
<rect x="171.547" y="11.2002" width="2.35789" height="5.6" rx="1.17895" fill="white" fill-opacity="0.5"/>
<rect x="175.306" y="11.2002" width="2.35789" height="5.6" rx="1.17895" fill="white" fill-opacity="0.5"/>
<rect x="179.063" y="11.2002" width="2.35789" height="5.6" rx="1.17895" fill="white" fill-opacity="0.5"/>
<rect x="182.821" y="11.2002" width="2.35789" height="5.6" rx="1.17895" fill="white" fill-opacity="0.5"/>
<rect x="186.579" y="7.95801" width="2.35789" height="12.0842" rx="1.17895" fill="white" fill-opacity="0.5"/>
<rect x="190.337" y="7.95801" width="2.35789" height="12.0842" rx="1.17895" fill="white" fill-opacity="0.5"/>
<rect x="194.095" y="7.95801" width="2.35789" height="12.0842" rx="1.17895" fill="white" fill-opacity="0.5"/>
<rect x="197.853" y="7.95801" width="2.35789" height="12.0842" rx="1.17895" fill="white" fill-opacity="0.5"/>
<rect x="201.61" y="7.95801" width="2.35789" height="12.0842" rx="1.17895" fill="white" fill-opacity="0.5"/>
<rect x="205.368" y="7.95801" width="2.35789" height="12.0842" rx="1.17895" fill="white" fill-opacity="0.5"/>
<rect x="209.126" y="2.35742" width="2.35789" height="23.2842" rx="1.17895" fill="white" fill-opacity="0.5"/>
<rect x="212.884" y="2.35742" width="2.35789" height="23.2842" rx="1.17895" fill="white" fill-opacity="0.5"/>
<rect x="216.642" y="5.01074" width="2.35789" height="17.9789" rx="1.17895" fill="white" fill-opacity="0.5"/>
<rect x="220.4" y="5.01074" width="2.35789" height="17.9789" rx="1.17895" fill="white" fill-opacity="0.5"/>
<rect x="224.158" y="5.01074" width="2.35789" height="17.9789" rx="1.17895" fill="white" fill-opacity="0.5"/>
<rect x="227.916" y="7.95801" width="2.35789" height="12.0842" rx="1.17895" fill="white" fill-opacity="0.5"/>
<rect x="231.674" y="7.95801" width="2.35789" height="12.0842" rx="1.17895" fill="white" fill-opacity="0.5"/>
<rect x="235.432" y="12.3789" width="2.35789" height="3.24211" rx="1.17895" fill="white" fill-opacity="0.5"/>
<rect x="239.189" y="12.3789" width="2.35789" height="3.24211" rx="1.17895" fill="white" fill-opacity="0.5"/>
<rect x="242.947" y="5.01074" width="2.35789" height="17.9789" rx="1.17895" fill="white" fill-opacity="0.5"/>
<rect x="246.705" y="5.01074" width="2.35789" height="17.9789" rx="1.17895" fill="white" fill-opacity="0.5"/>
<rect x="250.463" y="12.3789" width="2.35789" height="3.24211" rx="1.17895" fill="white" fill-opacity="0.5"/>
<rect x="254.221" y="12.3789" width="2.35789" height="3.24211" rx="1.17895" fill="white" fill-opacity="0.5"/>
<rect x="257.979" y="7.95801" width="2.35789" height="12.0842" rx="1.17895" fill="white" fill-opacity="0.5"/>
<rect x="261.736" y="2.35742" width="2.35789" height="23.2842" rx="1.17895" fill="white" fill-opacity="0.5"/>
<rect x="265.494" y="2.35742" width="2.35789" height="23.2842" rx="1.17895" fill="white" fill-opacity="0.5"/>
<rect x="269.253" y="7.95801" width="2.35789" height="12.0842" rx="1.17895" fill="white" fill-opacity="0.5"/>
<rect x="273.011" y="7.95801" width="2.35789" height="12.0842" rx="1.17895" fill="white" fill-opacity="0.5"/>
<rect x="276.769" y="12.3789" width="2.35789" height="3.24211" rx="1.17895" fill="white" fill-opacity="0.5"/>
<rect x="280.526" y="12.3789" width="2.35789" height="3.24211" rx="1.17895" fill="white" fill-opacity="0.5"/>
<rect x="284.284" y="12.3789" width="2.35789" height="3.24211" rx="1.17895" fill="white" fill-opacity="0.5"/>
<rect x="288.042" y="12.3789" width="2.35789" height="3.24211" rx="1.17895" fill="white" fill-opacity="0.5"/>
<rect x="291.8" y="12.3789" width="2.35789" height="3.24211" rx="1.17895" fill="white" fill-opacity="0.5"/>
<rect x="295.558" y="7.95801" width="2.35789" height="12.0842" rx="1.17895" fill="white" fill-opacity="0.5"/>
<rect x="299.315" y="7.95801" width="2.35789" height="12.0842" rx="1.17895" fill="white" fill-opacity="0.5"/>
<rect x="303.073" y="12.3789" width="2.35789" height="3.24211" rx="1.17895" fill="white" fill-opacity="0.5"/>
</g>
<path d="M330.111 18.1193C329.469 18.1193 328.922 17.9446 328.471 17.5952C328.019 17.2429 327.674 16.733 327.435 16.0653C327.197 15.3949 327.077 14.5852 327.077 13.6364C327.077 12.6932 327.197 11.8878 327.435 11.2202C327.677 10.5497 328.023 10.0384 328.475 9.68608C328.93 9.33097 329.475 9.15341 330.111 9.15341C330.748 9.15341 331.292 9.33097 331.743 9.68608C332.198 10.0384 332.545 10.5497 332.783 11.2202C333.025 11.8878 333.145 12.6932 333.145 13.6364C333.145 14.5852 333.026 15.3949 332.787 16.0653C332.549 16.733 332.204 17.2429 331.752 17.5952C331.3 17.9446 330.753 18.1193 330.111 18.1193ZM330.111 17.1818C330.748 17.1818 331.242 16.875 331.594 16.2614C331.947 15.6477 332.123 14.7727 332.123 13.6364C332.123 12.8807 332.042 12.2372 331.88 11.706C331.721 11.1747 331.491 10.7699 331.189 10.4915C330.891 10.2131 330.532 10.0739 330.111 10.0739C329.481 10.0739 328.988 10.3849 328.633 11.0071C328.278 11.6264 328.1 12.5028 328.1 13.6364C328.1 14.392 328.18 15.0341 328.339 15.5625C328.498 16.0909 328.726 16.4929 329.025 16.7685C329.326 17.044 329.688 17.1818 330.111 17.1818ZM337.611 18.1193C336.969 18.1193 336.422 17.9446 335.971 17.5952C335.519 17.2429 335.174 16.733 334.935 16.0653C334.697 15.3949 334.577 14.5852 334.577 13.6364C334.577 12.6932 334.697 11.8878 334.935 11.2202C335.177 10.5497 335.523 10.0384 335.975 9.68608C336.43 9.33097 336.975 9.15341 337.611 9.15341C338.248 9.15341 338.792 9.33097 339.243 9.68608C339.698 10.0384 340.045 10.5497 340.283 11.2202C340.525 11.8878 340.645 12.6932 340.645 13.6364C340.645 14.5852 340.526 15.3949 340.287 16.0653C340.049 16.733 339.704 17.2429 339.252 17.5952C338.8 17.9446 338.253 18.1193 337.611 18.1193ZM337.611 17.1818C338.248 17.1818 338.742 16.875 339.094 16.2614C339.447 15.6477 339.623 14.7727 339.623 13.6364C339.623 12.8807 339.542 12.2372 339.38 11.706C339.221 11.1747 338.991 10.7699 338.689 10.4915C338.391 10.2131 338.032 10.0739 337.611 10.0739C336.981 10.0739 336.488 10.3849 336.133 11.0071C335.778 11.6264 335.6 12.5028 335.6 13.6364C335.6 14.392 335.68 15.0341 335.839 15.5625C335.998 16.0909 336.226 16.4929 336.525 16.7685C336.826 17.044 337.188 17.1818 337.611 17.1818ZM343.015 16.8835C342.805 16.8835 342.624 16.8082 342.474 16.6577C342.323 16.5071 342.248 16.3267 342.248 16.1165C342.248 15.9062 342.323 15.7259 342.474 15.5753C342.624 15.4247 342.805 15.3494 343.015 15.3494C343.225 15.3494 343.405 15.4247 343.556 15.5753C343.706 15.7259 343.782 15.9062 343.782 16.1165C343.782 16.2557 343.746 16.3835 343.675 16.5C343.607 16.6165 343.515 16.7102 343.398 16.7812C343.285 16.8494 343.157 16.8835 343.015 16.8835ZM343.015 12.4688C342.805 12.4688 342.624 12.3935 342.474 12.2429C342.323 12.0923 342.248 11.9119 342.248 11.7017C342.248 11.4915 342.323 11.3111 342.474 11.1605C342.624 11.0099 342.805 10.9347 343.015 10.9347C343.225 10.9347 343.405 11.0099 343.556 11.1605C343.706 11.3111 343.782 11.4915 343.782 11.7017C343.782 11.8409 343.746 11.9688 343.675 12.0852C343.607 12.2017 343.515 12.2955 343.398 12.3665C343.285 12.4347 343.157 12.4688 343.015 12.4688ZM345.569 18V17.233L348.45 14.0795C348.788 13.7102 349.067 13.3892 349.285 13.1165C349.504 12.8409 349.666 12.5824 349.771 12.3409C349.879 12.0966 349.933 11.8409 349.933 11.5739C349.933 11.267 349.859 11.0014 349.711 10.777C349.567 10.5526 349.368 10.3793 349.115 10.2571C348.862 10.1349 348.578 10.0739 348.263 10.0739C347.927 10.0739 347.635 10.1435 347.385 10.2827C347.138 10.419 346.946 10.6108 346.809 10.858C346.676 11.1051 346.609 11.3949 346.609 11.7273H345.604C345.604 11.2159 345.721 10.767 345.957 10.3807C346.193 9.99432 346.514 9.69318 346.92 9.47727C347.329 9.26136 347.788 9.15341 348.297 9.15341C348.808 9.15341 349.261 9.26136 349.656 9.47727C350.051 9.69318 350.361 9.98437 350.585 10.3509C350.809 10.7173 350.922 11.125 350.922 11.5739C350.922 11.8949 350.863 12.2088 350.747 12.5156C350.633 12.8196 350.434 13.1591 350.15 13.5341C349.869 13.9062 349.479 14.3608 348.979 14.8977L347.018 16.9943V17.0625H351.075V18H345.569ZM355.682 18.1193C355.04 18.1193 354.493 17.9446 354.041 17.5952C353.589 17.2429 353.244 16.733 353.006 16.0653C352.767 15.3949 352.648 14.5852 352.648 13.6364C352.648 12.6932 352.767 11.8878 353.006 11.2202C353.247 10.5497 353.594 10.0384 354.045 9.68608C354.5 9.33097 355.045 9.15341 355.682 9.15341C356.318 9.15341 356.862 9.33097 357.314 9.68608C357.768 10.0384 358.115 10.5497 358.354 11.2202C358.595 11.8878 358.716 12.6932 358.716 13.6364C358.716 14.5852 358.596 15.3949 358.358 16.0653C358.119 16.733 357.774 17.2429 357.322 17.5952C356.871 17.9446 356.324 18.1193 355.682 18.1193ZM355.682 17.1818C356.318 17.1818 356.812 16.875 357.165 16.2614C357.517 15.6477 357.693 14.7727 357.693 13.6364C357.693 12.8807 357.612 12.2372 357.45 11.706C357.291 11.1747 357.061 10.7699 356.76 10.4915C356.461 10.2131 356.102 10.0739 355.682 10.0739C355.051 10.0739 354.558 10.3849 354.203 11.0071C353.848 11.6264 353.67 12.5028 353.67 13.6364C353.67 14.392 353.75 15.0341 353.909 15.5625C354.068 16.0909 354.297 16.4929 354.595 16.7685C354.896 17.044 355.258 17.1818 355.682 17.1818Z" fill="white"/>
<defs>
<clipPath id="clip0_522_11066">
<rect width="242.863" height="28" fill="white" transform="translate(62.5684)"/>
</clipPath>
</defs>
</svg>
