<svg width="21" height="21" viewBox="0 0 21 21" fill="none" xmlns="http://www.w3.org/2000/svg">
<path d="M17.4563 18.375C15.575 18.375 13.7413 17.9556 11.9551 17.1168C10.1684 16.2785 8.58608 15.1702 7.20825 13.7917C5.82983 12.4139 4.7215 10.8316 3.88325 9.04488C3.04442 7.25871 2.625 5.425 2.625 3.54375C2.625 3.28125 2.7125 3.0625 2.8875 2.8875C3.0625 2.7125 3.28125 2.625 3.54375 2.625H7.0875C7.29167 2.625 7.47396 2.69062 7.63438 2.82187C7.79479 2.95312 7.88958 3.12083 7.91875 3.325L8.4875 6.3875C8.51667 6.59167 8.51317 6.77746 8.477 6.94487C8.44025 7.11287 8.35625 7.2625 8.225 7.39375L6.125 9.5375C6.7375 10.5875 7.50313 11.5719 8.42188 12.4906C9.34062 13.4094 10.3542 14.2042 11.4625 14.875L13.5188 12.8187C13.65 12.6875 13.8215 12.5889 14.0332 12.523C14.2444 12.4577 14.4521 12.4396 14.6562 12.4688L17.675 13.0813C17.8792 13.125 18.0469 13.2233 18.1781 13.3761C18.3094 13.5295 18.375 13.7083 18.375 13.9125V17.4563C18.375 17.7188 18.2875 17.9375 18.1125 18.1125C17.9375 18.2875 17.7188 18.375 17.4563 18.375Z" fill="white"/>
</svg>
