<svg width="22" height="18" viewBox="0 0 22 18" fill="none" xmlns="http://www.w3.org/2000/svg">
<path fill-rule="evenodd" clip-rule="evenodd" d="M12.8879 0C13.4368 0 13.9656 0.195587 14.369 0.547813L15.7755 1.77608C16.1285 2.08428 16.5774 2.27255 17.0519 2.3148L17.2566 2.3239H17.9041C20.0145 2.3239 21.7253 3.94236 21.7253 5.93885V14.2016C21.7253 16.1981 20.0145 17.8165 17.9041 17.8165H4.25676C2.14635 17.8165 0.435516 16.1981 0.435516 14.2016V5.93885C0.435516 3.94236 2.14635 2.3239 4.25676 2.3239H4.90423C5.45316 2.3239 5.98195 2.12831 6.3853 1.77608L7.79186 0.547813C8.19522 0.195587 8.72401 0 9.27293 0H12.8879ZM11.081 4.45426C8.03423 4.45426 5.56435 6.81103 5.56435 9.71824C5.56435 12.6255 8.03423 14.9822 11.081 14.9822C14.1278 14.9822 16.5976 12.6255 16.5976 9.71824C16.5976 6.81103 14.1278 4.45426 11.081 4.45426ZM11.0803 6.10722C13.1896 6.10722 14.8996 7.73882 14.8996 9.75151C14.8996 11.7642 13.1896 13.3958 11.0803 13.3958C8.97104 13.3958 7.26112 11.7642 7.26112 9.75151C7.26112 7.73882 8.97104 6.10722 11.0803 6.10722Z" fill="#FC5C2C"/>
</svg>
