<svg width="24" height="24" viewBox="0 0 24 24" fill="none" xmlns="http://www.w3.org/2000/svg">
<path d="M7.80957 2.5H16.1904C17.9108 2.50008 19.2233 3.01135 20.1045 3.89355C20.9856 4.77581 21.495 6.08836 21.4902 7.80859V16.1904C21.4901 17.9107 20.9792 19.2239 20.0967 20.1064C19.2141 20.9891 17.9003 21.5 16.1797 21.5H7.80957C6.08923 21.4999 4.77604 20.9891 3.89355 20.1055C3.01097 19.2217 2.5 17.9056 2.5 16.1797V7.80957C2.50009 6.08922 3.011 4.77611 3.89355 3.89355C4.77611 3.011 6.08922 2.50009 7.80957 2.5ZM8.74023 11.2695C7.8242 11.2695 7.08025 12.0137 7.08008 12.9297V16.1904C7.08031 17.1064 7.82424 17.8496 8.74023 17.8496C9.66332 17.8495 10.4099 17.1091 10.4102 16.1904V12.9297C10.41 12.011 9.66336 11.2697 8.74023 11.2695ZM15.2598 6.15039C14.3367 6.15052 13.5901 6.89091 13.5898 7.80957V16.1904C13.5901 17.1091 14.3367 17.8495 15.2598 17.8496C16.1758 17.8496 16.9197 17.1064 16.9199 16.1904V7.80957C16.9197 6.89363 16.1758 6.15039 15.2598 6.15039Z" fill="#D1D5DB" stroke="#D1D5DB"/>
</svg>
