<svg width="94" height="85" viewBox="0 0 94 85" fill="none" xmlns="http://www.w3.org/2000/svg">
<path fill-rule="evenodd" clip-rule="evenodd" d="M46.7951 9.73729C60.5999 -4.98458 82.4243 -2.21093 90.5469 12.6697C94.8192 20.4968 94.9388 31.1509 88.6714 43.3573C82.4533 55.4676 69.9005 69.255 48.499 83.8906C48.0233 84.3132 47.4129 84.5348 46.7951 84.5312C46.1772 84.5348 45.5667 84.3133 45.0909 83.8906C23.6895 69.2551 11.1368 55.4675 4.91874 43.3573C-1.3487 31.1508 -1.22913 20.4968 3.04327 12.6697C11.1659 -2.21095 32.9902 -4.98466 46.7951 9.73729ZM86.0775 15.1351C79.5802 3.23209 60.6737 0.465983 49.0116 14.9724C48.8553 15.2409 48.6485 15.4856 48.391 15.6899C47.9296 16.0558 47.3814 16.235 46.8359 16.2397C46.8223 16.24 46.8087 16.2396 46.7951 16.2397C46.7814 16.2396 46.7677 16.24 46.754 16.2397C46.2086 16.235 45.6605 16.0557 45.1992 15.6899C44.9417 15.4857 44.7345 15.2412 44.5783 14.9729C32.9163 0.46621 14.0099 3.23202 7.51265 15.1351C4.24939 21.1135 3.75556 29.9185 9.44886 41.0067C15.0319 51.8802 26.5165 64.7983 46.7948 78.8519C67.0733 64.7982 78.5582 51.8803 84.1413 41.0067C89.8346 29.9185 89.3407 21.1135 86.0775 15.1351Z" fill="#D9D9D9"/>
<path d="M58.5784 15.9822C59.934 15.6008 61.3405 16.3964 61.7199 17.7591C63.8259 25.3244 62.9146 31.0801 60.2052 35.8369C57.6027 40.406 53.4305 43.8466 49.6623 46.9916C45.7551 50.2526 42.1937 53.2594 39.8508 57.1608C37.5933 60.9199 36.3885 65.6699 37.682 72.5559C37.9432 73.9466 37.0336 75.2867 35.6502 75.5494C34.2669 75.812 32.9337 74.8975 32.6725 73.5069C31.162 65.4662 32.5379 59.4217 35.4862 54.5122C38.3489 49.7451 42.618 46.2095 46.4057 43.0482C50.3323 39.771 53.7195 36.9093 55.7808 33.2904C57.7353 29.8591 58.5921 25.5409 56.8104 19.1405C56.431 17.7776 57.2226 16.3635 58.5784 15.9822Z" fill="#D9D9D9"/>
<path d="M36.421 15.9822C35.0653 15.6008 33.6586 16.3963 33.2792 17.7592C31.1824 25.2915 31.9965 30.9755 34.6205 35.6425C36.1569 38.3751 38.2733 40.6668 40.5307 42.7192L44.4185 39.3344C42.2029 37.3738 40.3489 35.4152 39.0587 33.1205C37.2029 29.8197 36.3981 25.5738 38.189 19.1405C38.5684 17.7777 37.7768 16.3636 36.421 15.9822Z" fill="#D9D9D9"/>
<path d="M62.426 72.1218C63.5925 64.1201 62.031 58.191 59.0109 53.4314C57.7035 51.3711 56.1374 49.5598 54.4744 47.9188L50.5691 51.2501C52.1492 52.7689 53.5603 54.3714 54.7128 56.1876C57.0331 59.8443 58.3817 64.5177 57.3816 71.3786C57.1775 72.7788 58.1412 74.0805 59.5341 74.2857C60.9271 74.4908 62.2219 73.522 62.426 72.1218Z" fill="#D9D9D9"/>
<path d="M42.3164 21.0117C43.7242 21.0117 44.8655 22.159 44.8655 23.5742C44.8655 24.9895 43.7242 26.1368 42.3164 26.1368L35.4339 26.1368C34.026 26.1368 32.8848 24.9895 32.8848 23.5742C32.8848 22.159 34.026 21.0117 35.4339 21.0117L42.3164 21.0117Z" fill="#D9D9D9"/>
<path d="M58.3752 21.0117C59.783 21.0117 60.9243 22.159 60.9243 23.5742C60.9243 24.9895 59.783 26.1368 58.3752 26.1368L49.9632 26.1368C48.5553 26.1368 47.4141 24.9895 47.4141 23.5742C47.4141 22.159 48.5553 21.0117 49.9632 21.0117L58.3752 21.0117Z" fill="#D9D9D9"/>
<path d="M57.6123 30.75C59.0201 30.75 60.1614 31.8973 60.1614 33.3125C60.1614 34.7278 59.0201 35.875 57.6123 35.875L50.7298 35.875C49.3219 35.875 48.1807 34.7278 48.1807 33.3125C48.1807 31.8973 49.3219 30.75 50.7298 30.75L57.6123 30.75Z" fill="#D9D9D9"/>
<path d="M43.078 30.75C44.4858 30.75 45.6271 31.8973 45.6271 33.3125C45.6271 34.7278 44.4858 35.875 43.078 35.875L37.2151 35.875C35.8073 35.875 34.666 34.7278 34.666 33.3125C34.666 31.8973 35.8073 30.75 37.2151 30.75L43.078 30.75Z" fill="#D9D9D9"/>
<path d="M45.1192 55.8633C46.527 55.8633 47.6683 57.0106 47.6683 58.4258C47.6683 59.841 46.527 60.9883 45.1192 60.9883L37.9817 60.9883C36.5739 60.9883 35.4326 59.841 35.4326 58.4258C35.4326 57.0106 36.5739 55.8633 37.9817 55.8633L45.1192 55.8633Z" fill="#D9D9D9"/>
<path d="M41.5507 65.3438C42.9585 65.3438 44.0998 66.491 44.0998 67.9063C44.0998 69.3215 42.9585 70.4688 41.5507 70.4688L35.6878 70.4688C34.2799 70.4688 33.1387 69.3215 33.1387 67.9063C33.1387 66.491 34.2799 65.3438 35.6878 65.3438L41.5507 65.3438Z" fill="#D9D9D9"/>
<path d="M58.888 65.3438C60.2958 65.3438 61.4371 66.491 61.4371 67.9063C61.4371 69.3215 60.2958 70.4688 58.888 70.4688L49.4563 70.4688C48.0485 70.4688 46.9072 69.3215 46.9072 67.9063C46.9072 66.491 48.0485 65.3438 49.4563 65.3438L58.888 65.3438Z" fill="#D9D9D9"/>
<path d="M58.1229 55.8633C59.5307 55.8633 60.672 57.0106 60.672 58.4258C60.672 59.841 59.5307 60.9883 58.1229 60.9883L52.7698 60.9883C51.362 60.9883 50.2207 59.841 50.2207 58.4258C50.2207 57.0106 51.362 55.8633 52.7698 55.8633L58.1229 55.8633Z" fill="#D9D9D9"/>
</svg>
