<svg width="24" height="24" viewBox="0 0 24 24" fill="none" xmlns="http://www.w3.org/2000/svg">
<path d="M12.3564 2.80078C17.4259 2.80079 21.536 6.91109 21.5361 11.9805C21.5361 17.05 17.426 21.1611 12.3564 21.1611H2.58984C2.55188 21.1611 2.52283 21.1496 2.5 21.127C2.4995 21.1174 2.50038 21.1085 2.50195 21.1006C2.5039 21.091 2.50763 21.0798 2.51367 21.0674L2.54102 21.0264L5.06934 18.2402L5.35156 17.9297L5.09375 17.5977C3.8619 16.0095 3.17676 14.0076 3.17676 11.9805C3.17693 6.91108 7.28702 2.80078 12.3564 2.80078ZM9.09082 12.7236C8.49644 12.7237 8.0127 13.2073 8.0127 13.8018C8.01284 14.396 8.4965 14.8798 9.09082 14.8799H15.4189C16.0131 14.8796 16.4959 14.3959 16.4961 13.8018C16.4961 13.2075 16.0132 12.7239 15.4189 12.7236H9.09082ZM9.09082 9.08203C8.49643 9.0821 8.0127 9.56575 8.0127 10.1602C8.01274 10.7545 8.49644 11.2382 9.09082 11.2383H15.4189C16.0131 11.238 16.496 10.7544 16.4961 10.1602C16.4961 9.56587 16.0132 9.08228 15.4189 9.08203H9.09082Z" fill="white" stroke="white"/>
</svg>
