<svg width="48" height="51" viewBox="0 0 48 51" fill="none" xmlns="http://www.w3.org/2000/svg">
<rect y="3" width="48" height="48" rx="24" fill="#FC5C2C"/>
<path d="M12.5123 23.9987H14.0354C14.3192 23.9987 14.5779 23.8824 14.7628 23.6965C14.9454 23.5138 15.0596 23.2659 15.0661 22.9724V18.5051H10.5V22.9668C10.5 23.2506 10.6163 23.5093 10.8022 23.6952C10.9892 23.8822 11.248 23.9986 11.5317 23.9986L12.5123 23.9987ZM20.5955 17.603L21.1836 13.5H17.9688L16.2032 17.603H20.5955ZM26.2576 13.5L26.8457 17.603H31.239L29.4723 13.5H26.2576ZM25.9358 17.603L25.3476 13.5H22.0957L21.5065 17.603H25.9358ZM15.2217 17.603L16.9872 13.5H13.8715L10.9286 17.603H15.2217ZM30.4551 13.5L32.2218 17.603H36.5151L33.5722 13.5H30.4551ZM34.4668 24.9013H33.4068C32.8762 24.9013 32.3924 24.6838 32.0413 24.3316C32 24.2914 31.9608 24.2479 31.9239 24.2033C31.8869 24.2468 31.8488 24.2892 31.8075 24.3305C31.4553 24.6827 30.9715 24.9002 30.4409 24.9002H27.9382C27.4218 24.9002 26.9489 24.6936 26.5999 24.3577L26.5717 24.3316C26.5314 24.2914 26.4923 24.249 26.4553 24.2044C26.4184 24.249 26.3792 24.2914 26.3379 24.3327C25.9879 24.6828 25.5041 24.9002 24.9713 24.9002H22.4686C21.9392 24.9002 21.4554 24.6828 21.1032 24.3305C21.0608 24.2892 21.0227 24.2468 20.9857 24.2022C20.9488 24.2468 20.9107 24.2881 20.8683 24.3305C20.5161 24.6828 20.0323 24.9002 19.5028 24.9002H17.0002C16.4837 24.9002 16.0108 24.6936 15.6618 24.3577L15.6336 24.3316C15.5923 24.2903 15.5531 24.2479 15.5162 24.2033C15.4792 24.2468 15.4401 24.2892 15.3987 24.3316C15.0465 24.6828 14.5638 24.9002 14.0343 24.9002H12.9743V37.579C12.9743 38.1073 13.1907 38.5879 13.5386 38.9358C13.8865 39.2837 14.367 39.5 14.8954 39.5H15.7956V30.6122H21.7738V39.5H32.5444C33.0728 39.5 33.5544 39.2837 33.9023 38.9358C34.2502 38.5879 34.4665 38.1062 34.4665 37.5779V24.8991L34.4668 24.9013ZM36.9422 18.5055H32.3762V22.9859C32.3827 23.2653 32.4979 23.5132 32.6795 23.6958C32.8654 23.8828 33.1231 23.9991 33.4068 23.9991H35.9095C36.1932 23.9991 36.4509 23.8828 36.6379 23.6958C36.8249 23.5088 36.9412 23.2501 36.9412 22.9674V18.5057L36.9422 18.5055ZM31.4739 18.5055H26.9078V22.9859C26.9143 23.2653 27.0296 23.5132 27.2209 23.7056C27.4144 23.8904 27.6645 23.9991 27.9395 23.9991H30.4422C30.7259 23.9991 30.9847 23.8828 31.1706 23.6969C31.3533 23.5143 31.4674 23.2664 31.4739 22.9728L31.4739 18.5055ZM26.0055 18.5055H21.4394V22.9859C21.4459 23.2675 21.5612 23.5153 21.7416 23.6958C21.9286 23.8828 22.1874 23.9991 22.4711 23.9991H24.9738C25.2576 23.9991 25.5152 23.8828 25.7022 23.6958C25.8838 23.5143 25.999 23.2653 26.0055 22.9739L26.0055 18.5055ZM20.5371 18.5055H15.971V22.9859C15.9775 23.2653 16.0928 23.5132 16.2841 23.7056C16.4776 23.8904 16.7277 23.9991 17.0027 23.9991H19.5054C19.7892 23.9991 20.0479 23.8828 20.2328 23.6969C20.4154 23.5143 20.5296 23.2664 20.5361 22.9728V18.5056L20.5371 18.5055ZM24.603 27.8336H31.647V33.0237H24.603V27.8336Z" fill="white"/>
<circle cx="41" cy="7" r="6" fill="#45B369" stroke="white" stroke-width="2"/>
</svg>
