<svg width="31" height="28" viewBox="0 0 31 28" fill="none" xmlns="http://www.w3.org/2000/svg">
<path fill-rule="evenodd" clip-rule="evenodd" d="M15.5 3.22537C20.0727 -1.65109 27.3018 -0.732344 29.9923 4.19668C31.4075 6.78933 31.4471 10.3184 29.3711 14.3616C27.3114 18.373 23.1534 22.9399 16.0644 27.7878C15.9068 27.9278 15.7046 28.0012 15.5 28C15.2953 28.0012 15.0931 27.9278 14.9355 27.7878C7.84654 22.9399 3.68862 18.373 1.62895 14.3616C-0.447066 10.3184 -0.407458 6.78933 1.00772 4.19668C3.69824 -0.732351 10.9273 -1.65111 15.5 3.22537ZM28.5119 5.01332C26.3597 1.07059 20.0971 0.154351 16.2342 4.95945C16.1824 5.04836 16.1139 5.12944 16.0286 5.19709C15.8758 5.31829 15.6942 5.37765 15.5135 5.37921C15.509 5.37931 15.5045 5.37917 15.5 5.37921C15.4955 5.37917 15.4909 5.37931 15.4864 5.37921C15.3057 5.37764 15.1242 5.31827 14.9714 5.19709C14.8861 5.12947 14.8175 5.04848 14.7657 4.95961C10.9028 0.154427 4.64031 1.07057 2.48815 5.01332C1.40724 6.9936 1.24366 9.91015 3.1295 13.583C4.97882 17.1847 8.78296 21.4637 15.4999 26.1188C22.2169 21.4636 26.0212 17.1847 27.8705 13.583C29.7563 9.91017 29.5928 6.9936 28.5119 5.01332Z" fill="white"/>
<path d="M19.4032 5.29333C19.8522 5.16702 20.3181 5.43054 20.4438 5.88194C21.1414 8.38784 20.8395 10.2944 19.942 11.87C19.08 13.3834 17.698 14.5231 16.4498 15.5648C15.1556 16.645 13.9759 17.641 13.1999 18.9333C12.4521 20.1784 12.053 21.7518 12.4815 24.0327C12.568 24.4934 12.2667 24.9373 11.8085 25.0243C11.3503 25.1113 10.9087 24.8084 10.8221 24.3477C10.3218 21.6844 10.7776 19.6822 11.7542 18.056C12.7024 16.4769 14.1165 15.3058 15.3711 14.2587C16.6718 13.1731 17.7937 12.2252 18.4765 11.0265C19.1239 9.88992 19.4077 8.45956 18.8176 6.3395C18.6919 5.88806 18.9541 5.41966 19.4032 5.29333Z" fill="white"/>
<path d="M12.0639 5.29334C11.6148 5.16701 11.1489 5.43053 11.0232 5.88195C10.3286 8.37695 10.5983 10.2597 11.4675 11.8056C11.9764 12.7107 12.6774 13.4698 13.4252 14.1497L14.713 13.0285C13.9791 12.3791 13.365 11.7303 12.9376 10.9702C12.3229 9.87684 12.0563 8.47044 12.6495 6.33951C12.7752 5.88807 12.513 5.41967 12.0639 5.29334Z" fill="white"/>
<path d="M20.6777 23.8889C21.0641 21.2385 20.5469 19.2745 19.5465 17.698C19.1135 17.0155 18.5947 16.4155 18.0439 15.872L16.7503 16.9754C17.2737 17.4785 17.7411 18.0093 18.1228 18.6109C18.8914 19.8222 19.3381 21.3702 19.0068 23.6427C18.9392 24.1066 19.2584 24.5377 19.7198 24.6057C20.1812 24.6737 20.6101 24.3528 20.6777 23.8889Z" fill="white"/>
<path d="M14.0167 6.96094C14.483 6.96094 14.8611 7.34096 14.8611 7.80974C14.8611 8.27852 14.483 8.65854 14.0167 8.65854L11.7369 8.65854C11.2706 8.65854 10.8926 8.27852 10.8926 7.80974C10.8926 7.34096 11.2706 6.96094 11.7369 6.96094L14.0167 6.96094Z" fill="white"/>
<path d="M19.3358 6.96094C19.8021 6.96094 20.1802 7.34096 20.1802 7.80974C20.1802 8.27852 19.8021 8.65854 19.3358 8.65854L16.5494 8.65854C16.0831 8.65854 15.7051 8.27852 15.7051 7.80974C15.7051 7.34096 16.0831 6.96094 16.5494 6.96094L19.3358 6.96094Z" fill="white"/>
<path d="M19.0821 10.1875C19.5485 10.1875 19.9265 10.5675 19.9265 11.0363C19.9265 11.5051 19.5485 11.8851 19.0821 11.8851L16.8024 11.8851C16.336 11.8851 15.958 11.5051 15.958 11.0363C15.958 10.5675 16.336 10.1875 16.8024 10.1875L19.0821 10.1875Z" fill="white"/>
<path d="M14.2698 10.1875C14.7361 10.1875 15.1141 10.5675 15.1141 11.0363C15.1141 11.5051 14.7361 11.8851 14.2698 11.8851L12.3278 11.8851C11.8614 11.8851 11.4834 11.5051 11.4834 11.0363C11.4834 10.5675 11.8614 10.1875 12.3278 10.1875L14.2698 10.1875Z" fill="white"/>
<path d="M14.9449 18.5039C15.4112 18.5039 15.7892 18.8839 15.7892 19.3527C15.7892 19.8215 15.4112 20.2015 14.9449 20.2015L12.5807 20.2015C12.1144 20.2015 11.7363 19.8215 11.7363 19.3527C11.7363 18.8839 12.1144 18.5039 12.5807 18.5039L14.9449 18.5039Z" fill="white"/>
<path d="M13.7629 21.6445C14.2293 21.6445 14.6073 22.0246 14.6073 22.4933C14.6073 22.9621 14.2293 23.3421 13.7629 23.3421L11.8209 23.3421C11.3546 23.3421 10.9766 22.9621 10.9766 22.4933C10.9766 22.0246 11.3546 21.6445 11.8209 21.6445L13.7629 21.6445Z" fill="white"/>
<path d="M19.5046 21.6445C19.9709 21.6445 20.349 22.0246 20.349 22.4933C20.349 22.9621 19.9709 23.3421 19.5046 23.3421L16.3805 23.3421C15.9142 23.3421 15.5361 22.9621 15.5361 22.4933C15.5361 22.0246 15.9142 21.6445 16.3805 21.6445L19.5046 21.6445Z" fill="white"/>
<path d="M19.2513 18.5039C19.7176 18.5039 20.0957 18.8839 20.0957 19.3527C20.0957 19.8215 19.7176 20.2015 19.2513 20.2015L17.4781 20.2015C17.0118 20.2015 16.6338 19.8215 16.6338 19.3527C16.6338 18.8839 17.0118 18.5039 17.4781 18.5039L19.2513 18.5039Z" fill="white"/>
</svg>
