<svg width="21" height="21" viewBox="0 0 21 21" fill="none" xmlns="http://www.w3.org/2000/svg">
<path d="M2.23909 19.0315H10.3431C14.7786 19.0315 18.375 15.4352 18.375 10.9996C18.375 6.56413 14.7786 2.96777 10.3431 2.96777C5.90761 2.96777 2.31125 6.56413 2.31125 10.9996C2.31125 12.7735 2.91065 14.5238 3.98955 15.9147L1.8795 18.2401C1.75962 18.3844 1.71185 18.5754 1.78397 18.7674C1.8795 18.935 2.04711 19.0315 2.23909 19.0315ZM7.63363 9.00942H12.8838C13.148 9.00942 13.3634 9.22483 13.3634 9.48894C13.3634 9.75304 13.1479 9.96845 12.8838 9.96845H7.63363C7.36951 9.96845 7.15411 9.75304 7.15411 9.48894C7.15411 9.22483 7.36952 9.00942 7.63363 9.00942ZM7.63363 12.0308H12.8838C13.148 12.0308 13.3634 12.2463 13.3634 12.5104C13.3634 12.7745 13.1479 12.9899 12.8838 12.9899H7.63363C7.36951 12.9899 7.15411 12.7745 7.15411 12.5104C7.15411 12.2462 7.36952 12.0308 7.63363 12.0308Z" fill="white"/>
</svg>
