<svg width="24" height="24" viewBox="0 0 24 24" fill="none" xmlns="http://www.w3.org/2000/svg">
<path d="M2.58945 21.6608H12.3564C17.7021 21.6608 22.0364 17.3265 22.0364 11.9808C22.0364 6.63511 17.7021 2.30078 12.3564 2.30078C7.01075 2.30078 2.67642 6.63511 2.67642 11.9808C2.67642 14.1186 3.39881 16.2281 4.69911 17.9044L2.15607 20.707C2.01159 20.8808 1.95403 21.1111 2.04094 21.3425C2.15607 21.5445 2.35808 21.6608 2.58945 21.6608ZM9.09094 9.58216H15.4185C15.7368 9.58216 15.9964 9.84177 15.9964 10.1601C15.9964 10.4784 15.7368 10.738 15.4185 10.738H9.09094C8.77262 10.738 8.51303 10.4784 8.51303 10.1601C8.51303 9.84177 8.77264 9.58216 9.09094 9.58216ZM9.09094 13.2236H15.4185C15.7368 13.2236 15.9964 13.4832 15.9964 13.8015C15.9964 14.1198 15.7368 14.3794 15.4185 14.3794H9.09094C8.77262 14.3794 8.51303 14.1198 8.51303 13.8015C8.51303 13.4832 8.77264 13.2236 9.09094 13.2236Z" fill="#D1D5DB"/>
</svg>
