<svg width="60" height="60" viewBox="0 0 60 60" fill="none" xmlns="http://www.w3.org/2000/svg">
<path d="M46.3583 16.9538H46.3571C46.3619 16.8416 46.3661 16.7291 46.3661 16.6157C46.3661 12.0659 42.5287 8.12207 37.795 8.12207C34.3341 8.12207 31.3543 10.3503 30.0011 13.1887H29.9994C28.6461 10.3502 25.6664 8.12207 22.2054 8.12207C17.4717 8.12207 13.6343 12.0659 13.6343 16.6157C13.6343 16.7291 13.6385 16.8416 13.6432 16.9538H13.6421C13.6421 16.9538 13.1583 22.3586 19.1731 28.2596C21.9078 30.9997 24.9663 33.6037 30.0002 37.6954C35.0341 33.6037 38.0925 30.9997 40.8273 28.2596C46.8422 22.3587 46.3583 16.9538 46.3583 16.9538Z" stroke="#2930D1" stroke-width="2" stroke-linejoin="round"/>
<path d="M9.11134 37.2464C9.11134 37.2464 7.36051 33.7448 6.23499 32.8068C5.10947 31.8688 5.60968 30.5557 7.6732 30.8684C9.73666 31.181 12.5505 34.8702 13.9261 36.5585C15.3018 38.2468 16.865 38.3718 16.865 38.3718C21.9299 39.1222 23.4167 39.4811 26.1888 43.8582C29.7522 49.4846 27.0642 52.112 23.3124 51.8619C19.5607 51.6118 17.5597 49.7359 17.5597 49.7359C17.5597 49.7359 12.2378 46.3756 10.1744 45.4376C8.11093 44.4997 3.54629 34.9328 2.48326 32.369C1.42029 29.8054 2.23312 20.6761 3.73381 20.7386C5.23451 20.8012 6.04741 21.6765 6.04741 24.9906C6.04741 28.3046 6.3601 29.8679 6.3601 29.8679" stroke="#2930D1" stroke-width="2" stroke-miterlimit="10" stroke-linecap="round" stroke-linejoin="round"/>
<path d="M50.8889 37.2464C50.8889 37.2464 52.6397 33.7448 53.7653 32.8068C54.8908 31.8688 54.3906 30.5557 52.3271 30.8684C50.2637 31.181 47.4499 34.8702 46.0741 36.5585C44.6985 38.2468 43.1353 38.3718 43.1353 38.3718C38.0704 39.1222 36.5836 39.4811 33.8115 43.8582C30.2481 49.4846 32.9361 52.112 36.6879 51.8619C40.4397 51.6118 42.4406 49.7359 42.4406 49.7359C42.4406 49.7359 47.7625 46.3756 49.826 45.4376C51.8895 44.4997 56.4541 34.9328 57.5171 32.369C58.5801 29.8054 57.7672 20.6761 56.2665 20.7386C54.7658 20.8012 53.9529 21.6765 53.9529 24.9906C53.9529 28.3046 53.6403 29.8679 53.6403 29.8679" stroke="#2930D1" stroke-width="2" stroke-miterlimit="10" stroke-linecap="round" stroke-linejoin="round"/>
</svg>
