<svg width="30" height="30" viewBox="0 0 30 30" fill="none" xmlns="http://www.w3.org/2000/svg">
<rect x="14.8776" width="21.04" height="21.04" rx="3" transform="rotate(45 14.8776 0)" fill="#FC5C2C"/>
<path d="M19.2256 13.6392H18.0931C18.0042 13.7522 17.8879 13.8369 17.7526 13.8841L17.1726 14.0874H19.0677C19.2342 14.0874 19.3958 14.1088 19.5505 14.1486V13.9687C19.5505 13.7872 19.4048 13.6392 19.2256 13.6392ZM17.8511 18.0614H19.3436C19.2649 18.4055 18.9601 18.6628 18.5975 18.6628C18.2346 18.6626 17.9301 18.4054 17.8511 18.0614ZM18.5975 19.0158C19.1527 19.0158 19.6143 18.6014 19.6983 18.0614H20.3029C20.2154 18.9379 19.4838 19.6243 18.5976 19.6243C17.7113 19.6243 16.9798 18.9379 16.8923 18.0614H17.4968C17.5804 18.6014 18.0422 19.0158 18.5975 19.0158ZM18.5975 15.7739C19.6859 15.7739 20.5812 16.6267 20.6699 17.7082H16.525C16.6138 16.6267 17.509 15.7739 18.5975 15.7739ZM15.2839 17.1568L15.2805 16.8581C15.2805 16.8471 15.2793 16.8362 15.2773 16.8256L15.2763 16.728H15.5394C15.6356 16.728 15.7133 16.6491 15.7133 16.5515V14.599L16.1652 14.4406H19.0678C19.9554 14.4406 20.6777 15.1736 20.6777 16.0747V16.6152C20.2522 15.9001 19.4789 15.4209 18.5975 15.4209C17.3172 15.4209 16.265 16.4318 16.1756 17.7085H14.9614C15.0131 17.6797 15.0612 17.6436 15.1034 17.601C15.2219 17.4813 15.286 17.3235 15.2839 17.1568ZM14.9278 16.6838H14.4225L14.3556 14.2099C14.3505 14.0225 14.4525 13.8628 14.6283 13.7826L16.3575 12.9931L17.6715 12.3936L17.882 12.868C17.9431 13.006 17.9444 13.1712 17.8852 13.3102C17.8355 13.427 17.748 13.5123 17.6391 13.5504L15.0237 14.467C14.953 14.4916 14.9057 14.5599 14.9067 14.6357L14.9278 16.6838ZM13.9183 17.037H14.2533C14.263 17.037 14.2724 17.036 14.2816 17.0343V17.037H14.9346L14.936 17.1612C14.9368 17.2315 14.9092 17.2989 14.858 17.3505C14.8043 17.4048 14.7313 17.4351 14.6559 17.4338L14.3167 17.4282L13.9014 17.4255C13.8617 17.4252 13.8244 17.409 13.7963 17.3803C13.7682 17.3513 13.7529 17.3132 13.753 17.2731L13.7532 17.229C13.7539 17.1337 13.8257 17.0506 13.9183 17.037ZM11.3036 18.6626C10.941 18.6626 10.6365 18.4053 10.5575 18.0613H12.05C11.971 18.4054 11.6665 18.6626 11.3036 18.6626ZM11.3036 19.0158C11.8589 19.0158 12.3207 18.6014 12.4045 18.0614H13.0089C12.9215 18.9379 12.1899 19.6243 11.3036 19.6243C10.4173 19.6243 9.68584 18.9379 9.59837 18.0614H10.2028C10.2867 18.6014 10.7484 19.0158 11.3036 19.0158ZM11.3036 15.7739C12.3921 15.7739 13.2879 16.6267 13.3766 17.7082H9.23069C9.31939 16.6267 10.2152 15.7739 11.3036 15.7739ZM11.0434 15.4348L11.3206 14.1348L12.3879 13.9703V15.6805C12.0613 15.5143 11.6932 15.4207 11.3038 15.4207C11.2159 15.4207 11.1289 15.4255 11.0434 15.4348ZM10.3308 13.063C10.3308 12.8049 10.4432 12.5337 10.6099 12.3883C10.6552 12.3487 10.7021 12.3207 10.7501 12.3033V13.8228C10.692 13.8019 10.6433 13.768 10.6067 13.736C10.4391 13.5899 10.3308 13.3258 10.3308 13.063ZM12.1629 13.3506C12.1629 13.4717 12.0658 13.5703 11.9464 13.5703C11.8269 13.5703 11.7298 13.4717 11.7298 13.3506C11.7298 13.2294 11.8268 13.1308 11.9464 13.1308C12.0658 13.1308 12.1629 13.2294 12.1629 13.3506ZM11.9464 12.7778C11.6351 12.7778 11.3819 13.0349 11.3819 13.3506C11.3819 13.503 11.4408 13.6414 11.5367 13.7444L11.098 13.812V12.3144L12.2916 12.4983C12.3483 12.5068 12.3878 12.5535 12.3878 12.6118V12.692C12.2926 12.7281 12.1967 12.7636 12.099 12.7992C12.0505 12.7852 11.9994 12.7778 11.9464 12.7778ZM13.4723 10.3287L13.5309 10.9409C13.352 10.9237 13.1817 10.8531 13.0398 10.7346C12.8977 10.6161 12.7968 10.4602 12.7455 10.2851L13.3488 10.2256C13.4108 10.2193 13.4663 10.2657 13.4723 10.3287ZM14.0455 11.1599C14.0096 11.1734 13.9779 11.1705 13.9456 11.15C13.9131 11.1296 13.8962 11.1021 13.8924 11.0635L13.8188 10.2945C13.7941 10.0378 13.5682 9.84902 13.3151 9.87404L12.5573 9.94899C12.5193 9.95272 12.4895 9.94115 12.4634 9.91288C12.4375 9.88437 12.4283 9.85337 12.4348 9.81528C12.4803 9.54561 12.6128 9.30756 12.8009 9.13015C12.9891 8.95286 13.2331 8.83608 13.5015 8.80956C13.5408 8.80583 13.5798 8.80371 13.6185 8.80371C14.2285 8.80371 14.7518 9.27519 14.8121 9.9038C14.8644 10.4489 14.549 10.9652 14.0455 11.1599ZM15.1771 12.087C15.1167 12.057 15.0448 12.0651 14.9925 12.1075L14.0775 12.8477L12.5096 13.3156C12.5041 13.22 12.4753 13.1305 12.4285 13.053C12.8064 12.9115 13.1672 12.7659 13.5727 12.6023L13.726 12.5406C13.7548 12.529 13.7802 12.5096 13.7991 12.4848L14.3275 11.7942C14.3524 11.762 14.3653 11.7219 14.3641 11.6809C14.3641 11.6799 14.3616 11.5484 14.3927 11.3815C14.7088 11.1959 14.9467 10.9033 15.0705 10.5628C16.3453 10.6515 17.1355 11.1334 17.5364 12.0679L16.2891 12.6372L15.1771 12.087ZM19.5408 10.4057H20.137V11.4328H19.5408V10.4057ZM18.4242 13.153V10.5293C18.4242 10.4612 18.479 10.4057 18.5461 10.4057H19.1928V11.4368C19.1928 11.6292 19.3353 11.7859 19.5105 11.7859H20.1673C20.3423 11.7859 20.4849 11.6292 20.4849 11.4368V10.4057H21.1315C21.1988 10.4057 21.2535 10.4612 21.2535 10.5293V13.1531C21.2535 13.2215 21.1988 13.277 21.1315 13.277H18.5459C18.479 13.2769 18.4242 13.2215 18.4242 13.153Z" fill="white"/>
</svg>
