<svg width="25" height="25" viewBox="0 0 25 25" fill="none" xmlns="http://www.w3.org/2000/svg">
<path d="M12.5 0.5C19.1274 0.5 24.5 5.87258 24.5 12.5C24.5 19.1274 19.1274 24.5 12.5 24.5C5.87258 24.5 0.5 19.1274 0.5 12.5C0.5 5.87258 5.87258 0.5 12.5 0.5Z" fill="#FC5C2C" stroke="white"/>
<path d="M13.4549 8.99987L16.0012 11.5462M15.0463 16.3205H17.5926M9.95374 17.5936L16.6378 10.9096C16.805 10.7424 16.9376 10.5439 17.0281 10.3255C17.1185 10.107 17.1651 9.87289 17.1651 9.63644C17.1651 9.4 17.1185 9.16587 17.0281 8.94742C16.9376 8.72897 16.805 8.53049 16.6378 8.36329C16.4706 8.1961 16.2721 8.06348 16.0536 7.97299C15.8352 7.88251 15.6011 7.83594 15.3646 7.83594C15.1282 7.83594 14.894 7.88251 14.6756 7.97299C14.4571 8.06348 14.2587 8.1961 14.0915 8.36329L7.40744 15.0473V17.5936H9.95374Z" stroke="white" stroke-linecap="round" stroke-linejoin="round"/>
</svg>
