<svg width="45" height="45" viewBox="0 0 45 45" fill="none" xmlns="http://www.w3.org/2000/svg">
<mask id="mask0_57_5537" style="mask-type:luminance" maskUnits="userSpaceOnUse" x="0" y="0" width="45" height="45">
<path d="M0 0H45V45H0V0Z" fill="white"/>
</mask>
<g mask="url(#mask0_57_5537)">
<mask id="path-2-inside-1_57_5537" fill="white">
<path d="M44.9975 22.4983C44.9975 22.8666 44.9883 23.2349 44.9707 23.6024C44.9523 23.9699 44.9255 24.3373 44.8895 24.704C44.8535 25.0698 44.8083 25.4355 44.7539 25.7997C44.7003 26.1638 44.6367 26.5262 44.5656 26.8878C44.4936 27.2486 44.4124 27.6077 44.3237 27.9651C44.2341 28.3225 44.1353 28.6766 44.029 29.029C43.9219 29.3814 43.8064 29.7313 43.6825 30.0778C43.5586 30.4244 43.4255 30.7684 43.2849 31.1083C43.1443 31.4481 42.9953 31.7846 42.8371 32.1177C42.6797 32.4509 42.5148 32.779 42.3407 33.1038C42.1674 33.4286 41.9858 33.7492 41.7966 34.0647C41.6074 34.3811 41.4107 34.6917 41.2056 34.9981C41.0014 35.3044 40.7896 35.6049 40.5703 35.9004C40.351 36.1967 40.1242 36.4863 39.8906 36.7709C39.6571 37.0564 39.4169 37.3351 39.1691 37.6071C38.9222 37.88 38.6685 38.147 38.4082 38.4074C38.1479 38.6677 37.8809 38.9213 37.608 39.1691C37.3351 39.416 37.0564 39.6563 36.7718 39.8898C36.4872 40.1233 36.1967 40.3502 35.9012 40.5695C35.6057 40.7888 35.3044 41.0006 34.9989 41.2056C34.6925 41.4099 34.3811 41.6066 34.0656 41.7958C33.75 41.9858 33.4294 42.1666 33.1046 42.3407C32.7799 42.514 32.4509 42.6797 32.1186 42.8371C31.7854 42.9944 31.4489 43.1434 31.1091 43.284C30.7684 43.4255 30.4252 43.5578 30.0787 43.6816C29.7321 43.8055 29.3823 43.921 29.0299 44.0282C28.6775 44.1353 28.3225 44.2333 27.966 44.3228C27.6085 44.4124 27.2494 44.4927 26.8878 44.5647C26.5271 44.6367 26.1646 44.6995 25.8005 44.7531C25.4355 44.8075 25.0706 44.8527 24.704 44.8887C24.3373 44.9247 23.9707 44.9515 23.6032 44.9699C23.2349 44.9883 22.8675 44.9967 22.4992 44.9967C22.1309 44.9967 21.7626 44.9883 21.3951 44.9699C21.0268 44.9515 20.6602 44.9247 20.2935 44.8887C19.9269 44.8527 19.5619 44.8075 19.1978 44.7531C18.8337 44.6995 18.4704 44.6367 18.1097 44.5647C17.7489 44.4927 17.389 44.4124 17.0324 44.3228C16.6749 44.2333 16.32 44.1353 15.9676 44.0282C15.6152 43.921 15.2662 43.8055 14.9196 43.6816C14.5723 43.5578 14.2291 43.4255 13.8892 43.284C13.5485 43.1434 13.2121 42.9944 12.8797 42.8371C12.5466 42.6797 12.2176 42.514 11.8929 42.3407C11.5681 42.1666 11.2483 41.9858 10.9319 41.7958C10.6164 41.6066 10.3058 41.4099 9.99944 41.2056C9.69308 41.0006 9.39258 40.7888 9.09626 40.5695C8.80078 40.3502 8.51032 40.1233 8.22573 39.8898C7.94113 39.6563 7.66239 39.416 7.38951 39.1691C7.11663 38.9213 6.85045 38.6677 6.59012 38.4074C6.3298 38.147 6.07617 37.88 5.8284 37.6071C5.58147 37.3351 5.3404 37.0564 5.10686 36.7709C4.87333 36.4863 4.64732 36.1967 4.42801 35.9004C4.20871 35.6049 3.99693 35.3044 3.79185 34.9981C3.58761 34.6917 3.39007 34.3811 3.20089 34.0647C3.01172 33.7492 2.83008 33.4286 2.65681 33.1038C2.48354 32.779 2.3178 32.4509 2.16044 32.1177C2.00307 31.7846 1.85407 31.4481 1.71261 31.1083C1.57199 30.7684 1.43973 30.4244 1.31585 30.0778C1.19113 29.7313 1.07561 29.3814 0.969308 29.029C0.862165 28.6766 0.76423 28.3225 0.674665 27.9651C0.5851 27.6077 0.504743 27.2486 0.432757 26.8878C0.36077 26.5262 0.297991 26.1638 0.243583 25.7997C0.190011 25.4355 0.14481 25.0698 0.108817 24.704C0.0728238 24.3373 0.0452008 23.9699 0.0276228 23.6024C0.00920748 23.2349 0 22.8666 0 22.4983C0 22.13 0.00920748 21.7626 0.0276228 21.3943C0.0452008 21.0268 0.0728238 20.6593 0.108817 20.2927C0.14481 19.9269 0.190011 19.5611 0.243583 19.197C0.297991 18.8329 0.36077 18.4704 0.432757 18.1088C0.504743 17.748 0.5851 17.389 0.674665 17.0315C0.76423 16.6741 0.862165 16.32 0.969308 15.9676C1.07561 15.6152 1.19113 15.2653 1.31585 14.9188C1.43973 14.5723 1.57199 14.2291 1.71261 13.8884C1.85407 13.5485 2.00307 13.2121 2.16044 12.8789C2.3178 12.5458 2.48354 12.2176 2.65681 11.8929C2.83008 11.5681 3.01172 11.2475 3.20089 10.9319C3.39007 10.6155 3.58761 10.305 3.79185 9.99861C3.99693 9.69224 4.20871 9.39174 4.42801 9.09626C4.64732 8.79994 4.87333 8.51032 5.10686 8.22573C5.3404 7.94113 5.58147 7.66239 5.8284 7.38951C6.07617 7.11663 6.3298 6.84961 6.59012 6.58929C6.85045 6.32896 7.11663 6.07534 7.38951 5.82757C7.66239 5.58064 7.94113 5.3404 8.22573 5.10686C8.51032 4.87333 8.80078 4.64648 9.09626 4.42718C9.39258 4.20787 9.69308 3.99609 9.99944 3.79102C10.3058 3.58677 10.6164 3.39007 10.9319 3.20089C11.2483 3.01172 11.5681 2.83008 11.8929 2.65597C12.2176 2.4827 12.5466 2.31696 12.8797 2.1596C13.2121 2.00223 13.5485 1.85324 13.8892 1.71261C14.2291 1.57115 14.5723 1.4389 14.9196 1.31501C15.2662 1.19113 15.6152 1.07561 15.9676 0.968471C16.32 0.861328 16.6749 0.763393 17.0324 0.673828C17.389 0.584263 17.7489 0.503906 18.1097 0.43192C18.4704 0.359933 18.8337 0.297154 19.1978 0.243583C19.5619 0.189174 19.9269 0.143973 20.2935 0.10798C20.6602 0.0719868 21.0268 0.045201 21.3951 0.0267857C21.7626 0.00837043 22.1309 0 22.4992 0C22.8675 0 23.2349 0.00837043 23.6032 0.0267857C23.9707 0.045201 24.3373 0.0719868 24.704 0.10798C25.0706 0.143973 25.4355 0.189174 25.8005 0.243583C26.1646 0.297154 26.5271 0.359933 26.8878 0.43192C27.2494 0.503906 27.6085 0.584263 27.966 0.673828C28.3225 0.763393 28.6775 0.861328 29.0299 0.968471C29.3823 1.07561 29.7321 1.19113 30.0787 1.31501C30.4252 1.4389 30.7684 1.57115 31.1091 1.71261C31.4489 1.85324 31.7854 2.00223 32.1186 2.1596C32.4509 2.31696 32.7799 2.4827 33.1046 2.65597C33.4294 2.83008 33.75 3.01172 34.0656 3.20089C34.3811 3.39007 34.6925 3.58677 34.9989 3.79102C35.3044 3.99609 35.6057 4.20787 35.9012 4.42718C36.1967 4.64648 36.4872 4.87333 36.7718 5.10686C37.0564 5.3404 37.3351 5.58064 37.608 5.82757C37.8809 6.07534 38.1479 6.32896 38.4082 6.58929C38.6685 6.84961 38.9222 7.11663 39.1691 7.38951C39.4169 7.66239 39.6571 7.94113 39.8906 8.22573C40.1242 8.51032 40.351 8.79994 40.5703 9.09626C40.7896 9.39174 41.0014 9.69224 41.2056 9.99861C41.4107 10.305 41.6074 10.6155 41.7966 10.9319C41.9858 11.2475 42.1674 11.5681 42.3407 11.8929C42.5148 12.2176 42.6797 12.5458 42.8371 12.8789C42.9953 13.2121 43.1443 13.5485 43.2849 13.8884C43.4255 14.2291 43.5586 14.5723 43.6825 14.9188C43.8064 15.2653 43.9219 15.6152 44.029 15.9676C44.1353 16.32 44.2341 16.6741 44.3237 17.0315C44.4124 17.389 44.4936 17.748 44.5656 18.1088C44.6367 18.4704 44.7003 18.8329 44.7539 19.197C44.8083 19.5611 44.8535 19.9269 44.8895 20.2927C44.9255 20.6593 44.9523 21.0268 44.9707 21.3943C44.9883 21.7626 44.9975 22.13 44.9975 22.4983Z"/>
</mask>
<path d="M44.9975 22.4983C44.9975 22.8666 44.9883 23.2349 44.9707 23.6024C44.9523 23.9699 44.9255 24.3373 44.8895 24.704C44.8535 25.0698 44.8083 25.4355 44.7539 25.7997C44.7003 26.1638 44.6367 26.5262 44.5656 26.8878C44.4936 27.2486 44.4124 27.6077 44.3237 27.9651C44.2341 28.3225 44.1353 28.6766 44.029 29.029C43.9219 29.3814 43.8064 29.7313 43.6825 30.0778C43.5586 30.4244 43.4255 30.7684 43.2849 31.1083C43.1443 31.4481 42.9953 31.7846 42.8371 32.1177C42.6797 32.4509 42.5148 32.779 42.3407 33.1038C42.1674 33.4286 41.9858 33.7492 41.7966 34.0647C41.6074 34.3811 41.4107 34.6917 41.2056 34.9981C41.0014 35.3044 40.7896 35.6049 40.5703 35.9004C40.351 36.1967 40.1242 36.4863 39.8906 36.7709C39.6571 37.0564 39.4169 37.3351 39.1691 37.6071C38.9222 37.88 38.6685 38.147 38.4082 38.4074C38.1479 38.6677 37.8809 38.9213 37.608 39.1691C37.3351 39.416 37.0564 39.6563 36.7718 39.8898C36.4872 40.1233 36.1967 40.3502 35.9012 40.5695C35.6057 40.7888 35.3044 41.0006 34.9989 41.2056C34.6925 41.4099 34.3811 41.6066 34.0656 41.7958C33.75 41.9858 33.4294 42.1666 33.1046 42.3407C32.7799 42.514 32.4509 42.6797 32.1186 42.8371C31.7854 42.9944 31.4489 43.1434 31.1091 43.284C30.7684 43.4255 30.4252 43.5578 30.0787 43.6816C29.7321 43.8055 29.3823 43.921 29.0299 44.0282C28.6775 44.1353 28.3225 44.2333 27.966 44.3228C27.6085 44.4124 27.2494 44.4927 26.8878 44.5647C26.5271 44.6367 26.1646 44.6995 25.8005 44.7531C25.4355 44.8075 25.0706 44.8527 24.704 44.8887C24.3373 44.9247 23.9707 44.9515 23.6032 44.9699C23.2349 44.9883 22.8675 44.9967 22.4992 44.9967C22.1309 44.9967 21.7626 44.9883 21.3951 44.9699C21.0268 44.9515 20.6602 44.9247 20.2935 44.8887C19.9269 44.8527 19.5619 44.8075 19.1978 44.7531C18.8337 44.6995 18.4704 44.6367 18.1097 44.5647C17.7489 44.4927 17.389 44.4124 17.0324 44.3228C16.6749 44.2333 16.32 44.1353 15.9676 44.0282C15.6152 43.921 15.2662 43.8055 14.9196 43.6816C14.5723 43.5578 14.2291 43.4255 13.8892 43.284C13.5485 43.1434 13.2121 42.9944 12.8797 42.8371C12.5466 42.6797 12.2176 42.514 11.8929 42.3407C11.5681 42.1666 11.2483 41.9858 10.9319 41.7958C10.6164 41.6066 10.3058 41.4099 9.99944 41.2056C9.69308 41.0006 9.39258 40.7888 9.09626 40.5695C8.80078 40.3502 8.51032 40.1233 8.22573 39.8898C7.94113 39.6563 7.66239 39.416 7.38951 39.1691C7.11663 38.9213 6.85045 38.6677 6.59012 38.4074C6.3298 38.147 6.07617 37.88 5.8284 37.6071C5.58147 37.3351 5.3404 37.0564 5.10686 36.7709C4.87333 36.4863 4.64732 36.1967 4.42801 35.9004C4.20871 35.6049 3.99693 35.3044 3.79185 34.9981C3.58761 34.6917 3.39007 34.3811 3.20089 34.0647C3.01172 33.7492 2.83008 33.4286 2.65681 33.1038C2.48354 32.779 2.3178 32.4509 2.16044 32.1177C2.00307 31.7846 1.85407 31.4481 1.71261 31.1083C1.57199 30.7684 1.43973 30.4244 1.31585 30.0778C1.19113 29.7313 1.07561 29.3814 0.969308 29.029C0.862165 28.6766 0.76423 28.3225 0.674665 27.9651C0.5851 27.6077 0.504743 27.2486 0.432757 26.8878C0.36077 26.5262 0.297991 26.1638 0.243583 25.7997C0.190011 25.4355 0.14481 25.0698 0.108817 24.704C0.0728238 24.3373 0.0452008 23.9699 0.0276228 23.6024C0.00920748 23.2349 0 22.8666 0 22.4983C0 22.13 0.00920748 21.7626 0.0276228 21.3943C0.0452008 21.0268 0.0728238 20.6593 0.108817 20.2927C0.14481 19.9269 0.190011 19.5611 0.243583 19.197C0.297991 18.8329 0.36077 18.4704 0.432757 18.1088C0.504743 17.748 0.5851 17.389 0.674665 17.0315C0.76423 16.6741 0.862165 16.32 0.969308 15.9676C1.07561 15.6152 1.19113 15.2653 1.31585 14.9188C1.43973 14.5723 1.57199 14.2291 1.71261 13.8884C1.85407 13.5485 2.00307 13.2121 2.16044 12.8789C2.3178 12.5458 2.48354 12.2176 2.65681 11.8929C2.83008 11.5681 3.01172 11.2475 3.20089 10.9319C3.39007 10.6155 3.58761 10.305 3.79185 9.99861C3.99693 9.69224 4.20871 9.39174 4.42801 9.09626C4.64732 8.79994 4.87333 8.51032 5.10686 8.22573C5.3404 7.94113 5.58147 7.66239 5.8284 7.38951C6.07617 7.11663 6.3298 6.84961 6.59012 6.58929C6.85045 6.32896 7.11663 6.07534 7.38951 5.82757C7.66239 5.58064 7.94113 5.3404 8.22573 5.10686C8.51032 4.87333 8.80078 4.64648 9.09626 4.42718C9.39258 4.20787 9.69308 3.99609 9.99944 3.79102C10.3058 3.58677 10.6164 3.39007 10.9319 3.20089C11.2483 3.01172 11.5681 2.83008 11.8929 2.65597C12.2176 2.4827 12.5466 2.31696 12.8797 2.1596C13.2121 2.00223 13.5485 1.85324 13.8892 1.71261C14.2291 1.57115 14.5723 1.4389 14.9196 1.31501C15.2662 1.19113 15.6152 1.07561 15.9676 0.968471C16.32 0.861328 16.6749 0.763393 17.0324 0.673828C17.389 0.584263 17.7489 0.503906 18.1097 0.43192C18.4704 0.359933 18.8337 0.297154 19.1978 0.243583C19.5619 0.189174 19.9269 0.143973 20.2935 0.10798C20.6602 0.0719868 21.0268 0.045201 21.3951 0.0267857C21.7626 0.00837043 22.1309 0 22.4992 0C22.8675 0 23.2349 0.00837043 23.6032 0.0267857C23.9707 0.045201 24.3373 0.0719868 24.704 0.10798C25.0706 0.143973 25.4355 0.189174 25.8005 0.243583C26.1646 0.297154 26.5271 0.359933 26.8878 0.43192C27.2494 0.503906 27.6085 0.584263 27.966 0.673828C28.3225 0.763393 28.6775 0.861328 29.0299 0.968471C29.3823 1.07561 29.7321 1.19113 30.0787 1.31501C30.4252 1.4389 30.7684 1.57115 31.1091 1.71261C31.4489 1.85324 31.7854 2.00223 32.1186 2.1596C32.4509 2.31696 32.7799 2.4827 33.1046 2.65597C33.4294 2.83008 33.75 3.01172 34.0656 3.20089C34.3811 3.39007 34.6925 3.58677 34.9989 3.79102C35.3044 3.99609 35.6057 4.20787 35.9012 4.42718C36.1967 4.64648 36.4872 4.87333 36.7718 5.10686C37.0564 5.3404 37.3351 5.58064 37.608 5.82757C37.8809 6.07534 38.1479 6.32896 38.4082 6.58929C38.6685 6.84961 38.9222 7.11663 39.1691 7.38951C39.4169 7.66239 39.6571 7.94113 39.8906 8.22573C40.1242 8.51032 40.351 8.79994 40.5703 9.09626C40.7896 9.39174 41.0014 9.69224 41.2056 9.99861C41.4107 10.305 41.6074 10.6155 41.7966 10.9319C41.9858 11.2475 42.1674 11.5681 42.3407 11.8929C42.5148 12.2176 42.6797 12.5458 42.8371 12.8789C42.9953 13.2121 43.1443 13.5485 43.2849 13.8884C43.4255 14.2291 43.5586 14.5723 43.6825 14.9188C43.8064 15.2653 43.9219 15.6152 44.029 15.9676C44.1353 16.32 44.2341 16.6741 44.3237 17.0315C44.4124 17.389 44.4936 17.748 44.5656 18.1088C44.6367 18.4704 44.7003 18.8329 44.7539 19.197C44.8083 19.5611 44.8535 19.9269 44.8895 20.2927C44.9255 20.6593 44.9523 21.0268 44.9707 21.3943C44.9883 21.7626 44.9975 22.13 44.9975 22.4983Z" stroke="#2930D1" stroke-width="2" mask="url(#path-2-inside-1_57_5537)"/>
</g>
<path d="M22.1467 41.3235L22.1892 40.725L22.1467 41.3235ZM20.6101 41.4597L20.272 40.964L20.6101 41.4597ZM18.3931 40.8791L18.0216 40.408L18.3931 40.8791ZM17.6772 40.7045L18.2245 40.4584L17.6772 40.7045ZM16.1268 40.5405L15.7404 40.9996L16.1268 40.5405ZM15.5125 40.01L15.1145 40.4591L15.5125 40.01ZM13.4564 39.0391L13.5425 38.4454L13.4564 39.0391ZM12.6806 38.8633L12.501 39.4358L12.6806 38.8633ZM12.2108 38.2023L12.8021 38.1003L12.2108 38.2023ZM11.543 37.8111L11.6964 38.3911L11.543 37.8111ZM10.7844 37.5763L11.3259 37.3179L10.7844 37.5763ZM9.5471 36.6557L10.0235 36.291L9.5471 36.6557ZM8.68369 35.342L8.62229 34.7451L8.68369 35.342ZM7.84296 35.0789L8.34501 34.7504L7.84296 35.0789ZM7.74162 34.1812L7.15306 34.0646L7.74162 34.1812ZM7.52611 33.3899L7.19104 33.8876L7.52611 33.3899ZM6.39743 32.3331L6.22341 32.9073L6.39743 32.3331ZM5.74851 30.9825L6.29439 31.2315L5.74851 30.9825ZM5.81889 30.1113L6.34317 29.8195L5.81889 30.1113ZM4.1609 25.9648L3.69377 26.3413L4.1609 25.9648ZM3.94177 22.234L3.4395 22.5622L3.94177 22.234ZM3.77819 19.9552L4.26039 19.5982L3.77819 19.9552ZM4.219 17.7276L3.63402 17.5941L4.219 17.7276ZM4.62931 15.4471L4.15215 15.0834L4.62931 15.4471ZM5.31923 14.9125L5.05861 14.3721L5.31923 14.9125ZM6.13216 13.6224L6.72502 13.5301L6.13216 13.6224ZM6.6388 12.1633L6.05975 12.3205L6.6388 12.1633ZM7.00668 11.5103L6.89217 10.9213L7.00668 11.5103ZM7.57271 10.9674L8.16917 11.0325L7.57271 10.9674ZM7.99231 10.3396L7.72411 9.80291L7.99231 10.3396ZM8.72965 9.98087L8.47299 9.43853L8.72965 9.98087ZM11.3701 7.28585L10.9363 6.87132L11.3701 7.28585ZM12.0911 7.01113L12.0961 6.41115L12.0911 7.01113ZM12.771 6.66752L12.2674 6.34133L12.771 6.66752ZM13.3955 6.26751L13.3171 5.67266L13.3955 6.26751ZM13.962 5.70701L14.5319 5.8945L13.962 5.70701ZM15.4873 5.45694L15.6575 6.03229L15.4873 5.45694ZM16.1844 5.20182L16.4259 5.75107L16.1844 5.20182ZM16.758 4.53982L17.3039 4.78874L16.758 4.53982ZM17.4632 4.30635L17.7688 3.78999L17.4632 4.30635ZM18.3082 4.5553L18.26 3.95724L18.3082 4.5553ZM19.6276 3.37477L19.563 2.77827L19.6276 3.37477ZM21.2211 3.77027L21.686 4.14961L21.2211 3.77027ZM25.0169 3.65069L25.3488 4.15058L25.0169 3.65069ZM25.8069 3.51849L25.5824 4.0749L25.8069 3.51849ZM28.646 4.75688L28.5795 5.35317L28.646 4.75688ZM31.3552 6.05427L31.8184 5.67294L31.3552 6.05427ZM32.0205 6.41557L31.9501 7.01143L32.0205 6.41557ZM32.6617 6.79494L33.152 6.44912L32.6617 6.79494ZM33.2009 7.33959L33.5444 6.84764L33.2009 7.33959ZM33.9411 7.60564L34.0133 7.01L33.9411 7.60564ZM34.5827 8.00214L34.0687 8.31168L34.5827 8.00214ZM36.1898 9.61489L36.0463 10.1975L36.1898 9.61489ZM36.6992 10.1593L37.2909 10.0599L36.6992 10.1593ZM37.1717 10.7595L37.3988 10.2041L37.1717 10.7595ZM38.4049 11.7419L38.785 11.2776L38.4049 11.7419ZM38.5513 12.5454L39.1259 12.7178L38.5513 12.5454ZM39.2801 13.8838L39.7908 13.5688L39.2801 13.8838ZM39.4352 15.4584L38.9036 15.7367L39.4352 15.4584ZM40.1699 16.763L39.574 16.8325L40.1699 16.763ZM40.2139 17.524L39.6139 17.5238L40.2139 17.524ZM40.7489 18.1663L40.4875 18.7064L40.7489 18.1663ZM41.3074 18.8126L40.7085 18.8489L41.3074 18.8126ZM41.3457 21.8874L41.0262 22.3953L41.3457 21.8874ZM41.3545 22.621L41.6875 23.12L41.3545 22.621ZM40.7993 23.364L40.1994 23.3745L40.7993 23.364ZM41.0149 24.1244L41.5443 23.842L41.0149 24.1244ZM41.2236 25.6708L40.7039 25.9706L41.2236 25.6708ZM40.5679 27.8408L40.2127 27.3573L40.5679 27.8408ZM39.8498 30.0042L39.254 30.0756L39.8498 30.0042ZM39.807 30.8208L40.3892 30.9657L39.807 30.8208ZM39.1363 31.3241L39.0121 30.7371L39.1363 31.3241ZM38.3578 32.6174L38.4649 33.2077L38.3578 32.6174ZM37.7201 34.0382L37.1451 33.8669L37.7201 34.0382ZM35.8438 35.4067L36.2366 35.8603L35.8438 35.4067ZM35.3794 36.0025L35.9122 36.2784L35.3794 36.0025ZM35.0979 36.8177L35.6845 36.9437L35.0979 36.8177ZM33.2411 38.1457L33.6223 38.609L33.2411 38.1457ZM32.5569 38.4799L32.4194 37.8959L32.5569 38.4799ZM31.291 39.3084L31.072 39.867L31.291 39.3084ZM29.8465 39.8064L29.8905 40.4048L29.8465 39.8064ZM29.2121 40.2853L29.7425 40.5657L29.2121 40.2853ZM27.7038 40.5274L27.4295 39.9937L27.7038 40.5274ZM26.9941 40.7828L26.8666 40.1965L26.9941 40.7828ZM24.0369 41.4551L23.7633 41.9891L24.0369 41.4551ZM22.7086 41.543L23.1416 41.1276L22.7086 41.543ZM22.1467 41.3235L22.1892 40.725C21.9549 40.7084 21.7218 40.6817 21.4898 40.645L21.396 41.2376L21.3022 41.8302C21.5682 41.8723 21.8356 41.9029 22.1042 41.922L22.1467 41.3235ZM21.396 41.2376L21.4898 40.645C21.0464 40.5748 20.6317 40.7187 20.272 40.964L20.6101 41.4597L20.9482 41.9554C21.1382 41.8258 21.2474 41.8216 21.3022 41.8302L21.396 41.2376ZM20.6101 41.4597L20.272 40.964C20.2397 40.9861 20.2208 40.9936 20.2153 40.9954C20.2127 40.9963 20.2135 40.9958 20.2174 40.9952C20.2213 40.9946 20.2274 40.994 20.2351 40.9943C20.2428 40.9945 20.2505 40.9956 20.2577 40.9973C20.2648 40.9989 20.2699 41.0009 20.2727 41.0021C20.2783 41.0046 20.2713 41.0027 20.2529 40.9863L19.8537 41.4342L19.4545 41.8822C19.6502 42.0566 19.8997 42.1837 20.1947 42.1936C20.4834 42.2033 20.7388 42.0982 20.9482 41.9554L20.6101 41.4597ZM19.8537 41.4342L20.2529 40.9863C20.0288 40.7866 19.8118 40.5861 19.6019 40.3848L19.1866 40.8178L18.7713 41.2508C18.9921 41.4626 19.2198 41.673 19.4545 41.8822L19.8537 41.4342ZM19.1866 40.8178L19.6019 40.3848C19.388 40.1796 19.1054 40.0549 18.7806 40.08C18.4837 40.103 18.2276 40.2455 18.0216 40.408L18.3931 40.8791L18.7646 41.3502C18.8151 41.3104 18.8507 41.2901 18.8713 41.2806C18.8914 41.2713 18.8909 41.2751 18.873 41.2765C18.8524 41.2781 18.8253 41.2751 18.799 41.2649C18.7744 41.2553 18.7656 41.2454 18.7713 41.2508L19.1866 40.8178ZM18.3931 40.8791L18.0216 40.408C17.9781 40.4422 17.9637 40.4444 17.9775 40.4397C17.9962 40.4333 18.0499 40.4207 18.1211 40.4381C18.1924 40.4554 18.2344 40.4915 18.2483 40.5061C18.2587 40.5169 18.2471 40.5087 18.2245 40.4584L17.6772 40.7045L17.13 40.9505C17.2405 41.1963 17.4496 41.5094 17.8367 41.6039C18.2233 41.6982 18.5531 41.517 18.7646 41.3502L18.3931 40.8791ZM17.6772 40.7045L18.2245 40.4584C18.1103 40.2045 17.9054 39.9106 17.5421 39.8013C17.1763 39.6913 16.8431 39.8263 16.6087 39.9789L16.9362 40.4817L17.2637 40.9844C17.307 40.9562 17.3219 40.9547 17.3107 40.9574C17.2951 40.9612 17.252 40.9672 17.1966 40.9505C17.1415 40.9339 17.1102 40.9058 17.1012 40.8962C17.095 40.8897 17.1079 40.9013 17.13 40.9505L17.6772 40.7045ZM16.9362 40.4817L16.6087 39.9789C16.5531 40.0152 16.5107 40.0361 16.4811 40.0477C16.4517 40.0592 16.4397 40.0596 16.4425 40.0594C16.4469 40.0591 16.4618 40.0591 16.4813 40.0655C16.5007 40.0718 16.5116 40.0801 16.5132 40.0815L16.1268 40.5405L15.7404 40.9996C15.9633 41.1871 16.2368 41.2775 16.5295 41.2563C16.8015 41.2365 17.0497 41.1238 17.2637 40.9844L16.9362 40.4817ZM16.1268 40.5405L16.5132 40.0815C16.3079 39.9087 16.107 39.7352 15.9104 39.561L15.5125 40.01L15.1145 40.4591C15.3189 40.6402 15.5275 40.8203 15.7404 40.9996L16.1268 40.5405ZM15.5125 40.01L15.9104 39.561C15.6679 39.3461 15.4031 39.1717 15.1162 39.0422L14.8694 39.5891L14.6227 40.136C14.7921 40.2125 14.9561 40.3187 15.1145 40.4591L15.5125 40.01ZM14.8694 39.5891L15.1162 39.0422C14.8957 38.9427 14.6774 38.8386 14.4614 38.7299L14.1917 39.2659L13.922 39.8018C14.1532 39.9182 14.3867 40.0296 14.6227 40.136L14.8694 39.5891ZM14.1917 39.2659L14.4614 38.7299C14.1758 38.5862 13.8681 38.4925 13.5425 38.4454L13.4564 39.0391L13.3704 39.6329C13.5779 39.663 13.7603 39.7205 13.922 39.8018L14.1917 39.2659ZM13.4564 39.0391L13.5425 38.4454C13.3068 38.4112 13.0795 38.3596 12.8601 38.2908L12.6806 38.8633L12.501 39.4358C12.783 39.5242 13.073 39.5899 13.3704 39.6329L13.4564 39.0391ZM12.6806 38.8633L12.8601 38.2908C12.8578 38.2901 12.8608 38.2908 12.8652 38.2941C12.8695 38.2972 12.8688 38.298 12.8642 38.2915C12.8531 38.2759 12.8232 38.223 12.8021 38.1003L12.2108 38.2023L11.6196 38.3042C11.7028 38.787 11.953 39.264 12.501 39.4358L12.6806 38.8633ZM12.2108 38.2023L12.8021 38.1003C12.7541 37.8216 12.6205 37.5028 12.3003 37.3152C11.9927 37.135 11.6545 37.1609 11.3896 37.231L11.543 37.8111L11.6964 38.3911C11.7498 38.377 11.7724 38.3779 11.7712 38.3779C11.767 38.3777 11.7351 38.3749 11.6938 38.3506C11.6509 38.3255 11.6256 38.2936 11.6147 38.2747C11.6061 38.2599 11.6127 38.2643 11.6196 38.3042L12.2108 38.2023ZM11.543 37.8111L11.3896 37.231C11.3269 37.2476 11.2843 37.2528 11.2586 37.2537C11.2333 37.2546 11.231 37.2512 11.2436 37.2551C11.2585 37.2597 11.2803 37.2703 11.3008 37.2886C11.3205 37.3062 11.3269 37.3201 11.3259 37.3179L10.7844 37.5763L10.2428 37.8346C10.3701 38.1013 10.5888 38.3086 10.8889 38.4015C11.1635 38.4865 11.4466 38.4572 11.6964 38.3911L11.543 37.8111ZM10.7844 37.5763L11.3259 37.3179C11.129 36.9053 10.7934 36.6205 10.3509 36.4993L10.1924 37.078L10.0339 37.6567C10.1347 37.6843 10.1937 37.7317 10.2428 37.8346L10.7844 37.5763ZM10.1924 37.078L10.3509 36.4993C10.195 36.4566 10.0958 36.3854 10.0235 36.291L9.5471 36.6557L9.07066 37.0204C9.31544 37.3402 9.64644 37.5505 10.0339 37.6567L10.1924 37.078ZM9.5471 36.6557L10.0235 36.291C9.96998 36.221 9.9095 36.0831 9.9097 35.8117L9.3097 35.8113L8.7097 35.8108C8.70937 36.2512 8.80716 36.6762 9.07066 37.0204L9.5471 36.6557ZM9.3097 35.8113L9.9097 35.8117C9.90992 35.5189 9.81973 35.1767 9.5133 34.947C9.23295 34.7368 8.89437 34.7171 8.62229 34.7451L8.68369 35.342L8.74508 35.9388C8.8101 35.9321 8.84244 35.936 8.85074 35.9375C8.85718 35.9387 8.83056 35.9349 8.79349 35.9071C8.77524 35.8935 8.7582 35.8766 8.74377 35.8576C8.72948 35.8388 8.72039 35.8212 8.71495 35.8079C8.70466 35.7826 8.70972 35.7782 8.7097 35.8108L9.3097 35.8113ZM8.68369 35.342L8.62229 34.7451C8.46234 34.7616 8.37603 34.7472 8.33946 34.7358C8.32355 34.7308 8.32183 34.7279 8.32748 34.732C8.3339 34.7366 8.34059 34.7436 8.34501 34.7504L7.84296 35.0789L7.34092 35.4075C7.67045 35.911 8.2506 35.9897 8.74508 35.9388L8.68369 35.342ZM7.84296 35.0789L8.34501 34.7504C8.32203 34.7153 8.27074 34.5979 8.33019 34.2978L7.74162 34.1812L7.15306 34.0646C7.06189 34.5248 7.07815 35.006 7.34092 35.4075L7.84296 35.0789ZM7.74162 34.1812L8.33019 34.2978C8.42691 33.8096 8.37103 33.2354 7.86119 32.8921L7.52611 33.3899L7.19104 33.8876C7.18839 33.8858 7.18055 33.8795 7.17289 33.8687C7.16543 33.8581 7.1642 33.8518 7.16531 33.8559C7.16888 33.869 7.17974 33.93 7.15306 34.0646L7.74162 34.1812ZM7.52611 33.3899L7.86119 32.8921C7.7296 32.8036 7.64315 32.6995 7.58679 32.5758L7.04081 32.8246L6.49483 33.0734C6.64756 33.4086 6.88465 33.6813 7.19104 33.8876L7.52611 33.3899ZM7.04081 32.8246L7.58679 32.5758C7.3884 32.1405 7.00104 31.889 6.57145 31.7588L6.39743 32.3331L6.22341 32.9073C6.44257 32.9737 6.48413 33.0499 6.49483 33.0734L7.04081 32.8246ZM6.39743 32.3331L6.57145 31.7588C6.34118 31.6891 6.25139 31.6004 6.21233 31.5384L5.70463 31.8582L5.19694 32.1779C5.43285 32.5525 5.80493 32.7804 6.22341 32.9073L6.39743 32.3331ZM5.70463 31.8582L6.21233 31.5384C6.21787 31.5472 6.20975 31.5453 6.21174 31.5055C6.21412 31.4579 6.23149 31.3694 6.29439 31.2315L5.74851 30.9825L5.20264 30.7334C5.00086 31.1757 4.90126 31.7084 5.19694 32.1779L5.70463 31.8582ZM5.74851 30.9825L6.29439 31.2315C6.4902 30.8023 6.60186 30.2843 6.34317 29.8195L5.81889 30.1113L5.29461 30.403C5.28701 30.3894 5.29707 30.3932 5.29311 30.4422C5.28867 30.4972 5.26726 30.5918 5.20264 30.7334L5.74851 30.9825ZM5.81889 30.1113L6.34317 29.8195C6.24011 29.6343 6.15386 29.442 6.08422 29.2422L5.51765 29.4397L4.95107 29.6371C5.04345 29.9022 5.15802 30.1576 5.29461 30.403L5.81889 30.1113ZM5.51765 29.4397L6.08422 29.2422C5.97194 28.92 5.78814 28.6331 5.54615 28.3817L5.1139 28.7978L4.68164 29.2139C4.81598 29.3535 4.90135 29.4945 4.95107 29.6371L5.51765 29.4397ZM5.1139 28.7978L5.54615 28.3817C5.47876 28.3117 5.45915 28.2529 5.46817 28.1608L4.87102 28.1023L4.27387 28.0439C4.23039 28.4882 4.3727 28.893 4.68164 29.2139L5.1139 28.7978ZM4.87102 28.1023L5.46817 28.1608C5.50291 27.8058 5.46047 27.4596 5.33052 27.1327L4.77296 27.3544L4.2154 27.576C4.26869 27.7101 4.29163 27.8625 4.27387 28.0439L4.87102 28.1023ZM4.77296 27.3544L5.33052 27.1327C5.24591 26.9199 5.17174 26.7039 5.10797 26.4848L4.53187 26.6525L3.95578 26.8202C4.03022 27.076 4.11677 27.3279 4.2154 27.576L4.77296 27.3544ZM4.53187 26.6525L5.10797 26.4848C5.01366 26.1608 4.84868 25.8619 4.62803 25.5882L4.1609 25.9648L3.69377 26.3413C3.82954 26.5097 3.91188 26.6694 3.95578 26.8202L4.53187 26.6525ZM4.1609 25.9648L4.62803 25.5882C4.48922 25.416 4.39437 25.244 4.33533 25.072L3.76783 25.2668L3.20034 25.4616C3.30896 25.7781 3.47615 26.0714 3.69377 26.3413L4.1609 25.9648ZM3.76783 25.2668L4.33533 25.072C4.30613 24.987 4.30198 24.8874 4.36538 24.7416L3.8151 24.5024L3.26482 24.2633C3.09753 24.6482 3.06187 25.0583 3.20034 25.4616L3.76783 25.2668ZM3.8151 24.5024L4.36538 24.7416C4.50313 24.4246 4.59019 24.1023 4.61623 23.777L4.01815 23.7291L3.42006 23.6812C3.40606 23.8562 3.35775 24.0494 3.26482 24.2633L3.8151 24.5024ZM4.01815 23.7291L4.61623 23.777C4.63455 23.5481 4.66505 23.3203 4.70777 23.0934L4.11814 22.9824L3.5285 22.8714C3.47795 23.1398 3.44179 23.4098 3.42006 23.6812L4.01815 23.7291ZM4.11814 22.9824L4.70777 23.0934C4.78843 22.6652 4.67571 22.2603 4.44404 21.9058L3.94177 22.234L3.4395 22.5622C3.53627 22.7103 3.54112 22.8044 3.5285 22.8714L4.11814 22.9824ZM3.94177 22.234L4.44404 21.9058C4.28863 21.6679 4.143 21.4242 4.00714 21.1746L3.48013 21.4614L2.95312 21.7482C3.10435 22.0261 3.26648 22.2974 3.4395 22.5622L3.94177 22.234ZM3.48013 21.4614L4.00714 21.1746C3.99922 21.16 4.00272 21.1614 4.0051 21.1772C4.00627 21.1849 4.00692 21.1946 4.00631 21.2056C4.00569 21.2166 4.00393 21.2268 4.00153 21.2357C3.99658 21.254 3.99111 21.2589 3.99758 21.2499C4.00471 21.2401 4.02297 21.2183 4.06119 21.1867L3.67948 20.7238L3.29777 20.2609C3.10135 20.4229 2.91959 20.6396 2.8431 20.9226C2.7625 21.2208 2.82169 21.5067 2.95312 21.7482L3.48013 21.4614ZM3.67948 20.7238L4.06119 21.1867C4.27113 21.0136 4.46427 20.7667 4.5066 20.4371C4.54914 20.1059 4.42319 19.818 4.26039 19.5982L3.77819 19.9552L3.29599 20.3123C3.31942 20.3439 3.3225 20.3567 3.32051 20.3506C3.31936 20.3471 3.31707 20.339 3.31577 20.3267C3.31445 20.3143 3.31438 20.2998 3.31638 20.2843C3.31837 20.2688 3.32204 20.2551 3.3262 20.2441C3.33029 20.2332 3.33416 20.2267 3.33554 20.2245C3.33776 20.221 3.32997 20.2344 3.29777 20.2609L3.67948 20.7238ZM3.77819 19.9552L4.26039 19.5982C4.23864 19.5688 4.2424 19.565 4.2484 19.5861C4.25577 19.6121 4.26105 19.6573 4.24766 19.7098C4.23484 19.76 4.21254 19.7869 4.20884 19.791C4.20703 19.793 4.22115 19.7772 4.26765 19.7497L3.96259 19.2331L3.65752 18.7164C3.42814 18.8519 3.17244 19.0703 3.08497 19.4129C2.993 19.7731 3.13085 20.0892 3.29599 20.3123L3.77819 19.9552ZM3.96259 19.2331L4.26765 19.7497C4.49192 19.6173 4.71364 19.4302 4.83981 19.1618C4.97602 18.872 4.96295 18.5689 4.85745 18.2993L4.2987 18.5179L3.73995 18.7365C3.74405 18.747 3.73918 18.7392 3.73929 18.7171C3.7394 18.6931 3.74531 18.6694 3.75377 18.6514C3.76128 18.6354 3.76548 18.6352 3.75193 18.6484C3.7378 18.6622 3.70906 18.686 3.65752 18.7164L3.96259 19.2331ZM4.2987 18.5179L4.85745 18.2993C4.7835 18.1103 4.77904 17.9703 4.80398 17.861L4.219 17.7276L3.63402 17.5941C3.54625 17.979 3.59492 18.3659 3.73995 18.7365L4.2987 18.5179ZM4.219 17.7276L4.80398 17.861C4.85866 17.6212 4.91787 17.3824 4.98161 17.1444L4.40204 16.9892L3.82247 16.8339C3.75487 17.0863 3.69205 17.3397 3.63402 17.5941L4.219 17.7276ZM4.40204 16.9892L4.98161 17.1444C5.07034 16.8132 5.08526 16.4673 5.03791 16.1142L4.44323 16.1939L3.84855 16.2736C3.87763 16.4905 3.86509 16.6749 3.82247 16.8339L4.40204 16.9892ZM4.44323 16.1939L5.03791 16.1142C5.01909 15.9738 5.04823 15.8873 5.10647 15.8109L4.62931 15.4471L4.15215 15.0834C3.88586 15.4327 3.79096 15.844 3.84855 16.2736L4.44323 16.1939ZM4.62931 15.4471L5.10647 15.8109C5.19958 15.6887 5.34763 15.5649 5.57986 15.4529L5.31923 14.9125L5.05861 14.3721C4.69546 14.5472 4.38356 14.7798 4.15215 15.0834L4.62931 15.4471ZM5.31923 14.9125L5.57986 15.4529C5.93979 15.2794 6.25167 15.0492 6.47211 14.743L5.98519 14.3924L5.49827 14.0418C5.42614 14.142 5.29404 14.2585 5.05861 14.3721L5.31923 14.9125ZM5.98519 14.3924L6.47211 14.743C6.73254 14.3813 6.79111 13.9544 6.72502 13.5301L6.13216 13.6224L5.53931 13.7148C5.56983 13.9107 5.53042 13.9972 5.49827 14.0418L5.98519 14.3924ZM6.13216 13.6224L6.72502 13.5301C6.71362 13.4569 6.72644 13.4405 6.72099 13.4533C6.71862 13.4589 6.7154 13.4633 6.71399 13.4649C6.7131 13.4658 6.71811 13.4599 6.73501 13.4497L6.42421 12.9364L6.11341 12.4232C5.90031 12.5523 5.72169 12.7371 5.61689 12.9833C5.5141 13.2247 5.5024 13.4778 5.53931 13.7148L6.13216 13.6224ZM6.42421 12.9364L6.73501 13.4497C6.97838 13.3023 7.15887 13.0793 7.23825 12.7933C7.31261 12.5254 7.28467 12.2524 7.21785 12.0062L6.6388 12.1633L6.05975 12.3205C6.07561 12.3789 6.08104 12.42 6.08222 12.446C6.08338 12.4715 6.08029 12.4784 6.08197 12.4723C6.08408 12.4647 6.08977 12.4511 6.1005 12.4372C6.11081 12.424 6.11818 12.4203 6.11341 12.4232L6.42421 12.9364ZM6.6388 12.1633L7.21785 12.0062C7.20428 11.9562 7.20523 11.9359 7.20513 11.9386C7.20491 11.9441 7.20218 11.9765 7.17857 12.0184C7.15405 12.0619 7.12214 12.0888 7.1015 12.1014C7.08469 12.1116 7.08583 12.1062 7.12118 12.0993L7.00668 11.5103L6.89217 10.9213C6.62007 10.9742 6.31159 11.1125 6.13305 11.4294C5.962 11.7331 5.9898 12.0628 6.05975 12.3205L6.6388 12.1633ZM7.00668 11.5103L7.12118 12.0993C7.36892 12.0511 7.62072 11.9507 7.8224 11.7573C8.03208 11.5562 8.13998 11.3 8.16917 11.0325L7.57271 10.9674L6.97624 10.9024C6.97437 10.9195 6.97177 10.9215 6.97501 10.9146C6.97869 10.9066 6.98494 10.8978 6.99176 10.8912C7.00476 10.8788 6.98963 10.9024 6.89217 10.9213L7.00668 11.5103ZM7.57271 10.9674L8.16917 11.0325C8.17664 10.964 8.19309 10.9339 8.20056 10.9228C8.20694 10.9132 8.22042 10.8964 8.2605 10.8764L7.99231 10.3396L7.72411 9.80291C7.27896 10.0253 7.02864 10.4221 6.97624 10.9024L7.57271 10.9674ZM7.99231 10.3396L8.2605 10.8764C8.50434 10.7545 8.74628 10.6368 8.9863 10.5232L8.72965 9.98087L8.47299 9.43853C8.22504 9.55587 7.97541 9.67733 7.72411 9.80291L7.99231 10.3396ZM8.72965 9.98087L8.9863 10.5232C9.4996 10.2803 9.69596 9.79259 9.70427 9.29465L9.10436 9.28463L8.50444 9.27462C8.50264 9.38288 8.48272 9.42704 8.47797 9.43586C8.47605 9.43944 8.47623 9.43818 8.47887 9.43569C8.4814 9.43331 8.48089 9.43479 8.47299 9.43853L8.72965 9.98087ZM9.10436 9.28463L9.70427 9.29465C9.7049 9.25722 9.71007 9.25076 9.70529 9.2638C9.69928 9.28019 9.68303 9.31184 9.64969 9.34215C9.61684 9.37203 9.58677 9.38301 9.57688 9.38576C9.56987 9.3877 9.58344 9.38275 9.62724 9.38467L9.65347 8.78524L9.67971 8.18582C9.41362 8.17417 9.09541 8.22421 8.84231 8.45438C8.5851 8.6883 8.50896 9.00406 8.50444 9.27462L9.10436 9.28463ZM9.65347 8.78524L9.62724 9.38467C10.0834 9.40463 10.5564 9.30266 10.8894 8.93379L10.444 8.53175L9.99865 8.12971C9.99806 8.13037 9.94409 8.19739 9.67971 8.18582L9.65347 8.78524ZM10.444 8.53175L10.8894 8.93379C11.0847 8.71741 11.2597 8.47748 11.415 8.21573L10.8991 7.90946L10.3831 7.60319C10.2653 7.80164 10.1369 7.97657 9.99865 8.12971L10.444 8.53175ZM10.8991 7.90946L11.415 8.21573C11.5294 8.02308 11.6591 7.85182 11.8039 7.70039L11.3701 7.28585L10.9363 6.87132C10.7262 7.09117 10.542 7.33565 10.3831 7.60319L10.8991 7.90946ZM11.3701 7.28585L11.8039 7.70039C11.8462 7.65612 11.9159 7.60971 12.0862 7.61111L12.0911 7.01113L12.0961 6.41115C11.6598 6.40757 11.2488 6.54431 10.9363 6.87132L11.3701 7.28585ZM12.0911 7.01113L12.0862 7.61111C12.5704 7.6151 13.0005 7.4169 13.2746 6.99371L12.771 6.66752L12.2674 6.34133C12.245 6.37591 12.2283 6.38635 12.2179 6.3916C12.2051 6.39809 12.1705 6.41177 12.0961 6.41115L12.0911 7.01113ZM12.771 6.66752L13.2746 6.99371C13.3321 6.90503 13.3872 6.87379 13.4739 6.86237L13.3955 6.26751L13.3171 5.67266C12.8712 5.73143 12.51 5.96687 12.2674 6.34133L12.771 6.66752ZM13.3955 6.26751L13.4739 6.86237C14.0453 6.78706 14.3763 6.36753 14.5319 5.8945L13.962 5.70701L13.392 5.51952C13.3563 5.62801 13.3226 5.66682 13.3148 5.67455C13.3118 5.67753 13.3129 5.67576 13.3177 5.67344C13.3224 5.67115 13.3234 5.67182 13.3171 5.67266L13.3955 6.26751ZM13.962 5.70701L14.5319 5.8945C14.5448 5.85523 14.5532 5.84696 14.5471 5.85511C14.5391 5.8659 14.5163 5.89087 14.4758 5.91066C14.4352 5.93049 14.401 5.93329 14.3867 5.93297C14.3758 5.93272 14.3867 5.93101 14.4248 5.94486L14.6296 5.38088L14.8343 4.8169C14.5816 4.72513 14.2601 4.68047 13.949 4.83244C13.6385 4.98412 13.4759 5.26456 13.392 5.51952L13.962 5.70701ZM14.6296 5.38088L14.4248 5.94486C14.829 6.09161 15.2536 6.15177 15.6575 6.03229L15.4873 5.45694L15.3171 4.88159C15.2447 4.90299 15.0975 4.91245 14.8343 4.8169L14.6296 5.38088ZM15.4873 5.45694L15.6575 6.03229C15.9198 5.95468 16.176 5.86094 16.4259 5.75107L16.1844 5.20182L15.9429 4.65257C15.7395 4.74198 15.531 4.81831 15.3171 4.88159L15.4873 5.45694ZM16.1844 5.20182L16.4259 5.75107C16.8423 5.56795 17.1175 5.19745 17.3039 4.78874L16.758 4.53982L16.212 4.29091C16.0868 4.56559 15.9796 4.63641 15.9429 4.65257L16.1844 5.20182ZM16.758 4.53982L17.3039 4.78874C17.3239 4.74493 17.3351 4.73516 17.3287 4.74204C17.3198 4.75158 17.2907 4.7779 17.2397 4.79478C17.188 4.81189 17.1456 4.80878 17.1263 4.80498C17.1113 4.80202 17.1208 4.8009 17.1576 4.8227L17.4632 4.30635L17.7688 3.78999C17.5344 3.65132 17.2104 3.54042 16.8625 3.65559C16.52 3.76898 16.3236 4.04624 16.212 4.29091L16.758 4.53982ZM17.4632 4.30635L17.1576 4.8227C17.5316 5.04405 17.9388 5.18702 18.3565 5.15336L18.3082 4.5553L18.26 3.95724C18.1797 3.96372 18.0235 3.94073 17.7688 3.78999L17.4632 4.30635ZM18.3082 4.5553L18.3565 5.15336C18.9243 5.10758 19.2802 4.67098 19.4969 4.24109L18.9612 3.97097L18.4254 3.70085C18.3531 3.84437 18.293 3.91584 18.2581 3.94705C18.2298 3.97239 18.2327 3.95944 18.26 3.95724L18.3082 4.5553ZM18.9612 3.97097L19.4969 4.24109C19.5685 4.09916 19.6295 4.02601 19.6676 3.99199C19.6996 3.96334 19.7059 3.96981 19.6923 3.97128L19.6276 3.37477L19.563 2.77827C19.0037 2.83892 18.6468 3.2617 18.4254 3.70085L18.9612 3.97097ZM19.6276 3.37477L19.6923 3.97128C19.6935 3.97115 19.7143 3.96779 19.7662 3.99262C19.8228 4.01969 19.9074 4.0766 20.0176 4.1877L20.4436 3.76513L20.8695 3.34256C20.5281 2.99844 20.0853 2.72163 19.563 2.77827L19.6276 3.37477ZM20.4436 3.76513L20.0176 4.1877C20.2109 4.38253 20.4904 4.5802 20.8484 4.58257C21.2265 4.58506 21.5052 4.37112 21.686 4.14961L21.2211 3.77027L20.7562 3.39092C20.7313 3.42149 20.7249 3.42023 20.7423 3.4102C20.7518 3.40474 20.7672 3.39736 20.7882 3.39155C20.8095 3.38566 20.8327 3.38244 20.8564 3.38259C20.9054 3.38292 20.9336 3.39723 20.9348 3.39785C20.9349 3.39789 20.929 3.39474 20.9173 3.38568C20.9056 3.37664 20.8896 3.36282 20.8695 3.34256L20.4436 3.76513ZM21.2211 3.77027L21.686 4.14961C21.7133 4.11609 21.7217 4.11515 21.7064 4.12435C21.6869 4.13604 21.6439 4.15473 21.5846 4.1552C21.5266 4.15565 21.4883 4.13832 21.4771 4.13214C21.4692 4.12775 21.4839 4.13427 21.5185 4.17169L21.9591 3.76446L22.3998 3.35723C22.2182 3.16073 21.9417 2.95235 21.5752 2.95523C21.1998 2.95819 20.9284 3.17991 20.7562 3.39092L21.2211 3.77027ZM21.9591 3.76446L21.5185 4.17169C21.6972 4.36506 21.9376 4.54707 22.2453 4.5992C22.5746 4.65498 22.8667 4.54374 23.0927 4.36906L22.7258 3.89432L22.3589 3.41959C22.343 3.43186 22.345 3.42651 22.3651 3.42051C22.3752 3.4175 22.3882 3.41487 22.4032 3.41392C22.4183 3.41296 22.4328 3.41386 22.4457 3.41605C22.4721 3.42052 22.4817 3.42845 22.4727 3.42279C22.4626 3.41643 22.4376 3.3982 22.3998 3.35723L21.9591 3.76446ZM22.7258 3.89432L23.0927 4.36906C23.1159 4.3511 23.1241 4.3496 23.1168 4.35225C23.1129 4.35365 23.1056 4.35587 23.0952 4.35743C23.0848 4.35901 23.0729 4.35964 23.0605 4.35886C23.0481 4.35809 23.0372 4.35604 23.0284 4.35359C23.0197 4.35117 23.0145 4.34876 23.0129 4.34798C23.0104 4.34669 23.0225 4.35231 23.0479 4.37629L23.46 3.94023L23.8722 3.50416C23.6856 3.32781 23.4388 3.18017 23.1354 3.1612C22.8289 3.14204 22.5649 3.26033 22.3589 3.41959L22.7258 3.89432ZM23.46 3.94023L23.0479 4.37629C23.2237 4.54244 23.4391 4.6794 23.696 4.73596C23.9598 4.79405 24.2174 4.75613 24.45 4.65243L24.2057 4.10441L23.9615 3.55639C23.9457 3.56344 23.9397 3.56366 23.9421 3.56337C23.9452 3.563 23.9501 3.56317 23.954 3.56403C23.9623 3.56586 23.9344 3.56297 23.8722 3.50416L23.46 3.94023ZM24.2057 4.10441L24.45 4.65243C24.7447 4.52106 25.0444 4.35262 25.3488 4.15058L25.0169 3.65069L24.6851 3.1508C24.4261 3.32272 24.185 3.45676 23.9615 3.55639L24.2057 4.10441ZM25.0169 3.65069L25.3488 4.15058C25.5172 4.03875 25.5716 4.07055 25.5824 4.0749L25.8069 3.51849L26.0314 2.96207C25.5523 2.76873 25.08 2.88867 24.6851 3.1508L25.0169 3.65069ZM25.8069 3.51849L25.5824 4.0749C25.6999 4.1223 25.84 4.22378 25.9922 4.42967L26.4747 4.07299L26.9572 3.71631C26.709 3.38055 26.4039 3.11236 26.0314 2.96207L25.8069 3.51849ZM26.4747 4.07299L25.9922 4.42967C26.2469 4.77409 26.5783 5.04945 27.0015 5.14805L27.1377 4.5637L27.2738 3.97934C27.2136 3.96531 27.103 3.91353 26.9572 3.71631L26.4747 4.07299ZM27.1377 4.5637L27.0015 5.14805C27.2718 5.21101 27.5478 5.25451 27.8293 5.27884L27.881 4.68107L27.9326 4.0833C27.7065 4.06376 27.487 4.02901 27.2738 3.97934L27.1377 4.5637ZM27.881 4.68107L27.8293 5.27884C28.078 5.30034 28.3281 5.32512 28.5795 5.35317L28.646 4.75688L28.7126 4.16058C28.4514 4.13143 28.1914 4.10567 27.9326 4.0833L27.881 4.68107ZM28.646 4.75688L28.5795 5.35317C28.8706 5.38566 29.171 5.39338 29.48 5.3776L29.4494 4.77838L29.4188 4.17916C29.1692 4.19191 28.934 4.18529 28.7126 4.16058L28.646 4.75688ZM29.4494 4.77838L29.48 5.3776C29.6125 5.37083 29.6999 5.40448 29.7796 5.47344L30.1721 5.01962L30.5646 4.5658C30.2394 4.28459 29.845 4.1574 29.4188 4.17916L29.4494 4.77838ZM30.1721 5.01962L29.7796 5.47344C29.9933 5.65824 30.2101 5.83195 30.4303 5.99441L30.7866 5.51167L31.1429 5.02893C30.9486 4.88551 30.7558 4.73118 30.5646 4.5658L30.1721 5.01962ZM30.7866 5.51167L30.4303 5.99441C30.5959 6.11664 30.7499 6.26297 30.8919 6.43559L31.3552 6.05427L31.8184 5.67294C31.6168 5.42798 31.3917 5.21258 31.1429 5.02893L30.7866 5.51167ZM31.3552 6.05427L30.8919 6.43559C31.1635 6.76544 31.5267 6.96143 31.9501 7.01143L32.0205 6.41557L32.0909 5.81971C31.9709 5.80555 31.8906 5.76068 31.8184 5.67294L31.3552 6.05427ZM32.0205 6.41557L31.9501 7.01143C32.0551 7.02382 32.1151 7.06104 32.1713 7.14076L32.6617 6.79494L33.152 6.44912C32.8967 6.08717 32.5293 5.87147 32.0909 5.81971L32.0205 6.41557ZM32.6617 6.79494L32.1713 7.14076C32.3637 7.41347 32.5918 7.6461 32.8574 7.83153L33.2009 7.33959L33.5444 6.84764C33.4025 6.74855 33.2711 6.61808 33.152 6.44912L32.6617 6.79494ZM33.2009 7.33959L32.8574 7.83153C33.1547 8.03912 33.4986 8.15641 33.8689 8.20128L33.9411 7.60564L34.0133 7.01C33.8041 6.98465 33.6546 6.92458 33.5444 6.84764L33.2009 7.33959ZM33.9411 7.60564L33.8689 8.20128C33.9942 8.21647 34.0355 8.25655 34.0687 8.31168L34.5827 8.00214L35.0967 7.6926C34.8538 7.28929 34.4673 7.06503 34.0133 7.01L33.9411 7.60564ZM34.5827 8.00214L34.0687 8.31168C34.201 8.5314 34.3265 8.75354 34.4451 8.97808L34.9756 8.69777L35.5061 8.41745C35.3769 8.17294 35.2404 7.93133 35.0967 7.6926L34.5827 8.00214ZM34.9756 8.69777L34.4451 8.97808C34.6065 9.28345 34.8213 9.5449 35.0906 9.75318L35.4576 9.27854L35.8247 8.80389C35.6992 8.70687 35.5926 8.58114 35.5061 8.41745L34.9756 8.69777ZM35.4576 9.27854L35.0906 9.75318C35.366 9.96617 35.6903 10.1098 36.0463 10.1975L36.1898 9.61489L36.3332 9.0323C36.1079 8.9768 35.9441 8.89621 35.8247 8.80389L35.4576 9.27854ZM36.1898 9.61489L36.0463 10.1975C36.0751 10.2046 36.0902 10.2118 36.0961 10.215C36.1014 10.2179 36.1003 10.2181 36.097 10.2146C36.0937 10.2111 36.0934 10.2094 36.0952 10.2133C36.0974 10.2179 36.1029 10.2316 36.1074 10.2586L36.6992 10.1593L37.2909 10.0599C37.2506 9.82021 37.153 9.58681 36.9732 9.39473C36.7939 9.20313 36.5681 9.09014 36.3332 9.0323L36.1898 9.61489ZM36.6992 10.1593L36.1074 10.2586C36.1896 10.748 36.4799 11.1248 36.9447 11.3149L37.1717 10.7595L37.3988 10.2041C37.3491 10.1838 37.3321 10.1651 37.3254 10.1567C37.3182 10.1476 37.3014 10.1223 37.2909 10.0599L36.6992 10.1593ZM37.1717 10.7595L36.9447 11.3149C37.1397 11.3946 37.2841 11.496 37.3922 11.6127L37.8323 11.2049L38.2725 10.7972C38.032 10.5375 37.736 10.342 37.3988 10.2041L37.1717 10.7595ZM37.8323 11.2049L37.3922 11.6127C37.586 11.8219 37.797 12.0196 38.0248 12.2061L38.4049 11.7419L38.785 11.2776C38.5979 11.1245 38.4273 10.9642 38.2725 10.7972L37.8323 11.2049ZM38.4049 11.7419L38.0248 12.2061C38.0251 12.2064 38.0236 12.2052 38.021 12.2022C38.0184 12.1992 38.0155 12.1953 38.0129 12.1907C38.007 12.1806 38.0062 12.1745 38.0067 12.1776C38.0087 12.1884 38.0146 12.2463 37.9766 12.3729L38.5513 12.5454L39.1259 12.7178C39.2705 12.2362 39.2587 11.6655 38.785 11.2776L38.4049 11.7419ZM38.5513 12.5454L37.9766 12.3729C37.9037 12.6157 37.868 12.8848 37.9302 13.1515C37.9966 13.4363 38.1631 13.6669 38.399 13.8254L38.7337 13.3274L39.0683 12.8294C39.0657 12.8276 39.0735 12.8325 39.0831 12.8463C39.0931 12.8604 39.0975 12.8733 39.0988 12.879C39.0998 12.8831 39.0969 12.8741 39.0991 12.8468C39.1012 12.8191 39.1082 12.7768 39.1259 12.7178L38.5513 12.5454ZM38.7337 13.3274L38.399 13.8254C38.5666 13.9381 38.6859 14.0634 38.7695 14.1988L39.2801 13.8838L39.7908 13.5688C39.6085 13.2734 39.3635 13.0278 39.0683 12.8294L38.7337 13.3274ZM39.2801 13.8838L38.7695 14.1988C38.7996 14.2476 38.8327 14.3382 38.7873 14.5325L39.3716 14.6689L39.9559 14.8053C40.0544 14.3837 40.0265 13.9508 39.7908 13.5688L39.2801 13.8838ZM39.3716 14.6689L38.7873 14.5325C38.6922 14.9399 38.7055 15.3583 38.9036 15.7367L39.4352 15.4584L39.9668 15.1802C39.9363 15.122 39.9072 15.014 39.9559 14.8053L39.3716 14.6689ZM39.4352 15.4584L38.9036 15.7367C39.0409 15.999 39.2115 16.2462 39.4128 16.4785L39.8662 16.0856L40.3197 15.6927C40.1748 15.5255 40.0581 15.3546 39.9668 15.1802L39.4352 15.4584ZM39.8662 16.0856L39.4128 16.4785C39.5105 16.5912 39.5591 16.7055 39.574 16.8325L40.1699 16.763L40.7659 16.6934C40.7219 16.3167 40.5681 15.9794 40.3197 15.6927L39.8662 16.0856ZM40.1699 16.763L39.574 16.8325C39.6006 17.0611 39.614 17.2914 39.6139 17.5238L40.2139 17.524L40.8139 17.5243C40.814 17.2456 40.798 16.9686 40.7659 16.6934L40.1699 16.763ZM40.2139 17.524L39.6139 17.5238C39.6137 18.1226 40.05 18.4947 40.4875 18.7064L40.7489 18.1663L41.0103 17.6263C40.8786 17.5626 40.8251 17.5121 40.8086 17.4923C40.8019 17.4843 40.8045 17.4851 40.8082 17.495C40.8122 17.5056 40.8139 17.5166 40.8139 17.5243L40.2139 17.524ZM40.7489 18.1663L40.4875 18.7064C40.6192 18.7702 40.6791 18.8231 40.7021 18.8498C40.7184 18.8685 40.7095 18.8645 40.7085 18.8489L41.3074 18.8126L41.9063 18.7763C41.8714 18.2003 41.4497 17.839 41.0103 17.6263L40.7489 18.1663ZM41.3074 18.8126L40.7085 18.8489C40.7118 18.9022 40.6943 19.032 40.5122 19.2564L40.9781 19.6345L41.444 20.0126C41.7323 19.6574 41.9344 19.2392 41.9063 18.7763L41.3074 18.8126ZM40.9781 19.6345L40.5122 19.2564C40.2257 19.6095 40.0136 20.0456 40.092 20.5281L40.6843 20.4319L41.2765 20.3356C41.2763 20.3346 41.2602 20.2391 41.444 20.0126L40.9781 19.6345ZM40.6843 20.4319L40.092 20.5281C40.1276 20.7467 40.1502 20.9665 40.1598 21.1878L40.7593 21.1616L41.3587 21.1354C41.347 20.8672 41.3196 20.6005 41.2765 20.3356L40.6843 20.4319ZM40.7593 21.1616L40.1598 21.1878C40.1843 21.7467 40.6128 22.1353 41.0262 22.3953L41.3457 21.8874L41.6651 21.3796C41.5083 21.2809 41.4228 21.2018 41.3806 21.1495C41.3416 21.1012 41.3571 21.0987 41.3587 21.1354L40.7593 21.1616ZM41.3457 21.8874L41.0262 22.3953C41.0876 22.4339 41.0987 22.4516 41.0898 22.4404C41.0772 22.4245 41.0343 22.3605 41.0331 22.2574C41.0319 22.1545 41.073 22.0899 41.0848 22.0742C41.0931 22.0632 41.082 22.0815 41.0214 22.1219L41.3545 22.621L41.6875 23.12C41.9059 22.9743 42.2384 22.6914 42.233 22.243C42.2276 21.7938 41.8874 21.5194 41.6651 21.3796L41.3457 21.8874ZM41.3545 22.621L41.0214 22.1219C40.615 22.3931 40.1894 22.8014 40.1994 23.3745L40.7993 23.364L41.3993 23.3535C41.4 23.395 41.3817 23.3986 41.4156 23.3532C41.4532 23.3029 41.5336 23.2228 41.6875 23.12L41.3545 22.621ZM40.7993 23.364L40.1994 23.3745C40.2057 23.7326 40.3106 24.0787 40.4856 24.4068L41.0149 24.1244L41.5443 23.842C41.4404 23.6472 41.4016 23.4864 41.3993 23.3535L40.7993 23.364ZM41.0149 24.1244L40.4856 24.4068C40.5604 24.5471 40.5529 24.6267 40.5325 24.6867L41.1006 24.8799L41.6686 25.073C41.813 24.6485 41.7484 24.2245 41.5443 23.842L41.0149 24.1244ZM41.1006 24.8799L40.5325 24.6867C40.3795 25.1367 40.4795 25.5816 40.7039 25.9706L41.2236 25.6708L41.7434 25.3711C41.6389 25.1899 41.6569 25.1075 41.6686 25.073L41.1006 24.8799ZM41.2236 25.6708L40.7039 25.9706C40.8184 26.1692 40.8293 26.2992 40.8154 26.3837L41.4074 26.481L41.9995 26.5783C42.0694 26.1527 41.9577 25.7427 41.7434 25.3711L41.2236 25.6708ZM41.4074 26.481L40.8154 26.3837C40.7853 26.5668 40.7231 26.7435 40.6254 26.9161L41.1475 27.2117L41.6697 27.5073C41.8347 27.2157 41.9458 26.9052 41.9995 26.5783L41.4074 26.481ZM41.1475 27.2117L40.6254 26.9161C40.5428 27.0621 40.412 27.2109 40.2127 27.3573L40.5679 27.8408L40.9232 28.3244C41.2339 28.0961 41.4895 27.8256 41.6697 27.5073L41.1475 27.2117ZM40.5679 27.8408L40.2127 27.3573C40.0126 27.5043 39.8403 27.7009 39.7474 27.9563C39.6537 28.2139 39.6607 28.4768 39.7275 28.7199L40.3061 28.5609L40.8846 28.4019C40.8774 28.3756 40.8771 28.3621 40.8772 28.359C40.8772 28.3568 40.8773 28.3604 40.8751 28.3664C40.873 28.3722 40.8716 28.3723 40.8764 28.3663C40.8818 28.3596 40.8953 28.3449 40.9232 28.3244L40.5679 27.8408ZM40.3061 28.5609L39.7275 28.7199C39.7367 28.7532 39.7391 28.7755 39.7395 28.7886C39.7398 28.801 39.7384 28.8059 39.7384 28.8061C39.7383 28.8064 39.7382 28.8066 39.7381 28.8069C39.738 28.8072 39.7374 28.8083 39.7361 28.8104C39.7336 28.8143 39.7264 28.8244 39.7097 28.8396L40.1122 29.2845L40.5147 29.7295C40.6935 29.5677 40.8315 29.3631 40.8975 29.1167C40.9628 28.873 40.947 28.629 40.8846 28.4019L40.3061 28.5609ZM40.1122 29.2845L39.7097 28.8396C39.35 29.1649 39.197 29.5999 39.254 30.0756L39.8498 30.0042L40.4455 29.9329C40.433 29.8284 40.4549 29.7836 40.5147 29.7295L40.1122 29.2845ZM39.8498 30.0042L39.254 30.0756C39.2811 30.3017 39.2685 30.4999 39.2247 30.6759L39.807 30.8208L40.3892 30.9657C40.472 30.6331 40.4879 30.287 40.4455 29.9329L39.8498 30.0042ZM39.807 30.8208L39.2247 30.6759C39.2255 30.6726 39.2282 30.6654 39.2332 30.658C39.2379 30.6511 39.2397 30.6514 39.2317 30.6574C39.2121 30.6721 39.1507 30.7077 39.0121 30.7371L39.1363 31.3241L39.2606 31.9111C39.7436 31.8088 40.245 31.5448 40.3892 30.9657L39.807 30.8208ZM39.1363 31.3241L39.0121 30.7371C38.7427 30.7941 38.426 30.9266 38.2362 31.2354C38.0417 31.5518 38.075 31.8975 38.1604 32.1647L38.7319 31.9822L39.3035 31.7997C39.29 31.7574 39.2931 31.7472 39.2926 31.7614C39.2919 31.7801 39.2855 31.8199 39.2586 31.8637C39.2323 31.9064 39.2031 31.9259 39.1961 31.93C39.192 31.9324 39.2087 31.9221 39.2606 31.9111L39.1363 31.3241ZM38.7319 31.9822L38.1604 32.1647C38.1749 32.2103 38.1726 32.2236 38.1729 32.2119C38.1731 32.1963 38.178 32.154 38.207 32.1046C38.2363 32.0549 38.2722 32.0286 38.2891 32.019C38.3022 32.0116 38.2948 32.019 38.2507 32.027L38.3578 32.6174L38.4649 33.2077C38.731 33.1595 39.0533 33.0324 39.241 32.7136C39.4271 32.3977 39.3852 32.0554 39.3035 31.7997L38.7319 31.9822ZM38.3578 32.6174L38.2507 32.027C37.9952 32.0734 37.723 32.1765 37.5159 32.3957C37.2967 32.6274 37.2175 32.9171 37.2248 33.1971L37.8246 33.1814L38.4244 33.1657C38.4239 33.1468 38.4268 33.1493 38.4214 33.1652C38.4187 33.1731 38.4145 33.1827 38.4082 33.1931C38.402 33.2034 38.395 33.2125 38.3879 33.22C38.3733 33.2355 38.3648 33.2376 38.3748 33.2329C38.386 33.2277 38.4136 33.2171 38.4649 33.2077L38.3578 32.6174ZM37.8246 33.1814L37.2248 33.1971C37.2315 33.4525 37.2025 33.6741 37.1451 33.8669L37.7201 34.0382L38.2951 34.2095C38.3933 33.88 38.434 33.5304 38.4244 33.1657L37.8246 33.1814ZM37.7201 34.0382L37.1451 33.8669C37.0884 34.0571 37.004 34.2162 36.8943 34.3513L37.3601 34.7295L37.8259 35.1077C38.0406 34.8433 38.1962 34.5416 38.2951 34.2095L37.7201 34.0382ZM37.3601 34.7295L36.8943 34.3513C36.8544 34.4004 36.7667 34.4706 36.542 34.5008L36.6217 35.0954L36.7014 35.6901C37.1369 35.6317 37.5415 35.4579 37.8259 35.1077L37.3601 34.7295ZM36.6217 35.0954L36.542 34.5008C36.134 34.5555 35.7529 34.6916 35.4509 34.9532L35.8438 35.4067L36.2366 35.8603C36.3116 35.7953 36.4492 35.7239 36.7014 35.6901L36.6217 35.0954ZM35.8438 35.4067L35.4509 34.9532C35.2017 35.1691 35.0006 35.4291 34.8465 35.7267L35.3794 36.0025L35.9122 36.2784C36.0003 36.1082 36.1088 35.971 36.2366 35.8603L35.8438 35.4067ZM35.3794 36.0025L34.8465 35.7267C34.6966 36.0163 34.5869 36.3401 34.5113 36.6916L35.0979 36.8177L35.6845 36.9437C35.742 36.6762 35.8199 36.4566 35.9122 36.2784L35.3794 36.0025ZM35.0979 36.8177L34.5113 36.6916C34.4763 36.8544 34.4226 36.8828 34.3879 36.8983L34.6339 37.4456L34.8798 37.9929C35.3309 37.7902 35.5865 37.3999 35.6845 36.9437L35.0979 36.8177ZM34.6339 37.4456L34.3879 36.8983C34.1525 37.0041 33.9164 37.1044 33.6796 37.1993L33.9027 37.7563L34.1257 38.3133C34.3781 38.2122 34.6295 38.1054 34.8798 37.9929L34.6339 37.4456ZM33.9027 37.7563L33.6796 37.1993C33.3798 37.3194 33.1055 37.4802 32.8598 37.6825L33.2411 38.1457L33.6223 38.609C33.7695 38.4879 33.9363 38.3891 34.1257 38.3133L33.9027 37.7563ZM33.2411 38.1457L32.8598 37.6825C32.7377 37.7829 32.5941 37.8548 32.4194 37.8959L32.5569 38.4799L32.6944 39.064C33.039 38.9828 33.3515 38.8319 33.6223 38.609L33.2411 38.1457ZM32.5569 38.4799L32.4194 37.8959C31.9095 38.0159 31.5942 38.3928 31.4335 38.8446L31.9988 39.0457L32.5641 39.2468C32.5985 39.1501 32.6325 39.1061 32.6498 39.0886C32.6629 39.0753 32.6737 39.0688 32.6944 39.064L32.5569 38.4799ZM31.9988 39.0457L31.4335 38.8446C31.4241 38.871 31.4213 38.8661 31.4371 38.8479C31.4556 38.8264 31.4872 38.8013 31.5287 38.7859C31.5678 38.7714 31.593 38.7738 31.591 38.7736C31.5871 38.7733 31.5615 38.77 31.5101 38.7498L31.291 39.3084L31.072 39.867C31.3183 39.9636 31.6325 40.0274 31.9463 39.9109C32.2818 39.7864 32.4694 39.5128 32.5641 39.2468L31.9988 39.0457ZM31.291 39.3084L31.5101 38.7498C31.2719 38.6564 31.0023 38.5979 30.7271 38.6426C30.432 38.6905 30.1892 38.8477 30.0171 39.0778L30.4976 39.4371L30.9781 39.7964C30.9806 39.7931 30.975 39.8013 30.9592 39.8111C30.9429 39.8213 30.9275 39.8258 30.9192 39.8271C30.9127 39.8282 30.92 39.8258 30.9461 39.8299C30.9728 39.834 31.0141 39.8443 31.072 39.867L31.291 39.3084ZM30.4976 39.4371L30.0171 39.0778C29.9436 39.1761 29.8809 39.2023 29.8025 39.208L29.8465 39.8064L29.8905 40.4048C30.3411 40.3717 30.7125 40.1516 30.9781 39.7964L30.4976 39.4371ZM29.8465 39.8064L29.8025 39.208C29.2741 39.2469 28.906 39.5803 28.6816 40.0049L29.2121 40.2853L29.7425 40.5657C29.7917 40.4725 29.8322 40.4338 29.851 40.4196C29.8645 40.4094 29.8732 40.4061 29.8905 40.4048L29.8465 39.8064ZM29.2121 40.2853L28.6816 40.0049C28.6644 40.0375 28.6547 40.0458 28.6584 40.0421C28.6638 40.0369 28.6812 40.0223 28.7106 40.0115C28.7243 40.0065 28.7376 40.0034 28.7494 40.0019C28.7611 40.0004 28.7694 40.0006 28.7735 40.0009C28.7807 40.0015 28.77 40.0019 28.7381 39.9887L28.5096 40.5435L28.2811 41.0983C28.5265 41.1994 28.8239 41.2484 29.1246 41.1378C29.424 41.0278 29.6192 40.799 29.7425 40.5657L29.2121 40.2853ZM28.5096 40.5435L28.7381 39.9887C28.3196 39.8164 27.8586 39.7732 27.4295 39.9937L27.7038 40.5274L27.9781 41.061C28.0036 41.0479 28.0798 41.0154 28.2811 41.0983L28.5096 40.5435ZM27.7038 40.5274L27.4295 39.9937C27.2479 40.0871 27.0606 40.1543 26.8666 40.1965L26.9941 40.7828L27.1215 41.3691C27.4192 41.3044 27.7051 41.2013 27.9781 41.061L27.7038 40.5274ZM26.9941 40.7828L26.8666 40.1965C26.5837 40.258 26.3067 40.3462 26.036 40.4604L26.2692 41.0132L26.5024 41.566C26.7065 41.4799 26.9127 41.4145 27.1215 41.3691L26.9941 40.7828ZM26.2692 41.0132L26.036 40.4604C25.904 40.516 25.7673 40.5337 25.6127 40.5098L25.5209 41.1027L25.4292 41.6957C25.7975 41.7526 26.1597 41.7106 26.5024 41.566L26.2692 41.0132ZM25.5209 41.1027L25.6127 40.5098C25.1434 40.4372 24.7228 40.6001 24.3831 40.9024L24.782 41.3506L25.1808 41.7988C25.3035 41.6897 25.3756 41.6874 25.4292 41.6957L25.5209 41.1027ZM24.782 41.3506L24.3831 40.9024C24.3587 40.9241 24.3428 40.9333 24.3364 40.9365C24.3307 40.9394 24.3321 40.9378 24.339 40.9368C24.3461 40.9358 24.3503 40.9367 24.3488 40.9364C24.3464 40.9359 24.3339 40.9331 24.3105 40.9211L24.0369 41.4551L23.7633 41.9891C23.9846 42.1025 24.2373 42.1628 24.5056 42.1252C24.772 42.0879 24.9976 41.9619 25.1808 41.7988L24.782 41.3506ZM24.0369 41.4551L24.3105 40.9211C23.8553 40.6879 23.369 40.7105 22.9389 40.9903L23.266 41.4933L23.5932 41.9963C23.6421 41.9644 23.6673 41.9622 23.6747 41.9619C23.6823 41.9615 23.709 41.9613 23.7633 41.9891L24.0369 41.4551ZM23.266 41.4933L22.9389 40.9903C22.9004 41.0153 22.8757 41.0273 22.8638 41.0322C22.8515 41.0372 22.8605 41.0316 22.8872 41.0292C22.9161 41.0267 22.9629 41.0283 23.0171 41.048C23.0721 41.0679 23.114 41.0988 23.1416 41.1276L22.7086 41.543L22.2757 41.9584C22.4701 42.161 22.7295 42.2481 22.9936 42.2245C23.2253 42.2039 23.4303 42.1022 23.5932 41.9963L23.266 41.4933ZM22.7086 41.543L23.1416 41.1276C22.8795 40.8544 22.5275 40.7491 22.1892 40.725L22.1467 41.3235L22.1042 41.922C22.2687 41.9337 22.2913 41.9746 22.2757 41.9584L22.7086 41.543Z" fill="#2930D1"/>
<path d="M22.5 15.332C22.7336 15.332 22.9671 15.3426 23.2002 15.3652V15.3662C23.4342 15.3897 23.6663 15.4234 23.8965 15.4688V15.4697C24.1273 15.5159 24.3542 15.5734 24.5791 15.6416C24.8034 15.7096 25.0244 15.7879 25.2422 15.8779L25.2432 15.8789C25.4592 15.9678 25.6705 16.0672 25.876 16.1777L25.8779 16.1787C26.0848 16.2888 26.2862 16.4097 26.4805 16.54C26.6761 16.6713 26.8648 16.8107 27.0459 16.959C27.2277 17.1087 27.4009 17.2662 27.5664 17.4316C27.7321 17.5974 27.8895 17.7708 28.0381 17.9521L28.0391 17.9531C28.1882 18.1343 28.3273 18.322 28.458 18.5176V18.5186C28.5232 18.6157 28.5864 18.7141 28.6465 18.8145L28.8193 19.1201C28.9296 19.3266 29.03 19.5397 29.1201 19.7568C29.21 19.9733 29.2894 20.1937 29.3574 20.418C29.4255 20.6427 29.4821 20.8703 29.5273 21.0996V21.1016C29.5733 21.3308 29.6082 21.5624 29.6309 21.7949V21.7969C29.6542 22.0295 29.665 22.2635 29.665 22.499C29.665 22.7343 29.6542 22.9677 29.6309 23.2002V23.2021C29.6082 23.4349 29.5734 23.6671 29.5273 23.8965V23.8975C29.4821 24.1268 29.4255 24.3544 29.3574 24.5791C29.2894 24.8035 29.21 25.0246 29.1201 25.2412C29.0751 25.3496 29.0276 25.4567 28.9775 25.5625L28.8193 25.877C28.7643 25.9803 28.7065 26.0824 28.6465 26.1826L28.458 26.4795C28.3274 26.6751 28.1882 26.8628 28.0391 27.0439L28.0381 27.0449C27.8895 27.2263 27.7322 27.3997 27.5664 27.5654C27.4001 27.7318 27.2267 27.89 27.0459 28.0381C26.8639 28.1871 26.6757 28.3275 26.4814 28.457H26.4805C26.2862 28.5874 26.0848 28.7083 25.8779 28.8184L25.876 28.8193C25.6712 28.9295 25.4604 29.0293 25.2441 29.1191C25.0254 29.2089 24.8035 29.2884 24.5791 29.3564C24.3543 29.4246 24.1272 29.4812 23.8965 29.5273C23.7817 29.55 23.6665 29.5697 23.5508 29.5869L23.2002 29.6309C22.9671 29.6535 22.7337 29.665 22.5 29.665C22.2658 29.665 22.0315 29.6536 21.7969 29.6309H21.7979C21.5637 29.6074 21.3319 29.5727 21.1016 29.5273H21.1025C20.8721 29.4811 20.6436 29.4246 20.4189 29.3564C20.1945 29.2884 19.9734 29.2087 19.7559 29.1191C19.6479 29.0743 19.541 29.0274 19.4355 28.9775L19.1211 28.8184C19.018 28.7633 18.9159 28.7057 18.8154 28.6455L18.5176 28.457L18.2305 28.2549C18.1362 28.185 18.0432 28.1127 17.9521 28.0381C17.772 27.8899 17.5987 27.7315 17.4326 27.5654H17.4316C17.2656 27.4002 17.1085 27.2263 16.96 27.0449C16.8105 26.8625 16.6708 26.6745 16.542 26.4805L16.541 26.4795L16.3525 26.1826L16.1787 25.876C16.0686 25.6698 15.968 25.4581 15.8779 25.2412C15.788 25.0246 15.7096 24.8035 15.6416 24.5791C15.5738 24.3555 15.5172 24.1279 15.4707 23.8965C15.4249 23.6681 15.3909 23.4353 15.3672 23.2002C15.3445 22.9661 15.333 22.7327 15.333 22.499C15.333 22.2652 15.3445 22.0312 15.3672 21.7969C15.3908 21.562 15.4249 21.3298 15.4707 21.1016C15.5172 20.87 15.5738 20.6417 15.6416 20.418C15.7096 20.1937 15.7881 19.9733 15.8779 19.7568C15.9681 19.5397 16.0675 19.3266 16.1777 19.1201L16.1787 19.1211C16.29 18.9134 16.4108 18.7128 16.541 18.5186L16.542 18.5166C16.6709 18.3225 16.8105 18.1346 16.96 17.9521C17.1085 17.7708 17.2657 17.5978 17.4316 17.4326L17.4326 17.4316C17.5983 17.266 17.7714 17.1073 17.9531 16.957C18.1339 16.8091 18.3223 16.67 18.5176 16.5391C18.6154 16.4738 18.715 16.4118 18.8154 16.3516L19.1211 16.1787C19.328 16.0678 19.5398 15.9678 19.7559 15.8789L19.7578 15.8779C19.9743 15.7881 20.1947 15.7096 20.4189 15.6416C20.6436 15.5735 20.8712 15.515 21.1016 15.4688C21.3318 15.4234 21.5637 15.3897 21.7979 15.3662L21.7969 15.3652C22.0314 15.3425 22.2659 15.332 22.5 15.332Z" stroke="#2930D1"/>
<path d="M27.2165 19.74C27.2165 19.8069 27.2107 19.873 27.1973 19.9392C27.1839 20.0045 27.1646 20.0689 27.1395 20.1309C27.1136 20.1928 27.0818 20.2514 27.0449 20.3066C27.0073 20.3627 26.9654 20.4146 26.9177 20.4615C26.8708 20.5092 26.8189 20.5511 26.7637 20.5887C26.7076 20.6256 26.649 20.6574 26.5871 20.6833C26.5251 20.7084 26.4607 20.7277 26.3954 20.7411C26.3292 20.7545 26.2631 20.7603 26.1961 20.7603C26.1292 20.7603 26.0631 20.7545 25.9969 20.7411C25.9316 20.7277 25.8672 20.7084 25.8052 20.6833C25.7433 20.6574 25.6847 20.6256 25.6295 20.5887C25.5734 20.5511 25.5215 20.5092 25.4746 20.4615C25.4269 20.4146 25.385 20.3627 25.3474 20.3066C25.3105 20.2514 25.2787 20.1928 25.2528 20.1309C25.2277 20.0689 25.2084 20.0045 25.195 19.9392C25.1816 19.873 25.1758 19.8069 25.1758 19.74C25.1758 19.673 25.1816 19.6069 25.195 19.5407C25.2084 19.4754 25.2277 19.411 25.2528 19.3491C25.2787 19.2871 25.3105 19.2285 25.3474 19.1724C25.385 19.1172 25.4269 19.0653 25.4746 19.0184C25.5215 18.9707 25.5734 18.928 25.6295 18.8912C25.6847 18.8544 25.7433 18.8225 25.8052 18.7966C25.8672 18.7715 25.9316 18.7522 25.9969 18.7388C26.0631 18.7254 26.1292 18.7196 26.1961 18.7188C26.2631 18.7196 26.3292 18.7254 26.3954 18.7388C26.4607 18.7522 26.5251 18.7715 26.5871 18.7966C26.649 18.8225 26.7076 18.8544 26.7637 18.8912C26.8189 18.928 26.8708 18.9707 26.9177 19.0184C26.9654 19.0653 27.0073 19.1172 27.0449 19.1724C27.0818 19.2285 27.1136 19.2871 27.1395 19.3491C27.1646 19.411 27.1839 19.4754 27.1973 19.5407C27.2107 19.6069 27.2165 19.673 27.2165 19.74Z" fill="#2930D1"/>
<path d="M26.4462 26.1218C26.3357 26.1218 26.2328 26.0925 26.1373 26.0356C26.0428 25.9787 25.9691 25.9008 25.9172 25.8029C25.8653 25.705 25.8427 25.6003 25.8486 25.4898C25.8544 25.3793 25.8879 25.2781 25.9507 25.186C27.0196 23.6048 26.663 22.4103 26.6479 22.3609C26.622 22.2848 26.6111 22.2069 26.617 22.1274C26.622 22.0479 26.6421 21.9725 26.6781 21.9006C26.7132 21.8294 26.7609 21.7666 26.8212 21.7147C26.8815 21.662 26.9493 21.6235 27.0255 21.5984C27.1008 21.5724 27.1786 21.5632 27.259 21.5691C27.3385 21.5749 27.4139 21.595 27.485 21.631C27.5561 21.667 27.6181 21.7156 27.67 21.7758C27.7219 21.8369 27.7604 21.9047 27.7855 21.9809C27.8089 22.0529 28.3647 23.7571 26.9434 25.8581C26.8882 25.941 26.8162 26.0055 26.7283 26.0515C26.6396 26.0984 26.5458 26.1218 26.4462 26.1218Z" fill="#2930D1"/>
</svg>
