<svg width="45" height="45" viewBox="0 0 45 45" fill="none" xmlns="http://www.w3.org/2000/svg">
<mask id="path-1-inside-1_76_11195" fill="white">
<path d="M9.5 17.5C9.5 10.3203 15.3203 4.5 22.5 4.5C29.6797 4.5 35.5 10.3203 35.5 17.5C35.5 24.6797 29.6797 30.5 22.5 30.5C15.3203 30.5 9.5 24.6797 9.5 17.5Z"/>
</mask>
<path d="M22.5 30.5V28.25C16.5629 28.25 11.75 23.4371 11.75 17.5H9.5H7.25C7.25 25.9223 14.0777 32.75 22.5 32.75V30.5ZM35.5 17.5H33.25C33.25 23.4371 28.4371 28.25 22.5 28.25V30.5V32.75C30.9223 32.75 37.75 25.9223 37.75 17.5H35.5ZM22.5 4.5V6.75C28.4371 6.75 33.25 11.5629 33.25 17.5H35.5H37.75C37.75 9.07766 30.9223 2.25 22.5 2.25V4.5ZM22.5 4.5V2.25C14.0777 2.25 7.25 9.07766 7.25 17.5H9.5H11.75C11.75 11.5629 16.5629 6.75 22.5 6.75V4.5Z" fill="#E52070" mask="url(#path-1-inside-1_76_11195)"/>
<path d="M23.625 29.5C23.625 28.8787 23.1213 28.375 22.5 28.375C21.8787 28.375 21.375 28.8787 21.375 29.5H22.5H23.625ZM21.375 40.5C21.375 41.1213 21.8787 41.625 22.5 41.625C23.1213 41.625 23.625 41.1213 23.625 40.5H22.5H21.375ZM22.5 29.5H21.375V40.5H22.5H23.625V29.5H22.5Z" fill="#E52070"/>
<path d="M17 35.875C16.3787 35.875 15.875 36.3787 15.875 37C15.875 37.6213 16.3787 38.125 17 38.125L17 37L17 35.875ZM28 38.125C28.6213 38.125 29.125 37.6213 29.125 37C29.125 36.3787 28.6213 35.875 28 35.875L28 37L28 38.125ZM17 37L17 38.125L28 38.125L28 37L28 35.875L17 35.875L17 37Z" fill="#E52070"/>
</svg>
