<svg width="60" height="60" viewBox="0 0 60 60" fill="none" xmlns="http://www.w3.org/2000/svg">
<g clip-path="url(#clip0_584_10752)">
<path d="M42.8806 1.48194C38.0562 -0.399435 34.0494 -0.490917 30.9734 1.21584C26.1957 3.86579 25.0074 10.2177 24.5604 12.6096C24.0041 15.5891 21.9368 21.0679 14.3302 24.3299C11.7714 25.4246 3.87559 30.1576 9.66428 45.047L9.92637 45.7058C11.144 48.735 12.3997 51.8741 7.99091 57.8471C7.64936 58.3108 7.74718 58.9612 8.2096 59.3024C8.66901 59.644 9.32473 59.5461 9.66428 59.0867C14.7649 52.1746 13.1539 48.1574 11.8568 44.9292L11.6027 44.2865C6.62904 31.4968 12.4271 27.4065 15.1502 26.2426C23.6462 22.5997 25.973 16.3757 26.6043 12.9909C27.2824 9.37002 28.5071 4.96557 31.9814 3.03545C34.4904 1.64487 37.9013 1.77408 42.1221 3.42274C51.1487 6.94277 52.771 16.4949 46.9442 31.8186C44.6996 37.7185 37.1898 49.2235 29.2082 50.376C27.8938 50.567 26.3476 50.4494 24.7029 50.3292C21.4256 50.0768 18.0325 49.8211 15.649 51.9332C14.0357 53.3665 13.1796 55.6475 13.0364 58.9168C13.011 59.488 13.4574 59.9778 14.0317 60.0002H14.0774C14.6336 60.0002 15.0911 59.5648 15.1184 59.0059C15.2353 56.3266 15.8596 54.521 17.0295 53.4904C18.7536 51.9572 21.6991 52.1789 24.5443 52.4006C26.2267 52.5285 27.9669 52.6607 29.5037 52.439C38.8628 51.0848 46.7325 38.22 48.8894 32.5562C56.7581 11.8767 49.9614 4.24474 42.8806 1.48194Z" fill="#2930D1"/>
<path d="M19.4037 31.3282C16.8218 31.8571 15.7127 33.5748 15.5918 33.7682C13.5018 37.2141 13.9592 40.3328 14.7134 42.3474C15.9374 45.6183 18.5733 47.7735 20.4984 48.3875C21.9184 48.8429 23.2379 49.0666 24.4538 49.0666C26.182 49.0666 27.6994 48.6088 28.9905 47.7003C31.9273 45.6307 32.785 41.7961 33.0314 39.9361L33.3282 39.9401C42.2306 39.9401 44.9263 31.3142 45.9713 27.9751C47.7889 22.1587 47.8193 17.6852 46.0568 14.6753C44.6214 12.2223 42.483 11.6878 42.4359 11.6878V11.6898C40.4641 10.9252 38.7643 10.9733 37.3901 11.841L37.2599 11.9265C37.1624 10.8615 36.908 9.94531 36.5037 9.23884C36.0219 8.40416 35.3204 7.84425 34.4747 7.62757L33.9462 7.52173C31.6528 7.2139 30.55 8.98777 30.2806 9.96969L30.2786 10.5066C30.8325 12.626 29.9524 14.5501 29.3464 15.3551C26.6334 18.9586 26.9232 22.4268 27.642 24.6985C25.6221 23.7757 23.5567 23.372 22.2726 24.7342C21.4981 25.5586 21.1361 26.5956 21.2276 27.7277C21.3271 28.9757 21.9648 30.2488 22.7808 31.4033C21.5912 31.1352 20.4671 31.1112 19.4037 31.3282ZM28.2971 34.0873C26.9706 33.0687 23.4879 29.9016 23.303 27.5591C23.2592 27.0032 23.4128 26.5602 23.7858 26.1605C24.2709 25.6504 26.023 25.8971 29.515 28.1337L29.8706 28.2769C31.0048 29.1854 32.2665 29.5924 33.598 29.4886C37.5847 29.1854 40.7846 24.3055 40.9211 24.0972C41.2303 23.6164 41.0941 22.9707 40.614 22.6609C40.1362 22.353 39.4918 22.4839 39.1766 22.9647C38.4144 24.1389 35.8953 27.2279 33.4414 27.4129C32.358 27.49 31.3964 27.0216 30.5263 26.0477C30.3951 25.8627 27.3495 21.4783 31.0131 16.6064C32.0044 15.293 32.9232 12.8857 32.3753 10.3092C32.5289 9.97169 32.9028 9.47255 33.6774 9.5844L33.9459 9.63615C34.1428 9.6869 34.4296 9.80909 34.7001 10.2795C35.2633 11.2541 35.3768 13.0467 35.0476 15.1203C34.6593 16.2689 34.5839 17.2418 34.5782 17.3189C34.5395 17.8538 34.9114 18.3282 35.4379 18.4197C35.9932 18.5155 36.4769 18.185 36.6192 17.6705C36.8122 16.967 36.9647 16.2799 37.0766 15.6131C37.353 14.8539 37.7961 14.0496 38.5056 13.6006C39.2922 13.1068 40.3599 13.1114 41.8339 13.6757C41.8927 13.6897 43.3077 14.0416 44.3019 15.7861C45.2758 17.4959 46.0097 20.891 43.9928 27.3528C42.3625 32.5686 39.5426 38.4477 32.1924 37.8054C31.9209 37.789 31.6281 37.8705 31.4114 38.0618C31.1947 38.2531 31.0719 38.5212 31.0568 38.806C31.0548 38.853 30.8385 43.8682 27.7929 46.0069C26.1543 47.1615 23.919 47.2917 21.1418 46.4033C19.6678 45.9338 17.5984 44.0959 16.6723 41.6135C16.0806 40.034 15.7227 37.578 17.3817 34.8476C17.3878 34.8352 18.1106 33.7171 19.8304 33.3672C20.1586 33.3024 20.5021 33.2633 20.858 33.2633C22.6553 33.2633 24.7787 34.1134 27.0637 35.756C27.5325 36.0896 28.1655 35.9877 28.5071 35.5347C28.8339 35.0773 28.7464 34.4369 28.2971 34.0873Z" fill="#2930D1"/>
</g>
<defs>
<clipPath id="clip0_584_10752">
<rect width="60" height="60" fill="white"/>
</clipPath>
</defs>
</svg>
