<svg width="24" height="24" viewBox="0 0 24 24" fill="none" xmlns="http://www.w3.org/2000/svg">
<g clip-path="url(#clip0_584_10870)">
<mask id="mask0_584_10870" style="mask-type:luminance" maskUnits="userSpaceOnUse" x="0" y="0" width="24" height="24">
<path d="M24 0H0V24H24V0Z" fill="white"/>
</mask>
<g mask="url(#mask0_584_10870)">
<path fill-rule="evenodd" clip-rule="evenodd" d="M18.364 18.364C14.8493 21.8787 9.15075 21.8787 5.63605 18.364C2.63746 15.3654 2.19712 10.7773 4.31502 7.3119L6.94285 6.46725C8.18915 6.06665 9.1196 7.6267 8.17485 8.53285C6.7009 9.94665 7.7401 12.4338 9.78175 12.3786L10.2985 12.3646C10.9661 12.3466 11.5578 12.7918 11.7254 13.4382L11.7903 13.6885C11.6246 13.6725 11.4534 13.6841 11.2826 13.7268L8.4542 14.4339C7.6505 14.6348 7.16185 15.4492 7.3628 16.2529C7.5637 17.0566 8.3781 17.5453 9.1818 17.3443L10.555 17.001L10.8983 18.3742C11.0804 19.1026 11.773 19.5842 12.5192 19.5013C16.4289 19.0669 18.2222 16.2963 18.7078 15.0016C18.8877 14.5218 18.8103 13.9834 18.5025 13.5738C18.1947 13.1642 17.6991 12.94 17.1882 12.9793L16.1532 13.0589L15.7533 11.4594C15.5524 10.6558 14.738 10.1671 13.9343 10.368C13.1306 10.569 12.6419 11.3834 12.8428 12.1871L13.55 15.0155C13.6413 15.381 13.8617 15.6851 14.1536 15.8865C13.9488 16.0067 13.724 16.1169 13.4775 16.2117L12.6934 13.1872C12.4089 12.09 11.4046 11.3344 10.2716 11.365L9.75475 11.379C8.6269 11.4094 8.05285 10.0356 8.86705 9.25455C10.5773 7.61415 8.89295 4.79003 6.63685 5.5152L5.35835 5.92615C5.44835 5.8279 5.5409 5.73115 5.63605 5.63605C9.15075 2.12132 14.8493 2.12132 18.364 5.63605C21.8787 9.15075 21.8787 14.8493 18.364 18.364ZM19.0711 19.0711C15.1659 22.9763 8.83415 22.9763 4.92893 19.0711C1.02369 15.1658 1.02369 8.83415 4.92893 4.92893C8.8342 1.02369 15.1658 1.02369 19.0711 4.92893C22.9763 8.83415 22.9763 15.1658 19.0711 19.0711ZM19.0711 11.2929C18.6806 11.6834 18.0474 11.6834 17.6569 11.2929C17.2664 10.9024 17.2664 10.2692 17.6569 9.8787C18.0474 9.48815 18.6806 9.48815 19.0711 9.8787C19.4616 10.2692 19.4616 10.9024 19.0711 11.2929ZM19.7782 12C18.9972 12.7811 17.7308 12.7811 16.9498 12C16.1687 11.219 16.1687 9.9526 16.9498 9.17155C17.7308 8.3905 18.9972 8.3905 19.7782 9.17155C20.5592 9.9526 20.5592 11.219 19.7782 12ZM17.703 14.1745C17.6004 14.038 17.4352 13.9633 17.2649 13.9764L15.8089 14.0884C15.5658 14.1071 15.3446 13.9477 15.2854 13.7111L14.7831 11.702C14.7162 11.4341 14.4447 11.2712 14.1768 11.3382C13.9089 11.4052 13.746 11.6766 13.813 11.9445L14.5201 14.7729C14.5792 15.0095 14.8004 15.1689 15.0435 15.1502L15.2781 15.1322C15.4888 15.116 15.6869 15.234 15.7731 15.4269C15.8592 15.6199 15.8147 15.8462 15.6619 15.9922C15.0877 16.5409 14.2896 17.0617 13.2239 17.3425C13.0946 17.3766 12.957 17.3574 12.842 17.2894C12.7269 17.2213 12.6438 17.11 12.6114 16.9803L12.1315 15.0607C12.0646 14.7928 11.7931 14.63 11.5252 14.6969L8.69675 15.404C8.42885 15.471 8.26595 15.7425 8.33295 16.0104C8.3999 16.2783 8.6714 16.4412 8.9393 16.3742L10.7976 15.9096C10.9262 15.8775 11.0623 15.8977 11.1761 15.9659C11.2898 16.0342 11.3717 16.1448 11.4039 16.2734L11.8685 18.1317C11.9292 18.3745 12.16 18.535 12.4087 18.5074C15.8321 18.127 17.3734 15.712 17.7715 14.6505C17.8314 14.4905 17.8056 14.3111 17.703 14.1745Z" fill="#2930D1"/>
</g>
</g>
<defs>
<clipPath id="clip0_584_10870">
<rect width="24" height="24" fill="white"/>
</clipPath>
</defs>
</svg>
