<svg width="18" height="18" viewBox="0 0 18 18" fill="none" xmlns="http://www.w3.org/2000/svg">
<path d="M11.6684 12.2871L10.9912 10.5943" stroke="black" stroke-width="0.847146" stroke-miterlimit="10" stroke-linecap="round" stroke-linejoin="round"/>
<path d="M8.60106 10.5943L7.92383 12.2871" stroke="black" stroke-width="0.847146" stroke-miterlimit="10" stroke-linecap="round" stroke-linejoin="round"/>
<path d="M6.21094 13.5808C6.21094 14.3509 6.83518 15 7.60523 15C8.37528 15 8.99952 14.3509 8.99952 13.5808C8.99952 12.8108 8.37528 12.1865 7.60523 12.1865C6.83518 12.1865 6.21094 12.8108 6.21094 13.5808Z" stroke="black" stroke-width="0.847146" stroke-miterlimit="10" stroke-linecap="round" stroke-linejoin="round"/>
<path d="M10.792 13.5808C10.792 14.3509 11.4162 15 12.1863 15C12.9563 15 13.5806 14.3509 13.5806 13.5808C13.5806 12.8108 12.9563 12.1865 12.1863 12.1865C11.4162 12.1865 10.792 12.8108 10.792 13.5808Z" stroke="black" stroke-width="0.847146" stroke-miterlimit="10" stroke-linecap="round" stroke-linejoin="round"/>
<path d="M6.76196 10.5938H12.83C13.5073 10.5938 14.0999 10.2548 14.2738 9.76786L14.9997 7.80517H4.61719L5.31814 9.76786C5.49206 10.2548 6.08463 10.5938 6.76196 10.5938Z" fill="#FFB8FF" stroke="black" stroke-width="0.847146" stroke-miterlimit="10" stroke-linecap="round" stroke-linejoin="round"/>
<path d="M8.40234 7.80566C14.9509 7.80566 15.0003 7.8031 15.0003 7.80566C15.0003 5.1655 13.0135 3.00034 10.5934 3.00034H9.99582L8.40234 7.80566Z" stroke="black" stroke-width="0.847146" stroke-miterlimit="10" stroke-linecap="round" stroke-linejoin="round"/>
<path d="M4.6174 7.80566L4.05498 5.97777C3.9147 5.52189 3.46907 5.21626 2.99902 5.21626" stroke="black" stroke-width="0.847146" stroke-miterlimit="10" stroke-linecap="round" stroke-linejoin="round"/>
</svg>
