<svg width="18" height="18" viewBox="0 0 18 18" fill="none" xmlns="http://www.w3.org/2000/svg">
<path d="M12.5998 6.04903V11.953M16.1998 4.58203V13.42M5.3998 11.953V6.04903M1.7998 13.42V4.58203" stroke="#9E9FC8" stroke-width="1.8" stroke-linecap="round" stroke-linejoin="round"/>
<path d="M0.900391 4.5H1.05339C2.65379 4.50027 4.22686 4.91488 5.6195 5.70346C7.01213 6.49204 8.17688 7.62773 9.00039 9C9.82786 10.3687 10.9935 11.5015 12.3852 12.2896C13.777 13.0777 15.348 13.4945 16.9474 13.5H17.1004" stroke="#404040" stroke-width="1.8" stroke-linecap="round" stroke-linejoin="round"/>
<path d="M0.900391 13.5H1.05339C2.65379 13.4997 4.22686 13.0851 5.6195 12.2965C7.01213 11.508 8.17688 10.3723 9.00039 9C9.8239 7.62773 10.9887 6.49204 12.3813 5.70346C13.7739 4.91488 15.347 4.50027 16.9474 4.5H17.1004" stroke="#404040" stroke-width="1.8" stroke-linecap="round" stroke-linejoin="round"/>
</svg>
