<svg width="18" height="18" viewBox="0 0 18 18" fill="none" xmlns="http://www.w3.org/2000/svg">
<path d="M6 11.25V7.5C6 7.10218 6.15804 6.72064 6.43934 6.43934C6.72064 6.15804 7.10218 6 7.5 6H10.5C10.8978 6 11.2794 6.15804 11.5607 6.43934C11.842 6.72064 12 7.10218 12 7.5V11.25" stroke="#404040" stroke-width="1.5" stroke-linecap="round" stroke-linejoin="round"/>
<path d="M10.5 10.5V15.75M7.5 15.75V10.5M10.5 3.75C10.5 4.04667 10.412 4.33668 10.2472 4.58336C10.0824 4.83003 9.84811 5.02229 9.57403 5.13582C9.29994 5.24935 8.99834 5.27906 8.70737 5.22118C8.41639 5.1633 8.14912 5.02044 7.93934 4.81066C7.72956 4.60088 7.5867 4.33361 7.52882 4.04264C7.47094 3.75166 7.50065 3.45006 7.61418 3.17597C7.72771 2.90189 7.91997 2.66762 8.16665 2.5028C8.41332 2.33797 8.70333 2.25 9 2.25C9.39783 2.25 9.77936 2.40804 10.0607 2.68934C10.342 2.97064 10.5 3.35218 10.5 3.75Z" stroke="#404040" stroke-width="1.5" stroke-linecap="round" stroke-linejoin="round"/>
<path d="M2.25 10.5H15M15 9V12M15.75 9.75V11.25M3 9V12M2.25 9.75V11.25" stroke="#9E9FC8" stroke-width="1.5" stroke-linecap="round" stroke-linejoin="round"/>
</svg>
