<svg width="18" height="18" viewBox="0 0 18 18" fill="none" xmlns="http://www.w3.org/2000/svg">
<path d="M9.21518 3.25375L14.4652 5.35374C14.6693 5.4354 14.8327 5.6804 14.8327 5.89623V7.8329C14.8327 8.15374 14.5702 8.41624 14.2493 8.41624H3.74935C3.42852 8.41624 3.16602 8.15374 3.16602 7.8329V5.89623C3.16602 5.6804 3.32935 5.4354 3.53352 5.35374L8.78352 3.25375C8.90019 3.20708 9.09851 3.20708 9.21518 3.25375Z" stroke="white" stroke-miterlimit="10" stroke-linecap="round" stroke-linejoin="round"/>
<path d="M14.8327 14.8333H3.16602V13.0833C3.16602 12.7625 3.42852 12.5 3.74935 12.5H14.2493C14.5702 12.5 14.8327 12.7625 14.8327 13.0833V14.8333Z" stroke="white" stroke-miterlimit="10" stroke-linecap="round" stroke-linejoin="round"/>
<path d="M4.33301 12.4993V8.41602" stroke="white" stroke-miterlimit="10" stroke-linecap="round" stroke-linejoin="round"/>
<path d="M7.44434 12.4993V8.41602" stroke="white" stroke-miterlimit="10" stroke-linecap="round" stroke-linejoin="round"/>
<path d="M10.5557 12.4993V8.41602" stroke="white" stroke-miterlimit="10" stroke-linecap="round" stroke-linejoin="round"/>
<path d="M13.666 12.4993V8.41602" stroke="white" stroke-miterlimit="10" stroke-linecap="round" stroke-linejoin="round"/>
<path d="M2.58301 14.833H15.4163" stroke="white" stroke-miterlimit="10" stroke-linecap="round" stroke-linejoin="round"/>
<path d="M9 6.95801C9.48325 6.95801 9.875 6.56626 9.875 6.08301C9.875 5.59976 9.48325 5.20801 9 5.20801C8.51675 5.20801 8.125 5.59976 8.125 6.08301C8.125 6.56626 8.51675 6.95801 9 6.95801Z" stroke="white" stroke-miterlimit="10" stroke-linecap="round" stroke-linejoin="round"/>
</svg>
