<svg width="18" height="18" viewBox="0 0 18 18" fill="none" xmlns="http://www.w3.org/2000/svg">
<path d="M3.06602 4.7793H14.5498C14.9295 4.7793 15.2389 5.08691 15.2389 5.46836V12.809C15.2389 13.1887 14.9313 13.498 14.5498 13.498H3.06602C2.68633 13.498 2.37695 13.1904 2.37695 12.809V5.46836C2.37695 5.08691 2.68633 4.7793 3.06602 4.7793Z" fill="#404040"/>
<path d="M6.97129 3.62988H10.8754C11.1285 3.62988 11.3342 3.83555 11.3342 4.08867V5.23828H6.51074V4.09043C6.51074 3.83555 6.71641 3.62988 6.97129 3.62988Z" fill="#F4CE26"/>
<path d="M11.7945 5.69668H6.05176V4.08828C6.05176 3.58203 6.46309 3.16895 6.97109 3.16895H10.8752C11.3814 3.16895 11.7945 3.58027 11.7945 4.08828V5.69668ZM6.96934 4.7791H10.8734V4.09004H6.96934V4.7791Z" fill="#404040"/>
<path d="M3.77716 5.70215H13.8758C14.1289 5.70215 14.3346 5.90781 14.3346 6.16094V12.1199C14.3346 12.373 14.1289 12.5787 13.8758 12.5787H3.77716C3.52403 12.5787 3.31837 12.373 3.31837 12.1199V6.16094C3.31661 5.90781 3.52228 5.70215 3.77716 5.70215Z" fill="white"/>
<path d="M4.73711 7.49414H7.03457C7.16113 7.49414 7.26484 7.59609 7.26484 7.72441V10.4807C7.26484 10.6072 7.16289 10.7109 7.03457 10.7109H4.73711C4.61055 10.7109 4.50684 10.609 4.50684 10.4807V7.72441C4.50684 7.59785 4.60879 7.49414 4.73711 7.49414Z" fill="#F5BF0D"/>
<path d="M7.03242 11.1695H4.73496C4.35527 11.1695 4.0459 10.8602 4.0459 10.4805V7.72422C4.0459 7.34453 4.35527 7.03516 4.73496 7.03516H7.03242C7.41211 7.03516 7.72148 7.34453 7.72148 7.72422V10.4805C7.72148 10.8602 7.41211 11.1695 7.03242 11.1695ZM4.96523 10.2502H6.80215V7.95449H4.96523V10.2502ZM9.32988 7.72422H11.9279C12.1811 7.72422 12.3867 7.92988 12.3867 8.18301C12.3867 8.43613 12.1811 8.6418 11.9279 8.6418H9.32988C9.07676 8.6418 8.87109 8.43613 8.87109 8.18301C8.87109 7.92988 9.07676 7.72422 9.32988 7.72422ZM9.32988 9.79141H12.3762C12.6293 9.79141 12.835 9.99707 12.835 10.2502C12.835 10.5033 12.6293 10.709 12.3762 10.709H9.32988C9.07676 10.709 8.87109 10.5033 8.87109 10.2502C8.87109 9.99707 9.07676 9.79141 9.32988 9.79141Z" fill="#404040"/>
</svg>
