<svg width="18" height="18" viewBox="0 0 18 18" fill="none" xmlns="http://www.w3.org/2000/svg">
<path d="M8.25 2.25H9.75M9 2.25V5.25M13.245 3.6975L14.3025 4.755M13.77 4.23L11.655 6.345M15.75 8.25V9.75M15.75 9H12.75M14.3025 13.245L13.245 14.3025M13.77 13.77L11.655 11.655M9.75 15.75H8.25M9 15.75V12.75M4.755 14.3025L3.6975 13.245M4.23 13.77L6.345 11.655M2.25 9.75V8.25M2.25 9H5.25M3.6975 4.755L4.755 3.6975M4.23 4.23L6.345 6.345" stroke="#9E9FC8" stroke-width="1.5" stroke-linecap="round" stroke-linejoin="round"/>
<path d="M9 12.75C11.0711 12.75 12.75 11.0711 12.75 9C12.75 6.92893 11.0711 5.25 9 5.25C6.92893 5.25 5.25 6.92893 5.25 9C5.25 11.0711 6.92893 12.75 9 12.75Z" stroke="#404040" stroke-width="1.5" stroke-linecap="round" stroke-linejoin="round"/>
</svg>
