<svg width="18" height="18" viewBox="0 0 18 18" fill="none" xmlns="http://www.w3.org/2000/svg">
<path d="M16.4404 4.21462C16.3842 4.07765 16.2886 3.96041 16.1658 3.87766C16.043 3.79491 15.8985 3.75036 15.7504 3.74962H14.2504V2.24962C14.2497 2.10155 14.2052 1.95701 14.1224 1.83422C14.0397 1.71143 13.9224 1.61588 13.7854 1.55962C13.6489 1.50218 13.4983 1.48649 13.3528 1.51452C13.2073 1.54255 13.0734 1.61305 12.9679 1.71712L10.7179 3.96712C10.6484 4.0372 10.5934 4.12031 10.5561 4.21169C10.5188 4.30306 10.4999 4.40091 10.5004 4.49962V6.44212L8.84294 8.09212C8.77265 8.16184 8.71685 8.24479 8.67877 8.33618C8.6407 8.42758 8.62109 8.52561 8.62109 8.62462C8.62109 8.72363 8.6407 8.82165 8.67877 8.91305C8.71685 9.00444 8.77265 9.08739 8.84294 9.15712C8.91266 9.22741 8.99562 9.28321 9.08701 9.32128C9.1784 9.35936 9.27643 9.37896 9.37544 9.37896C9.47445 9.37896 9.57248 9.35936 9.66388 9.32128C9.75527 9.28321 9.83822 9.22741 9.90794 9.15712L11.5579 7.49962H13.5004C13.5991 7.50019 13.697 7.48127 13.7884 7.44394C13.8798 7.40662 13.9629 7.35163 14.0329 7.28212L16.2829 5.03212C16.387 4.92665 16.4575 4.79272 16.4855 4.64723C16.5136 4.50173 16.4979 4.3512 16.4404 4.21462Z" fill="#9E9FC8"/>
<path d="M9 16.5C7.01088 16.5 5.10322 15.7098 3.6967 14.3033C2.29018 12.8968 1.5 10.9891 1.5 9C1.5 7.01088 2.29018 5.10322 3.6967 3.6967C5.10322 2.29018 7.01088 1.5 9 1.5H9.315C9.41349 1.50886 9.50927 1.53704 9.59687 1.58292C9.68448 1.6288 9.76218 1.69149 9.82556 1.7674C9.88894 1.84331 9.93674 1.93096 9.96624 2.02535C9.99574 2.11974 10.0064 2.21901 9.9975 2.3175C9.98864 2.41599 9.96046 2.51177 9.91458 2.59937C9.8687 2.68698 9.80601 2.76468 9.7301 2.82806C9.65419 2.89144 9.56654 2.93924 9.47215 2.96874C9.37776 2.99824 9.27849 3.00886 9.18 3H9C7.81331 3 6.65327 3.35189 5.66658 4.01118C4.67988 4.67047 3.91085 5.60754 3.45672 6.7039C3.0026 7.80026 2.88378 9.00666 3.11529 10.1705C3.3468 11.3344 3.91824 12.4035 4.75736 13.2426C5.59647 14.0818 6.66557 14.6532 7.82946 14.8847C8.99334 15.1162 10.1997 14.9974 11.2961 14.5433C12.3925 14.0892 13.3295 13.3201 13.9888 12.3334C14.6481 11.3467 15 10.1867 15 9C15.0037 8.94006 15.0037 8.87994 15 8.82C14.9907 8.72143 15.0011 8.622 15.0304 8.52745C15.0597 8.4329 15.1075 8.34509 15.171 8.26909C15.2344 8.19309 15.3123 8.13041 15.4001 8.08465C15.4879 8.0389 15.5839 8.01097 15.6825 8.0025C15.7811 7.99323 15.8805 8.00356 15.975 8.0329C16.0696 8.06225 16.1574 8.11002 16.2334 8.17347C16.3094 8.23692 16.3721 8.31479 16.4178 8.40258C16.4636 8.49038 16.4915 8.58636 16.5 8.685C16.5 8.79 16.5 8.895 16.5 9C16.5 10.9891 15.7098 12.8968 14.3033 14.3033C12.8968 15.7098 10.9891 16.5 9 16.5ZM13.41 9.9C13.4498 9.70109 13.4089 9.49452 13.2964 9.32574C13.1839 9.15695 13.0089 9.03978 12.81 9C12.6111 8.96022 12.4045 9.00108 12.2357 9.1136C12.067 9.22613 11.9498 9.40109 11.91 9.6C11.8023 10.1328 11.5518 10.6263 11.1854 11.0277C10.819 11.4292 10.3504 11.7236 9.82972 11.8795C9.30899 12.0353 8.75571 12.0468 8.22899 11.9126C7.70226 11.7784 7.22188 11.5037 6.83918 11.1177C6.45647 10.7317 6.18582 10.249 6.05614 9.7212C5.92646 9.19335 5.94262 8.64018 6.1029 8.12081C6.26318 7.60143 6.56156 7.13536 6.96615 6.77239C7.37074 6.40942 7.86634 6.16318 8.4 6.06C8.59891 6.02022 8.77387 5.90305 8.8864 5.73426C8.99892 5.56548 9.03978 5.35891 9 5.16C8.96022 4.96109 8.84305 4.78613 8.67426 4.6736C8.50548 4.56108 8.29891 4.52022 8.1 4.56C7.30358 4.72279 6.56613 5.09826 5.96598 5.64654C5.36584 6.19481 4.92541 6.89541 4.6915 7.67392C4.45758 8.45242 4.4389 9.27974 4.63746 10.068C4.83601 10.8563 5.24438 11.576 5.81917 12.1508C6.39397 12.7256 7.11373 13.134 7.90199 13.3325C8.69026 13.5311 9.51758 13.5124 10.2961 13.2785C11.0746 13.0446 11.7752 12.6042 12.3235 12.004C12.8717 11.4039 13.2472 10.6664 13.41 9.87V9.9Z" fill="#404040"/>
</svg>
