<svg width="18" height="18" viewBox="0 0 18 18" fill="none" xmlns="http://www.w3.org/2000/svg">
<path d="M15.5325 11.0183L14.4825 9.9683C14.3423 9.83088 14.1538 9.75391 13.9575 9.75391C13.7612 9.75391 13.5727 9.83088 13.4325 9.9683L9.75 13.6508V15.7508H11.85L15.5325 12.0683C15.6699 11.9281 15.7469 11.7396 15.7469 11.5433C15.7469 11.347 15.6699 11.1585 15.5325 11.0183Z" stroke="#9E9FC8" stroke-width="1.5" stroke-linecap="round" stroke-linejoin="round"/>
<path d="M6.75 15.75H3C2.80109 15.75 2.61032 15.671 2.46967 15.5303C2.32902 15.3897 2.25 15.1989 2.25 15C2.25 13.6076 2.80312 12.2723 3.78769 11.2877C4.77226 10.3031 6.10761 9.75 7.5 9.75H8.25" stroke="#404040" stroke-width="1.5" stroke-linecap="round" stroke-linejoin="round"/>
<path d="M8.25 9.75C10.3211 9.75 12 8.07107 12 6C12 3.92893 10.3211 2.25 8.25 2.25C6.17893 2.25 4.5 3.92893 4.5 6C4.5 8.07107 6.17893 9.75 8.25 9.75Z" stroke="#404040" stroke-width="1.5" stroke-linecap="round" stroke-linejoin="round"/>
</svg>
