<svg width="18" height="18" viewBox="0 0 18 18" fill="none" xmlns="http://www.w3.org/2000/svg">
<path d="M9 15.75C12.7279 15.75 15.75 12.7279 15.75 9C15.75 5.27208 12.7279 2.25 9 2.25C5.27208 2.25 2.25 5.27208 2.25 9C2.25 12.7279 5.27208 15.75 9 15.75Z" stroke="#404040" stroke-width="1.5" stroke-linecap="round" stroke-linejoin="round"/>
<path d="M9 15.75C10.2426 15.75 11.25 12.7279 11.25 9C11.25 5.27208 10.2426 2.25 9 2.25C7.75736 2.25 6.75 5.27208 6.75 9C6.75 12.7279 7.75736 15.75 9 15.75Z" stroke="#9E9FC8" stroke-width="1.5" stroke-linecap="round" stroke-linejoin="round"/>
<path d="M14.4006 13.0505C13.4483 12.2509 12.307 11.7086 11.0856 11.4755C9.71185 11.1748 8.28932 11.1748 6.91559 11.4755C5.69414 11.7086 4.55282 12.2509 3.60059 13.0505" stroke="#404040" stroke-width="1.5" stroke-linecap="round" stroke-linejoin="round"/>
<path d="M14.4006 4.94922C13.4483 5.7489 12.307 6.29115 11.0856 6.52422C10.4012 6.67677 9.7018 6.75224 9.00058 6.74922C8.29937 6.75224 7.60001 6.67677 6.91559 6.52422C5.69414 6.29115 4.55282 5.7489 3.60059 4.94922" stroke="#404040" stroke-width="1.5" stroke-linecap="round" stroke-linejoin="round"/>
</svg>
