<svg width="18" height="18" viewBox="0 0 18 18" fill="none" xmlns="http://www.w3.org/2000/svg">
<path d="M12 9.51916L6.45903 15.2137C6.21648 15.463 5.92853 15.6608 5.61162 15.7957C5.29471 15.9306 4.95506 16 4.61204 16C4.26902 16 3.92936 15.9306 3.61245 15.7957C3.29555 15.6608 3.0076 15.463 2.76505 15.2137C2.2752 14.7103 2 14.0275 2 13.3155C2 12.6036 2.2752 11.9208 2.76505 11.4174L4.61204 9.51916C4.61204 9.51916 6.0328 8.35105 8.30602 9.51916C10.5792 10.6873 12 9.51916 12 9.51916Z" fill="#9E9FC8"/>
<path d="M16.827 5.97932L12.3984 1.66835C12.2876 1.56056 12.1374 1.5 11.9808 1.5C11.8242 1.5 11.674 1.56056 11.5633 1.66835L3.89076 9.13702L3.88989 9.13783L1.96785 11.0088C1.34814 11.612 0.999996 12.4302 1 13.2833C1 14.1364 1.34816 14.9546 1.96787 15.5579C2.58759 16.1611 3.4281 16.5 4.3045 16.5C5.1809 16.5 6.02141 16.1611 6.64112 15.5578L12.3946 9.95731L12.3955 9.95638L14.957 7.46294L16.5962 6.93105C16.6917 6.90007 16.7775 6.84585 16.8454 6.77352C16.9133 6.7012 16.9611 6.61318 16.9842 6.51782C17.0073 6.42247 17.005 6.32294 16.9775 6.22869C16.95 6.13444 16.8982 6.0486 16.827 5.97932ZM5.80602 14.745C5.60889 14.9372 5.37478 15.0897 5.11708 15.1938C4.85937 15.2979 4.58312 15.3515 4.30411 15.3516C4.0251 15.3517 3.7488 15.2983 3.49101 15.1944C3.23322 15.0905 2.99898 14.9382 2.80169 14.7462C2.60441 14.5541 2.44793 14.3261 2.34121 14.0752C2.2345 13.8242 2.17963 13.5553 2.17974 13.2837C2.17986 13.0121 2.23496 12.7432 2.34189 12.4923C2.44882 12.2414 2.60549 12.0136 2.80294 11.8217L4.69233 9.98249C4.85069 9.87346 6.013 9.15325 7.87861 10.0612C8.69017 10.4563 9.41436 10.6099 10.032 10.6313L5.80602 14.745ZM14.4513 6.41526C14.3643 6.44348 14.2853 6.49102 14.2205 6.55412L11.5929 9.11185C11.4343 9.22108 10.2721 9.94093 8.40674 9.03304C7.59493 8.63789 6.87066 8.48478 6.25285 8.46346L11.9808 2.88769L15.3164 6.13457L14.4513 6.41526Z" fill="#404040"/>
</svg>
