<svg width="14" height="14" viewBox="0 0 14 14" fill="none" xmlns="http://www.w3.org/2000/svg">
<path d="M4.66714 12.8333H9.3338C11.6788 12.8333 12.0988 11.8942 12.2213 10.7508L12.6588 6.08417C12.8163 4.66083 12.408 3.5 9.91713 3.5H4.0838C1.59297 3.5 1.18464 4.66083 1.34214 6.08417L1.77964 10.7508C1.90214 11.8942 2.32214 12.8333 4.66714 12.8333Z" stroke="#8C8C8C" stroke-miterlimit="10" stroke-linecap="round" stroke-linejoin="round"/>
<path d="M4.66699 3.50033V3.03366C4.66699 2.00116 4.66699 1.16699 6.53366 1.16699H7.46699C9.33366 1.16699 9.33366 2.00116 9.33366 3.03366V3.50033" stroke="#8C8C8C" stroke-miterlimit="10" stroke-linecap="round" stroke-linejoin="round"/>
<path d="M8.16732 7.58333V8.16667C8.16732 8.1725 8.16732 8.1725 8.16732 8.17833C8.16732 8.81417 8.16148 9.33333 7.00065 9.33333C5.84565 9.33333 5.83398 8.82 5.83398 8.18417V7.58333C5.83398 7 5.83398 7 6.41732 7H7.58398C8.16732 7 8.16732 7 8.16732 7.58333Z" stroke="#8C8C8C" stroke-miterlimit="10" stroke-linecap="round" stroke-linejoin="round"/>
<path d="M12.6295 6.41699C11.282 7.39699 9.74199 7.98033 8.16699 8.17866" stroke="#8C8C8C" stroke-miterlimit="10" stroke-linecap="round" stroke-linejoin="round"/>
<path d="M1.5293 6.57422C2.8418 7.47255 4.32346 8.01505 5.8343 8.18422" stroke="#8C8C8C" stroke-miterlimit="10" stroke-linecap="round" stroke-linejoin="round"/>
</svg>
