<svg width="70" height="70" viewBox="0 0 70 70" fill="none" xmlns="http://www.w3.org/2000/svg">
<rect width="70" height="70" rx="35" fill="white"/>
<path d="M21.0674 39.6144V42.3659L25.0921 44.72V41.9642L21.0674 39.6144ZM21.0674 39.6144V42.3659L25.0921 44.72V41.9642L21.0674 39.6144ZM46.8263 29.3906V36.3375C46.8263 36.5982 46.6853 36.8417 46.4589 36.9742L41.9985 39.5761C41.8831 39.6444 41.755 39.6744 41.6268 39.6744C41.5029 39.6744 41.3747 39.6444 41.2593 39.5761C41.0329 39.4479 40.8919 39.2044 40.8919 38.9395V32.8511L35.5641 35.9529V54.4269L52.1585 44.7538V26.2798L46.8263 29.3906ZM42.618 47.5616L38.2771 50.0909C38.1618 50.1593 38.0336 50.1934 37.9097 50.1934C37.6534 50.1934 37.4098 50.061 37.2731 49.826C37.068 49.4757 37.1834 49.0228 37.538 48.8177L41.8745 46.2884C42.2249 46.0833 42.6778 46.2029 42.8829 46.5533C43.088 46.9079 42.9683 47.3565 42.618 47.5616ZM17.5 26.2805V44.7545L34.0944 54.4276V35.9536L17.5 26.2805ZM26.5617 46.0019C26.5617 46.2668 26.4207 46.5103 26.1943 46.6385C26.0789 46.7069 25.955 46.7368 25.8269 46.7368C25.6987 46.7368 25.5705 46.7069 25.4552 46.6385L19.9607 43.4256C19.7343 43.2932 19.5933 43.0539 19.5933 42.789V38.3286C19.5933 38.0637 19.7343 37.8202 19.965 37.692C20.1914 37.5595 20.4734 37.5595 20.7041 37.692L26.1986 40.9049C26.425 41.0373 26.5617 41.2809 26.5617 41.5415L26.5617 46.0019ZM21.0674 42.3659L25.0921 44.72V41.9642L21.0674 39.6144V42.3659ZM23.5838 21.8708L18.2261 24.994L34.8287 34.6797L40.1821 31.5565L23.5838 21.8708ZM42.3656 31.988V37.6575L45.3521 35.9143V30.2492L42.3656 31.988ZM28.0058 19.2901L25.045 21.0205L41.6437 30.7062L44.6173 28.9716L28.0058 19.2901ZM34.8292 15.3125L29.4672 18.44L46.0785 28.1169L51.432 24.9938L34.8292 15.3125Z" fill="#FC5C2C"/>
</svg>
