<svg width="149" height="151" viewBox="0 0 149 151" fill="none" xmlns="http://www.w3.org/2000/svg">
<rect x="24.5" width="100" height="100" rx="50" fill="#FC5C2C"/>
<path d="M54.5963 56.5403V60.4709L60.3459 63.8339V59.8971L54.5963 56.5403ZM54.5963 56.5403V60.4709L60.3459 63.8339V59.8971L54.5963 56.5403ZM91.3948 41.9348V51.859C91.3948 52.2313 91.1934 52.5792 90.8699 52.7685L84.4978 56.4855C84.333 56.5832 84.1499 56.6259 83.9668 56.6259C83.7898 56.6259 83.6067 56.5832 83.4419 56.4855C83.1184 56.3024 82.917 55.9545 82.917 55.5761V46.8784L75.3059 51.3096V77.701L99.0122 63.8822V37.4908L91.3948 41.9348ZM85.3828 67.8934L79.1816 71.5067C79.0168 71.6043 78.8337 71.6532 78.6567 71.6532C78.2905 71.6532 77.9426 71.464 77.7473 71.1283C77.4543 70.6278 77.6191 69.9808 78.1257 69.6878L84.3208 66.0745C84.8213 65.7815 85.4683 65.9524 85.7612 66.4529C86.0542 66.9595 85.8833 67.6004 85.3828 67.8934ZM49.5 37.4918V63.8832L73.2062 77.702V51.3106L49.5 37.4918ZM62.4453 65.6653C62.4453 66.0437 62.2439 66.3916 61.9204 66.5747C61.7556 66.6724 61.5786 66.7151 61.3955 66.7151C61.2124 66.7151 61.0293 66.6724 60.8645 66.5747L53.0153 61.9849C52.6918 61.7957 52.4904 61.4539 52.4904 61.0754V54.7034C52.4904 54.325 52.6918 53.9771 53.0214 53.7939C53.3449 53.6047 53.7477 53.6047 54.0773 53.7939L61.9265 58.3838C62.25 58.573 62.4453 58.9209 62.4453 59.2932L62.4453 65.6653ZM54.5963 60.4709L60.3459 63.8339V59.8971L54.5963 56.5403V60.4709ZM58.1911 31.1923L50.5373 35.6539L74.2552 49.4907L81.903 45.029L58.1911 31.1923ZM85.0223 45.6454V53.7446L89.2887 51.2544V43.1614L85.0223 45.6454ZM64.5083 27.5056L60.2785 29.9775L83.991 43.8143L88.2391 41.3362L64.5083 27.5056ZM74.2559 21.8232L66.596 26.2911L90.3265 40.1153L97.9742 35.6536L74.2559 21.8232Z" fill="white"/>
<path d="M13.5927 142.455C11.8893 142.455 10.3027 142.122 8.83268 141.457C7.37435 140.792 6.10268 139.877 5.01768 138.71C3.93268 137.532 3.08101 136.178 2.46268 134.65C1.85601 133.11 1.55268 131.465 1.55268 129.715C1.55268 127.872 1.87935 126.18 2.53268 124.64C3.19768 123.1 4.10185 121.764 5.24518 120.632C6.38851 119.501 7.68351 118.626 9.13018 118.007C10.5885 117.389 12.1052 117.08 13.6802 117.08C15.4418 117.08 17.151 117.494 18.8077 118.322C20.476 119.139 21.946 120.405 23.2177 122.12L19.4027 124.167C18.621 123.211 17.7227 122.499 16.7077 122.032C15.7043 121.554 14.6777 121.315 13.6277 121.315C12.601 121.315 11.6152 121.525 10.6702 121.945C9.73685 122.365 8.90268 122.96 8.16768 123.73C7.44435 124.488 6.87268 125.387 6.45268 126.425C6.03268 127.452 5.82268 128.577 5.82268 129.802C5.82268 130.957 6.02685 132.048 6.43518 133.075C6.84351 134.09 7.40351 134.982 8.11518 135.752C8.83851 136.511 9.67268 137.106 10.6177 137.537C11.5627 137.969 12.5777 138.185 13.6627 138.185C14.386 138.185 15.0918 138.074 15.7802 137.852C16.4802 137.619 17.1335 137.287 17.7402 136.855C18.3585 136.423 18.9068 135.898 19.3852 135.28C19.8752 134.662 20.2835 133.962 20.6102 133.18H16.1477V129.452H25.6327C25.6793 131.237 25.3993 132.912 24.7927 134.475C24.186 136.038 23.3285 137.421 22.2202 138.622C21.1118 139.824 19.8227 140.763 18.3527 141.44C16.8827 142.117 15.296 142.455 13.5927 142.455ZM36.1402 142.455C34.5302 142.455 33.0602 142.041 31.7302 141.212C30.4119 140.384 29.3561 139.276 28.5627 137.887C27.7811 136.487 27.3902 134.942 27.3902 133.25C27.3902 131.967 27.6177 130.771 28.0727 129.662C28.5277 128.542 29.1519 127.562 29.9452 126.722C30.7502 125.871 31.6836 125.206 32.7452 124.727C33.8069 124.249 34.9386 124.01 36.1402 124.01C37.7502 124.01 39.2144 124.424 40.5327 125.252C41.8627 126.081 42.9186 127.195 43.7002 128.595C44.4936 129.995 44.8902 131.547 44.8902 133.25C44.8902 134.522 44.6627 135.712 44.2077 136.82C43.7527 137.928 43.1227 138.908 42.3177 139.76C41.5244 140.6 40.5969 141.259 39.5352 141.737C38.4852 142.216 37.3536 142.455 36.1402 142.455ZM36.1402 138.185C36.9919 138.185 37.7561 137.957 38.4327 137.503C39.1094 137.047 39.6402 136.447 40.0252 135.7C40.4219 134.953 40.6202 134.137 40.6202 133.25C40.6202 132.34 40.4161 131.512 40.0077 130.765C39.6111 130.007 39.0686 129.406 38.3802 128.962C37.7036 128.507 36.9569 128.28 36.1402 128.28C35.3002 128.28 34.5419 128.507 33.8652 128.962C33.1886 129.417 32.6519 130.024 32.2552 130.782C31.8586 131.541 31.6602 132.363 31.6602 133.25C31.6602 134.172 31.8644 135.006 32.2727 135.752C32.6811 136.499 33.2236 137.094 33.9002 137.537C34.5886 137.969 35.3352 138.185 36.1402 138.185ZM56.1034 142V117.5H64.8534C66.1834 117.5 67.3851 117.832 68.4584 118.497C69.5434 119.162 70.4009 120.055 71.0309 121.175C71.6609 122.295 71.9759 123.526 71.9759 124.867C71.9759 126.244 71.6492 127.492 70.9959 128.612C70.3542 129.721 69.4909 130.607 68.4059 131.272C67.3209 131.926 66.1367 132.252 64.8534 132.252H60.3734V142H56.1034ZM60.3734 127.982H64.3984C65.0051 127.982 65.5592 127.831 66.0609 127.527C66.5626 127.224 66.9592 126.816 67.2509 126.302C67.5542 125.789 67.7059 125.217 67.7059 124.587C67.7059 123.946 67.5542 123.368 67.2509 122.855C66.9592 122.342 66.5626 121.933 66.0609 121.63C65.5592 121.327 65.0051 121.175 64.3984 121.175H60.3734V127.982ZM87.0094 124.5H91.2794V142H87.0094L86.8169 139.83C86.3385 140.612 85.7027 141.247 84.9094 141.737C84.1277 142.216 83.2002 142.455 82.1269 142.455C80.8319 142.455 79.6185 142.21 78.4869 141.72C77.3552 141.23 76.3577 140.553 75.4944 139.69C74.6427 138.827 73.9719 137.829 73.4819 136.697C73.0035 135.566 72.7644 134.352 72.7644 133.057C72.7644 131.809 72.9919 130.637 73.4469 129.54C73.9135 128.443 74.561 127.481 75.3894 126.652C76.2177 125.824 77.1744 125.177 78.2594 124.71C79.3444 124.243 80.511 124.01 81.7594 124.01C82.9144 124.01 83.9469 124.267 84.8569 124.78C85.7785 125.293 86.5602 125.947 87.2019 126.74L87.0094 124.5ZM82.0219 138.342C82.9319 138.342 83.7369 138.115 84.4369 137.66C85.1369 137.205 85.6852 136.592 86.0819 135.822C86.4785 135.041 86.6769 134.183 86.6769 133.25C86.6769 132.305 86.4785 131.447 86.0819 130.677C85.6852 129.896 85.131 129.277 84.4194 128.822C83.7194 128.367 82.9202 128.14 82.0219 128.14C81.1235 128.14 80.301 128.373 79.5544 128.84C78.8194 129.295 78.2302 129.907 77.7869 130.677C77.3552 131.447 77.1394 132.305 77.1394 133.25C77.1394 134.195 77.361 135.052 77.8044 135.822C78.2477 136.592 78.8369 137.205 79.5719 137.66C80.3185 138.115 81.1352 138.342 82.0219 138.342ZM94.619 142L94.6015 124.5H98.8715L98.889 126.057C99.484 125.427 100.196 124.932 101.024 124.57C101.852 124.197 102.745 124.01 103.702 124.01C104.343 124.01 104.985 124.103 105.627 124.29L103.947 128.595C103.503 128.42 103.06 128.332 102.617 128.332C101.928 128.332 101.298 128.502 100.727 128.84C100.167 129.167 99.7173 129.616 99.379 130.187C99.0523 130.747 98.889 131.372 98.889 132.06V142H94.619ZM117.454 136.732L121.304 138.815C120.499 139.912 119.49 140.792 118.277 141.457C117.064 142.122 115.739 142.455 114.304 142.455C112.694 142.455 111.224 142.041 109.894 141.212C108.576 140.384 107.52 139.276 106.727 137.887C105.945 136.487 105.554 134.942 105.554 133.25C105.554 131.967 105.782 130.771 106.237 129.662C106.692 128.542 107.316 127.562 108.109 126.722C108.914 125.871 109.848 125.206 110.909 124.727C111.971 124.249 113.103 124.01 114.304 124.01C115.739 124.01 117.064 124.342 118.277 125.007C119.49 125.672 120.499 126.565 121.304 127.685L117.454 129.75C117.046 129.283 116.562 128.922 116.002 128.665C115.454 128.408 114.888 128.28 114.304 128.28C113.464 128.28 112.706 128.513 112.029 128.98C111.353 129.435 110.816 130.042 110.419 130.8C110.023 131.547 109.824 132.363 109.824 133.25C109.824 134.125 110.023 134.942 110.419 135.7C110.816 136.447 111.353 137.047 112.029 137.503C112.706 137.957 113.464 138.185 114.304 138.185C114.911 138.185 115.489 138.057 116.037 137.8C116.585 137.532 117.058 137.176 117.454 136.732ZM131.434 142.455C129.824 142.455 128.354 142.041 127.024 141.212C125.706 140.384 124.65 139.27 123.857 137.87C123.075 136.47 122.684 134.924 122.684 133.232C122.684 131.961 122.912 130.771 123.367 129.662C123.822 128.542 124.446 127.562 125.239 126.722C126.044 125.871 126.978 125.206 128.039 124.727C129.101 124.249 130.233 124.01 131.434 124.01C132.799 124.01 134.048 124.302 135.179 124.885C136.323 125.457 137.291 126.244 138.084 127.247C138.878 128.251 139.455 129.394 139.817 130.677C140.179 131.961 140.26 133.302 140.062 134.702H127.269C127.433 135.356 127.701 135.945 128.074 136.47C128.448 136.983 128.92 137.397 129.492 137.712C130.064 138.016 130.711 138.173 131.434 138.185C132.181 138.197 132.858 138.022 133.464 137.66C134.083 137.287 134.596 136.785 135.004 136.155L139.362 137.17C138.65 138.722 137.589 139.993 136.177 140.985C134.765 141.965 133.184 142.455 131.434 142.455ZM127.129 131.5H135.739C135.611 130.8 135.337 130.17 134.917 129.61C134.509 129.038 134.001 128.583 133.394 128.245C132.788 127.907 132.134 127.737 131.434 127.737C130.734 127.737 130.087 127.907 129.492 128.245C128.897 128.572 128.389 129.021 127.969 129.592C127.561 130.152 127.281 130.788 127.129 131.5ZM142.471 142V115.75H146.741V142H142.471Z" fill="#FC5C2C"/>
</svg>
