<svg width="18" height="18" viewBox="0 0 18 18" fill="none" xmlns="http://www.w3.org/2000/svg">
<path fill-rule="evenodd" clip-rule="evenodd" d="M14.6092 0C16.4021 0 17.8556 1.35172 17.8556 3.01914V13.5861C17.8556 15.2536 16.4021 16.6053 14.6092 16.6053H3.24665C1.45369 16.6053 0.000213623 15.2536 0.000213623 13.5861V3.01914C0.000213623 1.35172 1.45369 0 3.24665 0H14.6092ZM14.6096 1.50951H3.24707C2.3506 1.50951 1.62386 2.18537 1.62386 3.01908V10.9183C1.62386 11.0016 1.69653 11.0692 1.78618 11.0692C1.81152 11.0692 1.83651 11.0637 1.85914 11.0531L6.73991 8.76903C8.11664 8.12451 9.74019 8.12419 11.1172 8.76817L15.9976 11.0502C16.0777 11.0877 16.1752 11.0576 16.2155 10.9831C16.2269 10.9621 16.2328 10.9389 16.2328 10.9153V3.01908C16.2328 2.18537 15.5061 1.50951 14.6096 1.50951ZM5.27454 3.01946C6.39513 3.01946 7.30356 3.86429 7.30356 4.90643C7.30356 5.94857 6.39513 6.79339 5.27454 6.79339C4.15394 6.79339 3.24552 5.94857 3.24552 4.90643C3.24552 3.86429 4.15394 3.01946 5.27454 3.01946Z" fill="#FC5C2C"/>
</svg>
