<svg width="18" height="18" viewBox="0 0 18 18" fill="none" xmlns="http://www.w3.org/2000/svg">
<path d="M13.6008 12.6036C15.3227 12.4327 16.6675 10.9799 16.6675 9.21302C16.6675 7.16378 14.7855 5.55193 12.7726 5.84019C12.7693 5.84066 12.7661 5.83898 12.7646 5.83603C11.9947 4.30247 10.4077 3.25 8.57479 3.25C6.13317 3.25 4.12776 5.11769 3.9093 7.50233C3.90893 7.5063 3.90557 7.50936 3.90159 7.50935C2.50475 7.50814 1.33398 8.66314 1.33398 10.0649C1.33398 11.4763 2.47816 12.6205 3.88956 12.6205H4.40068" stroke="white" stroke-width="1.15001" stroke-linecap="round"/>
<path d="M7.08398 11.2995L8.7296 9.65387C8.8793 9.50417 9.12202 9.50417 9.27172 9.65387L10.9173 11.2995" stroke="white" stroke-width="1.15001" stroke-linecap="round"/>
<path d="M9 10.15L9 14.75" stroke="white" stroke-width="1.15001" stroke-linecap="round"/>
</svg>
