<svg width="24" height="24" viewBox="0 0 24 24" fill="none" xmlns="http://www.w3.org/2000/svg">
<path d="M18.9502 14.7843C18.4792 13.8023 16.7942 12.4392 15.1662 11.1222C14.2582 10.3882 13.4002 9.69424 12.8532 9.14726C12.7162 9.00926 12.5112 8.96524 12.3302 9.03026C11.9932 9.15227 11.7852 9.24625 11.6212 9.31924C11.3712 9.43122 11.2872 9.46924 10.9502 9.50322C10.8768 9.51047 10.806 9.53386 10.7427 9.57172C10.6794 9.60959 10.6253 9.66098 10.5842 9.72222C9.8772 10.7792 9.1452 10.6892 8.6562 10.5252C8.5002 10.4733 8.47221 10.4062 8.45721 10.3422C8.35221 9.90325 8.87923 8.88124 9.5622 8.19822C11.1872 6.57222 12.0252 6.16521 13.7952 6.95622C15.8032 7.85421 17.8152 8.55724 17.8352 8.56422C17.8973 8.58595 17.963 8.59521 18.0286 8.59148C18.0942 8.58775 18.1585 8.57109 18.2177 8.54248C18.2768 8.51386 18.3298 8.47384 18.3735 8.42472C18.4171 8.37559 18.4507 8.31833 18.4722 8.25621C18.5622 7.99521 18.4252 7.71021 18.1642 7.61922C18.1442 7.61224 16.1722 6.92322 14.2042 6.04221C11.9112 5.01719 10.6532 5.69219 8.85616 7.49022C8.17216 8.17422 7.24315 9.55821 7.48315 10.5732C7.58613 11.0052 7.89017 11.3253 8.34213 11.4742C9.47515 11.8482 10.5091 11.4902 11.2791 10.4682C11.5971 10.4193 11.7702 10.3473 12.0301 10.2303C12.1458 10.178 12.2625 10.128 12.3801 10.0803C12.9521 10.6173 13.7241 11.2422 14.5371 11.8992C16.0071 13.0882 17.6742 14.4363 18.0492 15.2163C18.2342 15.6012 18.0351 15.8523 17.9001 15.9672C17.7021 16.1373 17.4312 16.1913 17.2842 16.0882C17.1222 15.9772 16.9112 15.9702 16.7441 16.0702C16.662 16.1192 16.5955 16.1908 16.5528 16.2764C16.5101 16.362 16.4929 16.4581 16.5032 16.5532C16.5371 16.8712 16.2462 17.0532 16.1201 17.1162C15.8001 17.2782 15.4661 17.2503 15.3411 17.1342C15.2011 17.0043 15.0001 16.9662 14.8221 17.0322C14.6441 17.0992 14.5201 17.2632 14.5021 17.4532C14.4721 17.7812 14.2291 18.0962 13.9121 18.2192C13.7591 18.2772 13.5371 18.3122 13.3381 18.1302C13.2771 18.0752 13.2036 18.0359 13.124 18.0157C13.0443 17.9955 12.961 17.995 12.8811 18.0142C12.8012 18.0337 12.7273 18.0727 12.6661 18.1276C12.6049 18.1826 12.5582 18.2518 12.5301 18.3292C12.5111 18.3792 12.4681 18.4992 12.0001 18.4992C11.6671 18.4992 11.0681 18.2742 10.7751 18.0802C10.4241 17.8492 8.22312 16.2072 6.32215 14.6152C6.05515 14.3902 5.59315 13.9082 5.18515 13.4822C4.82313 13.1042 4.49215 12.7612 4.32213 12.6172C4.10913 12.4372 3.79413 12.4642 3.61713 12.6762C3.43915 12.8872 3.46512 13.2032 3.67615 13.3812C3.83117 13.5122 4.13117 13.8292 4.46215 14.1742C4.90817 14.6402 5.36913 15.1222 5.67917 15.3822C7.54118 16.9412 9.77918 18.6242 10.2251 18.9172C10.5932 19.1592 11.3861 19.4992 12.0002 19.4992C12.4931 19.4992 12.8722 19.3862 13.1352 19.1652C13.4871 19.3022 13.8872 19.3032 14.2722 19.1532C14.7272 18.9772 15.1011 18.6222 15.3132 18.1922C15.7071 18.2762 16.1582 18.2172 16.5681 18.0112C16.9692 17.8092 17.2591 17.5002 17.4031 17.1392C17.8011 17.1602 18.2111 17.0192 18.5501 16.7282C19.1242 16.2372 19.2821 15.4733 18.9502 14.7843Z" fill="#2930D1"/>
<path d="M10 6.5H5.50002C5.22402 6.5 5 6.72402 5 7.00002C5 7.27602 5.22402 7.50003 5.50002 7.50003H10C10.276 7.50003 10.5 7.27602 10.5 7.00002C10.5 6.72402 10.276 6.5 10 6.5ZM20.415 13.721C20.26 13.492 19.95 13.429 19.721 13.585L18.2591 14.567C18.0301 14.721 17.969 15.032 18.1231 15.261C18.1691 15.329 18.231 15.3847 18.3036 15.4233C18.3761 15.4618 18.457 15.482 18.5391 15.482C18.6341 15.482 18.7311 15.455 18.8171 15.397L20.2791 14.415C20.508 14.261 20.569 13.95 20.415 13.721ZM17.311 16.107C16.953 15.825 15.352 14.186 14.362 13.154C14.171 12.954 13.854 12.947 13.655 13.139C13.455 13.3301 13.449 13.647 13.64 13.8461C13.897 14.114 16.164 16.4771 16.691 16.8931C16.779 16.9625 16.8879 17.0002 17 17.0001C17.147 17.0001 17.294 16.9341 17.394 16.8091C17.565 16.593 17.528 16.278 17.311 16.107ZM15.313 17.11C14.714 16.631 13.209 15.032 12.869 14.662C12.681 14.458 12.366 14.446 12.162 14.632C11.959 14.819 11.945 15.136 12.132 15.339C12.15 15.358 13.946 17.297 14.688 17.891C14.7767 17.9615 14.8867 17.9999 15 18C15.146 18 15.292 17.935 15.391 17.813C15.563 17.597 15.528 17.282 15.313 17.11ZM13.323 18.117C12.61 17.516 11.151 15.963 10.866 15.658C10.677 15.456 10.36 15.445 10.159 15.634C9.95703 15.823 9.947 16.139 10.135 16.341C10.545 16.78 11.941 18.26 12.678 18.882C12.768 18.9582 12.8821 19 13 19C13.142 19 13.284 18.939 13.383 18.822C13.561 18.61 13.534 18.295 13.323 18.117Z" fill="#2930D1"/>
<path d="M5.844 5.6367C4.98698 4.82468 1.56 4.56166 0.530016 4.50068C0.388031 4.4937 0.257016 4.54066 0.157031 4.63568C0.107416 4.68243 0.0678901 4.73884 0.0408849 4.80144C0.0138797 4.86403 -3.38365e-05 4.93149 6.17921e-08 4.99966V13.9997C6.17921e-08 14.2757 0.224016 14.4997 0.500016 14.4997H3.50002C3.71602 14.4997 3.90802 14.3607 3.975 14.1547C4.04798 13.9307 5.77102 8.6427 5.99798 6.04268C6.01102 5.89066 5.955 5.74066 5.844 5.6367ZM3.135 13.4997H0.999985V5.53568C2.607 5.66266 4.341 5.93866 4.971 6.24466C4.70602 8.43466 3.507 12.3257 3.135 13.4997ZM23.5 5.49968C19.574 5.49968 17.396 6.50468 17.305 6.54668C17.175 6.60766 17.078 6.72068 17.038 6.8577C16.998 6.99471 17.018 7.14171 17.093 7.26368C17.711 8.2587 19.646 13.7847 20.018 15.1327C20.0471 15.2382 20.11 15.3312 20.1971 15.3975C20.2841 15.4638 20.3905 15.4997 20.5 15.4997H23.5C23.776 15.4997 24 15.2756 24 14.9996V5.99965C24.0001 5.93397 23.9872 5.86893 23.9621 5.80824C23.9369 5.74756 23.9001 5.69241 23.8537 5.64598C23.8072 5.59954 23.7521 5.56271 23.6914 5.53761C23.6307 5.51251 23.5657 5.49962 23.5 5.49968ZM23 14.4997H20.874C20.4 12.9557 19 8.92966 18.219 7.2657C18.982 7.00671 20.621 6.56168 23 6.50571V14.4997Z" fill="#2930D1"/>
</svg>
