<svg width="32" height="32" viewBox="0 0 32 32" fill="none" xmlns="http://www.w3.org/2000/svg">
<path d="M12.1013 5.98141C12.5498 6.10788 12.8113 6.57599 12.6859 7.02698C12.5864 7.38464 12.5129 7.72253 12.4594 8.04131H14.268C14.6996 8.04131 15.0492 8.3939 15.0492 8.82776C15.049 9.26147 14.6994 9.61292 14.268 9.61292H12.3695C12.4065 10.1425 12.5154 10.609 12.6781 11.0296C12.6872 11.0293 12.6963 11.027 12.7055 11.027H14.5023C14.9338 11.027 15.2833 11.3785 15.2836 11.8121C15.2836 12.246 14.9339 12.5986 14.5023 12.5986H13.6391C13.9637 12.9827 14.3364 13.3485 14.7484 13.7132L13.462 14.8343C12.7147 14.1548 12.0137 13.3964 11.505 12.4918C10.6361 10.9465 10.3667 9.064 11.0609 6.56995C11.1866 6.11879 11.6525 5.85514 12.1013 5.98141Z" fill="white"/>
<path fill-rule="evenodd" clip-rule="evenodd" d="M15.9997 5.73792C20.3265 1.09381 27.1674 1.96827 29.7133 6.6624C31.0523 9.13152 31.089 12.4928 29.1247 16.3434C27.1758 20.1638 23.2415 24.5142 16.5336 29.1312C16.3846 29.2643 16.1932 29.3341 15.9997 29.333C15.8063 29.3341 15.6149 29.2642 15.4659 29.1312C8.75805 24.5142 4.82368 20.1638 2.87475 16.3434C0.910427 12.4927 0.947127 9.13155 2.28621 6.6624C4.8322 1.96836 11.673 1.09376 15.9997 5.73792ZM28.3122 7.44104C26.2758 3.68606 20.349 2.81268 16.6938 7.38896C16.6448 7.47361 16.5804 7.5511 16.4997 7.61552C16.3552 7.73086 16.1836 7.78714 16.0128 7.7887H15.9867C15.8158 7.78721 15.6443 7.73086 15.4997 7.61552C15.4191 7.55112 15.3534 7.4736 15.3044 7.38896C11.6492 2.81319 5.72361 3.68618 3.68725 7.44104C2.66459 9.32702 2.50966 12.1047 4.29402 15.6025C5.46693 17.9017 7.47391 20.4873 10.5818 23.2796C10.5646 21.5569 11.0011 20.1513 11.7224 18.9502C12.676 17.3624 14.0988 16.1854 15.3604 15.1325C16.3459 14.3099 17.2287 13.5652 17.8982 12.7327H16.8018C16.3703 12.7327 16.0206 12.3801 16.0206 11.9463C16.0209 11.5127 16.3704 11.1611 16.8018 11.1611H18.8227C18.9843 10.7361 19.0936 10.2698 19.1326 9.74704H16.5675C16.136 9.74701 15.7864 9.39552 15.7862 8.96188C15.7862 8.52803 16.1359 8.17544 16.5675 8.17542H19.0492C18.9968 7.85764 18.9239 7.52186 18.8253 7.16761C18.6992 6.71375 18.9636 6.24253 19.4151 6.11552C19.8666 5.98882 20.3343 6.25417 20.4607 6.70797C21.1622 9.22803 20.8593 11.1456 19.9568 12.7301C19.09 14.2518 17.7001 15.3975 16.4451 16.445C15.487 17.2446 14.592 17.9998 13.8747 18.8603H15.0818C15.5134 18.8603 15.8643 19.2116 15.8643 19.6455C15.8643 20.0793 15.5133 20.4306 15.0818 20.4306H12.8943C12.8829 20.4306 12.8717 20.4272 12.8604 20.4267C12.6701 20.835 12.5188 21.2782 12.4177 21.7666H13.988C14.4195 21.7666 14.7705 22.118 14.7706 22.5517C14.7706 22.9856 14.4196 23.3369 13.988 23.3369H12.2797C12.2887 23.8082 12.3391 24.3149 12.4372 24.8629C13.5151 25.738 14.6986 26.6337 15.9997 27.5413C17.1983 26.7052 18.2984 25.8812 19.307 25.0726C19.1077 24.889 18.9993 24.613 19.0414 24.3239C19.0989 23.9295 19.1313 23.5568 19.1443 23.2041H16.4568C16.0252 23.2041 15.6742 22.8515 15.6742 22.4176C15.6744 21.9839 16.0253 21.6325 16.4568 21.6325H19.0505C18.9689 21.1447 18.8409 20.7025 18.6755 20.2965H17.4724C17.0408 20.2965 16.6898 19.9452 16.6898 19.5114C16.6899 19.0775 17.0408 18.7262 17.4724 18.7262H17.7523C17.4603 18.3501 17.1365 17.9978 16.7849 17.6598L18.0779 16.5556C18.6285 17.0989 19.1476 17.6991 19.5805 18.3812C20.4848 19.8063 20.9917 21.5482 20.7953 23.8278C24.2603 20.8256 26.4561 18.0515 27.7055 15.6025C29.4898 12.1048 29.3348 9.32701 28.3122 7.44104Z" fill="white"/>
</svg>
