<svg width="97" height="24" viewBox="0 0 97 24" fill="none" xmlns="http://www.w3.org/2000/svg">
<path fill-rule="evenodd" clip-rule="evenodd" d="M13.3557 2.7646C17.2958 -1.41522 23.5247 -0.627723 25.843 3.59716C27.0624 5.81942 27.0966 8.84432 25.3077 12.3099C23.533 15.7483 19.9503 19.6628 13.842 23.8181C13.7062 23.9381 13.532 24.001 13.3557 24C13.1793 24.001 13.0051 23.9381 12.8693 23.8181C6.76102 19.6628 3.17832 15.7483 1.4036 12.3099C-0.385217 8.84431 -0.351089 5.81942 0.868312 3.59716C3.18661 -0.627729 9.41558 -1.41524 13.3557 2.7646ZM24.5674 4.29714C22.713 0.917651 17.3168 0.132301 13.9883 4.25095C13.9437 4.32716 13.8847 4.39666 13.8112 4.45465C13.6795 4.55854 13.523 4.60941 13.3673 4.61075C13.3634 4.61084 13.3596 4.61072 13.3557 4.61075C13.3518 4.61072 13.3479 4.61084 13.3439 4.61075C13.1883 4.60941 13.0319 4.55852 12.9002 4.45465C12.8267 4.39669 12.7676 4.32727 12.723 4.2511C9.39447 0.132366 3.99835 0.917632 2.14393 4.29714C1.21256 5.99452 1.07161 8.49442 2.69655 11.6426C4.29003 14.7298 7.56789 18.3974 13.3556 22.3875C19.1434 18.3974 22.4213 14.7298 24.0148 11.6426C25.6397 8.49443 25.4988 5.99452 24.5674 4.29714Z" fill="#3A3E90"/>
<path d="M16.7199 4.53881C17.1068 4.43055 17.5083 4.65642 17.6166 5.04334C18.2176 7.19125 17.9575 8.82541 17.1842 10.1759C16.4414 11.4732 15.2506 12.45 14.1751 13.343C13.06 14.2688 12.0435 15.1225 11.3748 16.2302C10.7305 17.2975 10.3866 18.6461 10.7558 20.6012C10.8304 20.996 10.5707 21.3765 10.1759 21.4511C9.78108 21.5256 9.40058 21.266 9.32602 20.8712C8.89491 18.5883 9.28762 16.8721 10.1291 15.4782C10.9462 14.1248 12.1646 13.1209 13.2457 12.2234C14.3664 11.2929 15.3331 10.4804 15.9215 9.45295C16.4793 8.47875 16.7238 7.25272 16.2153 5.43553C16.107 5.04858 16.333 4.6471 16.7199 4.53881Z" fill="#3A3E90"/>
<path d="M10.3947 4.53882C10.0077 4.43054 9.60624 4.65641 9.49795 5.04334C8.89948 7.18192 9.13184 8.79572 9.88076 10.1207C10.3193 10.8966 10.9233 11.5472 11.5676 12.13L12.6773 11.1689C12.0449 10.6123 11.5157 10.0562 11.1475 9.40471C10.6178 8.46754 10.3881 7.26205 10.8993 5.43554C11.0075 5.04859 10.7816 4.64711 10.3947 4.53882Z" fill="#3A3E90"/>
<path d="M17.8168 20.4779C18.1498 18.2061 17.7041 16.5227 16.8421 15.1714C16.469 14.5864 16.022 14.0721 15.5473 13.6062L14.4327 14.552C14.8837 14.9833 15.2864 15.4382 15.6154 15.9539C16.2776 16.9921 16.6625 18.319 16.3771 20.2669C16.3188 20.6645 16.5939 21.034 16.9915 21.0923C17.389 21.1505 17.7586 20.8755 17.8168 20.4779Z" fill="#3A3E90"/>
<path d="M12.0786 5.9668C12.4805 5.9668 12.8062 6.29253 12.8062 6.69434C12.8062 7.09616 12.4805 7.42189 12.0786 7.42189L10.1143 7.42189C9.71245 7.42189 9.38672 7.09616 9.38672 6.69434C9.38672 6.29253 9.71245 5.9668 10.1143 5.9668L12.0786 5.9668Z" fill="#3A3E90"/>
<path d="M16.6607 5.9668C17.0625 5.9668 17.3882 6.29253 17.3882 6.69434C17.3882 7.09616 17.0625 7.42189 16.6607 7.42189L14.2598 7.42189C13.858 7.42189 13.5322 7.09616 13.5322 6.69434C13.5322 6.29253 13.858 5.9668 14.2598 5.9668L16.6607 5.9668Z" fill="#3A3E90"/>
<path d="M16.4419 8.73145C16.8437 8.73145 17.1695 9.05718 17.1695 9.45899C17.1695 9.8608 16.8437 10.1865 16.4419 10.1865L14.4775 10.1865C14.0757 10.1865 13.75 9.8608 13.75 9.45899C13.75 9.05718 14.0757 8.73145 14.4775 8.73145L16.4419 8.73145Z" fill="#3A3E90"/>
<path d="M12.2964 8.73145C12.6982 8.73145 13.024 9.05718 13.024 9.45899C13.024 9.8608 12.6982 10.1865 12.2964 10.1865L10.6231 10.1865C10.2212 10.1865 9.89551 9.8608 9.89551 9.45899C9.89551 9.05718 10.2212 8.73145 10.6231 8.73145L12.2964 8.73145Z" fill="#3A3E90"/>
<path d="M12.878 15.8613C13.2798 15.8613 13.6055 16.1871 13.6055 16.5889C13.6055 16.9907 13.2798 17.3164 12.878 17.3164L10.8408 17.3164C10.439 17.3164 10.1133 16.9907 10.1133 16.5889C10.1133 16.1871 10.439 15.8613 10.8408 15.8613L12.878 15.8613Z" fill="#3A3E90"/>
<path d="M11.8589 18.5527C12.2607 18.5527 12.5865 18.8785 12.5865 19.2803C12.5865 19.6821 12.2607 20.0078 11.8589 20.0078L10.1856 20.0078C9.78374 20.0078 9.45801 19.6821 9.45801 19.2803C9.45801 18.8785 9.78374 18.5527 10.1856 18.5527L11.8589 18.5527Z" fill="#3A3E90"/>
<path d="M16.8072 18.5527C17.209 18.5527 17.5347 18.8785 17.5347 19.2803C17.5347 19.6821 17.209 20.0078 16.8072 20.0078L14.1152 20.0078C13.7134 20.0078 13.3877 19.6821 13.3877 19.2803C13.3877 18.8785 13.7134 18.5527 14.1152 18.5527L16.8072 18.5527Z" fill="#3A3E90"/>
<path d="M16.5884 15.8613C16.9902 15.8613 17.3159 16.1871 17.3159 16.5889C17.3159 16.9907 16.9902 17.3164 16.5884 17.3164L15.0606 17.3164C14.6587 17.3164 14.333 16.9907 14.333 16.5889C14.333 16.1871 14.6587 15.8613 15.0606 15.8613L16.5884 15.8613Z" fill="#3A3E90"/>
<path d="M33.4817 20.5V2.692H36.4817V11.14L35.8337 10.084C36.2817 9.268 36.9297 8.644 37.7777 8.212C38.6417 7.764 39.6337 7.54 40.7537 7.54C41.7777 7.54 42.6897 7.74 43.4897 8.14C44.3057 8.54 44.9457 9.156 45.4097 9.988C45.8737 10.804 46.1057 11.86 46.1057 13.156V20.5H43.1057V13.54C43.1057 12.404 42.8337 11.556 42.2897 10.996C41.7617 10.436 41.0177 10.156 40.0577 10.156C39.3537 10.156 38.7297 10.3 38.1857 10.588C37.6417 10.876 37.2177 11.308 36.9137 11.884C36.6257 12.444 36.4817 13.156 36.4817 14.02V20.5H33.4817ZM55.9588 20.668C54.5348 20.668 53.2868 20.388 52.2148 19.828C51.1588 19.252 50.3348 18.468 49.7428 17.476C49.1668 16.484 48.8788 15.356 48.8788 14.092C48.8788 12.812 49.1588 11.684 49.7188 10.708C50.2948 9.716 51.0788 8.94 52.0708 8.38C53.0788 7.82 54.2228 7.54 55.5028 7.54C56.7508 7.54 57.8628 7.812 58.8388 8.356C59.8148 8.9 60.5828 9.668 61.1428 10.66C61.7028 11.652 61.9828 12.82 61.9828 14.164C61.9828 14.292 61.9748 14.436 61.9588 14.596C61.9588 14.756 61.9508 14.908 61.9348 15.052H51.2548V13.06H60.3508L59.1748 13.684C59.1908 12.948 59.0388 12.3 58.7188 11.74C58.3988 11.18 57.9588 10.74 57.3988 10.42C56.8548 10.1 56.2228 9.94 55.5028 9.94C54.7668 9.94 54.1188 10.1 53.5588 10.42C53.0148 10.74 52.5828 11.188 52.2628 11.764C51.9588 12.324 51.8068 12.988 51.8068 13.756V14.236C51.8068 15.004 51.9828 15.684 52.3348 16.276C52.6868 16.868 53.1828 17.324 53.8228 17.644C54.4628 17.964 55.1988 18.124 56.0308 18.124C56.7508 18.124 57.3988 18.012 57.9748 17.788C58.5508 17.564 59.0628 17.212 59.5108 16.732L61.1188 18.58C60.5428 19.252 59.8148 19.772 58.9348 20.14C58.0708 20.492 57.0788 20.668 55.9588 20.668ZM64.8645 20.5V2.692H67.8645V20.5H64.8645ZM71.802 20.5V7.684H74.802V20.5H71.802ZM73.314 5.572C72.754 5.572 72.29 5.396 71.922 5.044C71.57 4.692 71.394 4.268 71.394 3.772C71.394 3.26 71.57 2.836 71.922 2.5C72.29 2.148 72.754 1.972 73.314 1.972C73.874 1.972 74.33 2.14 74.682 2.476C75.05 2.796 75.234 3.204 75.234 3.7C75.234 4.228 75.058 4.676 74.706 5.044C74.354 5.396 73.89 5.572 73.314 5.572ZM76.9875 20.5L82.6275 13.156L82.5795 14.764L77.2035 7.684H80.5395L84.3075 12.724H83.0355L86.8275 7.684H90.0675L84.6435 14.764L84.6675 13.156L90.2835 20.5H86.8995L82.9395 15.148L84.1875 15.316L80.2995 20.5H76.9875Z" fill="#3A3E90"/>
</svg>
