<svg width="30" height="30" viewBox="0 0 30 30" fill="none" xmlns="http://www.w3.org/2000/svg">
<rect width="30" height="30" rx="10" fill="#FFF1ED"/>
<path d="M15 6.66699C13.4534 6.66879 11.9707 7.30146 10.8771 8.42619C9.78356 9.55091 9.16842 11.0759 9.16667 12.6665C9.16667 14.8738 10.9015 17.3539 12.5793 19.7523C13.3899 20.9111 14.2283 22.1095 14.8339 23.2331C14.8504 23.2636 14.8745 23.289 14.9037 23.3067C14.9329 23.3243 14.9661 23.3337 15 23.3337C15.0339 23.3337 15.0671 23.3243 15.0963 23.3067C15.1255 23.289 15.1496 23.2636 15.1661 23.2331C15.7717 22.1095 16.6101 20.9111 17.4207 19.7523C19.0985 17.3539 20.8333 14.8738 20.8333 12.6665C20.8316 11.0759 20.2164 9.55091 19.1229 8.42619C18.0293 7.30146 16.5466 6.66879 15 6.66699ZM15 15.2546C14.5023 15.2546 14.0157 15.1028 13.6019 14.8184C13.1881 14.5341 12.8655 14.1298 12.6751 13.6569C12.4846 13.184 12.4347 12.6636 12.5318 12.1615C12.6289 11.6595 12.8686 11.1983 13.2206 10.8363C13.5725 10.4744 14.0209 10.2279 14.5091 10.128C14.9972 10.0281 15.5032 10.0794 15.963 10.2753C16.4229 10.4712 16.8159 10.8029 17.0924 11.2285C17.3689 11.6542 17.5165 12.1546 17.5165 12.6665C17.5158 13.3527 17.2504 14.0105 16.7786 14.4957C16.3068 14.9809 15.6672 15.2539 15 15.2546Z" fill="#FC5C2C"/>
</svg>
