<svg width="14" height="14" viewBox="0 0 14 14" fill="none" xmlns="http://www.w3.org/2000/svg">
<path d="M7.21518 1.25375L12.4652 3.35374C12.6693 3.4354 12.8327 3.6804 12.8327 3.89623V5.8329C12.8327 6.15374 12.5702 6.41624 12.2493 6.41624H1.74935C1.42852 6.41624 1.16602 6.15374 1.16602 5.8329V3.89623C1.16602 3.6804 1.32935 3.4354 1.53352 3.35374L6.78352 1.25375C6.90019 1.20708 7.09851 1.20708 7.21518 1.25375Z" stroke="white" stroke-miterlimit="10" stroke-linecap="round" stroke-linejoin="round"/>
<path d="M12.8327 12.8333H1.16602V11.0833C1.16602 10.7625 1.42852 10.5 1.74935 10.5H12.2493C12.5702 10.5 12.8327 10.7625 12.8327 11.0833V12.8333Z" stroke="white" stroke-miterlimit="10" stroke-linecap="round" stroke-linejoin="round"/>
<path opacity="0.6" d="M2.33301 10.4993V6.41602" stroke="white" stroke-miterlimit="10" stroke-linecap="round" stroke-linejoin="round"/>
<path opacity="0.6" d="M5.44434 10.4993V6.41602" stroke="white" stroke-miterlimit="10" stroke-linecap="round" stroke-linejoin="round"/>
<path opacity="0.6" d="M8.55566 10.4993V6.41602" stroke="white" stroke-miterlimit="10" stroke-linecap="round" stroke-linejoin="round"/>
<path opacity="0.6" d="M11.666 10.4993V6.41602" stroke="white" stroke-miterlimit="10" stroke-linecap="round" stroke-linejoin="round"/>
<path d="M0.583008 12.833H13.4163" stroke="white" stroke-miterlimit="10" stroke-linecap="round" stroke-linejoin="round"/>
<path opacity="0.6" d="M7 4.95801C7.48325 4.95801 7.875 4.56626 7.875 4.08301C7.875 3.59976 7.48325 3.20801 7 3.20801C6.51675 3.20801 6.125 3.59976 6.125 4.08301C6.125 4.56626 6.51675 4.95801 7 4.95801Z" stroke="white" stroke-miterlimit="10" stroke-linecap="round" stroke-linejoin="round"/>
</svg>
