<svg width="30" height="30" viewBox="0 0 30 30" fill="none" xmlns="http://www.w3.org/2000/svg">
<path d="M28.4375 21.875C28.4375 22.3875 28.0125 22.8125 27.5 22.8125H18.75V23.125C18.75 25 17.625 25.625 16.25 25.625H8.75C7.375 25.625 6.25 25 6.25 23.125V22.8125H2.5C1.9875 22.8125 1.5625 22.3875 1.5625 21.875C1.5625 21.3625 1.9875 20.9375 2.5 20.9375H6.25V20.625C6.25 18.75 7.375 18.125 8.75 18.125H16.25C17.625 18.125 18.75 18.75 18.75 20.625V20.9375H27.5C28.0125 20.9375 28.4375 21.3625 28.4375 21.875Z" fill="#3A3E90"/>
<path opacity="0.4" d="M28.4375 8.125C28.4375 8.6375 28.0125 9.0625 27.5 9.0625H23.75V9.375C23.75 11.25 22.625 11.875 21.25 11.875H13.75C12.375 11.875 11.25 11.25 11.25 9.375V9.0625H2.5C1.9875 9.0625 1.5625 8.6375 1.5625 8.125C1.5625 7.6125 1.9875 7.1875 2.5 7.1875H11.25V6.875C11.25 5 12.375 4.375 13.75 4.375H21.25C22.625 4.375 23.75 5 23.75 6.875V7.1875H27.5C28.0125 7.1875 28.4375 7.6125 28.4375 8.125Z" fill="#3A3E90"/>
</svg>
