<svg width="129" height="151" viewBox="0 0 129 151" fill="none" xmlns="http://www.w3.org/2000/svg">
<rect x="24" y="16" width="100" height="128" rx="24" fill="#F2F2F7"/>
<rect x="3.58867" y="23.0841" width="99" height="127" rx="23.5" transform="rotate(-11.3572 3.58867 23.0841)" fill="white"/>
<rect x="3.58867" y="23.0841" width="99" height="127" rx="23.5" transform="rotate(-11.3572 3.58867 23.0841)" stroke="#D9D9D9"/>
<rect x="7.70898" y="25.8262" width="92" height="120" rx="20" transform="rotate(-11.3572 7.70898 25.8262)" fill="#F2F2F7"/>
<path fill-rule="evenodd" clip-rule="evenodd" d="M61.5716 60.3963C66.6394 52.2233 77.0955 51.4711 82.2865 57.6608C85.0169 60.9165 86.0725 65.8826 84.2899 72.1732C82.5213 78.4143 77.9507 86.0334 69.3259 94.879C69.1433 95.1211 68.8789 95.2818 68.5899 95.3381C68.3016 95.3978 67.9956 95.3516 67.7337 95.1988C56.3621 90.3697 49.2041 85.1064 45.1628 80.0322C41.0894 74.9178 40.1455 69.9293 41.407 65.8718C43.8054 58.1577 53.7409 54.814 61.5716 60.3963ZM80.4298 59.232C76.2776 54.2808 67.1853 54.7627 63.0983 62.6341C63.0505 62.7741 62.9769 62.9079 62.8757 63.0275C62.6945 63.2417 62.4552 63.3769 62.2008 63.4303C62.1945 63.4317 62.1881 63.4328 62.1817 63.4341C62.1753 63.4353 62.169 63.4368 62.1626 63.4379C61.9073 63.4869 61.6344 63.4546 61.3846 63.327C61.2451 63.2558 61.1254 63.161 61.0273 63.0503C54.2178 57.3675 45.6448 60.4337 43.7263 66.6041C42.7628 69.7033 43.3583 73.8631 47.0586 78.509C50.6872 83.065 57.2646 88.0223 68.0569 92.6849C76.2118 84.2165 80.365 77.1039 81.953 71.5002C83.5723 65.7859 82.5153 61.7187 80.4298 59.232Z" fill="white"/>
<path d="M67.6623 62.2089C68.2599 61.9036 68.9916 62.1433 69.2967 62.7443C70.9905 66.081 71.1048 68.8554 70.2854 71.3319C69.4983 73.7107 67.872 75.7095 66.4067 77.5324C64.8874 79.4225 63.5057 81.1614 62.7773 83.2039C62.0754 85.1718 61.9583 87.504 63.2087 90.5996C63.4612 91.2247 63.162 91.9362 62.5404 92.1887C61.9188 92.4412 61.2102 92.1391 60.9576 91.5139C59.4975 87.8993 59.5731 84.9463 60.4897 82.3761C61.3798 79.8804 63.0424 77.828 64.5153 75.9957C66.0422 74.0963 67.3561 72.4415 67.9795 70.5574C68.5706 68.771 68.5657 66.6733 67.1328 63.8503C66.8276 63.2492 67.0647 62.5143 67.6623 62.2089Z" fill="white"/>
<path d="M57.3121 64.2875C56.643 64.2365 56.0605 64.7402 56.0111 65.4125C55.7383 69.1282 56.652 71.7072 58.3158 73.6412C59.29 74.7737 60.4937 75.6457 61.741 76.3927L63.2396 74.4466C62.0206 73.7386 60.9707 72.9975 60.1526 72.0466C58.9758 70.6786 58.2015 68.7706 58.4344 65.5971C58.4838 64.9248 57.9813 64.3385 57.3121 64.2875Z" fill="white"/>
<path d="M74.7289 88.0743C74.523 84.2266 73.2372 81.6033 71.3796 79.6631C70.5755 78.8233 69.6739 78.124 68.743 77.5134L67.2312 79.4361C68.1118 79.9975 68.9214 80.6137 69.6303 81.354C71.0574 82.8446 72.126 84.9013 72.3025 88.2004C72.3386 88.8737 72.9109 89.3914 73.5809 89.3566C74.2509 89.3217 74.7649 88.7476 74.7289 88.0743Z" fill="white"/>
<path d="M60.5381 66.0837C61.1958 65.9516 61.8366 66.3805 61.9694 67.0417C62.1022 67.7028 61.6767 68.3459 61.019 68.478L57.8036 69.1238C57.1459 69.2559 56.5051 68.8271 56.3723 68.1659C56.2395 67.5047 56.665 66.8617 57.3227 66.7296L60.5381 66.0837Z" fill="white"/>
<path d="M68.0407 64.5759C68.6984 64.4438 69.3392 64.8727 69.472 65.5339C69.6048 66.1951 69.1793 66.8381 68.5216 66.9702L64.5917 67.7596C63.934 67.8917 63.2932 67.4628 63.1604 66.8016C63.0276 66.1405 63.4531 65.4974 64.1108 65.3653L68.0407 64.5759Z" fill="white"/>
<path d="M68.5957 69.198C69.2534 69.0659 69.8942 69.4948 70.027 70.1559C70.1598 70.8171 69.7343 71.4602 69.0766 71.5923L65.8612 72.2381C65.2035 72.3702 64.5627 71.9413 64.4299 71.2801C64.2971 70.619 64.7226 69.9759 65.3803 69.8438L68.5957 69.198Z" fill="white"/>
<path d="M61.8088 70.5612C62.4665 70.4291 63.1073 70.858 63.2401 71.5192C63.3729 72.1803 62.9474 72.8234 62.2897 72.9555L59.5507 73.5057C58.893 73.6378 58.2522 73.2089 58.1194 72.5477C57.9866 71.8866 58.4121 71.2435 59.0698 71.1114L61.8088 70.5612Z" fill="white"/>
<path d="M65.1171 82.1018C65.7748 81.9697 66.4156 82.3986 66.5484 83.0597C66.6812 83.7209 66.2557 84.364 65.598 84.4961L62.2636 85.1658C61.6059 85.2979 60.9651 84.869 60.8323 84.2079C60.6995 83.5467 61.125 82.9037 61.7827 82.7715L65.1171 82.1018Z" fill="white"/>
<path d="M64.341 86.8669C64.9987 86.7348 65.6395 87.1637 65.7723 87.8248C65.9051 88.486 65.4796 89.1291 64.8219 89.2612L62.0829 89.8113C61.4252 89.9434 60.7844 89.5146 60.6516 88.8534C60.5188 88.1922 60.9443 87.5492 61.602 87.4171L64.341 86.8669Z" fill="white"/>
<path d="M72.4379 85.24C73.0956 85.1079 73.7364 85.5368 73.8692 86.198C74.002 86.8591 73.5765 87.5022 72.9188 87.6343L68.5126 88.5193C67.8549 88.6514 67.2141 88.2226 67.0813 87.5614C66.9485 86.9002 67.374 86.2572 68.0317 86.1251L72.4379 85.24Z" fill="white"/>
<path d="M71.1917 80.8825C71.8494 80.7504 72.4902 81.1793 72.623 81.8405C72.7558 82.5016 72.3303 83.1447 71.6726 83.2768L69.1718 83.7791C68.5141 83.9112 67.8733 83.4823 67.7405 82.8212C67.6077 82.16 68.0332 81.5169 68.6909 81.3848L71.1917 80.8825Z" fill="white"/>
</svg>
