<svg width="20" height="20" viewBox="0 0 20 20" fill="none" xmlns="http://www.w3.org/2000/svg">
<path d="M16.6315 4.08398C17.8341 4.08398 18.8336 5.05927 18.8336 6.28613V13.584C18.8336 14.79 17.8375 15.7861 16.6315 15.7861H3.3688C2.16284 15.7861 1.16666 14.79 1.16666 13.584V6.28613C1.16666 5.08017 2.16284 4.08398 3.3688 4.08398H16.6315ZM5.20279 10.5322C4.88078 10.9709 4.66182 11.5753 4.64224 12.2705C4.7087 12.3092 4.8238 12.3572 4.99771 12.4023C5.3822 12.5021 5.92346 12.5576 6.48502 12.5576C7.04632 12.5576 7.58826 12.5023 7.97525 12.4023C8.15386 12.3562 8.27148 12.3056 8.33951 12.2656C8.31913 11.575 8.10222 10.9743 7.78287 10.5371C7.40224 10.7631 6.96292 10.8906 6.49088 10.8906C6.01296 10.8906 5.57621 10.7517 5.20279 10.5322ZM6.49088 7.3125C5.92885 7.31269 5.48209 7.76919 5.48209 8.32129C5.48233 8.88692 5.92523 9.3299 6.49088 9.33008C7.0529 9.33008 7.49941 8.87329 7.49966 8.32129C7.49966 7.7591 7.04309 7.3125 6.49088 7.3125Z" stroke="#9CA3AF"/>
</svg>
