<svg width="20" height="20" viewBox="0 0 20 20" fill="none" xmlns="http://www.w3.org/2000/svg">
<path d="M3.36877 5.0835H16.6315C17.2885 5.0835 17.8336 5.61777 17.8336 6.28564V13.5835C17.8336 14.2372 17.2852 14.7856 16.6315 14.7856H3.36877C2.71509 14.7856 2.16663 14.2372 2.16663 13.5835V6.28564C2.16663 5.63196 2.71509 5.0835 3.36877 5.0835ZM6.49084 6.31201C5.36898 6.3122 4.48206 7.224 4.48206 8.3208C4.48215 8.74307 4.60939 9.13299 4.82776 9.45459L4.77991 9.50049C4.06928 10.1695 3.64036 11.2204 3.64026 12.3726C3.64026 12.7289 3.87419 12.9616 4.06409 13.0884C4.259 13.2185 4.50339 13.3065 4.7467 13.3696C5.24106 13.4979 5.87329 13.5571 6.48499 13.5571C7.09667 13.5571 7.72917 13.4987 8.22522 13.3706C8.4697 13.3075 8.71399 13.2184 8.90979 13.0894C9.09946 12.9643 9.3356 12.7361 9.34241 12.3823V12.3726C9.34231 11.2205 8.91329 10.1695 8.20276 9.50049L8.15002 9.45068C8.37056 9.12717 8.49954 8.73774 8.49963 8.3208C8.49963 7.19877 7.58775 6.31201 6.49084 6.31201ZM10.9645 11.5923C10.4605 11.5925 10.0437 12.0092 10.0436 12.5132C10.0436 13.0173 10.4604 13.4339 10.9645 13.4341H15.5612C16.0965 13.4341 16.4821 13.0036 16.4821 12.5132C16.482 12.009 16.0653 11.5923 15.5612 11.5923H10.9645ZM10.9645 9.01318C10.4605 9.0134 10.0437 9.43013 10.0436 9.93408C10.0436 10.4382 10.4604 10.8548 10.9645 10.855H15.5612C16.0965 10.855 16.4821 10.4245 16.4821 9.93408C16.4819 9.43 16.0653 9.01318 15.5612 9.01318H10.9645ZM10.9645 6.45166C10.4606 6.45188 10.0438 6.86866 10.0436 7.37256C10.0436 7.87664 10.4604 8.29422 10.9645 8.29443H15.5612C16.0965 8.29443 16.4821 7.86301 16.4821 7.37256C16.4818 6.86853 16.0652 6.45166 15.5612 6.45166H10.9645Z" fill="#D1D5DB" stroke="#D1D5DB"/>
</svg>
