<svg width="42" height="42" viewBox="0 0 42 42" fill="none" xmlns="http://www.w3.org/2000/svg">
<rect width="42" height="42" rx="21" fill="white"/>
<path d="M21.4855 28.7179H15.6922C12.7955 28.7179 11.833 26.7929 11.833 24.8587V17.1404C11.833 14.2437 12.7955 13.2812 15.6922 13.2812H21.4855C24.3822 13.2812 25.3447 14.2437 25.3447 17.1404V24.8587C25.3447 27.7554 24.373 28.7179 21.4855 28.7179Z" stroke="#9E9FC8" stroke-width="1.5" stroke-linecap="round" stroke-linejoin="round"/>
<path d="M27.8931 25.6761L25.3447 23.8886V18.1044L27.8931 16.3169C29.1397 15.4461 30.1664 15.9778 30.1664 17.5086V24.4936C30.1664 26.0244 29.1397 26.5561 27.8931 25.6761Z" stroke="#9E9FC8" stroke-width="1.5" stroke-linecap="round" stroke-linejoin="round"/>
<path d="M20.542 20.082C21.3014 20.082 21.917 19.4664 21.917 18.707C21.917 17.9476 21.3014 17.332 20.542 17.332C19.7826 17.332 19.167 17.9476 19.167 18.707C19.167 19.4664 19.7826 20.082 20.542 20.082Z" stroke="#9E9FC8" stroke-width="1.5" stroke-linecap="round" stroke-linejoin="round"/>
</svg>
