<svg width="16" height="16" viewBox="0 0 16 16" fill="none" xmlns="http://www.w3.org/2000/svg">
<path d="M7.33398 1.33203H6.00065C2.66732 1.33203 1.33398 2.66536 1.33398 5.9987V9.9987C1.33398 13.332 2.66732 14.6654 6.00065 14.6654H10.0007C13.334 14.6654 14.6673 13.332 14.6673 9.9987V8.66536" stroke="#404040" stroke-width="0.789474" stroke-linecap="round" stroke-linejoin="round"/>
<path d="M10.6942 2.01155L5.4409 7.26488C5.2409 7.46488 5.0409 7.85822 5.0009 8.14488L4.71423 10.1515C4.60756 10.8782 5.1209 11.3849 5.84756 11.2849L7.85423 10.9982C8.13423 10.9582 8.52756 10.7582 8.73423 10.5582L13.9876 5.30488C14.8942 4.39822 15.3209 3.34488 13.9876 2.01155C12.6542 0.678215 11.6009 1.10488 10.6942 2.01155Z" stroke="#404040" stroke-width="0.789474" stroke-miterlimit="10" stroke-linecap="round" stroke-linejoin="round"/>
<path d="M9.93945 2.76562C10.3861 4.35896 11.6328 5.60563 13.2328 6.05896" stroke="#404040" stroke-width="0.789474" stroke-miterlimit="10" stroke-linecap="round" stroke-linejoin="round"/>
</svg>
