<svg width="50" height="50" viewBox="0 0 50 50" fill="none" xmlns="http://www.w3.org/2000/svg">
<rect width="50" height="50" rx="25" fill="#E6E8FF"/>
<path d="M22.2497 34.1654H27.7497C32.333 34.1654 34.1663 32.332 34.1663 27.7487V22.2487C34.1663 17.6654 32.333 15.832 27.7497 15.832H22.2497C17.6663 15.832 15.833 17.6654 15.833 22.2487V27.7487C15.833 32.332 17.6663 34.1654 22.2497 34.1654Z" stroke="#404040" stroke-linecap="round" stroke-linejoin="round"/>
<path d="M22.2503 23.1667C23.2628 23.1667 24.0837 22.3459 24.0837 21.3333C24.0837 20.3208 23.2628 19.5 22.2503 19.5C21.2378 19.5 20.417 20.3208 20.417 21.3333C20.417 22.3459 21.2378 23.1667 22.2503 23.1667Z" stroke="#404040" stroke-linecap="round" stroke-linejoin="round"/>
<path d="M16.4473 31.3692L20.9664 28.3351C21.6906 27.8492 22.7356 27.9042 23.3864 28.4634L23.6889 28.7292C24.4039 29.3434 25.5589 29.3434 26.2739 28.7292L30.0873 25.4567C30.8023 24.8426 31.9573 24.8426 32.6723 25.4567L34.1664 26.7401" stroke="#404040" stroke-linecap="round" stroke-linejoin="round"/>
</svg>
