<svg width="50" height="50" viewBox="0 0 50 50" fill="none" xmlns="http://www.w3.org/2000/svg">
<rect width="50" height="50" rx="25" fill="#E6E8FF"/>
<path d="M20.1971 34.1654H29.8038C32.3338 34.1654 33.3421 32.6162 33.4613 30.7279L33.938 23.1562C34.0663 21.1762 32.4896 19.4987 30.5005 19.4987C29.9413 19.4987 29.428 19.1779 29.1713 18.6829L28.5113 17.3537C28.0896 16.5195 26.9896 15.832 26.0546 15.832H23.9555C23.0113 15.832 21.9113 16.5195 21.4896 17.3537L20.8296 18.6829C20.573 19.1779 20.0596 19.4987 19.5005 19.4987C17.5113 19.4987 15.9346 21.1762 16.063 23.1562L16.5396 30.7279C16.6496 32.6162 17.6671 34.1654 20.1971 34.1654Z" stroke="#404040" stroke-linecap="round" stroke-linejoin="round"/>
<path d="M23.625 21.332H26.375" stroke="#404040" stroke-width="1.5" stroke-linecap="round" stroke-linejoin="round"/>
<path d="M24.9997 30.5013C26.6405 30.5013 27.9788 29.163 27.9788 27.5221C27.9788 25.8813 26.6405 24.543 24.9997 24.543C23.3588 24.543 22.0205 25.8813 22.0205 27.5221C22.0205 29.163 23.3588 30.5013 24.9997 30.5013Z" stroke="#404040" stroke-width="1.5" stroke-linecap="round" stroke-linejoin="round"/>
</svg>
