<svg width="22" height="22" viewBox="0 0 22 22" fill="none" xmlns="http://www.w3.org/2000/svg">
<path d="M20.1388 16.8012C20.1388 17.1312 20.0655 17.4704 19.9097 17.8004C19.7538 18.1304 19.5522 18.442 19.2863 18.7354C18.8372 19.2304 18.3422 19.5879 17.783 19.817C17.233 20.0462 16.6372 20.1654 15.9955 20.1654C15.0605 20.1654 14.0613 19.9454 13.0072 19.4962C11.953 19.047 10.8988 18.442 9.85384 17.6812C8.79967 16.9112 7.80051 16.0587 6.84717 15.1145C5.90301 14.1612 5.05051 13.162 4.28967 12.117C3.53801 11.072 2.93301 10.027 2.49301 8.9912C2.05301 7.9462 1.83301 6.94703 1.83301 5.9937C1.83301 5.37036 1.94301 4.77453 2.16301 4.22453C2.38301 3.66536 2.73134 3.15203 3.21717 2.6937C3.80384 2.1162 4.44551 1.83203 5.12384 1.83203C5.38051 1.83203 5.63717 1.88703 5.86634 1.99703C6.10467 2.10703 6.31551 2.27203 6.48051 2.51036L8.60717 5.50786C8.77217 5.73703 8.89134 5.94786 8.97384 6.14953C9.05634 6.34203 9.10217 6.53453 9.10217 6.7087C9.10217 6.9287 9.03801 7.1487 8.90967 7.35953C8.79051 7.57036 8.61634 7.79036 8.39634 8.01036L7.69967 8.73453C7.59884 8.83536 7.55301 8.95453 7.55301 9.1012C7.55301 9.17453 7.56217 9.2387 7.58051 9.31203C7.60801 9.38536 7.63551 9.44036 7.65384 9.49536C7.81884 9.79786 8.10301 10.192 8.50634 10.6687C8.91884 11.1454 9.35884 11.6312 9.83551 12.117C10.3305 12.6029 10.8072 13.052 11.293 13.4645C11.7697 13.8679 12.1638 14.1429 12.4755 14.3079C12.5213 14.3262 12.5763 14.3537 12.6405 14.3812C12.7138 14.4087 12.7872 14.4179 12.8697 14.4179C13.0255 14.4179 13.1447 14.3629 13.2455 14.262L13.9422 13.5745C14.1713 13.3454 14.3913 13.1712 14.6022 13.0612C14.813 12.9329 15.0238 12.8687 15.253 12.8687C15.4272 12.8687 15.6105 12.9054 15.8122 12.9879C16.0138 13.0704 16.2247 13.1895 16.4538 13.3454L19.488 15.4995C19.7263 15.6645 19.8913 15.857 19.9922 16.0862C20.0838 16.3154 20.1388 16.5445 20.1388 16.8012Z" stroke="#8C8C8C" stroke-width="1.5" stroke-miterlimit="10"/>
</svg>
