<svg width="22" height="22" viewBox="0 0 22 22" fill="none" xmlns="http://www.w3.org/2000/svg">
<path d="M6.41634 12.8359C7.02745 14.0145 8.79967 15.5859 10.9997 15.5859C13.1997 15.5859 14.9719 14.0145 15.583 12.8359M20.1663 11.0026C20.1663 16.0652 16.0623 20.1693 10.9997 20.1693C5.93706 20.1693 1.83301 16.0652 1.83301 11.0026C1.83301 5.93999 5.93706 1.83594 10.9997 1.83594C16.0623 1.83594 20.1663 5.93999 20.1663 11.0026Z" stroke="#404040" stroke-linecap="round"/>
<path d="M9.16634 7.33464C9.16634 7.8409 8.75594 8.2513 8.24967 8.2513C7.74341 8.2513 7.33301 7.8409 7.33301 7.33464C7.33301 6.82837 7.74341 6.41797 8.24967 6.41797C8.75594 6.41797 9.16634 6.82837 9.16634 7.33464Z" fill="#404040"/>
<path d="M14.6663 7.33464C14.6663 7.8409 14.2559 8.2513 13.7497 8.2513C13.2434 8.2513 12.833 7.8409 12.833 7.33464C12.833 6.82837 13.2434 6.41797 13.7497 6.41797C14.2559 6.41797 14.6663 6.82837 14.6663 7.33464Z" fill="#404040"/>
</svg>
