<svg width="32" height="32" viewBox="0 0 32 32" fill="none" xmlns="http://www.w3.org/2000/svg">
<path d="M15.9603 2.66797C8.60029 2.66797 2.62695 8.6413 2.62695 16.0013C2.62695 23.3613 8.60029 29.3346 15.9603 29.3346C23.3203 29.3346 29.2936 23.3613 29.2936 16.0013C29.2936 8.6413 23.3336 2.66797 15.9603 2.66797ZM19.9603 18.9746L16.0936 21.2013C15.6136 21.4813 15.0803 21.6146 14.5603 21.6146C14.027 21.6146 13.507 21.4813 13.027 21.2013C12.067 20.6413 11.4936 19.6546 11.4936 18.5346V14.068C11.4936 12.9613 12.067 11.9613 13.027 11.4013C13.987 10.8413 15.1336 10.8413 16.107 11.4013L19.9736 13.628C20.9336 14.188 21.507 15.1746 21.507 16.2946C21.507 17.4146 20.9336 18.4146 19.9603 18.9746Z" fill="white"/>
</svg>
