<svg width="42" height="42" viewBox="0 0 42 42" fill="none" xmlns="http://www.w3.org/2000/svg">
<rect width="42" height="42" rx="21" fill="#E6E8FF"/>
<path d="M30.1388 26.8012C30.1388 27.1312 30.0655 27.4704 29.9097 27.8004C29.7538 28.1304 29.5522 28.442 29.2863 28.7354C28.8372 29.2304 28.3422 29.5879 27.783 29.817C27.233 30.0462 26.6372 30.1654 25.9955 30.1654C25.0605 30.1654 24.0613 29.9454 23.0072 29.4962C21.953 29.047 20.8988 28.442 19.8538 27.6812C18.7997 26.9112 17.8005 26.0587 16.8472 25.1145C15.903 24.1612 15.0505 23.162 14.2897 22.117C13.538 21.072 12.933 20.027 12.493 18.9912C12.053 17.9462 11.833 16.947 11.833 15.9937C11.833 15.3704 11.943 14.7745 12.163 14.2245C12.383 13.6654 12.7313 13.152 13.2172 12.6937C13.8038 12.1162 14.4455 11.832 15.1238 11.832C15.3805 11.832 15.6372 11.887 15.8663 11.997C16.1047 12.107 16.3155 12.272 16.4805 12.5104L18.6072 15.5079C18.7722 15.737 18.8913 15.9479 18.9738 16.1495C19.0563 16.342 19.1022 16.5345 19.1022 16.7087C19.1022 16.9287 19.038 17.1487 18.9097 17.3595C18.7905 17.5704 18.6163 17.7904 18.3963 18.0104L17.6997 18.7345C17.5988 18.8354 17.553 18.9545 17.553 19.1012C17.553 19.1745 17.5622 19.2387 17.5805 19.312C17.608 19.3854 17.6355 19.4404 17.6538 19.4954C17.8188 19.7979 18.103 20.192 18.5063 20.6687C18.9188 21.1454 19.3588 21.6312 19.8355 22.117C20.3305 22.6029 20.8072 23.052 21.293 23.4645C21.7697 23.8679 22.1638 24.1429 22.4755 24.3079C22.5213 24.3262 22.5763 24.3537 22.6405 24.3812C22.7138 24.4087 22.7872 24.4179 22.8697 24.4179C23.0255 24.4179 23.1447 24.3629 23.2455 24.262L23.9422 23.5745C24.1713 23.3454 24.3913 23.1712 24.6022 23.0612C24.813 22.9329 25.0238 22.8687 25.253 22.8687C25.4272 22.8687 25.6105 22.9054 25.8122 22.9879C26.0138 23.0704 26.2247 23.1895 26.4538 23.3454L29.488 25.4995C29.7263 25.6645 29.8913 25.857 29.9922 26.0862C30.0838 26.3154 30.1388 26.5445 30.1388 26.8012Z" stroke="#9E9FC8" stroke-width="1.5" stroke-miterlimit="10"/>
</svg>
