<svg width="22" height="22" viewBox="0 0 22 22" fill="none" xmlns="http://www.w3.org/2000/svg">
<path d="M11.4855 18.7179H5.69217C2.79551 18.7179 1.83301 16.7929 1.83301 14.8587V7.14042C1.83301 4.24375 2.79551 3.28125 5.69217 3.28125H11.4855C14.3822 3.28125 15.3447 4.24375 15.3447 7.14042V14.8587C15.3447 17.7554 14.373 18.7179 11.4855 18.7179Z" stroke="#8C8C8C" stroke-width="1.5" stroke-linecap="round" stroke-linejoin="round"/>
<path d="M17.8931 15.6761L15.3447 13.8886V8.10443L17.8931 6.31693C19.1397 5.4461 20.1664 5.97776 20.1664 7.5086V14.4936C20.1664 16.0244 19.1397 16.5561 17.8931 15.6761Z" stroke="#8C8C8C" stroke-width="1.5" stroke-linecap="round" stroke-linejoin="round"/>
<path d="M10.542 10.082C11.3014 10.082 11.917 9.46642 11.917 8.70703C11.917 7.94764 11.3014 7.33203 10.542 7.33203C9.7826 7.33203 9.16699 7.94764 9.16699 8.70703C9.16699 9.46642 9.7826 10.082 10.542 10.082Z" stroke="#8C8C8C" stroke-width="1.5" stroke-linecap="round" stroke-linejoin="round"/>
</svg>
