<svg width="22" height="22" viewBox="0 0 22 22" fill="none" xmlns="http://www.w3.org/2000/svg">
<path d="M10.9997 14.207C13.0255 14.207 14.6663 12.5662 14.6663 10.5404V5.4987C14.6663 3.47286 13.0255 1.83203 10.9997 1.83203C8.97384 1.83203 7.33301 3.47286 7.33301 5.4987V10.5404C7.33301 12.5662 8.97384 14.207 10.9997 14.207Z" stroke="#404040" stroke-linecap="round" stroke-linejoin="round"/>
<path d="M3.9873 8.84766V10.406C3.9873 14.2743 7.13147 17.4185 10.9998 17.4185C14.8681 17.4185 18.0123 14.2743 18.0123 10.406V8.84766" stroke="#404040" stroke-linecap="round" stroke-linejoin="round"/>
<path d="M9.72559 5.89484C10.5506 5.59234 11.4489 5.59234 12.2739 5.89484" stroke="#404040" stroke-linecap="round" stroke-linejoin="round"/>
<path d="M10.2666 7.83844C10.7524 7.7101 11.2566 7.7101 11.7424 7.83844" stroke="#404040" stroke-linecap="round" stroke-linejoin="round"/>
<path d="M11 17.418V20.168" stroke="#404040" stroke-linecap="round" stroke-linejoin="round"/>
</svg>
