<svg width="33" height="33" viewBox="0 0 33 33" fill="none" xmlns="http://www.w3.org/2000/svg">
<circle cx="16.5" cy="16.5" r="16.5" fill="#FC5C2C"/>
<path d="M8.36982 14.7683H9.40668C9.59983 14.7683 9.77597 14.6878 9.90179 14.5591C10.0261 14.4326 10.1038 14.261 10.1083 14.0578V10.9651H7V14.054C7 14.2504 7.07919 14.4295 7.20573 14.5582C7.33303 14.6877 7.50917 14.7682 7.70232 14.7682L8.36982 14.7683ZM13.8723 10.3405L14.2727 7.5H12.0842L10.8823 10.3405H13.8723ZM17.7266 7.5L18.127 10.3405H21.1176L19.915 7.5H17.7266ZM17.5076 10.3405L17.1072 7.5H14.8936L14.4924 10.3405H17.5076ZM10.2142 10.3405L11.4161 7.5H9.29507L7.29173 10.3405H10.2142ZM20.584 7.5L21.7866 10.3405H24.7092L22.7059 7.5H20.584ZM23.3149 15.3932H22.5933C22.2321 15.3932 21.9028 15.2427 21.6638 14.9988C21.6356 14.9709 21.609 14.9408 21.5838 14.91C21.5587 14.9401 21.5328 14.9694 21.5046 14.998C21.2649 15.2419 20.9355 15.3924 20.5744 15.3924H18.8707C18.5192 15.3924 18.1972 15.2494 17.9597 15.0169L17.9404 14.9988C17.9131 14.971 17.8864 14.9416 17.8613 14.9107C17.8361 14.9416 17.8095 14.971 17.7813 14.9996C17.543 15.2419 17.2137 15.3924 16.851 15.3924H15.1474C14.787 15.3924 14.4577 15.2419 14.2179 14.998C14.189 14.9694 14.1631 14.9401 14.1379 14.9092C14.1128 14.9401 14.0869 14.9687 14.058 14.998C13.8182 15.2419 13.4889 15.3924 13.1285 15.3924H11.4248C11.0733 15.3924 10.7514 15.2494 10.5138 15.0169L10.4946 14.9988C10.4664 14.9702 10.4398 14.9409 10.4146 14.91C10.3895 14.9401 10.3628 14.9695 10.3347 14.9988C10.0949 15.2419 9.76634 15.3925 9.40593 15.3925H8.68436V24.1701C8.68436 24.5358 8.83163 24.8685 9.06845 25.1094C9.30526 25.3502 9.63239 25.5 9.99206 25.5H10.6048V19.3469H14.6744V25.5H22.0063C22.3659 25.5 22.6938 25.3502 22.9306 25.1094C23.1675 24.8685 23.3147 24.5351 23.3147 24.1693V15.3917L23.3149 15.3932ZM25 10.9654H21.8917V14.0672C21.8962 14.2606 21.9746 14.4322 22.0982 14.5586C22.2248 14.6881 22.4002 14.7686 22.5933 14.7686H24.297C24.4901 14.7686 24.6655 14.6881 24.7928 14.5586C24.9201 14.4292 24.9993 14.2501 24.9993 14.0544V10.9655L25 10.9654ZM21.2775 10.9654H18.1693V14.0672C18.1737 14.2606 18.2521 14.4322 18.3824 14.5654C18.5141 14.6934 18.6844 14.7686 18.8716 14.7686H20.5752C20.7684 14.7686 20.9445 14.6881 21.0711 14.5594C21.1954 14.433 21.2731 14.2613 21.2776 14.0581L21.2775 10.9654ZM17.555 10.9654H14.4468V14.0672C14.4512 14.2621 14.5297 14.4337 14.6525 14.5586C14.7798 14.6881 14.9559 14.7686 15.1491 14.7686H16.8527C17.0459 14.7686 17.2213 14.6881 17.3486 14.5586C17.4722 14.433 17.5506 14.2606 17.5551 14.0589L17.555 10.9654ZM13.8325 10.9654H10.7243V14.0672C10.7287 14.2606 10.8072 14.4322 10.9374 14.5654C11.0692 14.6934 11.2394 14.7686 11.4266 14.7686H13.1303C13.3234 14.7686 13.4996 14.6881 13.6254 14.5594C13.7497 14.433 13.8274 14.2613 13.8318 14.0581V10.9654L13.8325 10.9654ZM16.6003 17.4233H21.3954V21.0164H16.6003V17.4233Z" fill="white"/>
</svg>
