<svg width="56" height="56" viewBox="0 0 56 56" fill="none" xmlns="http://www.w3.org/2000/svg">
<rect width="56" height="56" rx="28" fill="#E6E8FF"/>
<rect x="6" y="6" width="44" height="44" rx="22" fill="#3A3E90"/>
<path d="M33.9334 25.5982C33.6084 25.5982 33.3501 25.8565 33.3501 26.1815V27.4982C33.3501 30.4482 30.9501 32.8482 28.0001 32.8482C25.0501 32.8482 22.6501 30.4482 22.6501 27.4982V26.1732C22.6501 25.8482 22.3917 25.5898 22.0667 25.5898C21.7417 25.5898 21.4834 25.8482 21.4834 26.1732V27.4898C21.4834 30.8815 24.0917 33.6732 27.4167 33.9732V35.7482C27.4167 36.0732 27.6751 36.3315 28.0001 36.3315C28.3251 36.3315 28.5834 36.0732 28.5834 35.7482V33.9732C31.9001 33.6815 34.5167 30.8815 34.5167 27.4898V26.1732C34.5084 25.8565 34.2501 25.5982 33.9334 25.5982Z" fill="white"/>
<path d="M27.9997 19.668C25.9664 19.668 24.3164 21.318 24.3164 23.3513V27.618C24.3164 29.6513 25.9664 31.3013 27.9997 31.3013C30.0331 31.3013 31.6831 29.6513 31.6831 27.618V23.3513C31.6831 21.318 30.0331 19.668 27.9997 19.668ZM29.0914 25.4596C29.0331 25.6763 28.8414 25.818 28.6247 25.818C28.5831 25.818 28.5414 25.8096 28.4997 25.8013C28.1747 25.7096 27.8331 25.7096 27.5081 25.8013C27.2414 25.8763 26.9831 25.718 26.9164 25.4596C26.8414 25.2013 26.9997 24.9346 27.2581 24.868C27.7497 24.7346 28.2664 24.7346 28.7581 24.868C29.0081 24.9346 29.1581 25.2013 29.0914 25.4596ZM29.5331 23.843C29.4581 24.043 29.2747 24.1596 29.0747 24.1596C29.0164 24.1596 28.9664 24.1513 28.9081 24.1346C28.3247 23.918 27.6747 23.918 27.0914 24.1346C26.8414 24.2263 26.5581 24.093 26.4664 23.843C26.3747 23.593 26.5081 23.3096 26.7581 23.2263C27.5581 22.9346 28.4414 22.9346 29.2414 23.2263C29.4914 23.318 29.6247 23.593 29.5331 23.843Z" fill="white"/>
</svg>
