<svg width="24" height="24" viewBox="0 0 24 24" fill="none" xmlns="http://www.w3.org/2000/svg">
<path d="M19.4152 5.69531V20.5828C19.4152 20.9297 19.134 21.2109 18.7871 21.2109H5.21211C4.86523 21.2109 4.58398 20.9297 4.58398 20.5828V3.41719C4.58398 3.07031 4.86523 2.78906 5.21211 2.78906H16.3496L19.4152 5.69531Z" fill="#F4F4F3"/>
<path d="M19.416 5.69531H16.9738C16.627 5.69531 16.3457 5.41406 16.3457 5.06719V2.78906L19.416 5.69531Z" fill="#EDECEB"/>
<path d="M19.4199 14.4336H4.58398V19.2758H19.4199V14.4336Z" fill="#F05458"/>
<path d="M8.84102 17.1977H8.21758V18.1492C8.21758 18.2852 8.18477 18.3883 8.11914 18.4586C8.05352 18.5289 7.97383 18.5617 7.87539 18.5617C7.77227 18.5617 7.69258 18.5289 7.62695 18.4586C7.56602 18.3883 7.5332 18.2852 7.5332 18.1539V15.5617C7.5332 15.4117 7.56602 15.3039 7.63633 15.243C7.70664 15.182 7.81445 15.1445 7.96445 15.1445H8.83633C9.09414 15.1445 9.29102 15.1633 9.43164 15.2055C9.56758 15.243 9.68945 15.3086 9.78789 15.3977C9.88633 15.4867 9.96602 15.5945 10.0176 15.7211C10.0691 15.8477 10.0973 15.993 10.0973 16.1523C10.0973 16.4945 9.99414 16.7523 9.7832 16.9305C9.57227 17.1086 9.2582 17.1977 8.84102 17.1977ZM8.67695 15.6602H8.21758V16.6867H8.67695C8.83633 16.6867 8.97227 16.668 9.08008 16.6352C9.18789 16.6023 9.26758 16.5461 9.32383 16.4711C9.38008 16.3961 9.4082 16.293 9.4082 16.1711C9.4082 16.0211 9.36602 15.9039 9.27695 15.8102C9.1832 15.707 8.98164 15.6602 8.67695 15.6602ZM11.0863 15.1492H11.9723C12.202 15.1492 12.3988 15.1727 12.5629 15.2148C12.727 15.257 12.877 15.3367 13.0129 15.4539C13.3645 15.7539 13.5379 16.2086 13.5379 16.818C13.5379 17.0195 13.5191 17.2023 13.4863 17.3711C13.4535 17.5352 13.3973 17.6852 13.3223 17.8211C13.2473 17.9523 13.1535 18.0742 13.041 18.1773C12.952 18.257 12.8535 18.3227 12.7457 18.3742C12.6379 18.4211 12.5254 18.4586 12.4035 18.4773C12.2816 18.4961 12.141 18.5055 11.9863 18.5055H11.1004C10.9785 18.5055 10.8848 18.4867 10.8191 18.4492C10.7582 18.4117 10.716 18.3602 10.6973 18.2898C10.6785 18.2242 10.6691 18.1352 10.6691 18.0273V15.5617C10.6691 15.4164 10.702 15.3086 10.7676 15.243C10.8332 15.182 10.941 15.1492 11.0863 15.1492ZM11.3488 15.6836V17.9617H11.8645C11.977 17.9617 12.066 17.957 12.1316 17.9523C12.1973 17.9477 12.2629 17.9289 12.3285 17.9055C12.3988 17.882 12.4551 17.8445 12.5066 17.8023C12.7316 17.6102 12.8488 17.2773 12.8488 16.8086C12.8488 16.4758 12.7973 16.2273 12.6988 16.0633C12.6004 15.8992 12.4738 15.7914 12.3285 15.7492C12.1832 15.7023 12.0051 15.6836 11.7988 15.6836H11.3488ZM16.1395 15.6695H14.7988V16.5273H15.9191C16.0223 16.5273 16.102 16.5508 16.1535 16.5977C16.2051 16.6445 16.2285 16.7055 16.2285 16.7852C16.2285 16.8648 16.2004 16.9258 16.1488 16.9727C16.0973 17.0195 16.0176 17.043 15.9191 17.043H14.7988V18.1492C14.7988 18.2898 14.766 18.393 14.7051 18.4633C14.6395 18.5289 14.5598 18.5664 14.4613 18.5664C14.3629 18.5664 14.2785 18.5336 14.2176 18.4633C14.152 18.393 14.1238 18.2898 14.1238 18.1539V15.5617C14.1238 15.4633 14.1379 15.3836 14.166 15.3227C14.1941 15.2617 14.241 15.2148 14.302 15.1867C14.3629 15.1586 14.4426 15.1445 14.541 15.1445H16.1441C16.252 15.1445 16.3316 15.168 16.3879 15.2148C16.4441 15.2617 16.4676 15.3273 16.4676 15.4023C16.4676 15.482 16.4395 15.5477 16.3879 15.5945C16.3363 15.6414 16.2473 15.6695 16.1395 15.6695Z" fill="#F4F4F3"/>
</svg>
