<svg width="22" height="24" viewBox="0 0 22 24" fill="none" xmlns="http://www.w3.org/2000/svg">
<path d="M11 2.83398C9.2988 2.83597 7.66781 3.5319 6.46487 4.7691C5.26193 6.0063 4.58527 7.68373 4.58334 9.4334C4.58334 11.8615 6.49165 14.5896 8.33728 17.2278C9.22894 18.5025 10.1511 19.8207 10.8173 21.0567C10.8354 21.0903 10.8619 21.1182 10.894 21.1376C10.9261 21.1571 10.9627 21.1673 11 21.1673C11.0373 21.1673 11.0739 21.1571 11.106 21.1376C11.1381 21.1182 11.1646 21.0903 11.1827 21.0567C11.8489 19.8207 12.7711 18.5025 13.6627 17.2278C15.5084 14.5896 17.4167 11.8615 17.4167 9.4334C17.4147 7.68373 16.7381 6.0063 15.5351 4.7691C14.3322 3.5319 12.7012 2.83597 11 2.83398ZM11 12.2804C10.4525 12.2804 9.91733 12.1134 9.46211 11.8006C9.00689 11.4878 8.65208 11.0431 8.44257 10.5229C8.23305 10.0027 8.17824 9.43024 8.28505 8.87797C8.39186 8.32571 8.6555 7.81843 9.04263 7.42027C9.42976 7.02211 9.923 6.75096 10.46 6.64111C10.9969 6.53126 11.5535 6.58764 12.0593 6.80312C12.5652 7.0186 12.9975 7.38351 13.3016 7.85169C13.6058 8.31988 13.7682 8.87032 13.7682 9.4334C13.7674 10.1882 13.4754 10.9119 12.9565 11.4456C12.4375 11.9793 11.7339 12.2796 11 12.2804Z" fill="#FC5C2C"/>
</svg>
