<svg width="18" height="18" viewBox="0 0 18 18" fill="none" xmlns="http://www.w3.org/2000/svg">
<path opacity="0.4" d="M16.5 5.8575V10.425L15.2775 9.375C14.6925 8.8725 13.7475 8.8725 13.1625 9.375L10.0425 12.0525C9.4575 12.555 8.5125 12.555 7.9275 12.0525L7.6725 11.8425C7.14 11.3775 6.2925 11.3325 5.6925 11.7375L2.0025 14.2125L1.92 14.2725C1.6425 13.6725 1.5 12.96 1.5 12.1425V5.8575C1.5 3.1275 3.1275 1.5 5.8575 1.5H12.1425C14.8725 1.5 16.5 3.1275 16.5 5.8575Z" fill="#3A3E90"/>
<path d="M6.74984 7.78484C7.73567 7.78484 8.53484 6.98567 8.53484 5.99984C8.53484 5.01402 7.73567 4.21484 6.74984 4.21484C5.76402 4.21484 4.96484 5.01402 4.96484 5.99984C4.96484 6.98567 5.76402 7.78484 6.74984 7.78484Z" fill="#3A3E90"/>
<path d="M16.4999 10.4249V12.1424C16.4999 14.8724 14.8724 16.4999 12.1424 16.4999H5.85742C3.94492 16.4999 2.56492 15.6974 1.91992 14.2724L2.00242 14.2124L5.69242 11.7374C6.29242 11.3324 7.13992 11.3774 7.67242 11.8424L7.92742 12.0524C8.51242 12.5549 9.45742 12.5549 10.0424 12.0524L13.1624 9.37492C13.7474 8.87242 14.6924 8.87242 15.2774 9.37492L16.4999 10.4249Z" fill="#3A3E90"/>
</svg>
