<svg width="18" height="18" viewBox="0 0 18 18" fill="none" xmlns="http://www.w3.org/2000/svg">
<path opacity="0.4" d="M8.21961 1.54689L4.09461 3.09189C3.30711 3.39189 2.66211 4.32189 2.66211 5.16939V11.2444C2.66211 11.8519 3.05961 12.6544 3.54711 13.0144L7.67211 16.0969C8.39961 16.6444 9.59211 16.6444 10.3196 16.0969L14.4446 13.0144C14.9321 12.6469 15.3296 11.8519 15.3296 11.2444V5.16939C15.3296 4.32939 14.6846 3.39189 13.8971 3.09939L9.77211 1.55439C9.35211 1.38939 8.64711 1.38939 8.21961 1.54689Z" fill="white"/>
<path d="M7.99469 10.6723C7.85219 10.6723 7.70969 10.6198 7.59719 10.5073L6.38969 9.29984C6.17219 9.08234 6.17219 8.72234 6.38969 8.50484C6.60719 8.28734 6.96719 8.28734 7.18469 8.50484L7.99469 9.31484L10.8222 6.48734C11.0397 6.26984 11.3997 6.26984 11.6172 6.48734C11.8347 6.70484 11.8347 7.06484 11.6172 7.28234L8.39219 10.5073C8.27969 10.6198 8.13719 10.6723 7.99469 10.6723Z" fill="white"/>
</svg>
