<svg width="45" height="45" viewBox="0 0 45 45" fill="none" xmlns="http://www.w3.org/2000/svg">
<mask id="path-1-inside-1_76_11203" fill="white">
<path d="M5.74023 26.25C5.74023 19.0703 11.5605 13.25 18.7402 13.25C25.9199 13.25 31.7402 19.0703 31.7402 26.25C31.7402 33.4297 25.9199 39.25 18.7402 39.25C11.5605 39.25 5.74023 33.4297 5.74023 26.25Z"/>
</mask>
<path d="M18.7402 39.25V37C12.8032 37 7.99023 32.1871 7.99023 26.25H5.74023H3.49023C3.49023 34.6723 10.3179 41.5 18.7402 41.5V39.25ZM31.7402 26.25H29.4902C29.4902 32.1871 24.6773 37 18.7402 37V39.25V41.5C27.1626 41.5 33.9902 34.6723 33.9902 26.25H31.7402ZM18.7402 13.25V15.5C24.6773 15.5 29.4902 20.3129 29.4902 26.25H31.7402H33.9902C33.9902 17.8277 27.1626 11 18.7402 11V13.25ZM18.7402 13.25V11C10.3179 11 3.49023 17.8277 3.49023 26.25H5.74023H7.99023C7.99023 20.3129 12.8032 15.5 18.7402 15.5V13.25Z" fill="#2930D1" mask="url(#path-1-inside-1_76_11203)"/>
<path d="M26.4447 16.975C26.0054 17.4144 26.0054 18.1267 26.4447 18.566C26.8841 19.0053 27.5964 19.0053 28.0357 18.566L27.2402 17.7705L26.4447 16.975ZM35.8139 10.7878C36.2532 10.3485 36.2532 9.63618 35.8139 9.19684C35.3746 8.7575 34.6623 8.7575 34.2229 9.19684L35.0184 9.99233L35.8139 10.7878ZM27.2402 17.7705L28.0357 18.566L35.8139 10.7878L35.0184 9.99233L34.2229 9.19684L26.4447 16.975L27.2402 17.7705Z" fill="#2930D1"/>
<path d="M35.3211 16.5322C35.418 17.1459 35.9941 17.5649 36.6078 17.468C37.2215 17.3711 37.6404 16.795 37.5435 16.1813L36.4323 16.3568L35.3211 16.5322ZM28.8296 7.46734C28.2159 7.37044 27.6398 7.7894 27.5429 8.40312C27.446 9.01683 27.865 9.59291 28.4787 9.68981L28.6541 8.57858L28.8296 7.46734ZM35.3717 9.63923L36.4829 9.46378L36.3553 8.65561L35.5471 8.528L35.3717 9.63923ZM36.4323 16.3568L37.5435 16.1813L36.4829 9.46378L35.3717 9.63923L34.2604 9.81469L35.3211 16.5322L36.4323 16.3568ZM35.3717 9.63923L35.5471 8.528L28.8296 7.46734L28.6541 8.57858L28.4787 9.68981L35.1962 10.7505L35.3717 9.63923Z" fill="#2930D1"/>
</svg>
