<svg width="30" height="43" viewBox="0 0 30 43" fill="none" xmlns="http://www.w3.org/2000/svg">
<path d="M15 0C11.0231 0.00463484 7.21045 1.63148 4.39838 4.52364C1.58631 7.4158 0.0045065 11.3371 0 15.4272C0 21.1032 4.46097 27.4807 8.77543 33.6479C10.8598 36.6277 13.0155 39.7092 14.573 42.5986C14.6153 42.677 14.6772 42.7423 14.7523 42.7877C14.8273 42.8332 14.9129 42.8571 15 42.8571C15.0871 42.8571 15.1727 42.8332 15.2477 42.7877C15.3228 42.7423 15.3847 42.677 15.427 42.5986C16.9845 39.7092 19.1402 36.6277 21.2246 33.6479C25.539 27.4807 30 21.1032 30 15.4272C29.9955 11.3371 28.4137 7.4158 25.6016 4.52364C22.7896 1.63148 18.9769 0.00463484 15 0ZM15 22.0825C13.7202 22.0825 12.4691 21.6922 11.4049 20.9609C10.3407 20.2296 9.51134 19.1902 9.02157 17.9741C8.53179 16.758 8.40364 15.4198 8.65333 14.1288C8.90301 12.8378 9.51932 11.6519 10.4243 10.7212C11.3293 9.79043 12.4823 9.15657 13.7376 8.89977C14.9928 8.64298 16.2939 8.77477 17.4763 9.2785C18.6588 9.78222 19.6694 10.6352 20.3804 11.7297C21.0915 12.8242 21.471 14.1109 21.471 15.4272C21.4691 17.1917 20.7867 18.8834 19.5736 20.1311C18.3605 21.3787 16.7156 22.0805 15 22.0825Z" fill="#FC5C2C"/>
</svg>
