<svg width="36" height="36" viewBox="0 0 36 36" fill="none" xmlns="http://www.w3.org/2000/svg">
<path d="M34.1971 17.1081L30.2793 15.8453C27.7734 15.0184 26.3053 12.9906 25.6162 10.4425L23.8921 2.04438C23.8471 1.87844 23.7375 1.65625 23.4 1.65625C23.1159 1.65625 22.9528 1.87844 22.9078 2.04438L21.1837 10.4453C20.4918 12.9934 19.0265 15.0212 16.5206 15.8481L12.6028 17.1109C12.0487 17.2909 12.0403 18.0728 12.5915 18.2612L16.5375 19.6197C19.035 20.4494 20.4918 22.4744 21.1837 25.0112L22.9106 33.3166C22.9556 33.4825 23.0484 33.7806 23.4028 33.7806C23.7768 33.7806 23.85 33.4825 23.895 33.3166L25.6218 25.0112C26.3137 22.4716 27.7706 20.4466 30.2681 19.6197L34.214 18.2612C34.7596 18.07 34.7512 17.2881 34.1971 17.1081Z" fill="#FDD835"/>
<path d="M34.5685 17.4596C34.5066 17.3049 34.3857 17.1699 34.1972 17.108L30.2794 15.8452C27.7735 15.0183 26.3054 12.9905 25.6163 10.4424L23.8922 2.04426C23.8669 1.94863 23.7769 1.77426 23.6729 1.72363L24.2297 10.1527C24.6432 14.0002 24.9975 15.8114 28.0688 16.3402C30.7069 16.7958 33.7585 17.3189 34.5685 17.4596Z" fill="#FFEE58"/>
<path d="M34.5764 17.8984L27.7814 19.4566C25.388 20.0641 24.0689 21.4506 24.0689 25.0788L23.4023 33.7806C23.6302 33.7581 23.8158 33.6344 23.8945 33.3166L25.6214 25.0113C26.3133 22.4716 27.7702 20.4466 30.2677 19.6197L34.2136 18.2613C34.3992 18.1938 34.5173 18.0559 34.5764 17.8984Z" fill="#F4B400"/>
<path d="M11.7594 24.4158C9.41658 23.6424 9.20283 22.7705 8.80908 21.2996L7.82752 17.8571C7.76846 17.6349 7.18908 17.6349 7.12721 17.8571L6.46064 21.038C6.06408 22.5033 5.22033 23.6677 3.78033 24.143L1.48533 25.1386C1.16752 25.2427 1.16189 25.6927 1.47971 25.7996L3.79158 26.618C5.22596 27.0933 6.06408 28.2577 6.46346 29.7174L7.13002 32.7605C7.19189 32.9827 7.76846 32.9827 7.82752 32.7605L8.60939 29.7314C9.00596 28.2633 9.61346 27.0961 11.5625 26.618L13.7338 25.7996C14.0516 25.6899 14.0488 25.2399 13.7281 25.1358L11.7594 24.4158Z" fill="#FDD835"/>
<path d="M8.01316 21.2481C8.25223 23.4588 8.37316 24.0719 10.1647 24.5303L13.8969 25.2588C13.8575 25.2053 13.8013 25.1603 13.7254 25.1378L11.7566 24.415C9.70066 23.7119 9.13254 22.8175 8.74723 21.0288C8.36191 19.24 7.95129 18.0728 7.95129 18.0728C7.80785 17.6875 7.60254 17.7072 7.60254 17.7072L8.01316 21.2481Z" fill="#FFEE58"/>
<path d="M8.08012 28.9659C8.08012 26.8819 9.21918 25.8497 11.0304 25.8497L13.8486 25.7344C13.8486 25.7344 13.6854 25.9509 13.4014 26.0184L11.562 26.6175C10.0011 27.2447 9.28949 27.5597 8.80574 29.6944C8.80574 29.6944 8.18137 32.1778 8.06324 32.4394C7.90012 32.805 7.70605 32.8809 7.70605 32.8809L8.08012 28.9659Z" fill="#F4B400"/>
<path d="M16.8014 7.91449C16.9589 7.86106 16.9533 7.63606 16.793 7.59106L14.6218 7.00606C14.3984 6.9455 14.1946 6.82821 14.03 6.66558C13.8654 6.50295 13.7456 6.30051 13.6824 6.07793L12.8274 2.54824C12.7852 2.37668 12.5405 2.37668 12.4983 2.55106L11.6939 6.06668C11.6332 6.29539 11.5125 6.50377 11.3444 6.67037C11.1764 6.83696 10.9669 6.95575 10.7377 7.01449L8.5805 7.57418C8.42019 7.61637 8.40894 7.84137 8.56644 7.89762L10.8418 8.68512C11.2496 8.82574 11.5646 9.15762 11.6883 9.57106L12.5011 12.8307C12.5433 12.9995 12.7852 13.0023 12.8274 12.8307L13.6683 9.55981C13.7306 9.35567 13.8406 9.16933 13.9893 9.01623C14.138 8.86313 14.3211 8.7477 14.5233 8.67949L16.8014 7.91449Z" fill="#F4B400" stroke="#F4B400" stroke-width="0.28125" stroke-miterlimit="10"/>
</svg>
