<svg width="88" height="82" viewBox="0 0 88 82" fill="none" xmlns="http://www.w3.org/2000/svg">
<g filter="url(#filter0_d_478_12235)">
<path fill-rule="evenodd" clip-rule="evenodd" d="M44 17.075C54.0305 6.37826 69.8878 8.39357 75.7895 19.2056C78.8938 24.8927 78.9807 32.6338 74.4268 41.5029C69.9089 50.302 60.7881 60.3199 45.2381 70.9538C44.8924 71.2609 44.4489 71.4219 44 71.4193C43.5511 71.4219 43.1075 71.261 42.7618 70.9538C27.2118 60.3199 18.0912 50.302 13.5732 41.5029C9.01934 32.6338 9.10622 24.8927 12.2105 19.2056C18.1123 8.39355 33.9696 6.37821 44 17.075ZM72.5421 20.997C67.8213 12.3484 54.084 10.3386 45.6105 20.8788C45.497 21.0738 45.3467 21.2517 45.1596 21.4001C44.8243 21.6659 44.426 21.7961 44.0297 21.7995C44.0198 21.7998 44.0099 21.7995 44 21.7995C43.9901 21.7995 43.9801 21.7998 43.9702 21.7995C43.5739 21.7961 43.1757 21.6659 42.8404 21.4001C42.6534 21.2517 42.5028 21.0741 42.3893 20.8791C33.9158 10.3387 20.1787 12.3483 15.4579 20.997C13.0868 25.3408 12.728 31.7384 16.8647 39.795C20.9213 47.6955 29.2658 57.0816 43.9998 67.2928C58.7339 57.0815 67.0787 47.6956 71.1353 39.795C75.272 31.7384 74.9132 25.3408 72.5421 20.997Z" fill="white"/>
<path d="M52.5625 21.2437C53.5475 20.9685 54.5695 21.5426 54.8451 22.526C56.3753 27.9853 55.7131 32.1388 53.7445 35.5714C51.8536 38.8686 48.8222 41.3514 46.0842 43.6209C43.2453 45.9741 40.6576 48.1439 38.9553 50.9593C37.3151 53.6719 36.4396 57.0997 37.3795 62.0688C37.5693 63.0723 36.9083 64.0394 35.9032 64.229C34.8981 64.4185 33.9294 63.7586 33.7396 62.755C32.6421 56.9527 33.6419 52.5908 35.784 49.048C37.8641 45.6079 40.9659 43.0565 43.718 40.7753C46.5711 38.4103 49.0322 36.3452 50.5299 33.7338C51.9499 31.2577 52.5725 28.1415 51.278 23.5228C51.0023 22.5393 51.5775 21.5189 52.5625 21.2437Z" fill="white"/>
<path d="M36.4631 21.2437C35.4781 20.9685 34.456 21.5426 34.1803 22.526C32.6568 27.9616 33.2483 32.0633 35.1549 35.4311C36.2712 37.403 37.8089 39.0568 39.4492 40.5378L42.274 38.0952C40.6642 36.6804 39.3171 35.2671 38.3797 33.6112C37.0312 31.2292 36.4465 28.1652 37.7477 23.5228C38.0233 22.5394 37.4482 21.5189 36.4631 21.2437Z" fill="white"/>
<path d="M55.358 61.7555C56.2055 55.9813 55.071 51.7027 52.8766 48.2681C51.9267 46.7813 50.7888 45.4742 49.5805 44.29L46.743 46.6939C47.891 47.79 48.9163 48.9464 49.7537 50.257C51.4396 52.8958 52.4195 56.2682 51.6928 61.2192C51.5445 62.2297 52.2447 63.169 53.2568 63.317C54.2689 63.4651 55.2097 62.766 55.358 61.7555Z" fill="white"/>
<path d="M40.7455 24.873C41.7684 24.873 42.5976 25.701 42.5976 26.7222C42.5976 27.7435 41.7684 28.5714 40.7455 28.5714L35.7447 28.5714C34.7218 28.5714 33.8926 27.7435 33.8926 26.7222C33.8926 25.701 34.7218 24.873 35.7447 24.873L40.7455 24.873Z" fill="white"/>
<path d="M52.4144 24.873C53.4373 24.873 54.2665 25.701 54.2665 26.7222C54.2665 27.7435 53.4373 28.5714 52.4144 28.5714L46.3023 28.5714C45.2794 28.5714 44.4502 27.7435 44.4502 26.7222C44.4502 25.701 45.2794 24.873 46.3023 24.873L52.4144 24.873Z" fill="white"/>
<path d="M51.8588 31.8994C52.8817 31.8994 53.7109 32.7273 53.7109 33.7486C53.7109 34.7699 52.8817 35.5978 51.8588 35.5978L46.858 35.5978C45.8351 35.5978 45.0059 34.7699 45.0059 33.7486C45.0059 32.7273 45.8351 31.8994 46.858 31.8994L51.8588 31.8994Z" fill="white"/>
<path d="M41.3015 31.8994C42.3244 31.8994 43.1537 32.7273 43.1537 33.7486C43.1537 34.7699 42.3244 35.5978 41.3015 35.5978L37.0416 35.5978C36.0187 35.5978 35.1895 34.7699 35.1895 33.7486C35.1895 32.7273 36.0187 31.8994 37.0416 31.8994L41.3015 31.8994Z" fill="white"/>
<path d="M42.7832 50.0225C43.8062 50.0225 44.6354 50.8504 44.6354 51.8716C44.6354 52.8929 43.8062 53.7208 42.7832 53.7208L37.5973 53.7208C36.5743 53.7208 35.7451 52.8929 35.7451 51.8716C35.7451 50.8504 36.5743 50.0225 37.5973 50.0225L42.7832 50.0225Z" fill="white"/>
<path d="M40.1902 56.8643C41.2131 56.8643 42.0423 57.6922 42.0423 58.7134C42.0423 59.7347 41.2131 60.5626 40.1902 60.5626L35.9303 60.5626C34.9074 60.5626 34.0781 59.7347 34.0781 58.7134C34.0781 57.6922 34.9074 56.8643 35.9303 56.8643L40.1902 56.8643Z" fill="white"/>
<path d="M52.7842 56.8643C53.8071 56.8643 54.6363 57.6922 54.6363 58.7134C54.6363 59.7347 53.8071 60.5626 52.7842 60.5626L45.9312 60.5626C44.9083 60.5626 44.0791 59.7347 44.0791 58.7134C44.0791 57.6922 44.9083 56.8643 45.9312 56.8643L52.7842 56.8643Z" fill="white"/>
<path d="M52.2289 50.0225C53.2518 50.0225 54.0811 50.8504 54.0811 51.8716C54.0811 52.8929 53.2518 53.7208 52.2289 53.7208L48.3394 53.7208C47.3165 53.7208 46.4873 52.8929 46.4873 51.8716C46.4873 50.8504 47.3165 50.0225 48.3394 50.0225L52.2289 50.0225Z" fill="white"/>
</g>
<defs>
<filter id="filter0_d_478_12235" x="0" y="-0.290039" width="88" height="81.709" filterUnits="userSpaceOnUse" color-interpolation-filters="sRGB">
<feFlood flood-opacity="0" result="BackgroundImageFix"/>
<feColorMatrix in="SourceAlpha" type="matrix" values="0 0 0 0 0 0 0 0 0 0 0 0 0 0 0 0 0 0 127 0" result="hardAlpha"/>
<feOffset/>
<feGaussianBlur stdDeviation="5"/>
<feComposite in2="hardAlpha" operator="out"/>
<feColorMatrix type="matrix" values="0 0 0 0 1 0 0 0 0 1 0 0 0 0 1 0 0 0 0.82 0"/>
<feBlend mode="normal" in2="BackgroundImageFix" result="effect1_dropShadow_478_12235"/>
<feBlend mode="normal" in="SourceGraphic" in2="effect1_dropShadow_478_12235" result="shape"/>
</filter>
</defs>
</svg>
