<svg width="108" height="122" viewBox="0 0 108 122" fill="none" xmlns="http://www.w3.org/2000/svg">
<g filter="url(#filter0_d_neon_glow)">
<path fill-rule="evenodd" clip-rule="evenodd" d="M54 37.075C64.0305 26.3783 79.8878 28.3936 85.7895 39.2056C88.8938 44.8927 88.9807 52.6338 84.4268 61.5029C79.9089 70.302 70.7881 80.3199 55.2381 90.9538C54.8924 91.2609 54.4489 91.4219 54 91.4193C53.5511 91.4219 53.1075 91.261 52.7618 90.9538C37.2118 80.3199 28.0912 70.302 23.5732 61.5029C19.0193 52.6338 19.1062 44.8927 22.2105 39.2056C28.1123 28.3936 43.9696 26.3782 54 37.075ZM82.5421 40.997C77.8213 32.3484 64.084 30.3386 55.6105 40.8788C55.497 41.0738 55.3467 41.2517 55.1596 41.4001C54.8243 41.6659 54.426 41.7961 54.0297 41.7995C54.0198 41.7998 54.0099 41.7995 54 41.7995C53.9901 41.7995 53.9801 41.7998 53.9702 41.7995C53.5739 41.7961 53.1757 41.6659 52.8404 41.4001C52.6534 41.2517 52.5028 41.0741 52.3893 40.8791C43.9158 30.3387 30.1787 32.3483 25.4579 40.997C23.0868 45.3408 22.728 51.7384 26.8647 59.795C30.9213 67.6955 39.2658 77.0816 53.9998 87.2928C68.7339 77.0815 77.0787 67.6956 81.1353 59.795C85.272 51.7384 84.9132 45.3408 82.5421 40.997Z" fill="white"/>
<path d="M62.5625 41.2437C63.5475 40.9685 64.5695 41.5426 64.8451 42.526C66.3753 47.9853 65.7131 52.1388 63.7445 55.5714C61.8536 58.8686 58.8222 61.3514 56.0842 63.6209C53.2453 65.9741 50.6576 68.1439 48.9553 70.9593C47.3151 73.6719 46.4396 77.0997 47.3795 82.0688C47.5693 83.0723 46.9083 84.0394 45.9032 84.229C44.8981 84.4185 43.9294 83.7586 43.7396 82.755C42.6421 76.9527 43.6419 72.5908 45.784 69.048C47.8641 65.6079 50.9659 63.0565 53.718 60.7753C56.5711 58.4103 59.0322 56.3452 60.5299 53.7338C61.9499 51.2577 62.5725 48.1415 61.278 43.5228C61.0023 42.5393 61.5775 41.5189 62.5625 41.2437Z" fill="white"/>
<path d="M46.4631 41.2437C45.4781 40.9685 44.456 41.5426 44.1803 42.526C42.6568 47.9616 43.2483 52.0633 45.1549 55.4311C46.2712 57.403 47.8089 59.0568 49.4492 60.5378L52.274 58.0952C50.6642 56.6804 49.3171 55.2671 48.3797 53.6112C47.0312 51.2292 46.4465 48.1652 47.7477 43.5228C48.0233 42.5394 47.4482 41.5189 46.4631 41.2437Z" fill="white"/>
<path d="M65.358 81.7555C66.2055 75.9813 65.071 71.7027 62.8766 68.2681C61.9267 66.7813 60.7888 65.4742 59.5805 64.29L56.743 66.6939C57.891 67.79 58.9163 68.9464 59.7537 70.257C61.4396 72.8958 62.4195 76.2682 61.6928 81.2192C61.5445 82.2297 62.2447 83.169 63.2568 83.317C64.2689 83.4651 65.2097 82.766 65.358 81.7555Z" fill="white"/>
<path d="M50.7455 44.873C51.7684 44.873 52.5976 45.701 52.5976 46.7222C52.5976 47.7435 51.7684 48.5714 50.7455 48.5714L45.7447 48.5714C44.7218 48.5714 43.8926 47.7435 43.8926 46.7222C43.8926 45.701 44.7218 44.873 45.7447 44.873L50.7455 44.873Z" fill="white"/>
<path d="M62.4144 44.873C63.4373 44.873 64.2665 45.701 64.2665 46.7222C64.2665 47.7435 63.4373 48.5714 62.4144 48.5714L56.3023 48.5714C55.2794 48.5714 54.4502 47.7435 54.4502 46.7222C54.4502 45.701 55.2794 44.873 56.3023 44.873L62.4144 44.873Z" fill="white"/>
<path d="M61.8588 51.8994C62.8817 51.8994 63.7109 52.7273 63.7109 53.7486C63.7109 54.7699 62.8817 55.5978 61.8588 55.5978L56.858 55.5978C55.8351 55.5978 55.0059 54.7699 55.0059 53.7486C55.0059 52.7273 55.8351 51.8994 56.858 51.8994L61.8588 51.8994Z" fill="white"/>
<path d="M51.3015 51.8994C52.3244 51.8994 53.1537 52.7273 53.1537 53.7486C53.1537 54.7699 52.3244 55.5978 51.3015 55.5978L47.0416 55.5978C46.0187 55.5978 45.1895 54.7699 45.1895 53.7486C45.1895 52.7273 46.0187 51.8994 47.0416 51.8994L51.3015 51.8994Z" fill="white"/>
<path d="M52.7832 70.0225C53.8062 70.0225 54.6354 70.8504 54.6354 71.8716C54.6354 72.8929 53.8062 73.7208 52.7832 73.7208L47.5973 73.7208C46.5743 73.7208 45.7451 72.8929 45.7451 71.8716C45.7451 70.8504 46.5743 70.0225 47.5973 70.0225L52.7832 70.0225Z" fill="white"/>
<path d="M50.1902 76.8643C51.2131 76.8643 52.0423 77.6922 52.0423 78.7134C52.0423 79.7347 51.2131 80.5626 50.1902 80.5626L45.9303 80.5626C44.9074 80.5626 44.0781 79.7347 44.0781 78.7134C44.0781 77.6922 44.9074 76.8643 45.9303 76.8643L50.1902 76.8643Z" fill="white"/>
<path d="M62.7842 76.8643C63.8071 76.8643 64.6363 77.6922 64.6363 78.7134C64.6363 79.7347 63.8071 80.5626 62.7842 80.5626L55.9312 80.5626C54.9083 80.5626 54.0791 79.7347 54.0791 78.7134C54.0791 77.6922 54.9083 76.8643 55.9312 76.8643L62.7842 76.8643Z" fill="white"/>
<path d="M62.2289 70.0225C63.2518 70.0225 64.0811 70.8504 64.0811 71.8716C64.0811 72.8929 63.2518 73.7208 62.2289 73.7208L58.3394 73.7208C57.3165 73.7208 56.4873 72.8929 56.4873 71.8716C56.4873 70.8504 57.3165 70.0225 58.3394 70.0225L62.2289 70.0225Z" fill="white"/>
</g>
<defs>
<filter id="filter0_d_neon_glow" x="0" y="0" width="108" height="122" filterUnits="userSpaceOnUse" color-interpolation-filters="sRGB">
<feFlood flood-opacity="0" result="BackgroundImageFix"/>
<feColorMatrix in="SourceAlpha" type="matrix" values="0 0 0 0 0 0 0 0 0 0 0 0 0 0 0 0 0 0 127 0" result="hardAlpha"/>
<feOffset/>
<feGaussianBlur stdDeviation="15"/>
<feComposite in2="hardAlpha" operator="out"/>
<feColorMatrix type="matrix" values="0 0 0 0 1 0 0 0 0 1 0 0 0 0 1 0 0 0 1 0"/>
<feBlend mode="normal" in2="BackgroundImageFix" result="effect1_dropShadow"/>
<feBlend mode="normal" in="SourceGraphic" in2="effect1_dropShadow" result="shape"/>
</filter>
</defs>
</svg>
