<svg width="32" height="32" viewBox="0 0 32 32" fill="none" xmlns="http://www.w3.org/2000/svg">
<path d="M24.6261 22.4394L25.1461 26.6527C25.2795 27.7593 24.0928 28.5326 23.1461 27.9593L17.5595 24.6393C16.9461 24.6393 16.3461 24.5994 15.7595 24.5194C16.7461 23.3594 17.3328 21.8927 17.3328 20.306C17.3328 16.5193 14.0528 13.4527 9.99947 13.4527C8.4528 13.4527 7.02614 13.8927 5.83948 14.666C5.79948 14.3327 5.78613 13.9993 5.78613 13.6527C5.78613 7.586 11.0528 2.66602 17.5595 2.66602C24.0661 2.66602 29.3328 7.586 29.3328 13.6527C29.3328 17.2527 27.4795 20.4394 24.6261 22.4394Z" stroke="white" stroke-width="1.5" stroke-linecap="round" stroke-linejoin="round"/>
<path d="M17.3327 20.3064C17.3327 21.8931 16.746 23.3598 15.7594 24.5198C14.4394 26.1198 12.346 27.1464 9.99935 27.1464L6.51935 29.213C5.93268 29.573 5.18601 29.0797 5.26601 28.3997L5.59934 25.7731C3.81268 24.5331 2.66602 22.5464 2.66602 20.3064C2.66602 17.9597 3.91936 15.8931 5.83935 14.6664C7.02602 13.8931 8.45268 13.4531 9.99935 13.4531C14.0527 13.4531 17.3327 16.5197 17.3327 20.3064Z" stroke="white" stroke-width="1.5" stroke-linecap="round" stroke-linejoin="round"/>
</svg>
