<svg width="45" height="45" viewBox="0 0 45 45" fill="none" xmlns="http://www.w3.org/2000/svg">
<path d="M21.3728 40.945C21.3728 41.5663 21.8765 42.07 22.4978 42.07C23.1192 42.07 23.6228 41.5663 23.6228 40.945H22.4978H21.3728ZM17.4978 36.82C16.8765 36.82 16.3728 37.3237 16.3728 37.945C16.3728 38.5663 16.8765 39.07 17.4978 39.07V37.945V36.82ZM27.4978 39.07C28.1192 39.07 28.6228 38.5663 28.6228 37.945C28.6228 37.3237 28.1192 36.82 27.4978 36.82V37.945V39.07ZM29.3583 11.9929C28.9255 12.4387 28.936 13.151 29.3818 13.5838C29.8276 14.0166 30.5398 14.006 30.9726 13.5602L30.1655 12.7766L29.3583 11.9929ZM38.0679 6.25209C38.5007 5.80631 38.4902 5.09408 38.0444 4.66128C37.5986 4.22848 36.8864 4.23901 36.4536 4.68479L37.2607 5.46844L38.0679 6.25209ZM14.0427 13.58C14.4865 14.0149 15.1988 14.0078 15.6337 13.564C16.0686 13.1203 16.0614 12.408 15.6176 11.9731L14.8302 12.7766L14.0427 13.58ZM8.52738 5.02412C8.08364 4.58922 7.37137 4.59639 6.93647 5.04012C6.50157 5.48386 6.50874 6.19614 6.95248 6.63103L7.73993 5.82758L8.52738 5.02412ZM37.5634 12.0083C37.6603 12.622 38.2363 13.041 38.8501 12.9441C39.4638 12.8472 39.8827 12.2711 39.7858 11.6574L38.6746 11.8329L37.5634 12.0083ZM37.6139 5.11535L38.7252 4.93989L38.5976 4.13172L37.7894 4.00411L37.6139 5.11535ZM31.0719 2.94345C30.4582 2.84655 29.8821 3.26551 29.7852 3.87923C29.6883 4.49295 30.1073 5.06902 30.721 5.16592L30.8964 4.05469L31.0719 2.94345ZM14.2798 5.5249C14.8935 5.428 15.3125 4.85193 15.2156 4.23821C15.1187 3.6245 14.5426 3.20554 13.9289 3.30244L14.1043 4.41367L14.2798 5.5249ZM7.38683 5.47433L7.21137 4.3631L6.4032 4.4907L6.2756 5.29887L7.38683 5.47433ZM5.21494 12.0164C5.11804 12.6301 5.537 13.2062 6.15071 13.3031C6.76443 13.4 7.3405 12.981 7.43741 12.3673L6.32617 12.1918L5.21494 12.0164ZM8.81424 12.4509C8.3749 12.8902 8.3749 13.6025 8.81424 14.0419C9.25358 14.4812 9.96589 14.4812 10.4052 14.0419L9.60974 13.2464L8.81424 12.4509ZM16.0621 8.38502C16.5014 7.94568 16.5014 7.23337 16.0621 6.79403C15.6227 6.35469 14.9104 6.35469 14.4711 6.79403L15.2666 7.58952L16.0621 8.38502ZM22.4978 31.6638V30.5388C17.044 30.5388 12.6228 26.1176 12.6228 20.6638H11.4978H10.3728C10.3728 27.3602 15.8014 32.7888 22.4978 32.7888V31.6638ZM33.4978 20.6638H32.3728C32.3728 26.1176 27.9516 30.5388 22.4978 30.5388V31.6638V32.7888C29.1943 32.7888 34.6228 27.3602 34.6228 20.6638H33.4978ZM22.4978 9.66376V10.7888C27.9516 10.7888 32.3728 15.2099 32.3728 20.6638H33.4978H34.6228C34.6228 13.9673 29.1943 8.53876 22.4978 8.53876V9.66376ZM22.4978 9.66376V8.53876C15.8014 8.53876 10.3728 13.9673 10.3728 20.6638H11.4978H12.6228C12.6228 15.2099 17.044 10.7888 22.4978 10.7888V9.66376ZM22.4978 31.6638H21.3728L21.3728 40.945H22.4978H23.6228L23.6228 31.6638H22.4978ZM17.4978 37.945V39.07H27.4978V37.945V36.82H17.4978V37.945ZM30.1655 12.7766L30.9726 13.5602L38.0679 6.25209L37.2607 5.46844L36.4536 4.68479L29.3583 11.9929L30.1655 12.7766ZM14.8302 12.7766L15.6176 11.9731L8.52738 5.02412L7.73993 5.82758L6.95248 6.63103L14.0427 13.58L14.8302 12.7766ZM38.6746 11.8329L39.7858 11.6574L38.7252 4.93989L37.6139 5.11535L36.5027 5.2908L37.5634 12.0083L38.6746 11.8329ZM37.6139 5.11535L37.7894 4.00411L31.0719 2.94345L30.8964 4.05469L30.721 5.16592L37.4385 6.22658L37.6139 5.11535ZM14.1043 4.41367L13.9289 3.30244L7.21137 4.3631L7.38683 5.47433L7.56229 6.58556L14.2798 5.5249L14.1043 4.41367ZM7.38683 5.47433L6.2756 5.29887L5.21494 12.0164L6.32617 12.1918L7.43741 12.3673L8.49806 5.64979L7.38683 5.47433ZM9.60974 13.2464L10.4052 14.0419L16.0621 8.38502L15.2666 7.58952L14.4711 6.79403L8.81424 12.4509L9.60974 13.2464Z" fill="url(#paint0_linear_76_11260)"/>
<defs>
<linearGradient id="paint0_linear_76_11260" x1="38.6746" y1="5.43994" x2="4.60322" y2="37.7424" gradientUnits="userSpaceOnUse">
<stop stop-color="#2930D1"/>
<stop offset="0.6875" stop-color="#E52070"/>
<stop offset="1" stop-color="#E52070"/>
</linearGradient>
</defs>
</svg>
