<svg width="35" height="35" viewBox="0 0 35 35" fill="none" xmlns="http://www.w3.org/2000/svg">
<rect width="35" height="35" rx="17.5" fill="white"/>
<g clip-path="url(#clip0_223_1733)">
<path d="M23.0122 21.8141H11.9381V23.1603H23.0122V21.8141ZM22.4784 15.1986L22.788 17.9308L24.1256 17.7793L23.8161 15.0471L22.4784 15.1986ZM12.1623 17.9308L12.4718 15.1986L11.1342 15.0471L10.8247 17.7793L12.1623 17.9308ZM11.2174 20.1231C11.7421 19.5054 12.0706 18.7408 12.1623 17.9308L10.8247 17.7793C10.7627 18.3271 10.5408 18.8403 10.1915 19.2514L11.2174 20.1231ZM22.788 17.9308C22.8798 18.7408 23.2082 19.5054 23.7329 20.1231L24.7588 19.2514C24.4095 18.8403 24.1876 18.3271 24.1256 17.7793L22.788 17.9308ZM11.9381 21.8141C11.1422 21.8141 10.636 20.8073 11.2174 20.1231L10.1915 19.2514C8.91801 20.7504 9.91719 23.1603 11.9381 23.1603V21.8141ZM23.0122 23.1603C25.0331 23.1603 26.0323 20.7504 24.7588 19.2514L23.7329 20.1231C24.3142 20.8073 23.8081 21.8141 23.0122 21.8141V23.1603ZM23.8161 15.0471C23.4434 11.7581 20.7309 9.25 17.4751 9.25V10.5962C20.0151 10.5962 22.1794 12.5588 22.4784 15.1986L23.8161 15.0471ZM12.4718 15.1986C12.7709 12.5588 14.9352 10.5962 17.4751 10.5962V9.25C14.2194 9.25 11.5068 11.7581 11.1342 15.0471L12.4718 15.1986Z" fill="#FC5C2C"/>
<path d="M20.7977 24.5179C20.9282 24.1698 20.7518 23.7819 20.4036 23.6514C20.0555 23.5209 19.6677 23.6974 19.5372 24.0455L20.7977 24.5179ZM15.4131 24.0455C15.2826 23.6974 14.8947 23.5209 14.5466 23.6514C14.1985 23.7819 14.0221 24.1698 14.1525 24.5179L15.4131 24.0455ZM19.5372 24.0455C19.2476 24.8183 18.4485 25.4035 17.4751 25.4035V26.7496C18.9878 26.7496 20.3035 25.8365 20.7977 24.5179L19.5372 24.0455ZM17.4751 25.4035C16.5018 25.4035 15.7027 24.8183 15.4131 24.0455L14.1525 24.5179C14.6467 25.8365 15.9625 26.7496 17.4751 26.7496V25.4035Z" fill="#FC5C2C"/>
<circle cx="21.875" cy="11" r="3" fill="#FC5C2C" stroke="white"/>
</g>
<defs>
<clipPath id="clip0_223_1733">
<rect width="21" height="21" fill="white" transform="translate(7 7.5)"/>
</clipPath>
</defs>
</svg>
