<svg width="24" height="24" viewBox="0 0 24 24" fill="none" xmlns="http://www.w3.org/2000/svg">
<path d="M17.805 17.2698H7.38111C7.34715 17.229 7.31169 17.1905 7.27472 17.1528C6.94725 16.8238 6.49377 16.6209 5.99352 16.6209C5.49326 16.6209 5.04054 16.8238 4.71232 17.1513C4.67459 17.189 4.63913 17.2283 4.60442 17.2698H2.18689V15.5343H15.5678H16.3224H22.9992V17.2698H20.5802C20.5462 17.229 20.5108 17.1905 20.4738 17.1528C20.1463 16.8238 19.6929 16.6209 19.1926 16.6209C18.6924 16.6209 18.2396 16.8238 17.9114 17.1513C17.8737 17.189 17.8382 17.2283 17.8035 17.2698H17.805ZM7.90702 5.9638V8.3421H6.7141V9.09663H8.66156V5.9638H7.90702ZM3.91477 6.34107C3.5292 7.04807 3.31039 7.85844 3.31039 8.71936C3.31039 10.0919 3.86724 11.3353 4.7674 12.2347C5.66907 13.1357 6.91254 13.6933 8.28429 13.6933C9.65754 13.6933 10.9018 13.1364 11.8012 12.2363C12.7013 11.3346 13.2582 10.0911 13.2582 8.71936C13.2582 7.85768 13.0394 7.04731 12.6538 6.34107H15.5686V8.45905V14.7798H1.4331H1V6.34107H3.91477ZM5.3001 5.73517C6.06293 4.97234 7.11853 4.5 8.28429 4.5C9.44929 4.5 10.5049 4.97234 11.2677 5.73593C12.0306 6.49876 12.5037 7.55436 12.5037 8.71936C12.5037 9.88512 12.0313 10.9407 11.2685 11.7036C10.5049 12.4664 9.44929 12.9387 8.28429 12.9387C7.11853 12.9387 6.06293 12.4664 5.3001 11.7036C4.53726 10.9407 4.06493 9.88512 4.06493 8.71936C4.06493 7.55436 4.53726 6.49876 5.3001 5.73517ZM5.24577 17.6848C5.43743 17.4946 5.70227 17.3762 5.99352 17.3762C6.28552 17.3762 6.55037 17.4946 6.74126 17.6855C6.93291 17.8757 7.05062 18.1405 7.05062 18.4333C7.05062 18.7253 6.93216 18.9901 6.74126 19.181C6.55112 19.3727 6.28552 19.4904 5.99352 19.4904C5.70151 19.4904 5.43592 19.3719 5.24577 19.1818C5.05563 18.9901 4.93717 18.7253 4.93717 18.4333C4.93717 18.1413 5.05563 17.8757 5.24577 17.6855V17.6848ZM18.4456 17.6848C18.6373 17.4946 18.9021 17.3762 19.1934 17.3762C19.4854 17.3762 19.7502 17.4946 19.9411 17.6855C20.1328 17.8757 20.2505 18.1405 20.2505 18.4333C20.2505 18.7253 20.132 18.9901 19.9411 19.181C19.751 19.3727 19.4854 19.4904 19.1934 19.4904C18.9014 19.4904 18.6358 19.3719 18.4456 19.1818C18.2555 18.9901 18.137 18.7253 18.137 18.4333C18.137 18.1413 18.2555 17.8757 18.4456 17.6855V17.6848ZM16.3231 9.21434H20.3599C21.0857 9.21434 21.746 9.51163 22.2243 9.99C22.7027 10.4684 23 11.1286 23 11.8545V14.7798H16.3231V9.21358V9.21434Z" fill="#D1D5DB"/>
</svg>
