<svg width="30" height="30" viewBox="0 0 30 30" fill="none" xmlns="http://www.w3.org/2000/svg">
<rect width="30" height="30" rx="7" fill="#FC5C2C"/>
<path d="M15 8.41699C13.6854 8.41852 12.4251 8.95629 11.4956 9.91231C10.566 10.8683 10.0432 12.1645 10.0417 13.5165C10.0417 15.3928 11.5163 17.5009 12.9424 19.5395C13.6315 20.5245 14.344 21.5431 14.8589 22.4982C14.8728 22.5241 14.8933 22.5457 14.9181 22.5607C14.9429 22.5757 14.9712 22.5837 15 22.5837C15.0288 22.5837 15.0571 22.5757 15.0819 22.5607C15.1067 22.5457 15.1272 22.5241 15.1412 22.4982C15.656 21.5431 16.3686 20.5245 17.0576 19.5395C18.4837 17.5009 19.9583 15.3928 19.9583 13.5165C19.9568 12.1645 19.434 10.8683 18.5044 9.91231C17.5749 8.95629 16.3146 8.41852 15 8.41699ZM15 15.7165C14.5769 15.7165 14.1634 15.5875 13.8116 15.3457C13.4599 15.104 13.1857 14.7604 13.0238 14.3584C12.8619 13.9564 12.8195 13.5141 12.9021 13.0873C12.9846 12.6606 13.1883 12.2686 13.4875 11.9609C13.7866 11.6533 14.1678 11.4437 14.5827 11.3589C14.9976 11.274 15.4277 11.3175 15.8186 11.4841C16.2094 11.6506 16.5435 11.9325 16.7785 12.2943C17.0136 12.6561 17.139 13.0814 17.139 13.5165C17.1384 14.0998 16.9128 14.659 16.5118 15.0714C16.1108 15.4839 15.5671 15.7158 15 15.7165Z" fill="white"/>
</svg>
