<svg width="44" height="44" viewBox="0 0 44 44" fill="none" xmlns="http://www.w3.org/2000/svg">
<path d="M41.7086 32.084C41.7086 32.8357 41.0853 33.459 40.3336 33.459H27.5003V33.9173C27.5003 36.6673 25.8503 37.584 23.8337 37.584H12.8337C10.817 37.584 9.16699 36.6673 9.16699 33.9173V33.459H3.66699C2.91533 33.459 2.29199 32.8357 2.29199 32.084C2.29199 31.3323 2.91533 30.709 3.66699 30.709H9.16699V30.2507C9.16699 27.5007 10.817 26.584 12.8337 26.584H23.8337C25.8503 26.584 27.5003 27.5007 27.5003 30.2507V30.709H40.3336C41.0853 30.709 41.7086 31.3323 41.7086 32.084Z" fill="#3A3E90"/>
<path opacity="0.4" d="M41.7086 11.916C41.7086 12.6677 41.0853 13.291 40.3336 13.291H34.8337V13.7493C34.8337 16.4993 33.1837 17.416 31.167 17.416H20.167C18.1503 17.416 16.5003 16.4993 16.5003 13.7493V13.291H3.66699C2.91533 13.291 2.29199 12.6677 2.29199 11.916C2.29199 11.1643 2.91533 10.541 3.66699 10.541H16.5003V10.0827C16.5003 7.33268 18.1503 6.41602 20.167 6.41602H31.167C33.1837 6.41602 34.8337 7.33268 34.8337 10.0827V10.541H40.3336C41.0853 10.541 41.7086 11.1643 41.7086 11.916Z" fill="#3A3E90"/>
</svg>
