<svg width="40" height="40" viewBox="0 0 40 40" fill="none" xmlns="http://www.w3.org/2000/svg">
<path d="M31.6951 28.6884L32.4101 34.4816C32.5934 36.0033 30.9617 37.0666 29.6601 36.2783L21.9784 31.7133C21.135 31.7133 20.3101 31.6584 19.5034 31.5484C20.8601 29.9534 21.6667 27.9366 21.6667 25.755C21.6667 20.5483 17.1567 16.3317 11.5834 16.3317C9.45671 16.3317 7.49505 16.9367 5.86339 18C5.80839 17.5417 5.79004 17.0833 5.79004 16.6066C5.79004 8.26498 13.0317 1.5 21.9784 1.5C30.925 1.5 38.1667 8.26498 38.1667 16.6066C38.1667 21.5566 35.6184 25.9384 31.6951 28.6884Z" stroke="#3A3E90" stroke-width="3" stroke-linecap="round" stroke-linejoin="round"/>
<path d="M21.6667 25.7553C21.6667 27.9369 20.86 29.9537 19.5033 31.5487C17.6883 33.7487 14.81 35.1603 11.5833 35.1603L6.79833 38.0019C5.99167 38.4969 4.96499 37.8186 5.07499 36.8836L5.53333 33.272C3.07666 31.567 1.5 28.8353 1.5 25.7553C1.5 22.5286 3.22334 19.687 5.86334 18.0003C7.49501 16.937 9.45667 16.332 11.5833 16.332C17.1567 16.332 21.6667 20.5486 21.6667 25.7553Z" stroke="#9E9FC8" stroke-width="3" stroke-linecap="round" stroke-linejoin="round"/>
</svg>
