<svg width="44" height="44" viewBox="0 0 44 44" fill="none" xmlns="http://www.w3.org/2000/svg">
<path d="M22 29.334C25.0376 29.334 27.5 26.8716 27.5 23.834C27.5 20.7964 25.0376 18.334 22 18.334C18.9624 18.334 16.5 20.7964 16.5 23.834C16.5 26.8716 18.9624 29.334 22 29.334Z" stroke="#9E9FC8" stroke-width="3"/>
<path d="M17.9263 38.5H26.0744C31.7964 38.5 34.6573 38.5 36.7125 37.1518C37.602 36.568 38.3659 35.818 38.9605 34.9446C40.3337 32.9268 40.3337 30.1178 40.3337 24.4999C40.3337 18.8822 40.3337 16.0732 38.9605 14.0554C38.3659 13.1819 37.602 12.4319 36.7125 11.8482C35.3917 10.9819 33.7386 10.6723 31.2073 10.5616C29.9993 10.5616 28.9595 9.66291 28.7226 8.49999C28.3671 6.75563 26.8071 5.5 24.9954 5.5H19.0052C17.1934 5.5 15.6334 6.75563 15.2781 8.49999C15.0412 9.66291 14.0012 10.5616 12.7933 10.5616C10.2621 10.6723 8.60883 10.9819 7.28827 11.8482C6.39857 12.4319 5.63467 13.1819 5.0402 14.0554C3.66699 16.0732 3.66699 18.8822 3.66699 24.4999C3.66699 30.1178 3.66699 32.9268 5.0402 34.9446C5.63467 35.818 6.39857 36.568 7.28827 37.1518C9.34343 38.5 12.2044 38.5 17.9263 38.5Z" stroke="#3A3E90" stroke-width="3"/>
<path d="M34.8333 18.334H33" stroke="#9E9FC8" stroke-width="3" stroke-linecap="round"/>
</svg>
