<svg width="44" height="44" viewBox="0 0 44 44" fill="none" xmlns="http://www.w3.org/2000/svg">
<path d="M18.0758 34.8347L21.1558 32.2314C21.6141 31.8464 22.3841 31.8464 22.8608 32.2314L25.9224 34.8347C26.6374 35.2014 27.5174 34.8347 27.7741 34.0647L28.3608 32.3047C28.5074 31.883 28.3608 31.2597 28.0491 30.948L25.0424 27.923C24.8224 27.703 24.6574 27.2814 24.6574 26.988V23.5964C24.6574 22.8264 25.2258 22.4597 25.9408 22.753L32.0824 25.393C33.0908 25.833 33.9341 25.283 33.9341 24.183V22.478C33.9341 21.598 33.2741 20.5714 32.4491 20.223L25.2258 17.1064C24.9141 16.9781 24.6758 16.5931 24.6758 16.2631V12.4681C24.6758 11.2214 23.7591 9.75474 22.6591 9.18641C22.2558 8.98474 21.7974 8.98474 21.3941 9.18641C20.2758 9.73641 19.3774 11.2214 19.3774 12.4681V16.2631C19.3774 16.5931 19.1208 16.9781 18.8274 17.1064L11.6041 20.223C10.7975 20.5714 10.1191 21.598 10.1191 22.478V24.183C10.1191 25.283 10.9441 25.833 11.9708 25.393L18.1125 22.753C18.8091 22.4414 19.3958 22.8264 19.3958 23.5964V26.988C19.3958 27.2997 19.2124 27.7214 19.0108 27.923L15.9491 30.9297C15.6375 31.2413 15.4908 31.8647 15.6375 32.2864L16.2241 34.0464C16.4808 34.8347 17.3425 35.2014 18.0758 34.8347Z" stroke="#9E9FC8" stroke-width="2.75" stroke-linecap="round" stroke-linejoin="round"/>
<path d="M16.5003 40.3327H27.5003C36.667 40.3327 40.3337 36.666 40.3337 27.4993V16.4993C40.3337 7.33268 36.667 3.66602 27.5003 3.66602H16.5003C7.33366 3.66602 3.66699 7.33268 3.66699 16.4993V27.4993C3.66699 36.666 7.33366 40.3327 16.5003 40.3327Z" stroke="#3A3E90" stroke-width="2.75" stroke-linecap="round" stroke-linejoin="round"/>
</svg>
