<svg width="20" height="20" viewBox="0 0 20 20" fill="none" xmlns="http://www.w3.org/2000/svg">
<path d="M10.1333 9.05768C10.05 9.04935 9.94999 9.04935 9.85832 9.05768C7.87499 8.99102 6.29999 7.36602 6.29999 5.36602C6.29999 3.32435 7.94999 1.66602 9.99999 1.66602C12.0417 1.66602 13.7 3.32435 13.7 5.36602C13.6917 7.36602 12.1167 8.99102 10.1333 9.05768Z" stroke="#9CA3AF" stroke-width="1.5" stroke-linecap="round" stroke-linejoin="round"/>
<path d="M5.96666 12.134C3.95 13.484 3.95 15.684 5.96666 17.0257C8.25833 18.559 12.0167 18.559 14.3083 17.0257C16.325 15.6757 16.325 13.4757 14.3083 12.134C12.025 10.609 8.26666 10.609 5.96666 12.134Z" stroke="#9CA3AF" stroke-width="1.5" stroke-linecap="round" stroke-linejoin="round"/>
</svg>
