<svg width="35" height="35" viewBox="0 0 35 35" fill="none" xmlns="http://www.w3.org/2000/svg">
<path d="M17.5 2.91699C13.6791 2.91699 10.5729 6.02324 10.5729 9.84408C10.5729 13.592 13.5041 16.6253 17.325 16.7566C17.4416 16.742 17.5583 16.742 17.6458 16.7566C17.675 16.7566 17.6895 16.7566 17.7187 16.7566C17.7333 16.7566 17.7333 16.7566 17.7479 16.7566C21.4812 16.6253 24.4125 13.592 24.427 9.84408C24.427 6.02324 21.3208 2.91699 17.5 2.91699Z" fill="#FC5C2C"/>
<path d="M24.9083 20.635C20.8395 17.9225 14.2041 17.9225 10.1062 20.635C8.25411 21.8745 7.23328 23.5516 7.23328 25.3454C7.23328 27.1391 8.25411 28.8016 10.0916 30.0266C12.1333 31.3975 14.8166 32.0829 17.4999 32.0829C20.1833 32.0829 22.8666 31.3975 24.9083 30.0266C26.7458 28.787 27.7666 27.1245 27.7666 25.3162C27.752 23.5225 26.7458 21.86 24.9083 20.635Z" fill="#FC5C2C"/>
</svg>
