<svg width="20" height="20" viewBox="0 0 20 20" fill="none" xmlns="http://www.w3.org/2000/svg">
<path d="M9.99968 2.1665C11.8472 2.1665 13.3608 3.62203 13.4538 5.44678L13.4587 5.62451C13.4505 7.49829 11.9867 9.00921 10.1237 9.07471H10.0837C10.0244 9.07013 9.96517 9.06975 9.90886 9.07373C7.99542 9.00375 6.54167 7.49049 6.54167 5.62451C6.54184 3.71758 8.09274 2.16668 9.99968 2.1665Z" fill="#D1D5DB" stroke="#D1D5DB"/>
<path d="M10.0103 11.1294C11.4651 11.1294 12.8922 11.4988 13.9556 12.2075C14.8425 12.7988 15.3006 13.5482 15.3599 14.3169L15.3667 14.4712C15.3651 15.2953 14.9025 16.1035 13.9536 16.7437C12.8862 17.4601 11.4555 17.8335 9.99954 17.8335C8.54348 17.8334 7.11287 17.4603 6.04544 16.7437L6.04446 16.7427L5.87161 16.6216C5.03927 16.0085 4.63345 15.2494 4.63333 14.4839C4.63333 13.6665 5.09506 12.8473 6.05228 12.2065C7.12454 11.4975 8.55629 11.1294 10.0103 11.1294Z" fill="#D1D5DB" stroke="#D1D5DB"/>
</svg>
