<svg width="17" height="17" viewBox="0 0 17 17" fill="none" xmlns="http://www.w3.org/2000/svg">
<path d="M11.8125 0C14.1942 0 16.125 1.93077 16.125 4.3125V11.8125C16.125 14.1942 14.1942 16.125 11.8125 16.125H4.3125C1.93077 16.125 0 14.1942 0 11.8125V4.3125C0 1.93077 1.93077 0 4.3125 0H11.8125ZM9.58301 5.0625C9.30663 5.05494 9.04831 5.20037 8.91113 5.44043L6.51367 9.63672L5.68652 8.39648C5.54742 8.18784 5.31326 8.0625 5.0625 8.0625H3.5625C3.14829 8.0625 2.8125 8.39829 2.8125 8.8125C2.8125 9.22671 3.14829 9.5625 3.5625 9.5625H4.66113L5.93848 11.4785C6.08258 11.6947 6.32827 11.8213 6.58789 11.8125C6.84767 11.8036 7.0849 11.6603 7.21387 11.4346L9.51855 7.40137L10.3916 9.14746C10.5186 9.40155 10.7784 9.5625 11.0625 9.5625H12.5625C12.9767 9.5625 13.3125 9.22671 13.3125 8.8125C13.3125 8.39829 12.9767 8.0625 12.5625 8.0625H11.5264L10.2334 5.47754C10.1097 5.23014 9.8595 5.07017 9.58301 5.0625Z" fill="#3A3E90"/>
</svg>
