<svg width="18" height="18" viewBox="0 0 18 18" fill="none" xmlns="http://www.w3.org/2000/svg">
<g clip-path="url(#clip0_689_513)">
<path d="M7.5 5.25H10.1246C10.166 5.19389 10.1911 5.13099 10.198 5.06599C10.205 5.00099 10.1936 4.93556 10.1648 4.87458L7.50069 2.25L7.5 5.25Z" fill="white"/>
<path d="M6.50247 10.9756C6.47793 10.8242 6.44487 10.6742 6.40345 10.5262C6.10543 9.49951 5.85547 9.0649 5.96218 7.98875C6.10158 7.25716 6.09341 5.78889 8.11707 6.01751C8.65159 6.07802 9.48365 6.44566 9.96 6.43781C10.2325 6.43319 10.4311 5.90343 10.4489 5.727C10.4734 5.48406 10.0331 5.07115 9.84896 5.00926C9.42138 4.87628 8.99177 4.7494 8.56026 4.62869C8.06083 4.48967 8.08679 3.84121 8.05507 3.61027C8.04808 3.55647 8.05776 3.50187 8.08289 3.45332C8.10803 3.40477 8.14751 3.36442 8.19639 3.33731C8.29733 3.28004 8.37664 3.33362 8.4747 3.39505L8.9001 3.69433C9.139 3.89109 8.47999 4.26705 8.65832 4.32986C8.65832 4.32986 9.50191 4.63423 9.86339 4.6975C10.0614 4.73214 10.745 3.99131 10.7848 3.5567C10.8161 3.21492 9.1515 1.6709 7.9647 1.0714C7.54747 0.860793 7.3028 0.738399 7.02785 0.750869C6.69955 0.765649 6.5962 0.890353 6.18762 1.22659C4.33845 2.74659 2.54359 6.03368 2.28017 6.76112C1.20056 9.74522 1.03185 11.3174 0.993392 12.2056C0.969558 12.4756 0.95737 12.7465 0.95686 13.0175C0.988104 13.0175 0.47618 15.3269 0.95686 15.7887C1.43754 16.2506 3.51696 16.2506 3.51696 16.2506C8.32377 18.093 17.25 17.6122 17.25 12.9099C17.25 7.2881 8.20696 8.03402 6.50247 10.9756Z" fill="#3A3E90"/>
<path d="M10.341 15.7185C8.89991 15.55 7.7744 14.7637 7.71101 14.7185C7.60899 14.6461 7.53697 14.5316 7.5108 14.4001C7.48463 14.2687 7.50645 14.131 7.57146 14.0174C7.63647 13.9039 7.73935 13.8237 7.85746 13.7946C7.97557 13.7655 8.09923 13.7897 8.20126 13.8621C8.2195 13.8748 10.0268 15.1271 11.7794 14.6068C12.7484 14.3195 13.5429 13.5332 14.1403 12.2712C14.1966 12.152 14.2932 12.0627 14.4088 12.0228C14.5243 11.9829 14.6493 11.9957 14.7564 12.0585C14.8634 12.1212 14.9437 12.2287 14.9795 12.3573C15.0154 12.4859 15.0038 12.6251 14.9475 12.7443C14.2246 14.2703 13.2355 15.2282 12.0074 15.5901C11.4341 15.7586 10.8664 15.78 10.341 15.7185Z" fill="white"/>
</g>
<defs>
<clipPath id="clip0_689_513">
<rect width="18" height="18" fill="white"/>
</clipPath>
</defs>
</svg>
