<svg width="24" height="24" viewBox="0 0 24 24" fill="none" xmlns="http://www.w3.org/2000/svg">
<path d="M12 2.5C14.3439 2.5 16.25 4.40614 16.25 6.75C16.24 9.05196 14.4419 10.9097 12.1523 10.9902H12.124C12.0448 10.9818 11.9635 10.9833 11.8867 10.9893C9.53765 10.9032 7.75 9.04362 7.75 6.75C7.75 4.40614 9.65614 2.5 12 2.5Z" fill="white" stroke="white"/>
<path d="M12.0128 13.2559C13.7739 13.2559 15.5069 13.7025 16.8028 14.5664C17.8867 15.289 18.4583 16.2137 18.5323 17.1729L18.5401 17.3652C18.5386 18.3316 18.0294 19.2697 17.0108 20.0273L16.8008 20.1758C15.5 21.0491 13.7628 21.501 12.0001 21.501C10.2371 21.501 8.49919 21.0492 7.1983 20.1758L7.19733 20.1748C6.03841 19.4022 5.46002 18.4026 5.46002 17.3809C5.46002 16.3585 6.03911 15.3488 7.20807 14.5664L7.20709 14.5654C8.51356 13.7013 10.2524 13.2559 12.0128 13.2559Z" fill="white" stroke="white"/>
</svg>
