<svg width="18" height="18" viewBox="0 0 18 18" fill="none" xmlns="http://www.w3.org/2000/svg">
<path d="M8.60728 8.60714C10.777 8.60714 12.5359 6.84826 12.5359 4.67857C12.5359 2.50888 10.777 0.75 8.60728 0.75C6.43759 0.75 4.67871 2.50888 4.67871 4.67857C4.67871 6.84826 6.43759 8.60714 8.60728 8.60714Z" fill="#3A3E90"/>
<path opacity="0.4" d="M8.21429 10.9648C4.10032 10.9648 0.75 13.6048 0.75 16.8577C0.75 17.0777 0.930653 17.2506 1.16058 17.2506H15.268C15.4979 17.2506 15.6786 17.0777 15.6786 16.8577C15.6786 13.6048 12.3283 10.9648 8.21429 10.9648Z" fill="#3A3E90"/>
<path d="M17.067 16.2055L16.47 15.6084C16.7842 15.137 16.9648 14.5713 16.9648 13.9663C16.9648 12.3084 15.6217 10.9648 13.9644 10.9648C12.307 10.9648 10.9639 12.3084 10.9639 13.9663C10.9639 15.6241 12.307 16.9677 13.9644 16.9677C14.5692 16.9677 15.1347 16.787 15.606 16.4727L16.2029 17.0699C16.3207 17.1877 16.4778 17.2506 16.6349 17.2506C16.792 17.2506 16.9491 17.1877 17.067 17.0699C17.3105 16.8263 17.3105 16.4413 17.067 16.2055Z" fill="#3A3E90"/>
</svg>
