<svg width="18" height="18" viewBox="0 0 18 18" fill="none" xmlns="http://www.w3.org/2000/svg">
<path d="M15.8173 5.23563C15.1798 4.53063 14.1148 4.17813 12.5698 4.17813H12.3898V4.14813C12.3898 2.88813 12.3898 1.32812 9.56978 1.32812H8.42978C5.60978 1.32812 5.60978 2.89563 5.60978 4.14813V4.18563H5.42978C3.87728 4.18563 2.81978 4.53812 2.18228 5.24312C1.43978 6.06812 1.46228 7.17812 1.53728 7.93562L1.54478 7.98812L1.61978 8.77563C1.62728 8.78313 1.64228 8.79812 1.65728 8.80562C1.90478 8.97062 2.15978 9.13563 2.42978 9.28563C2.53478 9.35313 2.64728 9.41313 2.75978 9.47313C4.04228 10.1781 5.45228 10.6506 6.88478 10.8831C6.95228 11.5881 7.25978 12.4131 8.90228 12.4131C10.5448 12.4131 10.8673 11.5956 10.9198 10.8681C12.4498 10.6206 13.9273 10.0881 15.2623 9.30812C15.3073 9.28562 15.3373 9.26312 15.3748 9.24062C15.7198 9.04562 16.0423 8.83563 16.3573 8.60313C16.3723 8.59563 16.3873 8.58062 16.3948 8.56562L16.4248 8.29563L16.4623 7.94312C16.4698 7.89812 16.4698 7.86062 16.4773 7.80812C16.5373 7.05062 16.5223 6.01562 15.8173 5.23563ZM9.81728 10.3731C9.81728 11.1681 9.81728 11.2881 8.89478 11.2881C7.97228 11.2881 7.97228 11.1456 7.97228 10.3806V9.43563H9.81728V10.3731ZM6.68228 4.17813V4.14813C6.68228 2.87313 6.68228 2.40062 8.42978 2.40062H9.56978C11.3173 2.40062 11.3173 2.88063 11.3173 4.14813V4.18563H6.68228V4.17813Z" fill="#3A3E90"/>
<path opacity="0.4" d="M15.3751 9.22578C15.3376 9.24828 15.3001 9.27078 15.2626 9.29328C13.9276 10.0733 12.4501 10.5983 10.9201 10.8533C10.8601 11.5733 10.5451 12.3983 8.90262 12.3983C7.26012 12.3983 6.94512 11.5808 6.88512 10.8683C5.45262 10.6433 4.04262 10.1708 2.76012 9.45828C2.64762 9.39828 2.53512 9.33828 2.43012 9.27078C2.16012 9.12078 1.90512 8.95578 1.65762 8.79078C1.64262 8.78328 1.62762 8.76828 1.62012 8.76078L2.07762 13.6433C2.23512 15.1358 2.85012 16.6733 6.15012 16.6733H11.8651C15.1651 16.6733 15.7801 15.1358 15.9376 13.6358L16.4101 8.55078C16.4026 8.56578 16.3876 8.58078 16.3726 8.58828C16.0501 8.82078 15.7201 9.03828 15.3751 9.22578Z" fill="#3A3E90"/>
</svg>
