<svg width="18" height="18" viewBox="0 0 18 18" fill="none" xmlns="http://www.w3.org/2000/svg">
<path opacity="0.4" d="M17.3077 18H0.692308C0.313846 18 0 17.7733 0 17.5C0 17.2267 0.313846 17 0.692308 17H17.3077C17.6862 17 18 17.2267 18 17.5C18 17.7733 17.6862 18 17.3077 18Z" fill="#404040"/>
<path opacity="0.4" d="M15.6365 1.36562C13.8371 -0.431967 12.0749 -0.478297 10.2292 1.36562L9.10696 2.48679C9.01422 2.57945 8.97712 2.7277 9.01422 2.85743C9.7191 5.31289 11.6854 7.27726 14.1432 7.98147C14.1803 7.99073 14.2174 8 14.2545 8C14.3565 8 14.4493 7.96294 14.5235 7.88881L15.6365 6.76764C16.5547 5.85958 16.9999 4.97932 16.9999 4.08979C17.0091 3.17247 16.5639 2.28294 15.6365 1.36562Z" fill="#404040"/>
<path d="M12.2133 9.07799C11.9449 8.94826 11.6858 8.81853 11.4359 8.67027C11.2323 8.54981 11.038 8.42008 10.8436 8.28108C10.6863 8.17915 10.5012 8.03089 10.3253 7.88263C10.3068 7.87336 10.2421 7.81776 10.168 7.74363C9.86261 7.48417 9.52018 7.15058 9.21477 6.77992C9.187 6.76139 9.14073 6.69652 9.07595 6.61313C8.9834 6.50193 8.82606 6.3166 8.68724 6.10347C8.57618 5.96448 8.44662 5.76062 8.3263 5.55676C8.17823 5.30656 8.04866 5.05637 7.91909 4.79691C7.78952 4.51892 7.68772 4.25019 7.59517 4L1.78313 9.8193C1.66281 9.93977 1.55175 10.1714 1.52399 10.329L1.02423 13.878C0.931679 14.5081 1.10752 15.1012 1.49622 15.4996C1.8294 15.8239 2.29214 16 2.7919 16C2.90296 16 3.01402 15.9907 3.12508 15.9722L6.67894 15.4718C6.84553 15.444 7.0769 15.3328 7.18796 15.2124L13 9.39305C12.7409 9.30039 12.491 9.19846 12.2133 9.07799Z" fill="#404040"/>
</svg>
