<svg width="18" height="18" viewBox="0 0 18 18" fill="none" xmlns="http://www.w3.org/2000/svg">
<path d="M8.60728 8.60714C10.777 8.60714 12.5359 6.84826 12.5359 4.67857C12.5359 2.50888 10.777 0.75 8.60728 0.75C6.43759 0.75 4.67871 2.50888 4.67871 4.67857C4.67871 6.84826 6.43759 8.60714 8.60728 8.60714Z" fill="#3A3E90"/>
<path opacity="0.4" d="M8.21429 10.9639C4.10032 10.9639 0.75 13.6039 0.75 16.8567C0.75 17.0767 0.930653 17.2496 1.16058 17.2496H15.268C15.4979 17.2496 15.6786 17.0767 15.6786 16.8567C15.6786 13.6039 12.3283 10.9639 8.21429 10.9639Z" fill="#3A3E90"/>
<path d="M17.067 16.2046L16.47 15.6074C16.7842 15.136 16.9648 14.5703 16.9648 13.9653C16.9648 12.3074 15.6217 10.9639 13.9644 10.9639C12.307 10.9639 10.9639 12.3074 10.9639 13.9653C10.9639 15.6232 12.307 16.9667 13.9644 16.9667C14.5692 16.9667 15.1347 16.786 15.606 16.4717L16.2029 17.0689C16.3207 17.1867 16.4778 17.2496 16.6349 17.2496C16.792 17.2496 16.9491 17.1867 17.067 17.0689C17.3105 16.8253 17.3105 16.4403 17.067 16.2046Z" fill="#3A3E90"/>
</svg>
