<svg width="20" height="20" viewBox="0 0 20 20" fill="none" xmlns="http://www.w3.org/2000/svg">
<path d="M6.28198 12.8846V2.5L7.43583 3.07692L8.58967 2.5L9.74136 3.07692L10.9085 2.5L12.0512 3.07692L13.1975 2.5L14.3488 3.07692L15.5128 2.5L16.667 3.07692L17.8204 2.5V10.5769" stroke="#9CA3AF" stroke-linejoin="round"/>
<path d="M17.8206 10.5762V14.6146C17.8206 15.3797 17.5166 16.1134 16.9757 16.6544C16.4347 17.1953 15.701 17.4992 14.9359 17.4992C14.1709 17.4992 13.4372 17.1953 12.8962 16.6544C12.3552 16.1134 12.0513 15.3797 12.0513 14.6146V12.8839H2.24363C2.16768 12.8832 2.09236 12.8977 2.02206 12.9264C1.95176 12.9552 1.88789 12.9976 1.83419 13.0513C1.78048 13.105 1.73801 13.1689 1.70925 13.2392C1.6805 13.3095 1.66604 13.3848 1.66671 13.4608C1.66671 15.7685 1.90974 17.4992 4.55132 17.4992H14.9359" stroke="#9CA3AF" stroke-linejoin="round"/>
<path d="M8.58969 5.96094H15.5128M10.8974 8.84555H15.5128" stroke="#9CA3AF" stroke-linecap="round" stroke-linejoin="round"/>
</svg>
