<svg width="122" height="122" viewBox="0 0 122 122" fill="none" xmlns="http://www.w3.org/2000/svg">
<g clip-path="url(#clip0_117_2409)">
<circle cx="61" cy="61" r="60" fill="#FFF1ED"/>
<g filter="url(#filter0_d_117_2409)">
<path d="M24 31C24 26.0294 28.0294 22 33 22H89C93.9706 22 98 26.0294 98 31V74.4377C98 77.8466 96.074 80.963 93.0249 82.4875L65.0249 96.4875C62.4912 97.7544 59.5088 97.7544 56.9751 96.4875L28.9751 82.4875C25.926 80.963 24 77.8466 24 74.4377V31Z" fill="white"/>
</g>
<rect x="33" y="34" width="44" height="28" fill="url(#paint0_linear_117_2409)"/>
<g filter="url(#filter1_d_117_2409)">
<rect width="44" height="5" rx="2.5" transform="matrix(1 0 0 -1 33 36)" fill="#FFDDC9"/>
</g>
<rect x="47" y="47" width="44" height="19" fill="url(#paint1_linear_117_2409)"/>
<g filter="url(#filter2_d_117_2409)">
<rect width="44" height="5" rx="2.5" transform="matrix(1 0 0 -1 47 49)" fill="#FFDDC9"/>
</g>
<g filter="url(#filter3_d_117_2409)">
<rect width="14" height="5" rx="2.5" transform="matrix(1 0 0 -1 33 71)" fill="#FFF6F0"/>
</g>
<g filter="url(#filter4_d_117_2409)">
<rect width="14" height="5" rx="2.5" transform="matrix(1 0 0 -1 51 71)" fill="#FFF6F0"/>
</g>
<rect x="43.5" y="75.5" width="35" height="35" rx="17.5" fill="url(#paint2_linear_117_2409)"/>
<rect x="43.5" y="75.5" width="35" height="35" rx="17.5" stroke="url(#paint3_linear_117_2409)"/>
<path d="M61 82C54.9196 82 50 86.9196 50 93C50 99.0804 54.9196 104 61 104C67.0804 104 72 99.0804 72 93C72 86.9196 67.0804 82 61 82ZM66.0854 98.0854C65.6432 98.5276 64.9799 98.5276 64.5377 98.0854L60.392 93.9397C60.1156 93.6633 59.9497 93.4422 59.8945 93.0553V85.8693C59.8945 85.2613 60.392 84.7638 61 84.7638C61.608 84.7638 62.1055 85.2613 62.1055 85.8693V92.5578L66.0854 96.5377C66.4724 96.9246 66.4724 97.6432 66.0854 98.0854Z" fill="white"/>
</g>
<rect x="0.5" y="0.5" width="121" height="121" rx="60.5" stroke="url(#paint4_linear_117_2409)"/>
<defs>
<filter id="filter0_d_117_2409" x="-36" y="-26" width="194" height="195.438" filterUnits="userSpaceOnUse" color-interpolation-filters="sRGB">
<feFlood flood-opacity="0" result="BackgroundImageFix"/>
<feColorMatrix in="SourceAlpha" type="matrix" values="0 0 0 0 0 0 0 0 0 0 0 0 0 0 0 0 0 0 127 0" result="hardAlpha"/>
<feOffset dy="12"/>
<feGaussianBlur stdDeviation="30"/>
<feComposite in2="hardAlpha" operator="out"/>
<feColorMatrix type="matrix" values="0 0 0 0 0.262745 0 0 0 0 0.278431 0 0 0 0 0.301961 0 0 0 0.13 0"/>
<feBlend mode="normal" in2="BackgroundImageFix" result="effect1_dropShadow_117_2409"/>
<feBlend mode="normal" in="SourceGraphic" in2="effect1_dropShadow_117_2409" result="shape"/>
</filter>
<filter id="filter1_d_117_2409" x="-27" y="-17" width="164" height="125" filterUnits="userSpaceOnUse" color-interpolation-filters="sRGB">
<feFlood flood-opacity="0" result="BackgroundImageFix"/>
<feColorMatrix in="SourceAlpha" type="matrix" values="0 0 0 0 0 0 0 0 0 0 0 0 0 0 0 0 0 0 127 0" result="hardAlpha"/>
<feOffset dy="12"/>
<feGaussianBlur stdDeviation="30"/>
<feComposite in2="hardAlpha" operator="out"/>
<feColorMatrix type="matrix" values="0 0 0 0 0.262745 0 0 0 0 0.278431 0 0 0 0 0.301961 0 0 0 0.17 0"/>
<feBlend mode="normal" in2="BackgroundImageFix" result="effect1_dropShadow_117_2409"/>
<feBlend mode="normal" in="SourceGraphic" in2="effect1_dropShadow_117_2409" result="shape"/>
</filter>
<filter id="filter2_d_117_2409" x="-13" y="-4" width="164" height="125" filterUnits="userSpaceOnUse" color-interpolation-filters="sRGB">
<feFlood flood-opacity="0" result="BackgroundImageFix"/>
<feColorMatrix in="SourceAlpha" type="matrix" values="0 0 0 0 0 0 0 0 0 0 0 0 0 0 0 0 0 0 127 0" result="hardAlpha"/>
<feOffset dy="12"/>
<feGaussianBlur stdDeviation="30"/>
<feComposite in2="hardAlpha" operator="out"/>
<feColorMatrix type="matrix" values="0 0 0 0 0.262745 0 0 0 0 0.278431 0 0 0 0 0.301961 0 0 0 0.17 0"/>
<feBlend mode="normal" in2="BackgroundImageFix" result="effect1_dropShadow_117_2409"/>
<feBlend mode="normal" in="SourceGraphic" in2="effect1_dropShadow_117_2409" result="shape"/>
</filter>
<filter id="filter3_d_117_2409" x="-27" y="18" width="134" height="125" filterUnits="userSpaceOnUse" color-interpolation-filters="sRGB">
<feFlood flood-opacity="0" result="BackgroundImageFix"/>
<feColorMatrix in="SourceAlpha" type="matrix" values="0 0 0 0 0 0 0 0 0 0 0 0 0 0 0 0 0 0 127 0" result="hardAlpha"/>
<feOffset dy="12"/>
<feGaussianBlur stdDeviation="30"/>
<feComposite in2="hardAlpha" operator="out"/>
<feColorMatrix type="matrix" values="0 0 0 0 0.262745 0 0 0 0 0.278431 0 0 0 0 0.301961 0 0 0 0.17 0"/>
<feBlend mode="normal" in2="BackgroundImageFix" result="effect1_dropShadow_117_2409"/>
<feBlend mode="normal" in="SourceGraphic" in2="effect1_dropShadow_117_2409" result="shape"/>
</filter>
<filter id="filter4_d_117_2409" x="-9" y="18" width="134" height="125" filterUnits="userSpaceOnUse" color-interpolation-filters="sRGB">
<feFlood flood-opacity="0" result="BackgroundImageFix"/>
<feColorMatrix in="SourceAlpha" type="matrix" values="0 0 0 0 0 0 0 0 0 0 0 0 0 0 0 0 0 0 127 0" result="hardAlpha"/>
<feOffset dy="12"/>
<feGaussianBlur stdDeviation="30"/>
<feComposite in2="hardAlpha" operator="out"/>
<feColorMatrix type="matrix" values="0 0 0 0 0.262745 0 0 0 0 0.278431 0 0 0 0 0.301961 0 0 0 0.17 0"/>
<feBlend mode="normal" in2="BackgroundImageFix" result="effect1_dropShadow_117_2409"/>
<feBlend mode="normal" in="SourceGraphic" in2="effect1_dropShadow_117_2409" result="shape"/>
</filter>
<linearGradient id="paint0_linear_117_2409" x1="55" y1="34" x2="55" y2="62" gradientUnits="userSpaceOnUse">
<stop stop-color="#FFEFE7"/>
<stop offset="1" stop-color="white" stop-opacity="0"/>
</linearGradient>
<linearGradient id="paint1_linear_117_2409" x1="69" y1="47" x2="69" y2="66" gradientUnits="userSpaceOnUse">
<stop stop-color="#FFEFE7"/>
<stop offset="1" stop-color="white" stop-opacity="0"/>
</linearGradient>
<linearGradient id="paint2_linear_117_2409" x1="61" y1="75" x2="61" y2="111" gradientUnits="userSpaceOnUse">
<stop stop-color="#FF5C00"/>
<stop offset="1" stop-color="#FF9052"/>
</linearGradient>
<linearGradient id="paint3_linear_117_2409" x1="53.2162" y1="29.2703" x2="61" y2="111" gradientUnits="userSpaceOnUse">
<stop stop-color="white"/>
<stop offset="1" stop-color="white" stop-opacity="0"/>
</linearGradient>
<linearGradient id="paint4_linear_117_2409" x1="61" y1="1" x2="61" y2="121" gradientUnits="userSpaceOnUse">
<stop stop-color="#FFD5BB"/>
<stop offset="1" stop-color="#FFD5BB" stop-opacity="0"/>
</linearGradient>
<clipPath id="clip0_117_2409">
<rect x="1" y="1" width="120" height="120" rx="60" fill="white"/>
</clipPath>
</defs>
</svg>
