<svg width="60" height="60" viewBox="0 0 60 60" fill="none" xmlns="http://www.w3.org/2000/svg">
<path d="M34.3139 0C19.0102 0 6.55176 12.4584 6.55176 27.7623C6.55176 32.5935 10.4839 36.5355 15.325 36.5355C20.1562 36.5355 24.0983 32.6034 24.0983 27.7623C24.0983 22.1309 28.6825 17.5367 34.3238 17.5367C39.165 17.5367 43.0971 13.6046 43.0971 8.76347C43.0872 3.93211 39.155 0 34.3139 0ZM15.325 33.1961C12.3215 33.1961 9.89105 30.7557 9.89105 27.7621C9.89105 14.2861 20.8478 3.32936 34.3238 3.32936C37.3274 3.32936 39.7578 5.76972 39.7578 8.76331C39.7578 11.7668 37.3174 14.1973 34.3238 14.1973C26.8449 14.1973 20.7687 20.2832 20.7687 27.7524C20.7588 30.7657 18.3284 33.1961 15.325 33.1961Z" fill="#3A3E90"/>
<path d="M27.4085 10.4042C27.7048 10.0782 28.2087 9.92007 28.6533 10.0287C29.5424 10.2659 30.4612 9.7324 30.6885 8.83331C30.9257 7.94416 30.3922 7.02535 29.4931 6.7981C27.8531 6.36346 26.0549 6.90676 24.9188 8.18135C24.3062 8.86311 24.3655 9.92022 25.0472 10.5328C25.7389 11.1551 26.8256 11.0661 27.4085 10.4042Z" fill="#9E9FC8"/>
<path d="M24.4836 12.5377C23.9007 11.8165 22.8633 11.6979 22.1421 12.2808C21.4307 12.844 20.4725 13.1306 19.5635 13.0514C18.6447 12.9527 17.8345 13.6442 17.7456 14.5531C17.6666 15.4719 18.3384 16.282 19.2473 16.371C21.1837 16.4993 22.8237 15.9857 24.207 14.8791C24.9381 14.2963 25.0566 13.2591 24.4836 12.5377Z" fill="#9E9FC8"/>
<path d="M35.3226 11.6178L36.1524 11.025C36.8933 10.4914 37.0712 9.45403 36.5377 8.70319C36.0042 7.94241 34.9668 7.78439 34.2159 8.31791L33.3861 8.91073C32.6452 9.44425 32.4673 10.4816 33.0008 11.2325C33.7319 12.2699 34.9471 11.8944 35.3226 11.6178Z" fill="#9E9FC8"/>
<path d="M16.3825 25.6172C15.4637 25.6172 14.7129 26.3581 14.7129 27.2868V29.085C14.7129 30.0038 15.4538 30.7547 16.3825 30.7547C17.3113 30.7547 18.0522 30.0137 18.0522 29.085V27.2868C18.0423 26.3582 17.3013 25.6172 16.3825 25.6172Z" fill="#9E9FC8"/>
<path d="M16.7091 21.7055C17.4896 21.2213 17.7268 20.1938 17.2426 19.4133C16.7585 18.6328 15.731 18.3957 14.9505 18.8798L13.429 19.8283C12.6485 20.3124 12.4113 21.3399 12.8954 22.1204C13.3796 22.9009 14.4071 23.1381 15.1876 22.6539L16.7091 21.7055Z" fill="#9E9FC8"/>
<path d="M44.6861 23.4531C39.8549 23.4531 35.9129 27.3852 35.9129 32.2264C35.9129 37.8578 31.3287 42.452 25.6873 42.452C20.8462 42.452 16.9141 46.3841 16.9141 51.2252C16.9141 56.0564 20.8462 59.9984 25.6873 59.9984C40.9911 59.9984 53.4496 47.5401 53.4496 32.2362C53.4594 27.3952 49.5173 23.4531 44.6861 23.4531ZM25.6971 56.659C22.6936 56.659 20.2631 54.2186 20.2631 51.225C20.2631 48.2215 22.7035 45.7911 25.6971 45.7911C33.176 45.7911 39.2522 39.7052 39.2522 32.236C39.2522 29.2325 41.6925 26.802 44.6861 26.802C47.6897 26.802 50.1201 29.2424 50.1201 32.236C50.1199 45.7024 39.1535 56.659 25.6971 56.659Z" fill="#3A3E90"/>
<path d="M32.6039 49.5846C32.3076 49.9105 31.8037 50.0687 31.3591 49.9601C30.47 49.7229 29.5512 50.2564 29.3239 51.1555C29.0867 52.0446 29.6202 52.9634 30.5193 53.1907C32.1593 53.6253 33.9575 53.082 35.0936 51.8074C35.7062 51.1257 35.6469 50.0686 34.9652 49.456C34.2737 48.8336 33.1868 48.9225 32.6039 49.5846Z" fill="#9E9FC8"/>
<path d="M40.7543 43.6179C38.8178 43.4896 37.1778 44.0032 35.7946 45.1098C35.0734 45.6927 34.9548 46.7401 35.5377 47.4513C36.1206 48.1725 37.158 48.2911 37.8791 47.7082C38.5906 47.1451 39.5488 46.8585 40.4578 46.9377C41.3766 47.0364 42.1868 46.3448 42.2757 45.436C42.335 44.517 41.6632 43.7069 40.7543 43.6179Z" fill="#9E9FC8"/>
<path d="M27.0016 48.7556C26.399 47.9751 25.5986 47.6885 24.6798 48.3703L23.8499 48.9631C23.109 49.4966 22.9311 50.534 23.4647 51.2849C23.9982 52.0357 25.0356 52.2037 25.7864 51.6702L26.6163 51.0773C27.3671 50.5537 27.5449 49.5163 27.0016 48.7556Z" fill="#9E9FC8"/>
<path d="M45.2983 32.71V30.9118C45.2983 29.993 44.5574 29.2422 43.6286 29.2422C42.7098 29.2422 41.959 29.9831 41.959 30.9118V32.71C41.959 33.6288 42.6999 34.3797 43.6286 34.3797C44.5572 34.3798 45.2983 33.629 45.2983 32.71Z" fill="#9E9FC8"/>
<path d="M44.8245 37.3241L43.303 38.2725C42.5225 38.7567 42.2853 39.7842 42.7695 40.5646C43.2536 41.3451 44.2811 41.5823 45.0616 41.0982L46.5831 40.1497C47.3636 39.6656 47.6008 38.6381 47.1167 37.8576C46.6424 37.0771 45.615 36.8401 44.8245 37.3241Z" fill="#9E9FC8"/>
</svg>
