<svg width="60" height="60" viewBox="0 0 60 60" fill="none" xmlns="http://www.w3.org/2000/svg">
<path d="M22.5 29.9999L27.5 34.9999L37.5 24.9999M50 29.9999C50 41.1527 36.35 49.2342 31.6035 51.7074C31.0903 51.9749 30.8335 52.1087 30.4775 52.1779C30.2 52.2319 29.8 52.2319 29.5225 52.1779C29.1665 52.1087 28.9097 51.9749 28.3965 51.7074C23.6499 49.2342 10 41.1527 10 29.9999V20.5439C10 18.5451 10 17.5458 10.3269 16.6867C10.6157 15.9278 11.0849 15.2506 11.6941 14.7137C12.3838 14.106 13.3195 13.7551 15.191 13.0533L28.5955 8.02661C29.1152 7.83171 29.375 7.73426 29.6425 7.69561C29.8795 7.66136 30.1205 7.66136 30.3575 7.69561C30.625 7.73426 30.8848 7.83171 31.4045 8.02661L44.809 13.0533C46.6805 13.7551 47.6162 14.106 48.3057 14.7137C48.915 15.2506 49.3842 15.9278 49.673 16.6867C50 17.5458 50 18.5451 50 20.5439V29.9999Z" stroke="#3A3E90" stroke-width="4.2" stroke-linecap="round" stroke-linejoin="round"/>
</svg>
