<svg width="60" height="60" viewBox="0 0 60 60" fill="none" xmlns="http://www.w3.org/2000/svg">
<path d="M41.11 20.889V39.1109V20.889ZM52.2209 16.3613V43.6386V16.3613ZM18.8882 39.1109V20.889V39.1109ZM7.77734 43.6386V16.3613V43.6386Z" fill="#9E9FC8"/>
<path d="M41.11 20.889V39.1109M52.2209 16.3613V43.6386M18.8882 39.1109V20.889M7.77734 43.6386V16.3613" stroke="#9E9FC8" stroke-width="3.08636" stroke-linecap="round" stroke-linejoin="round"/>
<path d="M5.00098 16.1113H5.47319C10.4126 16.1122 15.2677 17.3918 19.5658 19.8256C23.864 22.2595 27.4588 25.7646 30.0005 29.9999C32.5543 34.2242 36.1519 37.7205 40.4473 40.1528C44.7427 42.5851 49.5916 43.8715 54.5278 43.8886H55" stroke="#3A3E90" stroke-width="3.88881" stroke-linecap="round" stroke-linejoin="round"/>
<path d="M5.00098 43.8886H5.47319C10.4126 43.8877 15.2677 42.6081 19.5658 40.1743C23.864 37.7404 27.4588 34.2353 30.0005 29.9999C32.5421 25.7646 36.137 22.2595 40.4351 19.8256C44.7333 17.3918 49.5884 16.1122 54.5278 16.1113H55" stroke="#3A3E90" stroke-width="3.88881" stroke-linecap="round" stroke-linejoin="round"/>
</svg>
