<svg width="60" height="60" viewBox="0 0 60 60" fill="none" xmlns="http://www.w3.org/2000/svg">
<path d="M42.7277 35.4543L24.5459 17.2725" stroke="#3A3E90" stroke-width="3.75" stroke-linecap="round"/>
<path d="M15.4545 44.5459L10 50.0004L15.4545 44.5459Z" fill="#9E9FC8"/>
<path d="M15.4545 44.5459L10 50.0004" stroke="#9E9FC8" stroke-width="3.75" stroke-linecap="round"/>
<path d="M39.5824 17.7654C38.8501 18.4977 38.8501 19.6848 39.5824 20.4171C40.3144 21.1493 41.5016 21.1493 42.2339 20.4171L39.5824 17.7654ZM47.6884 14.9625C48.4206 14.2303 48.4206 13.0431 47.6884 12.3109C46.9561 11.5787 45.7691 11.5787 45.0369 12.3109L47.6884 14.9625ZM42.2339 20.4171L47.6884 14.9625L45.0369 12.3109L39.5824 17.7654L42.2339 20.4171Z" fill="#9E9FC8"/>
<path d="M35.9473 42.2355C36.6796 42.9677 37.8668 42.9677 38.5991 42.2355C39.3313 41.5032 39.3313 40.316 38.5991 39.584L35.9473 42.2355ZM31.3856 32.3705C30.6533 31.6382 29.4661 31.6382 28.7341 32.3705C28.0018 33.1027 28.0018 34.29 28.7341 35.022L31.3856 32.3705ZM31.8566 46.3265C32.5886 47.0587 33.7758 47.0587 34.5081 46.3265C35.2403 45.5942 35.2403 44.407 34.5081 43.6747L31.8566 46.3265ZM30.3933 39.56C29.6611 38.8277 28.4738 38.8277 27.7416 39.56C27.0093 40.2922 27.0093 41.4792 27.7416 42.2115L30.3933 39.56ZM38.5991 39.584L31.3856 32.3705L28.7341 35.022L35.9473 42.2355L38.5991 39.584ZM34.5081 43.6747L30.3933 39.56L27.7416 42.2115L31.8566 46.3265L34.5081 43.6747Z" fill="#9E9FC8"/>
<path d="M48.6748 18.5985C49.407 19.3308 50.594 19.3308 51.3263 18.5985C52.0585 17.8663 52.0585 16.6791 51.3263 15.9469L48.6748 18.5985ZM44.0535 8.67417C43.3213 7.94194 42.1343 7.94194 41.402 8.67417C40.6698 9.40639 40.6698 10.5936 41.402 11.3258L44.0535 8.67417ZM36.1495 16.9824L43.018 23.8511L45.6698 21.1994L38.801 14.3307L36.1495 16.9824ZM43.018 32.5125L32.311 43.2197L34.9628 45.8712L45.6698 35.1642L43.018 32.5125ZM16.7809 27.6895L27.488 16.9824L24.8363 14.3307L14.1292 25.0377L16.7809 27.6895ZM16.7809 43.2197C12.4923 38.931 12.4923 31.978 16.7809 27.6895L14.1292 25.0377C8.3762 30.7907 8.3762 40.1182 14.1292 45.8712L16.7809 43.2197ZM32.311 43.2197C28.0225 47.5082 21.0694 47.5082 16.7809 43.2197L14.1292 45.8712C19.8822 51.6242 29.2098 51.6242 34.9628 45.8712L32.311 43.2197ZM43.018 23.8511C43.9805 24.8134 44.6275 25.4622 45.0903 26.0007C45.5403 26.5247 45.713 26.8297 45.7983 27.0642L49.3223 25.7817C49.0175 24.9448 48.5243 24.2432 47.9345 23.557C47.3577 22.8857 46.5918 22.1213 45.6698 21.1994L43.018 23.8511ZM45.6698 35.1642C46.5918 34.2422 47.3577 33.478 47.9345 32.8065C48.5243 32.1205 49.0175 31.4187 49.3223 30.582L45.7983 29.2995C45.713 29.534 45.5403 29.839 45.0903 30.3627C44.6275 30.9015 43.9805 31.5502 43.018 32.5125L45.6698 35.1642ZM45.7983 27.0642C46.061 27.7862 46.061 28.5775 45.7983 29.2995L49.3223 30.582C49.8865 29.0315 49.8865 27.332 49.3223 25.7817L45.7983 27.0642ZM38.801 14.3307C37.8793 13.4088 37.1148 12.6427 36.4435 12.0659C35.7573 11.4763 35.0558 10.9829 34.2188 10.6783L32.9363 14.2022C33.1708 14.2875 33.4758 14.4602 33.9995 14.9102C34.5383 15.373 35.187 16.02 36.1495 16.9824L38.801 14.3307ZM27.488 16.9824C28.4503 16.02 29.099 15.373 29.6378 14.9102C30.1615 14.4602 30.4665 14.2875 30.701 14.2022L29.4185 10.6783C28.5818 10.9829 27.88 11.4763 27.1938 12.0659C26.5225 12.6427 25.7583 13.4088 24.8363 14.3307L27.488 16.9824ZM34.2188 10.6783C32.6685 10.114 30.9688 10.114 29.4185 10.6783L30.701 14.2022C31.423 13.9394 32.2143 13.9394 32.9363 14.2022L34.2188 10.6783ZM45.0383 14.9622L48.6748 18.5985L51.3263 15.9469L47.69 12.3105L45.0383 14.9622ZM47.69 12.3105L44.0535 8.67417L41.402 11.3258L45.0383 14.9622L47.69 12.3105Z" fill="#3A3E90"/>
</svg>
