<svg width="60" height="60" viewBox="0 0 60 60" fill="none" xmlns="http://www.w3.org/2000/svg">
<path d="M43.7957 42.2046C43.3564 41.7653 42.644 41.7653 42.2047 42.2046C41.7654 42.644 41.7654 43.3563 42.2047 43.7956L43.0002 43.0001L43.7957 42.2046ZM50.2045 51.7955C50.6438 52.2348 51.3561 52.2348 51.7955 51.7955C52.2348 51.3562 52.2348 50.6439 51.7955 50.2045L51 51L50.2045 51.7955ZM23.6116 16.2342C24.2253 16.1371 24.644 15.5608 24.5468 14.9471C24.4496 14.3334 23.8733 13.9148 23.2596 14.0119L23.4356 15.1231L23.6116 16.2342ZM14.0119 23.2596C13.9147 23.8733 14.3334 24.4496 14.9471 24.5468C15.5607 24.644 16.137 24.2253 16.2342 23.6116L15.1231 23.4356L14.0119 23.2596ZM43.0002 43.0001L42.2047 43.7956L50.2045 51.7955L51 51L51.7955 50.2045L43.7957 42.2046L43.0002 43.0001ZM27 44.9999V43.8749C17.6802 43.8749 10.125 36.3197 10.125 27H9H7.875C7.875 37.5624 16.4376 46.1249 27 46.1249V44.9999ZM45.0001 27H43.8751C43.8751 36.3197 36.3199 43.8749 27 43.8749V44.9999V46.1249C37.5625 46.1249 46.1251 37.5624 46.1251 27H45.0001ZM27 9V10.125C36.3199 10.125 43.8751 17.6802 43.8751 27H45.0001H46.1251C46.1251 16.4375 37.5625 7.875 27 7.875V9ZM27 9V7.875C16.4376 7.875 7.875 16.4375 7.875 27H9H10.125C10.125 17.6802 17.6802 10.125 27 10.125V9ZM23.4356 15.1231L23.2596 14.0119C18.4993 14.7659 14.7659 18.4993 14.0119 23.2596L15.1231 23.4356L16.2342 23.6116C16.8357 19.8141 19.814 16.8357 23.6116 16.2342L23.4356 15.1231Z" fill="#2930D1"/>
</svg>
