<svg width="24" height="24" viewBox="0 0 24 24" fill="none" xmlns="http://www.w3.org/2000/svg">
<path opacity="0.4" d="M7.11039 5.96028L16.1304 2.95028C20.1804 1.60028 22.3804 3.81028 21.0404 7.86028L18.0304 16.8803C16.0104 22.9503 12.6904 22.9503 10.6704 16.8803L9.78039 14.2003L7.10039 13.3103C1.04039 11.3003 1.04039 7.99028 7.11039 5.96028Z" fill="#3A3E90"/>
<path d="M12.1201 11.6296L15.9301 7.80957L12.1201 11.6296Z" fill="#3A3E90"/>
<path d="M12.1196 12.38C11.9296 12.38 11.7396 12.31 11.5896 12.16C11.2996 11.87 11.2996 11.39 11.5896 11.1L15.3896 7.28C15.6796 6.99 16.1596 6.99 16.4496 7.28C16.7396 7.57 16.7396 8.05 16.4496 8.34L12.6496 12.16C12.4996 12.3 12.3096 12.38 12.1196 12.38Z" fill="#3A3E90"/>
</svg>
