<svg width="34" height="34" viewBox="0 0 34 34" fill="none" xmlns="http://www.w3.org/2000/svg">
<g clip-path="url(#clip0_557_5120)">
<path d="M29.3909 16.9708C29.3906 16.828 29.3495 16.6883 29.2724 16.568C29.1954 16.4477 29.0856 16.352 28.956 16.292L13.0461 8.86737C12.9074 8.80491 12.7529 8.78616 12.6032 8.81359C12.4535 8.84103 12.3156 8.91336 12.208 9.02097C12.1004 9.12859 12.0281 9.2664 12.0006 9.4161C11.9732 9.56579 11.992 9.7203 12.0544 9.85908L14.7909 16.2336L21.5261 16.223L21.5261 17.7186L14.7697 17.7186L12.0385 24.0984C11.9791 24.2364 11.9626 24.389 11.9909 24.5366C12.0193 24.6841 12.0913 24.8196 12.1976 24.9258C12.307 25.0307 12.4456 25.1001 12.5952 25.1247C12.7448 25.1493 12.8983 25.128 13.0355 25.0636L28.9454 17.639C29.0754 17.5813 29.1863 17.4879 29.2651 17.3696C29.344 17.2513 29.3876 17.113 29.3909 16.9708Z" fill="#FC5C2C"/>
</g>
<defs>
<clipPath id="clip0_557_5120">
<rect width="24" height="24" fill="white" transform="translate(16.9706) rotate(45)"/>
</clipPath>
</defs>
</svg>
