<svg width="14" height="12" viewBox="0 0 14 12" fill="none" xmlns="http://www.w3.org/2000/svg">
<path d="M0.5 3.2763V9.35755C0.5 10.5451 1.34375 11.0326 2.36875 10.4451L3.8375 9.60755C4.15625 9.4263 4.6875 9.40755 5.01875 9.5763L8.3 11.2201C8.63125 11.3826 9.1625 11.3701 9.48125 11.1888L12.1875 9.6388C12.5313 9.4388 12.8187 8.9513 12.8187 8.5513V2.47005C12.8187 1.28255 11.975 0.795053 10.95 1.38255L9.48125 2.22005C9.1625 2.4013 8.63125 2.42005 8.3 2.2513L5.01875 0.613803C4.6875 0.451303 4.15625 0.463803 3.8375 0.645053L1.13125 2.19505C0.78125 2.39505 0.5 2.88255 0.5 3.2763Z" stroke="white" stroke-linecap="round" stroke-linejoin="round"/>
<path d="M4.41797 0.914062V9.03906" stroke="white" stroke-linecap="round" stroke-linejoin="round"/>
<path d="M8.90039 2.55078V10.9133" stroke="white" stroke-linecap="round" stroke-linejoin="round"/>
</svg>
