<svg width="45" height="45" viewBox="0 0 45 45" fill="none" xmlns="http://www.w3.org/2000/svg">
<path d="M17.2011 17.2593L17.0129 16.9748C16.3047 15.9056 16.2999 14.1888 17.7585 12.1065C18.6836 10.7861 20.1474 9.39884 21.5759 8.49232C22.2903 8.03902 22.9708 7.72137 23.5508 7.58296C24.1387 7.44267 24.5423 7.5037 24.7958 7.68136C25.0494 7.85913 25.2438 8.21734 25.3128 8.81736C25.3809 9.40978 25.3155 10.1584 25.1335 10.9847C24.7695 12.6369 23.9656 14.4865 23.0405 15.8069C21.5818 17.889 19.9664 18.4716 18.7191 18.1714L18.388 18.0908L17.5952 19.2226C17.5745 19.2521 17.5511 19.2757 17.5239 19.2954L17.5233 19.2962C17.4972 19.3152 17.4681 19.3297 17.4337 19.3408C17.398 19.3515 17.3628 19.3555 17.3288 19.3543C17.2932 19.3523 17.2624 19.3456 17.2342 19.3345L16.8757 19.1943L16.6486 19.505C16.5721 19.6092 16.476 19.7368 16.4081 19.8397L16.4075 19.8405C16.3088 19.9888 16.2227 20.1429 16.1487 20.3018L16.1484 20.304C16.1124 20.382 16.0786 20.4621 16.0477 20.5447L16.0472 20.5455C16.0327 20.5836 16.0179 20.6257 16.0034 20.671L16.0028 20.6718L15.9592 20.8022L15.9577 20.8059C15.9288 20.8954 15.9011 20.9781 15.8715 21.0567L15.8706 21.0597C15.8328 21.1617 15.8077 21.2358 15.7758 21.3141L15.7733 21.3194C15.5054 22.0008 15.1716 22.6483 14.7718 23.2613L14.7707 23.2629C14.5752 23.5652 14.3642 23.8552 14.1393 24.1334C14.2448 23.9912 14.347 23.8466 14.445 23.6988L14.735 23.2355C15.0121 22.7689 15.2521 22.2845 15.4545 21.7829L15.6448 21.2747C15.6773 21.1846 15.7057 21.0922 15.7284 21.0209L15.8068 20.7575L15.8426 20.6299L15.8429 20.6277L15.8841 20.4957L15.8833 20.4951C15.9118 20.4077 15.9442 20.3218 15.9795 20.237L15.9801 20.2362L16.0965 19.9815C16.1381 19.899 16.182 19.8178 16.2297 19.7386L16.2305 19.7391C16.3138 19.6029 16.3852 19.4992 16.4659 19.3794L16.6797 19.0606L16.4282 18.7711L16.3964 18.7297C16.3877 18.7157 16.3807 18.701 16.3746 18.6859L16.3744 18.6845L16.3587 18.6354C16.3551 18.6192 16.353 18.6026 16.352 18.5854C16.3511 18.5679 16.3516 18.5508 16.3535 18.5339L16.3636 18.4838C16.3732 18.4504 16.3877 18.4204 16.4082 18.3911L17.2011 17.2593Z" stroke="#2930D1"/>
<path d="M30.3124 26.7896L30.1242 26.5051C29.416 25.4359 29.4112 23.719 30.8699 21.6368C31.7949 20.3163 33.2588 18.9291 34.6872 18.0226C35.4016 17.5693 36.0821 17.2516 36.6621 17.1132C37.2501 16.9729 37.6536 17.034 37.9072 17.2116C38.1607 17.3894 38.3551 17.7476 38.4241 18.3476C38.4922 18.9401 38.4268 19.6887 38.2448 20.5149C37.8808 22.1671 37.0769 24.0167 36.1519 25.3372C34.6931 27.4192 33.0777 28.0018 31.8305 27.7016L31.4994 27.6211L30.7065 28.7529C30.6858 28.7824 30.6624 28.806 30.6352 28.8257L30.6346 28.8265C30.6085 28.8455 30.5794 28.86 30.545 28.871C30.5094 28.8818 30.4741 28.8858 30.4401 28.8846C30.4045 28.8826 30.3737 28.8758 30.3455 28.8648L29.9871 28.7246L29.7599 29.0352C29.6834 29.1394 29.5874 29.267 29.5194 29.37L29.5189 29.3708C29.4202 29.5191 29.3341 29.6732 29.26 29.8321L29.2597 29.8343C29.2237 29.9123 29.1899 29.9924 29.1591 30.075L29.1585 30.0758C29.1441 30.1138 29.1292 30.156 29.1147 30.2013L29.1141 30.2021L29.0705 30.3325L29.069 30.3362C29.0401 30.4256 29.0125 30.5084 28.9828 30.587L28.9819 30.59C28.9442 30.692 28.9191 30.7661 28.8872 30.8443L28.8846 30.8497C28.6167 31.531 28.283 32.1785 27.8831 32.7915L27.882 32.7931C27.6865 33.0955 27.4756 33.3854 27.2507 33.6637C27.3561 33.5215 27.4583 33.3769 27.5563 33.2291L27.8463 32.7658C28.1234 32.2992 28.3634 31.8148 28.5659 31.3132L28.7561 30.805C28.7886 30.7149 28.817 30.6225 28.8398 30.5512L28.9182 30.2878L28.9539 30.1602L28.9542 30.158L28.9955 30.0259L28.9947 30.0254C29.0231 29.9379 29.0556 29.852 29.0909 29.7672L29.0914 29.7664L29.2078 29.5118C29.2494 29.4293 29.2933 29.3481 29.3411 29.2688L29.3419 29.2694C29.4251 29.1332 29.4965 29.0294 29.5772 28.9096L29.791 28.5908L29.5395 28.3014L29.5077 28.26C29.4991 28.2459 29.4921 28.2313 29.4859 28.2161L29.4857 28.2148L29.47 28.1657C29.4664 28.1494 29.4643 28.1329 29.4633 28.1156C29.4624 28.0982 29.4629 28.081 29.4648 28.0642L29.4749 28.014C29.4846 27.9807 29.499 27.9506 29.5196 27.9213L30.3124 26.7896Z" stroke="#2930D1"/>
<path d="M30.3124 12.0982L30.1242 11.8137C29.416 10.7445 29.4112 9.02762 30.8699 6.9454C31.7949 5.62493 33.2588 4.2377 34.6872 3.33119C35.4016 2.87789 36.0821 2.56024 36.6621 2.42183C37.2501 2.28154 37.6536 2.34257 37.9072 2.52022C38.1607 2.698 38.3551 3.0562 38.4241 3.65622C38.4922 4.24865 38.4268 4.99725 38.2448 5.82352C37.8808 7.47573 37.0769 9.32532 36.1519 10.6458C34.6931 12.7278 33.0777 13.3104 31.8305 13.0102L31.4994 12.9297L30.7065 14.0615C30.6858 14.091 30.6624 14.1146 30.6352 14.1343L30.6346 14.1351C30.6085 14.1541 30.5794 14.1686 30.545 14.1796C30.5094 14.1903 30.4741 14.1944 30.4401 14.1932C30.4045 14.1912 30.3737 14.1844 30.3455 14.1734L29.9871 14.0332L29.7599 14.3438C29.6834 14.448 29.5874 14.5756 29.5194 14.6785L29.5189 14.6793C29.4202 14.8277 29.3341 14.9817 29.26 15.1407L29.2597 15.1429C29.2237 15.2208 29.1899 15.301 29.1591 15.3836L29.1585 15.3844C29.1441 15.4224 29.1292 15.4646 29.1147 15.5099L29.1141 15.5107L29.0705 15.6411L29.069 15.6448C29.0401 15.7342 29.0125 15.817 28.9828 15.8956L28.9819 15.8986C28.9442 16.0005 28.9191 16.0746 28.8872 16.1529L28.8846 16.1583C28.6167 16.8396 28.283 17.4871 27.8831 18.1001L27.882 18.1017C27.6865 18.4041 27.4756 18.694 27.2507 18.9723C27.3561 18.8301 27.4583 18.6855 27.5563 18.5377L27.8463 18.0744C28.1234 17.6078 28.3634 17.1234 28.5659 16.6218L28.7561 16.1136C28.7886 16.0235 28.817 15.9311 28.8398 15.8598L28.9182 15.5964L28.9539 15.4688L28.9542 15.4666L28.9955 15.3345L28.9947 15.334C29.0231 15.2465 29.0556 15.1606 29.0909 15.0758L29.0914 15.075L29.2078 14.8204C29.2494 14.7379 29.2933 14.6567 29.3411 14.5774L29.3419 14.578C29.4251 14.4418 29.4965 14.338 29.5772 14.2182L29.791 13.8994L29.5395 13.61L29.5077 13.5686C29.4991 13.5545 29.4921 13.5399 29.4859 13.5247L29.4857 13.5234L29.47 13.4742C29.4664 13.458 29.4643 13.4415 29.4633 13.4242C29.4624 13.4068 29.4629 13.3896 29.4648 13.3728L29.4749 13.3226C29.4846 13.2892 29.499 13.2592 29.5196 13.2299L30.3124 12.0982Z" stroke="#2930D1"/>
</svg>
