<svg width="59" height="66" viewBox="0 0 59 66" fill="none" xmlns="http://www.w3.org/2000/svg">
<rect x="7" width="45" height="45" rx="22.5" fill="white"/>
<path d="M20.5433 25.4664V27.2352L23.1306 28.7486V26.977L20.5433 25.4664ZM20.5433 25.4664V27.2352L23.1306 28.7486V26.977L20.5433 25.4664ZM37.1026 18.894V23.3599C37.1026 23.5274 37.012 23.684 36.8664 23.7691L33.999 25.4418C33.9249 25.4857 33.8425 25.5049 33.7601 25.5049C33.6804 25.5049 33.598 25.4857 33.5239 25.4418C33.3783 25.3594 33.2877 25.2028 33.2877 25.0325V21.1186L29.8627 23.1126V34.9887L40.5305 28.7703V16.8942L37.1026 18.894ZM34.3973 30.5753L31.6067 32.2013C31.5326 32.2452 31.4502 32.2672 31.3705 32.2672C31.2057 32.2672 31.0492 32.1821 30.9613 32.031C30.8294 31.8058 30.9036 31.5146 31.1316 31.3828L33.9193 29.7568C34.1446 29.625 34.4357 29.7019 34.5676 29.9271C34.6994 30.1551 34.6225 30.4435 34.3973 30.5753ZM18.25 16.8946V28.7708L28.9178 34.9892V23.1131L18.25 16.8946ZM24.0754 29.5727C24.0754 29.743 23.9848 29.8995 23.8392 29.9819C23.765 30.0259 23.6854 30.0451 23.603 30.0451C23.5206 30.0451 23.4382 30.0259 23.364 29.9819L19.8319 27.9165C19.6863 27.8313 19.5957 27.6775 19.5957 27.5072V24.6398C19.5957 24.4695 19.6863 24.313 19.8346 24.2306C19.9802 24.1454 20.1615 24.1454 20.3098 24.2306L23.8419 26.296C23.9875 26.3811 24.0754 26.5377 24.0754 26.7053L24.0754 29.5727ZM20.5433 27.2352L23.1306 28.7486V26.977L20.5433 25.4664V27.2352ZM22.161 14.0598L18.7168 16.0676L29.3899 22.2941L32.8313 20.2864L22.161 14.0598ZM34.235 20.5637V24.2084L36.1549 23.0878V19.4459L34.235 20.5637ZM25.0037 12.4008L23.1003 13.5132L33.771 19.7397L35.6826 18.6246L25.0037 12.4008ZM29.3902 9.84375L25.9432 11.8543L36.6219 18.0752L40.0634 16.0674L29.3902 9.84375Z" fill="#FC5C2C"/>
<path d="M5.53307 61.182C4.85174 61.182 4.21707 61.049 3.62907 60.783C3.04574 60.517 2.53707 60.1507 2.10307 59.684C1.66907 59.2127 1.3284 58.6713 1.08107 58.06C0.838404 57.444 0.71707 56.786 0.71707 56.086C0.71707 55.3487 0.847737 54.672 1.10907 54.056C1.37507 53.44 1.73674 52.9057 2.19407 52.453C2.6514 52.0003 3.1694 51.6503 3.74807 51.403C4.3314 51.1557 4.93807 51.032 5.56807 51.032C6.27274 51.032 6.9564 51.1977 7.61907 51.529C8.2864 51.8557 8.8744 52.362 9.38307 53.048L7.85707 53.867C7.5444 53.4843 7.18507 53.1997 6.77907 53.013C6.37774 52.8217 5.96707 52.726 5.54707 52.726C5.1364 52.726 4.74207 52.81 4.36407 52.978C3.99074 53.146 3.65707 53.384 3.36307 53.692C3.07374 53.9953 2.84507 54.3547 2.67707 54.77C2.50907 55.1807 2.42507 55.631 2.42507 56.121C2.42507 56.583 2.50674 57.0193 2.67007 57.43C2.8334 57.836 3.0574 58.193 3.34207 58.501C3.6314 58.8043 3.96507 59.0423 4.34307 59.215C4.72107 59.3877 5.12707 59.474 5.56107 59.474C5.8504 59.474 6.13274 59.4297 6.40807 59.341C6.68807 59.2477 6.9494 59.1147 7.19207 58.942C7.4394 58.7693 7.65874 58.5593 7.85007 58.312C8.04607 58.0647 8.2094 57.7847 8.34007 57.472H6.55507V55.981H10.3491C10.3677 56.695 10.2557 57.3647 10.0131 57.99C9.7704 58.6153 9.4274 59.1683 8.98407 59.649C8.54074 60.1297 8.02507 60.5053 7.43707 60.776C6.84907 61.0467 6.2144 61.182 5.53307 61.182ZM14.4531 61.182C13.8091 61.182 13.2211 61.0163 12.6891 60.685C12.1618 60.3537 11.7394 59.9103 11.4221 59.355C11.1094 58.795 10.9531 58.1767 10.9531 57.5C10.9531 56.9867 11.0441 56.5083 11.2261 56.065C11.4081 55.617 11.6578 55.225 11.9751 54.889C12.2971 54.5483 12.6704 54.2823 13.0951 54.091C13.5198 53.8997 13.9724 53.804 14.4531 53.804C15.0971 53.804 15.6828 53.9697 16.2101 54.301C16.7421 54.6323 17.1644 55.078 17.4771 55.638C17.7944 56.198 17.9531 56.8187 17.9531 57.5C17.9531 58.0087 17.8621 58.4847 17.6801 58.928C17.4981 59.3713 17.2461 59.7633 16.9241 60.104C16.6068 60.44 16.2358 60.7037 15.8111 60.895C15.3911 61.0863 14.9384 61.182 14.4531 61.182ZM14.4531 59.474C14.7938 59.474 15.0994 59.383 15.3701 59.201C15.6408 59.019 15.8531 58.7787 16.0071 58.48C16.1658 58.1813 16.2451 57.8547 16.2451 57.5C16.2451 57.136 16.1634 56.8047 16.0001 56.506C15.8414 56.2027 15.6244 55.9623 15.3491 55.785C15.0784 55.603 14.7798 55.512 14.4531 55.512C14.1171 55.512 13.8138 55.603 13.5431 55.785C13.2724 55.967 13.0578 56.2097 12.8991 56.513C12.7404 56.8163 12.6611 57.1453 12.6611 57.5C12.6611 57.8687 12.7428 58.2023 12.9061 58.501C13.0694 58.7997 13.2864 59.0377 13.5571 59.215C13.8324 59.3877 14.1311 59.474 14.4531 59.474ZM22.2404 61V51.2H25.7404C26.2724 51.2 26.753 51.333 27.1824 51.599C27.6164 51.865 27.9594 52.222 28.2114 52.67C28.4634 53.118 28.5894 53.6103 28.5894 54.147C28.5894 54.6977 28.4587 55.197 28.1974 55.645C27.9407 56.0883 27.5954 56.443 27.1614 56.709C26.7274 56.9703 26.2537 57.101 25.7404 57.101H23.9484V61H22.2404ZM23.9484 55.393H25.5584C25.801 55.393 26.0227 55.3323 26.2234 55.211C26.424 55.0897 26.5827 54.9263 26.6994 54.721C26.8207 54.5157 26.8814 54.287 26.8814 54.035C26.8814 53.7783 26.8207 53.5473 26.6994 53.342C26.5827 53.1367 26.424 52.9733 26.2234 52.852C26.0227 52.7307 25.801 52.67 25.5584 52.67H23.9484V55.393ZM34.5037 54H36.2117V61H34.5037L34.4267 60.132C34.2354 60.4447 33.9811 60.699 33.6637 60.895C33.3511 61.0863 32.9801 61.182 32.5507 61.182C32.0327 61.182 31.5474 61.084 31.0947 60.888C30.6421 60.692 30.2431 60.4213 29.8977 60.076C29.5571 59.7307 29.2887 59.3317 29.0927 58.879C28.9014 58.4263 28.8057 57.941 28.8057 57.423C28.8057 56.9237 28.8967 56.4547 29.0787 56.016C29.2654 55.5773 29.5244 55.1923 29.8557 54.861C30.1871 54.5297 30.5697 54.2707 31.0037 54.084C31.4377 53.8973 31.9044 53.804 32.4037 53.804C32.8657 53.804 33.2787 53.9067 33.6427 54.112C34.0114 54.3173 34.3241 54.5787 34.5807 54.896L34.5037 54ZM32.5087 59.537C32.8727 59.537 33.1947 59.446 33.4747 59.264C33.7547 59.082 33.9741 58.837 34.1327 58.529C34.2914 58.2163 34.3707 57.8733 34.3707 57.5C34.3707 57.122 34.2914 56.779 34.1327 56.471C33.9741 56.1583 33.7524 55.911 33.4677 55.729C33.1877 55.547 32.8681 55.456 32.5087 55.456C32.1494 55.456 31.8204 55.5493 31.5217 55.736C31.2277 55.918 30.9921 56.163 30.8147 56.471C30.6421 56.779 30.5557 57.122 30.5557 57.5C30.5557 57.878 30.6444 58.221 30.8217 58.529C30.9991 58.837 31.2347 59.082 31.5287 59.264C31.8274 59.446 32.1541 59.537 32.5087 59.537ZM37.4486 61L37.4416 54H39.1496L39.1566 54.623C39.3946 54.371 39.6793 54.1727 40.0106 54.028C40.3419 53.8787 40.6989 53.804 41.0816 53.804C41.3383 53.804 41.5949 53.8413 41.8516 53.916L41.1796 55.638C41.0023 55.568 40.8249 55.533 40.6476 55.533C40.3723 55.533 40.1203 55.6007 39.8916 55.736C39.6676 55.8667 39.4879 56.0463 39.3526 56.275C39.2219 56.499 39.1566 56.7487 39.1566 57.024V61H37.4486ZM46.4838 58.893L48.0238 59.726C47.7018 60.1647 47.2981 60.517 46.8128 60.783C46.3275 61.049 45.7978 61.182 45.2238 61.182C44.5798 61.182 43.9918 61.0163 43.4598 60.685C42.9325 60.3537 42.5101 59.9103 42.1928 59.355C41.8801 58.795 41.7238 58.1767 41.7238 57.5C41.7238 56.9867 41.8148 56.5083 41.9968 56.065C42.1788 55.617 42.4285 55.225 42.7458 54.889C43.0678 54.5483 43.4411 54.2823 43.8658 54.091C44.2905 53.8997 44.7431 53.804 45.2238 53.804C45.7978 53.804 46.3275 53.937 46.8128 54.203C47.2981 54.469 47.7018 54.826 48.0238 55.274L46.4838 56.1C46.3205 55.9133 46.1268 55.7687 45.9028 55.666C45.6835 55.5633 45.4571 55.512 45.2238 55.512C44.8878 55.512 44.5845 55.6053 44.3138 55.792C44.0431 55.974 43.8285 56.2167 43.6698 56.52C43.5111 56.8187 43.4318 57.1453 43.4318 57.5C43.4318 57.85 43.5111 58.1767 43.6698 58.48C43.8285 58.7787 44.0431 59.019 44.3138 59.201C44.5845 59.383 44.8878 59.474 45.2238 59.474C45.4665 59.474 45.6975 59.4227 45.9168 59.32C46.1361 59.2127 46.3251 59.0703 46.4838 58.893ZM51.9768 61.182C51.3328 61.182 50.7448 61.0163 50.2128 60.685C49.6854 60.3537 49.2631 59.908 48.9458 59.348C48.6331 58.788 48.4768 58.1697 48.4768 57.493C48.4768 56.9843 48.5678 56.5083 48.7498 56.065C48.9318 55.617 49.1814 55.225 49.4988 54.889C49.8208 54.5483 50.1941 54.2823 50.6188 54.091C51.0434 53.8997 51.4961 53.804 51.9768 53.804C52.5228 53.804 53.0221 53.9207 53.4748 54.154C53.9321 54.3827 54.3194 54.6977 54.6368 55.099C54.9541 55.5003 55.1851 55.9577 55.3298 56.471C55.4744 56.9843 55.5071 57.521 55.4278 58.081H50.3108C50.3761 58.3423 50.4834 58.578 50.6328 58.788C50.7821 58.9933 50.9711 59.159 51.1998 59.285C51.4284 59.4063 51.6874 59.4693 51.9768 59.474C52.2754 59.4787 52.5461 59.4087 52.7888 59.264C53.0361 59.1147 53.2414 58.914 53.4048 58.662L55.1478 59.068C54.8631 59.6887 54.4384 60.1973 53.8738 60.594C53.3091 60.986 52.6768 61.182 51.9768 61.182ZM50.2548 56.8H53.6988C53.6474 56.52 53.5378 56.268 53.3698 56.044C53.2064 55.8153 53.0034 55.6333 52.7608 55.498C52.5181 55.3627 52.2568 55.295 51.9768 55.295C51.6968 55.295 51.4378 55.3627 51.1998 55.498C50.9618 55.6287 50.7588 55.8083 50.5908 56.037C50.4274 56.261 50.3154 56.5153 50.2548 56.8ZM56.2923 61V50.5H58.0003V61H56.2923Z" fill="white"/>
</svg>
