<svg width="68" height="68" viewBox="0 0 68 68" fill="none" xmlns="http://www.w3.org/2000/svg">
<rect width="68" height="68" rx="24" fill="#3A3E90" fill-opacity="0.1"/>
<rect x="18" y="18" width="32" height="32" rx="16" fill="white"/>
<path d="M38.582 34.4987C38.582 35.005 38.9924 35.4154 39.4987 35.4154C40.005 35.4154 40.4154 35.005 40.4154 34.4987C40.4154 33.9924 40.005 33.582 39.4987 33.582C38.9924 33.582 38.582 33.9924 38.582 34.4987Z" stroke="#404040" stroke-width="2" stroke-linecap="round" stroke-linejoin="round"/>
<path d="M33.082 34.4987C33.082 35.005 33.4924 35.4154 33.9987 35.4154C34.505 35.4154 34.9154 35.005 34.9154 34.4987C34.9154 33.9924 34.505 33.582 33.9987 33.582C33.4924 33.582 33.082 33.9924 33.082 34.4987Z" stroke="#404040" stroke-width="2" stroke-linecap="round" stroke-linejoin="round"/>
<path d="M27.582 34.4987C27.582 35.005 27.9924 35.4154 28.4987 35.4154C29.005 35.4154 29.4154 35.005 29.4154 34.4987C29.4154 33.9924 29.005 33.582 28.4987 33.582C27.9924 33.582 27.582 33.9924 27.582 34.4987Z" stroke="#404040" stroke-width="2" stroke-linecap="round" stroke-linejoin="round"/>
</svg>
