<svg width="16" height="16" viewBox="0 0 16 16" fill="none" xmlns="http://www.w3.org/2000/svg">
<path d="M8 1.33203V5.9987L9.33333 4.66536" stroke="#404040" stroke-linecap="round" stroke-linejoin="round"/>
<path d="M7.99935 6.0013L6.66602 4.66797" stroke="#404040" stroke-linecap="round" stroke-linejoin="round"/>
<path d="M1.32031 8.66797H4.26031C4.51365 8.66797 4.74031 8.80797 4.85365 9.03464L5.63365 10.5946C5.86031 11.048 6.32031 11.3346 6.82698 11.3346H9.18031C9.68698 11.3346 10.147 11.048 10.3736 10.5946L11.1536 9.03464C11.267 8.80797 11.5003 8.66797 11.747 8.66797H14.6536" stroke="#404040" stroke-linecap="round" stroke-linejoin="round"/>
<path d="M4.66732 2.75391C2.30732 3.10057 1.33398 4.48724 1.33398 7.33391V10.0006C1.33398 13.3339 2.66732 14.6672 6.00065 14.6672H10.0007C13.334 14.6672 14.6673 13.3339 14.6673 10.0006V7.33391C14.6673 4.48724 13.694 3.10057 11.334 2.75391" stroke="#404040" stroke-linecap="round" stroke-linejoin="round"/>
</svg>
