<svg width="32" height="32" viewBox="0 0 32 32" fill="none" xmlns="http://www.w3.org/2000/svg">
<rect width="32" height="32" rx="16" fill="white"/>
<path d="M20.582 16.4987C20.582 17.005 20.9924 17.4154 21.4987 17.4154C22.005 17.4154 22.4154 17.005 22.4154 16.4987C22.4154 15.9924 22.005 15.582 21.4987 15.582C20.9924 15.582 20.582 15.9924 20.582 16.4987Z" stroke="#404040" stroke-width="2" stroke-linecap="round" stroke-linejoin="round"/>
<path d="M15.082 16.4987C15.082 17.005 15.4924 17.4154 15.9987 17.4154C16.505 17.4154 16.9154 17.005 16.9154 16.4987C16.9154 15.9924 16.505 15.582 15.9987 15.582C15.4924 15.582 15.082 15.9924 15.082 16.4987Z" stroke="#404040" stroke-width="2" stroke-linecap="round" stroke-linejoin="round"/>
<path d="M9.58203 16.4987C9.58203 17.005 9.99244 17.4154 10.4987 17.4154C11.005 17.4154 11.4154 17.005 11.4154 16.4987C11.4154 15.9924 11.005 15.582 10.4987 15.582C9.99244 15.582 9.58203 15.9924 9.58203 16.4987Z" stroke="#404040" stroke-width="2" stroke-linecap="round" stroke-linejoin="round"/>
</svg>
