<svg width="37" height="37" viewBox="0 0 37 37" fill="none" xmlns="http://www.w3.org/2000/svg">
<rect x="0.375" y="0.375" width="35.75" height="35.75" rx="17.875" stroke="#45B369" stroke-width="0.75"/>
<circle cx="18.25" cy="18.25" r="15.75" fill="#ECF7F0"/>
<path d="M16.5807 24.9001H16.4636C16.2097 24.8823 15.9615 24.8114 15.737 24.6912C15.5138 24.5697 15.3186 24.4045 15.1666 24.2025L10.1921 17.5963C9.91595 17.2277 9.8002 16.769 9.86993 16.3171C9.93826 15.8666 10.1879 15.4598 10.5616 15.1881C10.9382 14.9178 11.4068 14.8045 11.867 14.8727C12.3286 14.9396 12.7442 15.1826 13.0217 15.5485L16.7564 20.5096C16.7578 20.511 16.7578 20.511 16.7592 20.511C16.7606 20.5124 16.7606 20.5124 16.762 20.5124C16.7634 20.5124 16.7634 20.5124 16.7648 20.5124C16.7662 20.511 16.7662 20.511 16.7662 20.5096L25.0249 12.126C25.3485 11.7983 25.7934 11.6086 26.2592 11.6004C26.7249 11.5922 27.1768 11.7656 27.5129 12.0823C27.8476 12.399 28.0414 12.8345 28.0498 13.2905C28.0582 13.7478 27.8811 14.1888 27.5575 14.5164L17.8428 24.38C17.6782 24.5438 17.483 24.6748 17.2654 24.7636C17.0493 24.8537 16.8164 24.9001 16.5807 24.9001Z" fill="#45B369"/>
</svg>
