<svg width="52" height="52" viewBox="0 0 52 52" fill="none" xmlns="http://www.w3.org/2000/svg">
<path d="M36.4003 34.1471C40.2933 33.7606 43.3337 30.4761 43.3337 26.4815C43.3337 21.8485 39.0787 18.2043 34.5279 18.856C34.5205 18.8571 34.5132 18.8533 34.5098 18.8466C32.7693 15.3795 29.1812 13 25.0374 13C19.5172 13 14.9833 17.2226 14.4894 22.6139C14.4886 22.6228 14.481 22.6298 14.472 22.6298C11.3139 22.627 8.66699 25.2383 8.66699 28.4074C8.66699 31.5984 11.2538 34.1852 14.4448 34.1852H15.6003" stroke="#3A3E90" stroke-width="2.6" stroke-linecap="round"/>
<path d="M21.667 31.2005L25.3875 27.48C25.7259 27.1416 26.2747 27.1416 26.6131 27.48L30.3336 31.2005" stroke="#3A3E90" stroke-width="2.6" stroke-linecap="round"/>
<path d="M26 28.602L26 39.002" stroke="#3A3E90" stroke-width="2.6" stroke-linecap="round"/>
</svg>
