<svg width="18" height="18" viewBox="0 0 18 18" fill="none" xmlns="http://www.w3.org/2000/svg">
<path d="M13.5998 12.6036C15.3217 12.4327 16.6665 10.9799 16.6665 9.21302C16.6665 7.16378 14.7845 5.55193 12.7716 5.84019C12.7683 5.84066 12.7651 5.83898 12.7636 5.83603C11.9937 4.30247 10.4067 3.25 8.57382 3.25C6.13219 3.25 4.12678 5.11769 3.90832 7.50233C3.90796 7.5063 3.90459 7.50936 3.90061 7.50935C2.50377 7.50814 1.33301 8.66314 1.33301 10.0649C1.33301 11.4763 2.47718 12.6205 3.88859 12.6205H4.3997" stroke="white" stroke-width="1.15001" stroke-linecap="round"/>
<path d="M7.08301 11.3005L8.72862 9.65485C8.87832 9.50515 9.12104 9.50515 9.27074 9.65485L10.9164 11.3005" stroke="white" stroke-width="1.15001" stroke-linecap="round"/>
<path d="M9 10.1509L9 14.751" stroke="white" stroke-width="1.15001" stroke-linecap="round"/>
</svg>
