<svg width="82" height="82" viewBox="0 0 82 82" fill="none" xmlns="http://www.w3.org/2000/svg">
<path d="M57.4003 53.8474C63.5392 53.2379 68.3337 48.0585 68.3337 41.7593C68.3337 34.4533 61.6239 28.7068 54.4477 29.7345C54.436 29.7362 54.4244 29.7302 54.4192 29.7197C51.6745 24.2522 46.0163 20.5 39.4818 20.5C30.777 20.5 23.6273 27.1586 22.8485 35.6604C22.8472 35.6745 22.8352 35.6854 22.821 35.6854C17.841 35.6811 13.667 39.7989 13.667 44.7963C13.667 49.8282 17.7462 53.9074 22.7781 53.9074H24.6003" stroke="#3A3E90" stroke-width="4.1" stroke-linecap="round"/>
<path d="M34.167 49.1995L40.0339 43.3326C40.5676 42.7989 41.4329 42.7989 41.9667 43.3326L47.8336 49.1995" stroke="#3A3E90" stroke-width="4.1" stroke-linecap="round"/>
<path d="M41 45.1L41 61.5" stroke="#3A3E90" stroke-width="4.1" stroke-linecap="round"/>
</svg>
