<svg width="20" height="20" viewBox="0 0 20 20" fill="none" xmlns="http://www.w3.org/2000/svg">
<path d="M17.1259 14.5364C17.1259 14.8802 16.9894 15.2099 16.7463 15.453C16.5031 15.6961 16.1734 15.8327 15.8296 15.8327H4.16296C3.81917 15.8327 3.48945 15.6961 3.24635 15.453C3.00324 15.2099 2.86667 14.8802 2.86667 14.5364V7.40676C2.86667 7.06296 3.00324 6.73324 3.24635 6.49014C3.48945 6.24703 3.81917 6.11046 4.16296 6.11046H6.75556L8.05185 4.16602H11.9407L13.237 6.11046H15.8296C16.1734 6.11046 16.5031 6.24703 16.7463 6.49014C16.9894 6.73324 17.1259 7.06296 17.1259 7.40676V14.5364Z" stroke="#9CA3AF" stroke-linecap="round" stroke-linejoin="round"/>
<path d="M9.99625 13.3707C11.4281 13.3707 12.5888 12.21 12.5888 10.7781C12.5888 9.34629 11.4281 8.18555 9.99625 8.18555C8.5644 8.18555 7.40366 9.34629 7.40366 10.7781C7.40366 12.21 8.5644 13.3707 9.99625 13.3707Z" stroke="#9CA3AF" stroke-linecap="round" stroke-linejoin="round"/>
</svg>
