<svg width="20" height="20" viewBox="0 0 20 20" fill="none" xmlns="http://www.w3.org/2000/svg">
<path d="M15.4851 6.01572H15.7136C15.8205 6.01572 15.9231 5.97325 15.9987 5.89763C16.0743 5.82202 16.1168 5.71947 16.1168 5.61254V4.82861C16.1168 4.72168 16.0743 4.61913 15.9987 4.54352C15.9231 4.46791 15.8205 4.42543 15.7136 4.42543H12.9401C12.8688 4.42543 12.8004 4.45375 12.75 4.50416C12.6996 4.55456 12.6713 4.62293 12.6713 4.69422V4.73387H11.0826C11.0076 4.73397 10.9357 4.76383 10.8827 4.81689C10.8296 4.86995 10.7998 4.94188 10.7997 5.0169V5.42425C10.7998 5.49927 10.8296 5.5712 10.8827 5.62426C10.9357 5.67732 11.0076 5.70718 11.0826 5.70729H12.6713V5.74693C12.6713 5.81822 12.6996 5.88659 12.75 5.937C12.8004 5.9874 12.8688 6.01572 12.9401 6.01572H13.0879V11.5763C13.0879 11.8435 12.9818 12.0998 12.7929 12.2888C12.6041 12.4778 12.3479 12.5841 12.0806 12.5843H9.90506C9.63789 12.584 9.38176 12.4777 9.19293 12.2887C9.00411 12.0997 8.89804 11.8435 8.89804 11.5763V8.03823C8.8979 7.96319 8.86801 7.89126 8.81494 7.8382C8.76186 7.78515 8.68991 7.7553 8.61487 7.7552H6.69034V4.01969C6.68416 3.83225 6.60397 3.65489 6.46733 3.52643C6.33068 3.39797 6.14871 3.32888 5.96124 3.33428H2.39575C2.20828 3.32888 2.02631 3.39797 1.88967 3.52643C1.75302 3.65489 1.67284 3.83225 1.66666 4.01969V7.4438C1.66683 7.59762 1.72802 7.74509 1.83678 7.85386C1.94555 7.96262 2.09302 8.02381 2.24684 8.02399H3.61928V8.8653C3.61939 8.94033 3.64924 9.01226 3.7023 9.06532C3.75535 9.11837 3.82728 9.14823 3.90231 9.14833H5.03755C4.35798 10.2052 3.9354 11.4065 3.80367 12.656C3.7956 12.7119 3.79359 12.7253 3.66175 12.7253H3.34068C3.18921 12.7254 3.044 12.7857 2.9369 12.8928C2.82979 12.9999 2.76954 13.1451 2.76937 13.2966V14.0184C2.76954 14.1699 2.82979 14.3151 2.9369 14.4222C3.044 14.5293 3.18921 14.5895 3.34068 14.5897H4.46489C4.4618 14.6343 4.45817 14.6787 4.45817 14.7241C4.45817 14.9801 4.5086 15.2336 4.60657 15.4702C4.70454 15.7067 4.84815 15.9216 5.02918 16.1026C5.21021 16.2837 5.42512 16.4273 5.66165 16.5252C5.89818 16.6232 6.15169 16.6736 6.4077 16.6736C6.66372 16.6736 6.91723 16.6232 7.15376 16.5252C7.39028 16.4273 7.6052 16.2837 7.78623 16.1026C7.96726 15.9216 8.11086 15.7067 8.20883 15.4702C8.30681 15.2336 8.35723 14.9801 8.35723 14.7241C8.35723 14.6693 8.35347 14.6155 8.34904 14.5619H13.1566C13.1522 14.6168 13.15 14.6716 13.1499 14.7261C13.1511 15.6266 13.7569 16.6211 15.0885 16.6736H15.1069C15.375 16.6707 15.6396 16.6127 15.8842 16.5031C16.1289 16.3935 16.3483 16.2347 16.5289 16.0365C16.7095 15.8384 16.8473 15.6052 16.9338 15.3515C17.0203 15.0978 17.0537 14.8289 17.0317 14.5618H17.6238C17.7267 14.5635 17.8287 14.5416 17.9219 14.4978C18.0151 14.454 18.097 14.3894 18.1613 14.309C18.2374 14.2077 18.2901 14.0909 18.3157 13.9668C18.3412 13.8428 18.339 13.7146 18.3092 13.5916C17.8209 10.7625 16.8207 8.08487 15.4851 6.01572ZM13.3562 8.64986H16.5761C16.6941 8.92286 16.8074 9.20093 16.9158 9.48405H13.3562V8.64986ZM15.8479 4.82835V5.61227C15.8479 5.64791 15.8337 5.6821 15.8085 5.7073C15.7833 5.73251 15.7491 5.74667 15.7135 5.74667H15.1559V4.69422H15.7135C15.7491 4.69422 15.7833 4.70838 15.8085 4.73358C15.8337 4.75879 15.8479 4.79297 15.8479 4.82861V4.82835ZM11.0826 5.4385C11.0789 5.43846 11.0753 5.43695 11.0726 5.43428C11.07 5.43161 11.0685 5.42801 11.0685 5.42425V5.0169C11.0685 5.01504 11.0688 5.01319 11.0696 5.01146C11.0703 5.00973 11.0713 5.00816 11.0726 5.00684C11.0739 5.00551 11.0755 5.00446 11.0772 5.00374C11.0789 5.00303 11.0808 5.00266 11.0826 5.00266H12.6713V5.4385H11.0826ZM12.9401 4.69422H14.8871V5.74693H12.9401V4.69422ZM15.165 6.01572C15.6588 6.76809 16.091 7.55911 16.4573 8.38107H13.3562V6.01572H15.165ZM4.30778 11.4419C4.39086 11.144 4.4906 10.8509 4.60654 10.5642H8.62925V11.4419H4.30778ZM3.60329 3.6032H4.75371V5.27816L4.32606 4.8735C4.31883 4.86664 4.31085 4.86059 4.30227 4.85549C4.26449 4.83415 4.22183 4.82294 4.17843 4.82294C4.13503 4.82294 4.09237 4.83415 4.05458 4.85549C4.04601 4.86059 4.03803 4.86664 4.0308 4.8735L3.60329 5.27816V3.6032ZM1.93545 7.4438V4.01969C1.94164 3.90355 1.99351 3.79457 2.07974 3.71652C2.16597 3.63847 2.27957 3.59769 2.39575 3.60307H3.3345V5.43084C3.33495 5.46187 3.34372 5.49222 3.35989 5.51872C3.37606 5.54521 3.39903 5.56689 3.42642 5.58149C3.46408 5.60188 3.50629 5.61239 3.54912 5.61204C3.59194 5.61169 3.63397 5.60048 3.67129 5.57948C3.67982 5.57443 3.68776 5.56843 3.69494 5.5616L4.17876 5.10386L4.66259 5.5616C4.66975 5.56846 4.67768 5.57446 4.68624 5.57948C4.72394 5.60121 4.76677 5.61244 4.81029 5.612C4.85255 5.61236 4.8942 5.60186 4.93124 5.58149C4.95863 5.56689 4.98161 5.54521 4.99777 5.51872C5.01394 5.49222 5.02271 5.46187 5.02317 5.43084V3.60307H5.96192C6.0781 3.59769 6.1917 3.63847 6.27793 3.71652C6.36416 3.79457 6.41603 3.90355 6.42222 4.01969V7.75587H2.24684C2.16417 7.75576 2.08493 7.72283 2.02653 7.66431C1.96814 7.60579 1.93537 7.52647 1.93545 7.4438ZM3.88807 8.8653V8.02399H8.61487C8.61675 8.02397 8.61862 8.02432 8.62036 8.02503C8.62211 8.02574 8.62369 8.02679 8.62503 8.02811C8.62637 8.02943 8.62743 8.03101 8.62815 8.03275C8.62888 8.03449 8.62925 8.03635 8.62925 8.03823V8.87954H3.90231C3.90044 8.87956 3.89858 8.8792 3.89684 8.87849C3.89511 8.87779 3.89353 8.87674 3.8922 8.87541C3.89087 8.87408 3.88983 8.87251 3.88912 8.87077C3.88841 8.86903 3.88805 8.86717 3.88807 8.8653ZM8.62925 9.14833V10.2959H4.72159C4.89916 9.89434 5.11373 9.51015 5.36251 9.14833H8.62925ZM6.40757 16.4044C6.07512 16.4044 5.75013 16.3059 5.47371 16.1212C5.19729 15.9365 4.98185 15.6739 4.85463 15.3668C4.72741 15.0596 4.69413 14.7217 4.759 14.3956C4.82387 14.0695 4.98397 13.77 5.21906 13.535C5.45415 13.2999 5.75366 13.1398 6.07973 13.075C6.40579 13.0101 6.74377 13.0434 7.05091 13.1707C7.35804 13.2979 7.62055 13.5134 7.80523 13.7898C7.98991 14.0663 8.08847 14.3912 8.08844 14.7237C8.08795 15.1693 7.91069 15.5966 7.59557 15.9117C7.28045 16.2268 6.8532 16.404 6.40757 16.4044ZM16.3712 15.8085C16.2171 15.9936 16.0244 16.1429 15.8066 16.2458C15.5889 16.3488 15.3513 16.403 15.1104 16.4047H15.0953C13.9447 16.3587 13.4196 15.502 13.4187 14.7248C13.4177 13.9476 13.942 13.0912 15.0899 13.0422C15.4885 13.0405 15.8745 13.1813 16.1785 13.4391C16.4826 13.6969 16.6845 14.0548 16.748 14.4483V14.4499C16.7892 14.6902 16.7767 14.9365 16.7116 15.1714C16.6464 15.4063 16.5302 15.6238 16.3712 15.8085ZM17.952 14.1407C17.9127 14.1897 17.8627 14.229 17.8057 14.2553C17.7488 14.2817 17.6865 14.2945 17.6238 14.2927H16.9895C16.8932 13.86 16.6516 13.4734 16.305 13.1971C15.9584 12.9208 15.5276 12.7715 15.0844 12.774C13.9658 12.8217 13.362 13.5326 13.198 14.2927H8.30764C8.20941 13.8593 7.96598 13.4724 7.61771 13.1964C7.26945 12.9203 6.83729 12.7715 6.39288 12.7748C5.94847 12.778 5.51853 12.9331 5.17434 13.2142C4.83015 13.4954 4.5924 13.8857 4.50051 14.3205H3.34068C3.26048 14.3204 3.18359 14.2885 3.12688 14.2318C3.07017 14.1751 3.03826 14.0982 3.03816 14.018V13.2966C3.03826 13.2164 3.07017 13.1395 3.12688 13.0828C3.18359 13.0261 3.26048 12.9941 3.34068 12.994H3.66175C3.77074 12.994 4.02623 12.994 4.07044 12.6882C4.10291 12.3588 4.15873 12.0322 4.23749 11.7107H8.63637C8.66969 12.0241 8.81767 12.3141 9.05186 12.5249C9.28605 12.7358 9.58992 12.8527 9.90506 12.8531H12.0809C12.4193 12.8527 12.7436 12.718 12.9828 12.4786C13.2219 12.2392 13.3562 11.9147 13.3562 11.5763V9.75311H17.0145C17.4731 11.0168 17.8183 12.3187 18.046 13.6436C18.068 13.7282 18.0709 13.8167 18.0546 13.9027C18.0384 13.9886 18.0033 14.0699 17.952 14.1407Z" fill="#9CA3AF" stroke="#9CA3AF" stroke-width="0.3"/>
<path d="M6.40759 13.8145C6.22775 13.8145 6.05196 13.8678 5.90244 13.9678C5.75292 14.0677 5.6364 14.2097 5.56759 14.3759C5.49879 14.542 5.4808 14.7249 5.5159 14.9012C5.551 15.0776 5.63762 15.2396 5.76479 15.3668C5.89197 15.494 6.05399 15.5805 6.23038 15.6156C6.40677 15.6507 6.58959 15.6327 6.75574 15.5639C6.92189 15.495 7.0639 15.3785 7.16381 15.2289C7.26372 15.0794 7.31704 14.9036 7.31704 14.7238C7.31679 14.4827 7.22089 14.2515 7.05039 14.081C6.87988 13.9105 6.64871 13.8147 6.40759 13.8145ZM6.40759 15.3642C6.28091 15.3641 6.15708 15.3265 6.05176 15.2561C5.94644 15.1857 5.86436 15.0857 5.81591 14.9686C5.76745 14.8516 5.7548 14.7228 5.77954 14.5985C5.80428 14.4743 5.86531 14.3602 5.9549 14.2706C6.0445 14.1811 6.15864 14.1201 6.2829 14.0954C6.40715 14.0707 6.53594 14.0834 6.65297 14.1319C6.77 14.1804 6.87002 14.2625 6.94038 14.3679C7.01074 14.4732 7.04828 14.5971 7.04825 14.7238C7.04808 14.8936 6.98051 15.0564 6.8604 15.1765C6.74028 15.2966 6.57743 15.3641 6.40759 15.3642Z" fill="#9CA3AF"/>
<path d="M15.0957 13.8145C14.9159 13.8145 14.7401 13.8678 14.5906 13.9677C14.441 14.0676 14.3245 14.2096 14.2556 14.3758C14.1868 14.5419 14.1688 14.7248 14.2039 14.9012C14.239 15.0776 14.3256 15.2396 14.4528 15.3668C14.5799 15.4939 14.742 15.5805 14.9183 15.6156C15.0947 15.6507 15.2776 15.6327 15.4437 15.5639C15.6099 15.495 15.7519 15.3785 15.8518 15.229C15.9517 15.0794 16.0051 14.9036 16.0051 14.7238C16.0048 14.4827 15.9089 14.2515 15.7385 14.0811C15.568 13.9106 15.3368 13.8147 15.0957 13.8145ZM15.0957 15.3642C14.9691 15.3642 14.8452 15.3266 14.7399 15.2562C14.6345 15.1858 14.5524 15.0858 14.504 14.9687C14.4555 14.8517 14.4428 14.7229 14.4675 14.5986C14.4923 14.4744 14.5533 14.3602 14.6429 14.2707C14.7325 14.1811 14.8466 14.1201 14.9709 14.0954C15.0951 14.0707 15.2239 14.0834 15.341 14.1319C15.458 14.1804 15.558 14.2625 15.6284 14.3679C15.6988 14.4732 15.7363 14.5971 15.7363 14.7238C15.7361 14.8936 15.6685 15.0564 15.5484 15.1764C15.4283 15.2965 15.2655 15.364 15.0957 15.3642Z" fill="#9CA3AF"/>
<path d="M4.94155 6.79223H5.85221C5.88786 6.79223 5.92204 6.77807 5.94725 6.75286C5.97245 6.72766 5.98661 6.69348 5.98661 6.65783C5.98661 6.62219 5.97245 6.58801 5.94725 6.5628C5.92204 6.5376 5.88786 6.52344 5.85221 6.52344H4.94155C4.90591 6.52344 4.87173 6.5376 4.84652 6.5628C4.82132 6.58801 4.80716 6.62219 4.80716 6.65783C4.80716 6.69348 4.82132 6.72766 4.84652 6.75286C4.87173 6.77807 4.90591 6.79223 4.94155 6.79223Z" fill="#9CA3AF"/>
<path d="M4.94155 7.37621H5.85221C5.88786 7.37621 5.92204 7.36205 5.94725 7.33685C5.97245 7.31164 5.98661 7.27746 5.98661 7.24182C5.98661 7.20617 5.97245 7.17199 5.94725 7.14679C5.92204 7.12158 5.88786 7.10742 5.85221 7.10742H4.94155C4.90591 7.10742 4.87173 7.12158 4.84652 7.14679C4.82132 7.17199 4.80716 7.20617 4.80716 7.24182C4.80716 7.27746 4.82132 7.31164 4.84652 7.33685C4.87173 7.36205 4.90591 7.37621 4.94155 7.37621Z" fill="#9CA3AF"/>
</svg>
