<svg width="40" height="34" viewBox="0 0 40 34" fill="none" xmlns="http://www.w3.org/2000/svg">
<path d="M2.01497 13.8123C1.77983 14.3361 1.16368 14.5851 0.628211 14.3499C0.0909865 14.1146 -0.144123 13.4843 0.0909865 12.9623C3.5219 5.15344 11.2832 0 19.9503 0C28.5388 0 36.2072 5.02507 39.7086 12.7271C39.9592 13.2509 39.7223 13.8794 39.1954 14.1147C38.6582 14.3654 38.0438 14.1284 37.7932 13.5909C34.6335 6.64944 27.71 2.11413 19.9506 2.11413C12.1104 2.11413 5.12311 6.74207 2.01497 13.8123ZM8.65174 23.0878H10.1878V23.7593H8.65174V23.0878ZM39.995 28.2984H33.835V23.6941H36.2498L40 27.7848V28.2983L39.995 28.2984ZM35.7867 30.5378C36.7444 30.5378 37.5167 31.3106 37.5167 32.2689C37.5167 33.2272 36.7444 34 35.7867 34C34.8289 34 34.0429 33.2272 34.0429 32.2689C34.0429 31.3106 34.8289 30.5378 35.7867 30.5378ZM21.615 30.5378C22.5727 30.5378 23.3451 31.3106 23.3451 32.2689C23.3451 33.2272 22.5727 34 21.615 34C20.6573 34 19.885 33.2272 19.885 32.2689C19.885 31.3106 20.6573 30.5378 21.615 30.5378ZM17.3552 20.0705H31.369V32.2551H24.5244C24.5107 30.6408 23.2149 29.3579 21.6153 29.3579C20.002 29.3579 18.7061 30.6442 18.6924 32.2551H17.3554L17.3552 20.0705ZM32.5496 23.6941H32.6423V29.478H34.9233C33.7442 29.8438 32.8792 30.9446 32.8654 32.26H32.5514L32.5496 23.6941ZM36.6413 29.478H39.9984V32.26H38.6992C38.6855 30.9446 37.8307 29.8437 36.6413 29.478ZM8.43868 27.2059H10.2889V28.8065C10.2889 29.1345 10.5669 29.4075 10.8896 29.4075H12.8976C13.2255 29.4075 13.4898 29.1293 13.4898 28.8065V27.2059H15.3537V33.0052L8.43882 33.0035L8.43868 27.2059ZM11.4817 27.2059H12.309V28.214H11.4817V27.2059ZM8.65152 16.6221H10.1876V18.0887C10.1876 18.4167 10.4519 18.6812 10.7798 18.6812H12.5236C12.8514 18.6812 13.1157 18.4167 13.1157 18.0887V16.6221H14.6518V21.6625H8.65169L8.65152 16.6221ZM11.9262 16.7509H11.3615V17.5013H11.9262V16.7509ZM1.28323 24.9374H3.48525V26.9037C3.48525 27.2317 3.74956 27.4962 4.0774 27.4962H6.37213C6.69994 27.4962 6.96427 27.2318 6.96427 26.9037V24.9374H9.15258V26.0107H7.25092V31.5457L1.28332 31.5475L1.28323 24.9374ZM5.77805 24.9666H4.66414V26.3181H5.77805V24.9666ZM10.3383 24.7674C10.4447 24.8876 10.6026 24.9666 10.7726 24.9666H12.5163C12.8442 24.9666 13.1085 24.7021 13.1085 24.3741V23.0878H14.6446V26.0124H10.3435V24.7673L10.3383 24.7674ZM11.3612 23.0878H11.9259V23.7816H11.3612V23.0878ZM36.3643 13.3555V22.5004H33.8345V11.7944C32.5764 10.0358 30.9906 8.51256 29.1679 7.34655C23.5435 3.72811 16.2542 3.73673 10.6456 7.39807C8.80912 8.5916 7.22324 10.1372 5.96535 11.9387L5.96363 23.7575H3.4338V13.5631C4.89951 10.5973 7.14274 8.07951 9.90932 6.26952C15.9679 2.32135 23.8305 2.29387 29.9027 6.20426C32.6539 7.97653 34.8832 10.4582 36.3643 13.3555Z" fill="#FC5C2C"/>
</svg>
